G75*
%MOIN*%
%OFA0B0*%
%FSLAX25Y25*%
%IPPOS*%
%LPD*%
%AMOC8*
5,1,8,0,0,1.08239X$1,22.5*
%
%ADD10C,0.00000*%
%ADD11C,0.00300*%
%ADD12C,0.00600*%
%ADD13C,0.00200*%
%ADD14C,0.00500*%
%ADD15C,0.00800*%
%ADD16R,0.05984X0.01930*%
%ADD17C,0.00400*%
%ADD18R,0.03400X0.03000*%
%ADD19R,0.01800X0.03000*%
%ADD20R,0.03000X0.01800*%
%ADD21C,0.02200*%
%ADD22C,0.01000*%
%ADD23C,0.00591*%
%ADD24C,0.00100*%
D10*
X0002097Y0013311D02*
X0002097Y0074335D01*
X0002099Y0074459D01*
X0002105Y0074582D01*
X0002114Y0074706D01*
X0002128Y0074828D01*
X0002145Y0074951D01*
X0002167Y0075073D01*
X0002192Y0075194D01*
X0002221Y0075314D01*
X0002253Y0075433D01*
X0002290Y0075552D01*
X0002330Y0075669D01*
X0002373Y0075784D01*
X0002421Y0075899D01*
X0002472Y0076011D01*
X0002526Y0076122D01*
X0002584Y0076232D01*
X0002645Y0076339D01*
X0002710Y0076445D01*
X0002778Y0076548D01*
X0002849Y0076649D01*
X0002923Y0076748D01*
X0003000Y0076845D01*
X0003081Y0076939D01*
X0003164Y0077030D01*
X0003250Y0077119D01*
X0003339Y0077205D01*
X0003430Y0077288D01*
X0003524Y0077369D01*
X0003621Y0077446D01*
X0003720Y0077520D01*
X0003821Y0077591D01*
X0003924Y0077659D01*
X0004030Y0077724D01*
X0004137Y0077785D01*
X0004247Y0077843D01*
X0004358Y0077897D01*
X0004470Y0077948D01*
X0004585Y0077996D01*
X0004700Y0078039D01*
X0004817Y0078079D01*
X0004936Y0078116D01*
X0005055Y0078148D01*
X0005175Y0078177D01*
X0005296Y0078202D01*
X0005418Y0078224D01*
X0005541Y0078241D01*
X0005663Y0078255D01*
X0005787Y0078264D01*
X0005910Y0078270D01*
X0006034Y0078272D01*
X0017845Y0078272D01*
X0017969Y0078274D01*
X0018092Y0078280D01*
X0018216Y0078289D01*
X0018338Y0078303D01*
X0018461Y0078320D01*
X0018583Y0078342D01*
X0018704Y0078367D01*
X0018824Y0078396D01*
X0018943Y0078428D01*
X0019062Y0078465D01*
X0019179Y0078505D01*
X0019294Y0078548D01*
X0019409Y0078596D01*
X0019521Y0078647D01*
X0019632Y0078701D01*
X0019742Y0078759D01*
X0019849Y0078820D01*
X0019955Y0078885D01*
X0020058Y0078953D01*
X0020159Y0079024D01*
X0020258Y0079098D01*
X0020355Y0079175D01*
X0020449Y0079256D01*
X0020540Y0079339D01*
X0020629Y0079425D01*
X0020715Y0079514D01*
X0020798Y0079605D01*
X0020879Y0079699D01*
X0020956Y0079796D01*
X0021030Y0079895D01*
X0021101Y0079996D01*
X0021169Y0080099D01*
X0021234Y0080205D01*
X0021295Y0080312D01*
X0021353Y0080422D01*
X0021407Y0080533D01*
X0021458Y0080645D01*
X0021506Y0080760D01*
X0021549Y0080875D01*
X0021589Y0080992D01*
X0021626Y0081111D01*
X0021658Y0081230D01*
X0021687Y0081350D01*
X0021712Y0081471D01*
X0021734Y0081593D01*
X0021751Y0081716D01*
X0021765Y0081838D01*
X0021774Y0081962D01*
X0021780Y0082085D01*
X0021782Y0082209D01*
X0021782Y0141264D01*
X0021780Y0141388D01*
X0021774Y0141511D01*
X0021765Y0141635D01*
X0021751Y0141757D01*
X0021734Y0141880D01*
X0021712Y0142002D01*
X0021687Y0142123D01*
X0021658Y0142243D01*
X0021626Y0142362D01*
X0021589Y0142481D01*
X0021549Y0142598D01*
X0021506Y0142713D01*
X0021458Y0142828D01*
X0021407Y0142940D01*
X0021353Y0143051D01*
X0021295Y0143161D01*
X0021234Y0143268D01*
X0021169Y0143374D01*
X0021101Y0143477D01*
X0021030Y0143578D01*
X0020956Y0143677D01*
X0020879Y0143774D01*
X0020798Y0143868D01*
X0020715Y0143959D01*
X0020629Y0144048D01*
X0020540Y0144134D01*
X0020449Y0144217D01*
X0020355Y0144298D01*
X0020258Y0144375D01*
X0020159Y0144449D01*
X0020058Y0144520D01*
X0019955Y0144588D01*
X0019849Y0144653D01*
X0019742Y0144714D01*
X0019632Y0144772D01*
X0019521Y0144826D01*
X0019409Y0144877D01*
X0019294Y0144925D01*
X0019179Y0144968D01*
X0019062Y0145008D01*
X0018943Y0145045D01*
X0018824Y0145077D01*
X0018704Y0145106D01*
X0018583Y0145131D01*
X0018461Y0145153D01*
X0018338Y0145170D01*
X0018216Y0145184D01*
X0018092Y0145193D01*
X0017969Y0145199D01*
X0017845Y0145201D01*
X0006034Y0145201D01*
X0005910Y0145203D01*
X0005787Y0145209D01*
X0005663Y0145218D01*
X0005541Y0145232D01*
X0005418Y0145249D01*
X0005296Y0145271D01*
X0005175Y0145296D01*
X0005055Y0145325D01*
X0004936Y0145357D01*
X0004817Y0145394D01*
X0004700Y0145434D01*
X0004585Y0145477D01*
X0004470Y0145525D01*
X0004358Y0145576D01*
X0004247Y0145630D01*
X0004137Y0145688D01*
X0004030Y0145749D01*
X0003924Y0145814D01*
X0003821Y0145882D01*
X0003720Y0145953D01*
X0003621Y0146027D01*
X0003524Y0146104D01*
X0003430Y0146185D01*
X0003339Y0146268D01*
X0003250Y0146354D01*
X0003164Y0146443D01*
X0003081Y0146534D01*
X0003000Y0146628D01*
X0002923Y0146725D01*
X0002849Y0146824D01*
X0002778Y0146925D01*
X0002710Y0147028D01*
X0002645Y0147134D01*
X0002584Y0147241D01*
X0002526Y0147351D01*
X0002472Y0147462D01*
X0002421Y0147574D01*
X0002373Y0147689D01*
X0002330Y0147804D01*
X0002290Y0147921D01*
X0002253Y0148040D01*
X0002221Y0148159D01*
X0002192Y0148279D01*
X0002167Y0148400D01*
X0002145Y0148522D01*
X0002128Y0148645D01*
X0002114Y0148767D01*
X0002105Y0148891D01*
X0002099Y0149014D01*
X0002097Y0149138D01*
X0002097Y0210161D01*
X0002100Y0210446D01*
X0002111Y0210732D01*
X0002128Y0211017D01*
X0002152Y0211301D01*
X0002183Y0211585D01*
X0002221Y0211868D01*
X0002266Y0212149D01*
X0002317Y0212430D01*
X0002375Y0212710D01*
X0002440Y0212988D01*
X0002512Y0213264D01*
X0002590Y0213538D01*
X0002675Y0213811D01*
X0002767Y0214081D01*
X0002865Y0214349D01*
X0002969Y0214615D01*
X0003080Y0214878D01*
X0003197Y0215138D01*
X0003320Y0215396D01*
X0003450Y0215650D01*
X0003586Y0215901D01*
X0003727Y0216149D01*
X0003875Y0216393D01*
X0004028Y0216634D01*
X0004188Y0216870D01*
X0004353Y0217103D01*
X0004523Y0217332D01*
X0004699Y0217557D01*
X0004881Y0217777D01*
X0005067Y0217993D01*
X0005259Y0218204D01*
X0005456Y0218411D01*
X0005658Y0218613D01*
X0005865Y0218810D01*
X0006076Y0219002D01*
X0006292Y0219188D01*
X0006512Y0219370D01*
X0006737Y0219546D01*
X0006966Y0219716D01*
X0007199Y0219881D01*
X0007435Y0220041D01*
X0007676Y0220194D01*
X0007920Y0220342D01*
X0008168Y0220483D01*
X0008419Y0220619D01*
X0008673Y0220749D01*
X0008931Y0220872D01*
X0009191Y0220989D01*
X0009454Y0221100D01*
X0009720Y0221204D01*
X0009988Y0221302D01*
X0010258Y0221394D01*
X0010531Y0221479D01*
X0010805Y0221557D01*
X0011081Y0221629D01*
X0011359Y0221694D01*
X0011639Y0221752D01*
X0011920Y0221803D01*
X0012201Y0221848D01*
X0012484Y0221886D01*
X0012768Y0221917D01*
X0013052Y0221941D01*
X0013337Y0221958D01*
X0013623Y0221969D01*
X0013908Y0221972D01*
X0246192Y0221972D01*
X0246477Y0221969D01*
X0246763Y0221958D01*
X0247048Y0221941D01*
X0247332Y0221917D01*
X0247616Y0221886D01*
X0247899Y0221848D01*
X0248180Y0221803D01*
X0248461Y0221752D01*
X0248741Y0221694D01*
X0249019Y0221629D01*
X0249295Y0221557D01*
X0249569Y0221479D01*
X0249842Y0221394D01*
X0250112Y0221302D01*
X0250380Y0221204D01*
X0250646Y0221100D01*
X0250909Y0220989D01*
X0251169Y0220872D01*
X0251427Y0220749D01*
X0251681Y0220619D01*
X0251932Y0220483D01*
X0252180Y0220342D01*
X0252424Y0220194D01*
X0252665Y0220041D01*
X0252901Y0219881D01*
X0253134Y0219716D01*
X0253363Y0219546D01*
X0253588Y0219370D01*
X0253808Y0219188D01*
X0254024Y0219002D01*
X0254235Y0218810D01*
X0254442Y0218613D01*
X0254644Y0218411D01*
X0254841Y0218204D01*
X0255033Y0217993D01*
X0255219Y0217777D01*
X0255401Y0217557D01*
X0255577Y0217332D01*
X0255747Y0217103D01*
X0255912Y0216870D01*
X0256072Y0216634D01*
X0256225Y0216393D01*
X0256373Y0216149D01*
X0256514Y0215901D01*
X0256650Y0215650D01*
X0256780Y0215396D01*
X0256903Y0215138D01*
X0257020Y0214878D01*
X0257131Y0214615D01*
X0257235Y0214349D01*
X0257333Y0214081D01*
X0257425Y0213811D01*
X0257510Y0213538D01*
X0257588Y0213264D01*
X0257660Y0212988D01*
X0257725Y0212710D01*
X0257783Y0212430D01*
X0257834Y0212149D01*
X0257879Y0211868D01*
X0257917Y0211585D01*
X0257948Y0211301D01*
X0257972Y0211017D01*
X0257989Y0210732D01*
X0258000Y0210446D01*
X0258003Y0210161D01*
X0258003Y0013311D01*
X0258000Y0013026D01*
X0257989Y0012740D01*
X0257972Y0012455D01*
X0257948Y0012171D01*
X0257917Y0011887D01*
X0257879Y0011604D01*
X0257834Y0011323D01*
X0257783Y0011042D01*
X0257725Y0010762D01*
X0257660Y0010484D01*
X0257588Y0010208D01*
X0257510Y0009934D01*
X0257425Y0009661D01*
X0257333Y0009391D01*
X0257235Y0009123D01*
X0257131Y0008857D01*
X0257020Y0008594D01*
X0256903Y0008334D01*
X0256780Y0008076D01*
X0256650Y0007822D01*
X0256514Y0007571D01*
X0256373Y0007323D01*
X0256225Y0007079D01*
X0256072Y0006838D01*
X0255912Y0006602D01*
X0255747Y0006369D01*
X0255577Y0006140D01*
X0255401Y0005915D01*
X0255219Y0005695D01*
X0255033Y0005479D01*
X0254841Y0005268D01*
X0254644Y0005061D01*
X0254442Y0004859D01*
X0254235Y0004662D01*
X0254024Y0004470D01*
X0253808Y0004284D01*
X0253588Y0004102D01*
X0253363Y0003926D01*
X0253134Y0003756D01*
X0252901Y0003591D01*
X0252665Y0003431D01*
X0252424Y0003278D01*
X0252180Y0003130D01*
X0251932Y0002989D01*
X0251681Y0002853D01*
X0251427Y0002723D01*
X0251169Y0002600D01*
X0250909Y0002483D01*
X0250646Y0002372D01*
X0250380Y0002268D01*
X0250112Y0002170D01*
X0249842Y0002078D01*
X0249569Y0001993D01*
X0249295Y0001915D01*
X0249019Y0001843D01*
X0248741Y0001778D01*
X0248461Y0001720D01*
X0248180Y0001669D01*
X0247899Y0001624D01*
X0247616Y0001586D01*
X0247332Y0001555D01*
X0247048Y0001531D01*
X0246763Y0001514D01*
X0246477Y0001503D01*
X0246192Y0001500D01*
X0187137Y0001500D01*
X0187013Y0001502D01*
X0186890Y0001508D01*
X0186766Y0001517D01*
X0186644Y0001531D01*
X0186521Y0001548D01*
X0186399Y0001570D01*
X0186278Y0001595D01*
X0186158Y0001624D01*
X0186039Y0001656D01*
X0185920Y0001693D01*
X0185803Y0001733D01*
X0185688Y0001776D01*
X0185573Y0001824D01*
X0185461Y0001875D01*
X0185350Y0001929D01*
X0185240Y0001987D01*
X0185133Y0002048D01*
X0185027Y0002113D01*
X0184924Y0002181D01*
X0184823Y0002252D01*
X0184724Y0002326D01*
X0184627Y0002403D01*
X0184533Y0002484D01*
X0184442Y0002567D01*
X0184353Y0002653D01*
X0184267Y0002742D01*
X0184184Y0002833D01*
X0184103Y0002927D01*
X0184026Y0003024D01*
X0183952Y0003123D01*
X0183881Y0003224D01*
X0183813Y0003327D01*
X0183748Y0003433D01*
X0183687Y0003540D01*
X0183629Y0003650D01*
X0183575Y0003761D01*
X0183524Y0003873D01*
X0183476Y0003988D01*
X0183433Y0004103D01*
X0183393Y0004220D01*
X0183356Y0004339D01*
X0183324Y0004458D01*
X0183295Y0004578D01*
X0183270Y0004699D01*
X0183248Y0004821D01*
X0183231Y0004944D01*
X0183217Y0005066D01*
X0183208Y0005190D01*
X0183202Y0005313D01*
X0183200Y0005437D01*
X0183200Y0076303D01*
X0179263Y0080240D02*
X0179139Y0080238D01*
X0179016Y0080232D01*
X0178892Y0080223D01*
X0178770Y0080209D01*
X0178647Y0080192D01*
X0178525Y0080170D01*
X0178404Y0080145D01*
X0178284Y0080116D01*
X0178165Y0080084D01*
X0178046Y0080047D01*
X0177929Y0080007D01*
X0177814Y0079964D01*
X0177699Y0079916D01*
X0177587Y0079865D01*
X0177476Y0079811D01*
X0177366Y0079753D01*
X0177259Y0079692D01*
X0177153Y0079627D01*
X0177050Y0079559D01*
X0176949Y0079488D01*
X0176850Y0079414D01*
X0176753Y0079337D01*
X0176659Y0079256D01*
X0176568Y0079173D01*
X0176479Y0079087D01*
X0176393Y0078998D01*
X0176310Y0078907D01*
X0176229Y0078813D01*
X0176152Y0078716D01*
X0176078Y0078617D01*
X0176007Y0078516D01*
X0175939Y0078413D01*
X0175874Y0078307D01*
X0175813Y0078200D01*
X0175755Y0078090D01*
X0175701Y0077979D01*
X0175650Y0077867D01*
X0175602Y0077752D01*
X0175559Y0077637D01*
X0175519Y0077520D01*
X0175482Y0077401D01*
X0175450Y0077282D01*
X0175421Y0077162D01*
X0175396Y0077041D01*
X0175374Y0076919D01*
X0175357Y0076796D01*
X0175343Y0076674D01*
X0175334Y0076550D01*
X0175328Y0076427D01*
X0175326Y0076303D01*
X0175326Y0005437D01*
X0175324Y0005313D01*
X0175318Y0005190D01*
X0175309Y0005066D01*
X0175295Y0004944D01*
X0175278Y0004821D01*
X0175256Y0004699D01*
X0175231Y0004578D01*
X0175202Y0004458D01*
X0175170Y0004339D01*
X0175133Y0004220D01*
X0175093Y0004103D01*
X0175050Y0003988D01*
X0175002Y0003873D01*
X0174951Y0003761D01*
X0174897Y0003650D01*
X0174839Y0003540D01*
X0174778Y0003433D01*
X0174713Y0003327D01*
X0174645Y0003224D01*
X0174574Y0003123D01*
X0174500Y0003024D01*
X0174423Y0002927D01*
X0174342Y0002833D01*
X0174259Y0002742D01*
X0174173Y0002653D01*
X0174084Y0002567D01*
X0173993Y0002484D01*
X0173899Y0002403D01*
X0173802Y0002326D01*
X0173703Y0002252D01*
X0173602Y0002181D01*
X0173499Y0002113D01*
X0173393Y0002048D01*
X0173286Y0001987D01*
X0173176Y0001929D01*
X0173065Y0001875D01*
X0172953Y0001824D01*
X0172838Y0001776D01*
X0172723Y0001733D01*
X0172606Y0001693D01*
X0172487Y0001656D01*
X0172368Y0001624D01*
X0172248Y0001595D01*
X0172127Y0001570D01*
X0172005Y0001548D01*
X0171882Y0001531D01*
X0171760Y0001517D01*
X0171636Y0001508D01*
X0171513Y0001502D01*
X0171389Y0001500D01*
X0013908Y0001500D01*
X0013623Y0001503D01*
X0013337Y0001514D01*
X0013052Y0001531D01*
X0012768Y0001555D01*
X0012484Y0001586D01*
X0012201Y0001624D01*
X0011920Y0001669D01*
X0011639Y0001720D01*
X0011359Y0001778D01*
X0011081Y0001843D01*
X0010805Y0001915D01*
X0010531Y0001993D01*
X0010258Y0002078D01*
X0009988Y0002170D01*
X0009720Y0002268D01*
X0009454Y0002372D01*
X0009191Y0002483D01*
X0008931Y0002600D01*
X0008673Y0002723D01*
X0008419Y0002853D01*
X0008168Y0002989D01*
X0007920Y0003130D01*
X0007676Y0003278D01*
X0007435Y0003431D01*
X0007199Y0003591D01*
X0006966Y0003756D01*
X0006737Y0003926D01*
X0006512Y0004102D01*
X0006292Y0004284D01*
X0006076Y0004470D01*
X0005865Y0004662D01*
X0005658Y0004859D01*
X0005456Y0005061D01*
X0005259Y0005268D01*
X0005067Y0005479D01*
X0004881Y0005695D01*
X0004699Y0005915D01*
X0004523Y0006140D01*
X0004353Y0006369D01*
X0004188Y0006602D01*
X0004028Y0006838D01*
X0003875Y0007079D01*
X0003727Y0007323D01*
X0003586Y0007571D01*
X0003450Y0007822D01*
X0003320Y0008076D01*
X0003197Y0008334D01*
X0003080Y0008594D01*
X0002969Y0008857D01*
X0002865Y0009123D01*
X0002767Y0009391D01*
X0002675Y0009661D01*
X0002590Y0009934D01*
X0002512Y0010208D01*
X0002440Y0010484D01*
X0002375Y0010762D01*
X0002317Y0011042D01*
X0002266Y0011323D01*
X0002221Y0011604D01*
X0002183Y0011887D01*
X0002152Y0012171D01*
X0002128Y0012455D01*
X0002111Y0012740D01*
X0002100Y0013026D01*
X0002097Y0013311D01*
X0010365Y0015280D02*
X0010367Y0015428D01*
X0010373Y0015576D01*
X0010383Y0015724D01*
X0010397Y0015871D01*
X0010415Y0016018D01*
X0010436Y0016164D01*
X0010462Y0016310D01*
X0010492Y0016455D01*
X0010525Y0016599D01*
X0010563Y0016742D01*
X0010604Y0016884D01*
X0010649Y0017025D01*
X0010697Y0017165D01*
X0010750Y0017304D01*
X0010806Y0017441D01*
X0010866Y0017576D01*
X0010929Y0017710D01*
X0010996Y0017842D01*
X0011067Y0017972D01*
X0011141Y0018100D01*
X0011218Y0018226D01*
X0011299Y0018350D01*
X0011383Y0018472D01*
X0011470Y0018591D01*
X0011561Y0018708D01*
X0011655Y0018823D01*
X0011751Y0018935D01*
X0011851Y0019045D01*
X0011953Y0019151D01*
X0012059Y0019255D01*
X0012167Y0019356D01*
X0012278Y0019454D01*
X0012391Y0019550D01*
X0012507Y0019642D01*
X0012625Y0019731D01*
X0012746Y0019816D01*
X0012869Y0019899D01*
X0012994Y0019978D01*
X0013121Y0020054D01*
X0013250Y0020126D01*
X0013381Y0020195D01*
X0013514Y0020260D01*
X0013649Y0020321D01*
X0013785Y0020379D01*
X0013922Y0020434D01*
X0014061Y0020484D01*
X0014202Y0020531D01*
X0014343Y0020574D01*
X0014486Y0020614D01*
X0014630Y0020649D01*
X0014774Y0020681D01*
X0014920Y0020708D01*
X0015066Y0020732D01*
X0015213Y0020752D01*
X0015360Y0020768D01*
X0015507Y0020780D01*
X0015655Y0020788D01*
X0015803Y0020792D01*
X0015951Y0020792D01*
X0016099Y0020788D01*
X0016247Y0020780D01*
X0016394Y0020768D01*
X0016541Y0020752D01*
X0016688Y0020732D01*
X0016834Y0020708D01*
X0016980Y0020681D01*
X0017124Y0020649D01*
X0017268Y0020614D01*
X0017411Y0020574D01*
X0017552Y0020531D01*
X0017693Y0020484D01*
X0017832Y0020434D01*
X0017969Y0020379D01*
X0018105Y0020321D01*
X0018240Y0020260D01*
X0018373Y0020195D01*
X0018504Y0020126D01*
X0018633Y0020054D01*
X0018760Y0019978D01*
X0018885Y0019899D01*
X0019008Y0019816D01*
X0019129Y0019731D01*
X0019247Y0019642D01*
X0019363Y0019550D01*
X0019476Y0019454D01*
X0019587Y0019356D01*
X0019695Y0019255D01*
X0019801Y0019151D01*
X0019903Y0019045D01*
X0020003Y0018935D01*
X0020099Y0018823D01*
X0020193Y0018708D01*
X0020284Y0018591D01*
X0020371Y0018472D01*
X0020455Y0018350D01*
X0020536Y0018226D01*
X0020613Y0018100D01*
X0020687Y0017972D01*
X0020758Y0017842D01*
X0020825Y0017710D01*
X0020888Y0017576D01*
X0020948Y0017441D01*
X0021004Y0017304D01*
X0021057Y0017165D01*
X0021105Y0017025D01*
X0021150Y0016884D01*
X0021191Y0016742D01*
X0021229Y0016599D01*
X0021262Y0016455D01*
X0021292Y0016310D01*
X0021318Y0016164D01*
X0021339Y0016018D01*
X0021357Y0015871D01*
X0021371Y0015724D01*
X0021381Y0015576D01*
X0021387Y0015428D01*
X0021389Y0015280D01*
X0021387Y0015132D01*
X0021381Y0014984D01*
X0021371Y0014836D01*
X0021357Y0014689D01*
X0021339Y0014542D01*
X0021318Y0014396D01*
X0021292Y0014250D01*
X0021262Y0014105D01*
X0021229Y0013961D01*
X0021191Y0013818D01*
X0021150Y0013676D01*
X0021105Y0013535D01*
X0021057Y0013395D01*
X0021004Y0013256D01*
X0020948Y0013119D01*
X0020888Y0012984D01*
X0020825Y0012850D01*
X0020758Y0012718D01*
X0020687Y0012588D01*
X0020613Y0012460D01*
X0020536Y0012334D01*
X0020455Y0012210D01*
X0020371Y0012088D01*
X0020284Y0011969D01*
X0020193Y0011852D01*
X0020099Y0011737D01*
X0020003Y0011625D01*
X0019903Y0011515D01*
X0019801Y0011409D01*
X0019695Y0011305D01*
X0019587Y0011204D01*
X0019476Y0011106D01*
X0019363Y0011010D01*
X0019247Y0010918D01*
X0019129Y0010829D01*
X0019008Y0010744D01*
X0018885Y0010661D01*
X0018760Y0010582D01*
X0018633Y0010506D01*
X0018504Y0010434D01*
X0018373Y0010365D01*
X0018240Y0010300D01*
X0018105Y0010239D01*
X0017969Y0010181D01*
X0017832Y0010126D01*
X0017693Y0010076D01*
X0017552Y0010029D01*
X0017411Y0009986D01*
X0017268Y0009946D01*
X0017124Y0009911D01*
X0016980Y0009879D01*
X0016834Y0009852D01*
X0016688Y0009828D01*
X0016541Y0009808D01*
X0016394Y0009792D01*
X0016247Y0009780D01*
X0016099Y0009772D01*
X0015951Y0009768D01*
X0015803Y0009768D01*
X0015655Y0009772D01*
X0015507Y0009780D01*
X0015360Y0009792D01*
X0015213Y0009808D01*
X0015066Y0009828D01*
X0014920Y0009852D01*
X0014774Y0009879D01*
X0014630Y0009911D01*
X0014486Y0009946D01*
X0014343Y0009986D01*
X0014202Y0010029D01*
X0014061Y0010076D01*
X0013922Y0010126D01*
X0013785Y0010181D01*
X0013649Y0010239D01*
X0013514Y0010300D01*
X0013381Y0010365D01*
X0013250Y0010434D01*
X0013121Y0010506D01*
X0012994Y0010582D01*
X0012869Y0010661D01*
X0012746Y0010744D01*
X0012625Y0010829D01*
X0012507Y0010918D01*
X0012391Y0011010D01*
X0012278Y0011106D01*
X0012167Y0011204D01*
X0012059Y0011305D01*
X0011953Y0011409D01*
X0011851Y0011515D01*
X0011751Y0011625D01*
X0011655Y0011737D01*
X0011561Y0011852D01*
X0011470Y0011969D01*
X0011383Y0012088D01*
X0011299Y0012210D01*
X0011218Y0012334D01*
X0011141Y0012460D01*
X0011067Y0012588D01*
X0010996Y0012718D01*
X0010929Y0012850D01*
X0010866Y0012984D01*
X0010806Y0013119D01*
X0010750Y0013256D01*
X0010697Y0013395D01*
X0010649Y0013535D01*
X0010604Y0013676D01*
X0010563Y0013818D01*
X0010525Y0013961D01*
X0010492Y0014105D01*
X0010462Y0014250D01*
X0010436Y0014396D01*
X0010415Y0014542D01*
X0010397Y0014689D01*
X0010383Y0014836D01*
X0010373Y0014984D01*
X0010367Y0015132D01*
X0010365Y0015280D01*
X0179263Y0080240D02*
X0179387Y0080238D01*
X0179510Y0080232D01*
X0179634Y0080223D01*
X0179756Y0080209D01*
X0179879Y0080192D01*
X0180001Y0080170D01*
X0180122Y0080145D01*
X0180242Y0080116D01*
X0180361Y0080084D01*
X0180480Y0080047D01*
X0180597Y0080007D01*
X0180712Y0079964D01*
X0180827Y0079916D01*
X0180939Y0079865D01*
X0181050Y0079811D01*
X0181160Y0079753D01*
X0181267Y0079692D01*
X0181373Y0079627D01*
X0181476Y0079559D01*
X0181577Y0079488D01*
X0181676Y0079414D01*
X0181773Y0079337D01*
X0181867Y0079256D01*
X0181958Y0079173D01*
X0182047Y0079087D01*
X0182133Y0078998D01*
X0182216Y0078907D01*
X0182297Y0078813D01*
X0182374Y0078716D01*
X0182448Y0078617D01*
X0182519Y0078516D01*
X0182587Y0078413D01*
X0182652Y0078307D01*
X0182713Y0078200D01*
X0182771Y0078090D01*
X0182825Y0077979D01*
X0182876Y0077867D01*
X0182924Y0077752D01*
X0182967Y0077637D01*
X0183007Y0077520D01*
X0183044Y0077401D01*
X0183076Y0077282D01*
X0183105Y0077162D01*
X0183130Y0077041D01*
X0183152Y0076919D01*
X0183169Y0076796D01*
X0183183Y0076674D01*
X0183192Y0076550D01*
X0183198Y0076427D01*
X0183200Y0076303D01*
X0238711Y0015280D02*
X0238713Y0015428D01*
X0238719Y0015576D01*
X0238729Y0015724D01*
X0238743Y0015871D01*
X0238761Y0016018D01*
X0238782Y0016164D01*
X0238808Y0016310D01*
X0238838Y0016455D01*
X0238871Y0016599D01*
X0238909Y0016742D01*
X0238950Y0016884D01*
X0238995Y0017025D01*
X0239043Y0017165D01*
X0239096Y0017304D01*
X0239152Y0017441D01*
X0239212Y0017576D01*
X0239275Y0017710D01*
X0239342Y0017842D01*
X0239413Y0017972D01*
X0239487Y0018100D01*
X0239564Y0018226D01*
X0239645Y0018350D01*
X0239729Y0018472D01*
X0239816Y0018591D01*
X0239907Y0018708D01*
X0240001Y0018823D01*
X0240097Y0018935D01*
X0240197Y0019045D01*
X0240299Y0019151D01*
X0240405Y0019255D01*
X0240513Y0019356D01*
X0240624Y0019454D01*
X0240737Y0019550D01*
X0240853Y0019642D01*
X0240971Y0019731D01*
X0241092Y0019816D01*
X0241215Y0019899D01*
X0241340Y0019978D01*
X0241467Y0020054D01*
X0241596Y0020126D01*
X0241727Y0020195D01*
X0241860Y0020260D01*
X0241995Y0020321D01*
X0242131Y0020379D01*
X0242268Y0020434D01*
X0242407Y0020484D01*
X0242548Y0020531D01*
X0242689Y0020574D01*
X0242832Y0020614D01*
X0242976Y0020649D01*
X0243120Y0020681D01*
X0243266Y0020708D01*
X0243412Y0020732D01*
X0243559Y0020752D01*
X0243706Y0020768D01*
X0243853Y0020780D01*
X0244001Y0020788D01*
X0244149Y0020792D01*
X0244297Y0020792D01*
X0244445Y0020788D01*
X0244593Y0020780D01*
X0244740Y0020768D01*
X0244887Y0020752D01*
X0245034Y0020732D01*
X0245180Y0020708D01*
X0245326Y0020681D01*
X0245470Y0020649D01*
X0245614Y0020614D01*
X0245757Y0020574D01*
X0245898Y0020531D01*
X0246039Y0020484D01*
X0246178Y0020434D01*
X0246315Y0020379D01*
X0246451Y0020321D01*
X0246586Y0020260D01*
X0246719Y0020195D01*
X0246850Y0020126D01*
X0246979Y0020054D01*
X0247106Y0019978D01*
X0247231Y0019899D01*
X0247354Y0019816D01*
X0247475Y0019731D01*
X0247593Y0019642D01*
X0247709Y0019550D01*
X0247822Y0019454D01*
X0247933Y0019356D01*
X0248041Y0019255D01*
X0248147Y0019151D01*
X0248249Y0019045D01*
X0248349Y0018935D01*
X0248445Y0018823D01*
X0248539Y0018708D01*
X0248630Y0018591D01*
X0248717Y0018472D01*
X0248801Y0018350D01*
X0248882Y0018226D01*
X0248959Y0018100D01*
X0249033Y0017972D01*
X0249104Y0017842D01*
X0249171Y0017710D01*
X0249234Y0017576D01*
X0249294Y0017441D01*
X0249350Y0017304D01*
X0249403Y0017165D01*
X0249451Y0017025D01*
X0249496Y0016884D01*
X0249537Y0016742D01*
X0249575Y0016599D01*
X0249608Y0016455D01*
X0249638Y0016310D01*
X0249664Y0016164D01*
X0249685Y0016018D01*
X0249703Y0015871D01*
X0249717Y0015724D01*
X0249727Y0015576D01*
X0249733Y0015428D01*
X0249735Y0015280D01*
X0249733Y0015132D01*
X0249727Y0014984D01*
X0249717Y0014836D01*
X0249703Y0014689D01*
X0249685Y0014542D01*
X0249664Y0014396D01*
X0249638Y0014250D01*
X0249608Y0014105D01*
X0249575Y0013961D01*
X0249537Y0013818D01*
X0249496Y0013676D01*
X0249451Y0013535D01*
X0249403Y0013395D01*
X0249350Y0013256D01*
X0249294Y0013119D01*
X0249234Y0012984D01*
X0249171Y0012850D01*
X0249104Y0012718D01*
X0249033Y0012588D01*
X0248959Y0012460D01*
X0248882Y0012334D01*
X0248801Y0012210D01*
X0248717Y0012088D01*
X0248630Y0011969D01*
X0248539Y0011852D01*
X0248445Y0011737D01*
X0248349Y0011625D01*
X0248249Y0011515D01*
X0248147Y0011409D01*
X0248041Y0011305D01*
X0247933Y0011204D01*
X0247822Y0011106D01*
X0247709Y0011010D01*
X0247593Y0010918D01*
X0247475Y0010829D01*
X0247354Y0010744D01*
X0247231Y0010661D01*
X0247106Y0010582D01*
X0246979Y0010506D01*
X0246850Y0010434D01*
X0246719Y0010365D01*
X0246586Y0010300D01*
X0246451Y0010239D01*
X0246315Y0010181D01*
X0246178Y0010126D01*
X0246039Y0010076D01*
X0245898Y0010029D01*
X0245757Y0009986D01*
X0245614Y0009946D01*
X0245470Y0009911D01*
X0245326Y0009879D01*
X0245180Y0009852D01*
X0245034Y0009828D01*
X0244887Y0009808D01*
X0244740Y0009792D01*
X0244593Y0009780D01*
X0244445Y0009772D01*
X0244297Y0009768D01*
X0244149Y0009768D01*
X0244001Y0009772D01*
X0243853Y0009780D01*
X0243706Y0009792D01*
X0243559Y0009808D01*
X0243412Y0009828D01*
X0243266Y0009852D01*
X0243120Y0009879D01*
X0242976Y0009911D01*
X0242832Y0009946D01*
X0242689Y0009986D01*
X0242548Y0010029D01*
X0242407Y0010076D01*
X0242268Y0010126D01*
X0242131Y0010181D01*
X0241995Y0010239D01*
X0241860Y0010300D01*
X0241727Y0010365D01*
X0241596Y0010434D01*
X0241467Y0010506D01*
X0241340Y0010582D01*
X0241215Y0010661D01*
X0241092Y0010744D01*
X0240971Y0010829D01*
X0240853Y0010918D01*
X0240737Y0011010D01*
X0240624Y0011106D01*
X0240513Y0011204D01*
X0240405Y0011305D01*
X0240299Y0011409D01*
X0240197Y0011515D01*
X0240097Y0011625D01*
X0240001Y0011737D01*
X0239907Y0011852D01*
X0239816Y0011969D01*
X0239729Y0012088D01*
X0239645Y0012210D01*
X0239564Y0012334D01*
X0239487Y0012460D01*
X0239413Y0012588D01*
X0239342Y0012718D01*
X0239275Y0012850D01*
X0239212Y0012984D01*
X0239152Y0013119D01*
X0239096Y0013256D01*
X0239043Y0013395D01*
X0238995Y0013535D01*
X0238950Y0013676D01*
X0238909Y0013818D01*
X0238871Y0013961D01*
X0238838Y0014105D01*
X0238808Y0014250D01*
X0238782Y0014396D01*
X0238761Y0014542D01*
X0238743Y0014689D01*
X0238729Y0014836D01*
X0238719Y0014984D01*
X0238713Y0015132D01*
X0238711Y0015280D01*
X0238711Y0208193D02*
X0238713Y0208341D01*
X0238719Y0208489D01*
X0238729Y0208637D01*
X0238743Y0208784D01*
X0238761Y0208931D01*
X0238782Y0209077D01*
X0238808Y0209223D01*
X0238838Y0209368D01*
X0238871Y0209512D01*
X0238909Y0209655D01*
X0238950Y0209797D01*
X0238995Y0209938D01*
X0239043Y0210078D01*
X0239096Y0210217D01*
X0239152Y0210354D01*
X0239212Y0210489D01*
X0239275Y0210623D01*
X0239342Y0210755D01*
X0239413Y0210885D01*
X0239487Y0211013D01*
X0239564Y0211139D01*
X0239645Y0211263D01*
X0239729Y0211385D01*
X0239816Y0211504D01*
X0239907Y0211621D01*
X0240001Y0211736D01*
X0240097Y0211848D01*
X0240197Y0211958D01*
X0240299Y0212064D01*
X0240405Y0212168D01*
X0240513Y0212269D01*
X0240624Y0212367D01*
X0240737Y0212463D01*
X0240853Y0212555D01*
X0240971Y0212644D01*
X0241092Y0212729D01*
X0241215Y0212812D01*
X0241340Y0212891D01*
X0241467Y0212967D01*
X0241596Y0213039D01*
X0241727Y0213108D01*
X0241860Y0213173D01*
X0241995Y0213234D01*
X0242131Y0213292D01*
X0242268Y0213347D01*
X0242407Y0213397D01*
X0242548Y0213444D01*
X0242689Y0213487D01*
X0242832Y0213527D01*
X0242976Y0213562D01*
X0243120Y0213594D01*
X0243266Y0213621D01*
X0243412Y0213645D01*
X0243559Y0213665D01*
X0243706Y0213681D01*
X0243853Y0213693D01*
X0244001Y0213701D01*
X0244149Y0213705D01*
X0244297Y0213705D01*
X0244445Y0213701D01*
X0244593Y0213693D01*
X0244740Y0213681D01*
X0244887Y0213665D01*
X0245034Y0213645D01*
X0245180Y0213621D01*
X0245326Y0213594D01*
X0245470Y0213562D01*
X0245614Y0213527D01*
X0245757Y0213487D01*
X0245898Y0213444D01*
X0246039Y0213397D01*
X0246178Y0213347D01*
X0246315Y0213292D01*
X0246451Y0213234D01*
X0246586Y0213173D01*
X0246719Y0213108D01*
X0246850Y0213039D01*
X0246979Y0212967D01*
X0247106Y0212891D01*
X0247231Y0212812D01*
X0247354Y0212729D01*
X0247475Y0212644D01*
X0247593Y0212555D01*
X0247709Y0212463D01*
X0247822Y0212367D01*
X0247933Y0212269D01*
X0248041Y0212168D01*
X0248147Y0212064D01*
X0248249Y0211958D01*
X0248349Y0211848D01*
X0248445Y0211736D01*
X0248539Y0211621D01*
X0248630Y0211504D01*
X0248717Y0211385D01*
X0248801Y0211263D01*
X0248882Y0211139D01*
X0248959Y0211013D01*
X0249033Y0210885D01*
X0249104Y0210755D01*
X0249171Y0210623D01*
X0249234Y0210489D01*
X0249294Y0210354D01*
X0249350Y0210217D01*
X0249403Y0210078D01*
X0249451Y0209938D01*
X0249496Y0209797D01*
X0249537Y0209655D01*
X0249575Y0209512D01*
X0249608Y0209368D01*
X0249638Y0209223D01*
X0249664Y0209077D01*
X0249685Y0208931D01*
X0249703Y0208784D01*
X0249717Y0208637D01*
X0249727Y0208489D01*
X0249733Y0208341D01*
X0249735Y0208193D01*
X0249733Y0208045D01*
X0249727Y0207897D01*
X0249717Y0207749D01*
X0249703Y0207602D01*
X0249685Y0207455D01*
X0249664Y0207309D01*
X0249638Y0207163D01*
X0249608Y0207018D01*
X0249575Y0206874D01*
X0249537Y0206731D01*
X0249496Y0206589D01*
X0249451Y0206448D01*
X0249403Y0206308D01*
X0249350Y0206169D01*
X0249294Y0206032D01*
X0249234Y0205897D01*
X0249171Y0205763D01*
X0249104Y0205631D01*
X0249033Y0205501D01*
X0248959Y0205373D01*
X0248882Y0205247D01*
X0248801Y0205123D01*
X0248717Y0205001D01*
X0248630Y0204882D01*
X0248539Y0204765D01*
X0248445Y0204650D01*
X0248349Y0204538D01*
X0248249Y0204428D01*
X0248147Y0204322D01*
X0248041Y0204218D01*
X0247933Y0204117D01*
X0247822Y0204019D01*
X0247709Y0203923D01*
X0247593Y0203831D01*
X0247475Y0203742D01*
X0247354Y0203657D01*
X0247231Y0203574D01*
X0247106Y0203495D01*
X0246979Y0203419D01*
X0246850Y0203347D01*
X0246719Y0203278D01*
X0246586Y0203213D01*
X0246451Y0203152D01*
X0246315Y0203094D01*
X0246178Y0203039D01*
X0246039Y0202989D01*
X0245898Y0202942D01*
X0245757Y0202899D01*
X0245614Y0202859D01*
X0245470Y0202824D01*
X0245326Y0202792D01*
X0245180Y0202765D01*
X0245034Y0202741D01*
X0244887Y0202721D01*
X0244740Y0202705D01*
X0244593Y0202693D01*
X0244445Y0202685D01*
X0244297Y0202681D01*
X0244149Y0202681D01*
X0244001Y0202685D01*
X0243853Y0202693D01*
X0243706Y0202705D01*
X0243559Y0202721D01*
X0243412Y0202741D01*
X0243266Y0202765D01*
X0243120Y0202792D01*
X0242976Y0202824D01*
X0242832Y0202859D01*
X0242689Y0202899D01*
X0242548Y0202942D01*
X0242407Y0202989D01*
X0242268Y0203039D01*
X0242131Y0203094D01*
X0241995Y0203152D01*
X0241860Y0203213D01*
X0241727Y0203278D01*
X0241596Y0203347D01*
X0241467Y0203419D01*
X0241340Y0203495D01*
X0241215Y0203574D01*
X0241092Y0203657D01*
X0240971Y0203742D01*
X0240853Y0203831D01*
X0240737Y0203923D01*
X0240624Y0204019D01*
X0240513Y0204117D01*
X0240405Y0204218D01*
X0240299Y0204322D01*
X0240197Y0204428D01*
X0240097Y0204538D01*
X0240001Y0204650D01*
X0239907Y0204765D01*
X0239816Y0204882D01*
X0239729Y0205001D01*
X0239645Y0205123D01*
X0239564Y0205247D01*
X0239487Y0205373D01*
X0239413Y0205501D01*
X0239342Y0205631D01*
X0239275Y0205763D01*
X0239212Y0205897D01*
X0239152Y0206032D01*
X0239096Y0206169D01*
X0239043Y0206308D01*
X0238995Y0206448D01*
X0238950Y0206589D01*
X0238909Y0206731D01*
X0238871Y0206874D01*
X0238838Y0207018D01*
X0238808Y0207163D01*
X0238782Y0207309D01*
X0238761Y0207455D01*
X0238743Y0207602D01*
X0238729Y0207749D01*
X0238719Y0207897D01*
X0238713Y0208045D01*
X0238711Y0208193D01*
X0010365Y0208193D02*
X0010367Y0208341D01*
X0010373Y0208489D01*
X0010383Y0208637D01*
X0010397Y0208784D01*
X0010415Y0208931D01*
X0010436Y0209077D01*
X0010462Y0209223D01*
X0010492Y0209368D01*
X0010525Y0209512D01*
X0010563Y0209655D01*
X0010604Y0209797D01*
X0010649Y0209938D01*
X0010697Y0210078D01*
X0010750Y0210217D01*
X0010806Y0210354D01*
X0010866Y0210489D01*
X0010929Y0210623D01*
X0010996Y0210755D01*
X0011067Y0210885D01*
X0011141Y0211013D01*
X0011218Y0211139D01*
X0011299Y0211263D01*
X0011383Y0211385D01*
X0011470Y0211504D01*
X0011561Y0211621D01*
X0011655Y0211736D01*
X0011751Y0211848D01*
X0011851Y0211958D01*
X0011953Y0212064D01*
X0012059Y0212168D01*
X0012167Y0212269D01*
X0012278Y0212367D01*
X0012391Y0212463D01*
X0012507Y0212555D01*
X0012625Y0212644D01*
X0012746Y0212729D01*
X0012869Y0212812D01*
X0012994Y0212891D01*
X0013121Y0212967D01*
X0013250Y0213039D01*
X0013381Y0213108D01*
X0013514Y0213173D01*
X0013649Y0213234D01*
X0013785Y0213292D01*
X0013922Y0213347D01*
X0014061Y0213397D01*
X0014202Y0213444D01*
X0014343Y0213487D01*
X0014486Y0213527D01*
X0014630Y0213562D01*
X0014774Y0213594D01*
X0014920Y0213621D01*
X0015066Y0213645D01*
X0015213Y0213665D01*
X0015360Y0213681D01*
X0015507Y0213693D01*
X0015655Y0213701D01*
X0015803Y0213705D01*
X0015951Y0213705D01*
X0016099Y0213701D01*
X0016247Y0213693D01*
X0016394Y0213681D01*
X0016541Y0213665D01*
X0016688Y0213645D01*
X0016834Y0213621D01*
X0016980Y0213594D01*
X0017124Y0213562D01*
X0017268Y0213527D01*
X0017411Y0213487D01*
X0017552Y0213444D01*
X0017693Y0213397D01*
X0017832Y0213347D01*
X0017969Y0213292D01*
X0018105Y0213234D01*
X0018240Y0213173D01*
X0018373Y0213108D01*
X0018504Y0213039D01*
X0018633Y0212967D01*
X0018760Y0212891D01*
X0018885Y0212812D01*
X0019008Y0212729D01*
X0019129Y0212644D01*
X0019247Y0212555D01*
X0019363Y0212463D01*
X0019476Y0212367D01*
X0019587Y0212269D01*
X0019695Y0212168D01*
X0019801Y0212064D01*
X0019903Y0211958D01*
X0020003Y0211848D01*
X0020099Y0211736D01*
X0020193Y0211621D01*
X0020284Y0211504D01*
X0020371Y0211385D01*
X0020455Y0211263D01*
X0020536Y0211139D01*
X0020613Y0211013D01*
X0020687Y0210885D01*
X0020758Y0210755D01*
X0020825Y0210623D01*
X0020888Y0210489D01*
X0020948Y0210354D01*
X0021004Y0210217D01*
X0021057Y0210078D01*
X0021105Y0209938D01*
X0021150Y0209797D01*
X0021191Y0209655D01*
X0021229Y0209512D01*
X0021262Y0209368D01*
X0021292Y0209223D01*
X0021318Y0209077D01*
X0021339Y0208931D01*
X0021357Y0208784D01*
X0021371Y0208637D01*
X0021381Y0208489D01*
X0021387Y0208341D01*
X0021389Y0208193D01*
X0021387Y0208045D01*
X0021381Y0207897D01*
X0021371Y0207749D01*
X0021357Y0207602D01*
X0021339Y0207455D01*
X0021318Y0207309D01*
X0021292Y0207163D01*
X0021262Y0207018D01*
X0021229Y0206874D01*
X0021191Y0206731D01*
X0021150Y0206589D01*
X0021105Y0206448D01*
X0021057Y0206308D01*
X0021004Y0206169D01*
X0020948Y0206032D01*
X0020888Y0205897D01*
X0020825Y0205763D01*
X0020758Y0205631D01*
X0020687Y0205501D01*
X0020613Y0205373D01*
X0020536Y0205247D01*
X0020455Y0205123D01*
X0020371Y0205001D01*
X0020284Y0204882D01*
X0020193Y0204765D01*
X0020099Y0204650D01*
X0020003Y0204538D01*
X0019903Y0204428D01*
X0019801Y0204322D01*
X0019695Y0204218D01*
X0019587Y0204117D01*
X0019476Y0204019D01*
X0019363Y0203923D01*
X0019247Y0203831D01*
X0019129Y0203742D01*
X0019008Y0203657D01*
X0018885Y0203574D01*
X0018760Y0203495D01*
X0018633Y0203419D01*
X0018504Y0203347D01*
X0018373Y0203278D01*
X0018240Y0203213D01*
X0018105Y0203152D01*
X0017969Y0203094D01*
X0017832Y0203039D01*
X0017693Y0202989D01*
X0017552Y0202942D01*
X0017411Y0202899D01*
X0017268Y0202859D01*
X0017124Y0202824D01*
X0016980Y0202792D01*
X0016834Y0202765D01*
X0016688Y0202741D01*
X0016541Y0202721D01*
X0016394Y0202705D01*
X0016247Y0202693D01*
X0016099Y0202685D01*
X0015951Y0202681D01*
X0015803Y0202681D01*
X0015655Y0202685D01*
X0015507Y0202693D01*
X0015360Y0202705D01*
X0015213Y0202721D01*
X0015066Y0202741D01*
X0014920Y0202765D01*
X0014774Y0202792D01*
X0014630Y0202824D01*
X0014486Y0202859D01*
X0014343Y0202899D01*
X0014202Y0202942D01*
X0014061Y0202989D01*
X0013922Y0203039D01*
X0013785Y0203094D01*
X0013649Y0203152D01*
X0013514Y0203213D01*
X0013381Y0203278D01*
X0013250Y0203347D01*
X0013121Y0203419D01*
X0012994Y0203495D01*
X0012869Y0203574D01*
X0012746Y0203657D01*
X0012625Y0203742D01*
X0012507Y0203831D01*
X0012391Y0203923D01*
X0012278Y0204019D01*
X0012167Y0204117D01*
X0012059Y0204218D01*
X0011953Y0204322D01*
X0011851Y0204428D01*
X0011751Y0204538D01*
X0011655Y0204650D01*
X0011561Y0204765D01*
X0011470Y0204882D01*
X0011383Y0205001D01*
X0011299Y0205123D01*
X0011218Y0205247D01*
X0011141Y0205373D01*
X0011067Y0205501D01*
X0010996Y0205631D01*
X0010929Y0205763D01*
X0010866Y0205897D01*
X0010806Y0206032D01*
X0010750Y0206169D01*
X0010697Y0206308D01*
X0010649Y0206448D01*
X0010604Y0206589D01*
X0010563Y0206731D01*
X0010525Y0206874D01*
X0010492Y0207018D01*
X0010462Y0207163D01*
X0010436Y0207309D01*
X0010415Y0207455D01*
X0010397Y0207602D01*
X0010383Y0207749D01*
X0010373Y0207897D01*
X0010367Y0208045D01*
X0010365Y0208193D01*
D11*
X0020893Y0161588D02*
X0022344Y0161588D01*
X0022828Y0161104D01*
X0022828Y0160137D01*
X0022344Y0159653D01*
X0020893Y0159653D01*
X0021860Y0159653D02*
X0022828Y0158685D01*
X0023839Y0158685D02*
X0025774Y0158685D01*
X0024807Y0158685D02*
X0024807Y0161588D01*
X0023839Y0160620D01*
X0026786Y0161104D02*
X0027270Y0161588D01*
X0028237Y0161588D01*
X0028721Y0161104D01*
X0028721Y0160620D01*
X0026786Y0158685D01*
X0028721Y0158685D01*
X0020893Y0158685D02*
X0020893Y0161588D01*
X0018258Y0158037D02*
X0016807Y0156586D01*
X0017291Y0156102D02*
X0015356Y0158037D01*
X0015356Y0156102D02*
X0018258Y0156102D01*
X0017775Y0155091D02*
X0018258Y0154607D01*
X0018258Y0153639D01*
X0017775Y0153156D01*
X0015840Y0155091D01*
X0017775Y0155091D01*
X0017775Y0153156D02*
X0015840Y0153156D01*
X0015356Y0153639D01*
X0015356Y0154607D01*
X0015840Y0155091D01*
X0018258Y0152144D02*
X0018258Y0150209D01*
X0018258Y0151177D02*
X0015356Y0151177D01*
X0016323Y0150209D01*
X0059379Y0143418D02*
X0059862Y0143902D01*
X0061797Y0141967D01*
X0062281Y0142451D01*
X0062281Y0143418D01*
X0061797Y0143902D01*
X0059862Y0143902D01*
X0059379Y0143418D02*
X0059379Y0142451D01*
X0059862Y0141967D01*
X0061797Y0141967D01*
X0062281Y0140956D02*
X0062281Y0139021D01*
X0062281Y0139988D02*
X0059379Y0139988D01*
X0060346Y0139021D01*
X0059862Y0138009D02*
X0060830Y0138009D01*
X0061314Y0137525D01*
X0061314Y0136074D01*
X0062281Y0136074D02*
X0059379Y0136074D01*
X0059379Y0137525D01*
X0059862Y0138009D01*
X0061314Y0137042D02*
X0062281Y0138009D01*
X0062207Y0133911D02*
X0062207Y0131008D01*
X0063174Y0131008D02*
X0061239Y0131008D01*
X0061239Y0132943D02*
X0062207Y0133911D01*
X0064186Y0133427D02*
X0064186Y0131492D01*
X0066121Y0133427D01*
X0066121Y0131492D01*
X0065637Y0131008D01*
X0064670Y0131008D01*
X0064186Y0131492D01*
X0064186Y0133427D02*
X0064670Y0133911D01*
X0065637Y0133911D01*
X0066121Y0133427D01*
X0067132Y0133427D02*
X0067616Y0133911D01*
X0068584Y0133911D01*
X0069067Y0133427D01*
X0067132Y0131492D01*
X0067616Y0131008D01*
X0068584Y0131008D01*
X0069067Y0131492D01*
X0069067Y0133427D01*
X0070079Y0133911D02*
X0070079Y0131008D01*
X0070079Y0131976D02*
X0072014Y0133911D01*
X0070563Y0132459D02*
X0072014Y0131008D01*
X0072506Y0128005D02*
X0070571Y0126070D01*
X0071055Y0126554D02*
X0072506Y0125103D01*
X0070571Y0125103D02*
X0070571Y0128005D01*
X0069560Y0127521D02*
X0067625Y0125586D01*
X0068108Y0125103D01*
X0069076Y0125103D01*
X0069560Y0125586D01*
X0069560Y0127521D01*
X0069076Y0128005D01*
X0068108Y0128005D01*
X0067625Y0127521D01*
X0067625Y0125586D01*
X0066613Y0125586D02*
X0066613Y0127521D01*
X0064678Y0125586D01*
X0065162Y0125103D01*
X0066129Y0125103D01*
X0066613Y0125586D01*
X0064678Y0125586D02*
X0064678Y0127521D01*
X0065162Y0128005D01*
X0066129Y0128005D01*
X0066613Y0127521D01*
X0063666Y0125103D02*
X0061731Y0125103D01*
X0062699Y0125103D02*
X0062699Y0128005D01*
X0061731Y0127038D01*
X0067132Y0131492D02*
X0067132Y0133427D01*
X0079110Y0142705D02*
X0079110Y0144640D01*
X0079594Y0145124D01*
X0080561Y0145124D01*
X0081045Y0144640D01*
X0079110Y0142705D01*
X0079594Y0142222D01*
X0080561Y0142222D01*
X0081045Y0142705D01*
X0081045Y0144640D01*
X0080529Y0146533D02*
X0078594Y0146533D01*
X0079562Y0146533D02*
X0079562Y0149435D01*
X0078594Y0148468D01*
X0077583Y0148951D02*
X0077583Y0147984D01*
X0077099Y0147500D01*
X0075648Y0147500D01*
X0075648Y0146533D02*
X0075648Y0149435D01*
X0077099Y0149435D01*
X0077583Y0148951D01*
X0076615Y0147500D02*
X0077583Y0146533D01*
X0081541Y0147016D02*
X0082025Y0146533D01*
X0082992Y0146533D01*
X0083476Y0147016D01*
X0083476Y0147500D01*
X0082992Y0147984D01*
X0082508Y0147984D01*
X0082992Y0147984D02*
X0083476Y0148468D01*
X0083476Y0148951D01*
X0082992Y0149435D01*
X0082025Y0149435D01*
X0081541Y0148951D01*
X0084497Y0145124D02*
X0084497Y0142222D01*
X0083530Y0142222D02*
X0085465Y0142222D01*
X0086476Y0142705D02*
X0086960Y0142222D01*
X0088411Y0142222D01*
X0088411Y0144157D01*
X0089423Y0143673D02*
X0090390Y0143673D01*
X0089423Y0142222D02*
X0089423Y0145124D01*
X0091358Y0145124D01*
X0086476Y0144157D02*
X0086476Y0142705D01*
X0084497Y0145124D02*
X0083530Y0144157D01*
X0082540Y0142705D02*
X0082540Y0142222D01*
X0082056Y0142222D01*
X0082056Y0142705D01*
X0082540Y0142705D01*
X0098507Y0157468D02*
X0098991Y0156985D01*
X0099958Y0156985D01*
X0100442Y0157468D01*
X0100442Y0159887D01*
X0101454Y0159403D02*
X0101937Y0159887D01*
X0102905Y0159887D01*
X0103389Y0159403D01*
X0103389Y0158920D01*
X0101454Y0156985D01*
X0103389Y0156985D01*
X0106913Y0156768D02*
X0106913Y0158703D01*
X0107880Y0159671D01*
X0108848Y0158703D01*
X0108848Y0156768D01*
X0108848Y0158219D02*
X0106913Y0158219D01*
X0109859Y0159671D02*
X0111794Y0159671D01*
X0110827Y0159671D02*
X0110827Y0156768D01*
X0112806Y0156768D02*
X0112806Y0159671D01*
X0113773Y0158703D01*
X0114741Y0159671D01*
X0114741Y0156768D01*
X0115752Y0156768D02*
X0117687Y0156768D01*
X0118699Y0157252D02*
X0119182Y0156768D01*
X0120150Y0156768D01*
X0120634Y0157252D01*
X0120634Y0158219D01*
X0119666Y0158219D01*
X0118699Y0157252D02*
X0118699Y0159187D01*
X0119182Y0159671D01*
X0120150Y0159671D01*
X0120634Y0159187D01*
X0121645Y0158703D02*
X0122613Y0159671D01*
X0123580Y0158703D01*
X0123580Y0156768D01*
X0124592Y0157252D02*
X0125075Y0156768D01*
X0126043Y0156768D01*
X0126527Y0157252D01*
X0126527Y0157736D01*
X0126043Y0158219D01*
X0125559Y0158219D01*
X0126043Y0158219D02*
X0126527Y0158703D01*
X0126527Y0159187D01*
X0126043Y0159671D01*
X0125075Y0159671D01*
X0124592Y0159187D01*
X0123580Y0158219D02*
X0121645Y0158219D01*
X0121645Y0158703D02*
X0121645Y0156768D01*
X0117687Y0159671D02*
X0115752Y0159671D01*
X0115752Y0156768D01*
X0115752Y0158219D02*
X0116720Y0158219D01*
X0112970Y0163627D02*
X0110068Y0163627D01*
X0110068Y0165078D01*
X0110551Y0165562D01*
X0111519Y0165562D01*
X0112003Y0165078D01*
X0112003Y0163627D01*
X0112003Y0164595D02*
X0112970Y0165562D01*
X0111519Y0166574D02*
X0111519Y0168509D01*
X0112970Y0168025D02*
X0110068Y0168025D01*
X0111519Y0166574D01*
X0108423Y0166070D02*
X0108423Y0165103D01*
X0107939Y0164619D01*
X0106004Y0166554D01*
X0107939Y0166554D01*
X0108423Y0166070D01*
X0108423Y0167566D02*
X0105520Y0167566D01*
X0106004Y0166554D02*
X0105520Y0166070D01*
X0105520Y0165103D01*
X0106004Y0164619D01*
X0107939Y0164619D01*
X0108423Y0163608D02*
X0108423Y0161673D01*
X0108423Y0162640D02*
X0105520Y0162640D01*
X0106488Y0161673D01*
X0107455Y0167566D02*
X0105520Y0169501D01*
X0106972Y0168049D02*
X0108423Y0169501D01*
X0098507Y0159887D02*
X0098507Y0157468D01*
X0092793Y0163627D02*
X0089890Y0163627D01*
X0089890Y0165078D01*
X0090374Y0165562D01*
X0091342Y0165562D01*
X0091825Y0165078D01*
X0091825Y0163627D01*
X0091825Y0164595D02*
X0092793Y0165562D01*
X0092309Y0166574D02*
X0092793Y0167057D01*
X0092793Y0168025D01*
X0092309Y0168509D01*
X0090374Y0168509D01*
X0089890Y0168025D01*
X0089890Y0167057D01*
X0090374Y0166574D01*
X0090858Y0166574D01*
X0091342Y0167057D01*
X0091342Y0168509D01*
X0083484Y0164325D02*
X0083484Y0162390D01*
X0083000Y0161907D01*
X0082032Y0161907D01*
X0081549Y0162390D01*
X0083484Y0164325D01*
X0083000Y0164809D01*
X0082032Y0164809D01*
X0081549Y0164325D01*
X0081549Y0162390D01*
X0080537Y0162390D02*
X0080537Y0162874D01*
X0080053Y0163358D01*
X0079570Y0163358D01*
X0080053Y0163358D02*
X0080537Y0163842D01*
X0080537Y0164325D01*
X0080053Y0164809D01*
X0079086Y0164809D01*
X0078602Y0164325D01*
X0077591Y0164325D02*
X0077107Y0164809D01*
X0076139Y0164809D01*
X0075656Y0164325D01*
X0076623Y0163358D02*
X0077107Y0163358D01*
X0077591Y0162874D01*
X0077591Y0162390D01*
X0077107Y0161907D01*
X0076139Y0161907D01*
X0075656Y0162390D01*
X0077107Y0163358D02*
X0077591Y0163842D01*
X0077591Y0164325D01*
X0078602Y0162390D02*
X0079086Y0161907D01*
X0080053Y0161907D01*
X0080537Y0162390D01*
X0073633Y0162039D02*
X0071698Y0162039D01*
X0072666Y0162039D02*
X0072666Y0164941D01*
X0071698Y0163974D01*
X0070687Y0164457D02*
X0070203Y0164941D01*
X0068752Y0164941D01*
X0068752Y0162039D01*
X0070203Y0162039D01*
X0070687Y0162522D01*
X0070687Y0164457D01*
X0108546Y0190751D02*
X0109164Y0190134D01*
X0110398Y0190134D01*
X0111015Y0190751D01*
X0111015Y0191986D01*
X0109781Y0191986D01*
X0111015Y0193220D02*
X0110398Y0193837D01*
X0109164Y0193837D01*
X0108546Y0193220D01*
X0108546Y0190751D01*
X0112230Y0190134D02*
X0112230Y0193837D01*
X0114698Y0190134D01*
X0114698Y0193837D01*
X0115913Y0193837D02*
X0117764Y0193837D01*
X0118382Y0193220D01*
X0118382Y0190751D01*
X0117764Y0190134D01*
X0115913Y0190134D01*
X0115913Y0193837D01*
X0133976Y0176963D02*
X0133976Y0175729D01*
X0134594Y0175111D01*
X0137062Y0175111D01*
X0137680Y0175729D01*
X0137680Y0176963D01*
X0137062Y0177580D01*
X0134594Y0177580D02*
X0133976Y0176963D01*
X0134594Y0173897D02*
X0133976Y0173280D01*
X0133976Y0172045D01*
X0134594Y0171428D01*
X0133976Y0170207D02*
X0133976Y0168973D01*
X0133976Y0169590D02*
X0137680Y0169590D01*
X0137680Y0168973D02*
X0137680Y0170207D01*
X0137680Y0171428D02*
X0135211Y0173897D01*
X0134594Y0173897D01*
X0137680Y0173897D02*
X0137680Y0171428D01*
X0139976Y0170824D02*
X0139976Y0169590D01*
X0140594Y0168973D01*
X0143062Y0168973D01*
X0143680Y0169590D01*
X0143680Y0170824D01*
X0143062Y0171442D01*
X0141828Y0171442D01*
X0141828Y0170207D01*
X0140594Y0171442D02*
X0139976Y0170824D01*
X0139976Y0172656D02*
X0139976Y0174508D01*
X0140594Y0175125D01*
X0141828Y0175125D01*
X0142445Y0174508D01*
X0142445Y0172656D01*
X0142445Y0173890D02*
X0143680Y0175125D01*
X0143062Y0176339D02*
X0140594Y0176339D01*
X0139976Y0176956D01*
X0139976Y0178191D01*
X0140594Y0178808D01*
X0143062Y0178808D01*
X0143680Y0178191D01*
X0143680Y0176956D01*
X0143062Y0176339D01*
X0142445Y0180022D02*
X0143680Y0181257D01*
X0142445Y0182491D01*
X0139976Y0182491D01*
X0139976Y0183705D02*
X0143680Y0183705D01*
X0143680Y0186174D01*
X0141828Y0184940D02*
X0141828Y0183705D01*
X0139976Y0183705D02*
X0139976Y0186174D01*
X0139976Y0180022D02*
X0142445Y0180022D01*
X0143680Y0172656D02*
X0139976Y0172656D01*
X0137979Y0167001D02*
X0136044Y0167001D01*
X0136044Y0165550D01*
X0137012Y0166034D01*
X0137495Y0166034D01*
X0137979Y0165550D01*
X0137979Y0164583D01*
X0137495Y0164099D01*
X0136528Y0164099D01*
X0136044Y0164583D01*
X0135033Y0164583D02*
X0134549Y0164099D01*
X0133581Y0164099D01*
X0133098Y0164583D01*
X0133098Y0166518D01*
X0133581Y0167001D01*
X0134549Y0167001D01*
X0135033Y0166518D01*
X0128108Y0166087D02*
X0127624Y0165603D01*
X0125689Y0167538D01*
X0127624Y0167538D01*
X0128108Y0167055D01*
X0128108Y0166087D01*
X0127624Y0165603D02*
X0125689Y0165603D01*
X0125205Y0166087D01*
X0125205Y0167055D01*
X0125689Y0167538D01*
X0125205Y0168550D02*
X0128108Y0168550D01*
X0127140Y0168550D02*
X0125205Y0170485D01*
X0126657Y0169034D02*
X0128108Y0170485D01*
X0128108Y0164592D02*
X0128108Y0162657D01*
X0128108Y0163624D02*
X0125205Y0163624D01*
X0126173Y0162657D01*
X0128022Y0159671D02*
X0127538Y0159187D01*
X0128022Y0159671D02*
X0128989Y0159671D01*
X0129473Y0159187D01*
X0129473Y0158703D01*
X0127538Y0156768D01*
X0129473Y0156768D01*
X0130485Y0157252D02*
X0130485Y0157736D01*
X0130968Y0158219D01*
X0131936Y0158219D01*
X0132420Y0157736D01*
X0132420Y0157252D01*
X0131936Y0156768D01*
X0130968Y0156768D01*
X0130485Y0157252D01*
X0130968Y0158219D02*
X0130485Y0158703D01*
X0130485Y0159187D01*
X0130968Y0159671D01*
X0131936Y0159671D01*
X0132420Y0159187D01*
X0132420Y0158703D01*
X0131936Y0158219D01*
X0133431Y0157736D02*
X0134882Y0157736D01*
X0135366Y0158219D01*
X0135366Y0159187D01*
X0134882Y0159671D01*
X0133431Y0159671D01*
X0133431Y0156768D01*
X0133466Y0151630D02*
X0133466Y0149695D01*
X0136369Y0149695D01*
X0136369Y0148684D02*
X0134434Y0148684D01*
X0134917Y0149695D02*
X0134917Y0150663D01*
X0136369Y0148684D02*
X0136369Y0147232D01*
X0135885Y0146749D01*
X0134434Y0146749D01*
X0136369Y0145737D02*
X0136369Y0143802D01*
X0136369Y0144770D02*
X0133466Y0144770D01*
X0134434Y0143802D01*
X0135885Y0142813D02*
X0136369Y0142813D01*
X0136369Y0142329D01*
X0135885Y0142329D01*
X0135885Y0142813D01*
X0135885Y0141317D02*
X0133950Y0141317D01*
X0135885Y0139382D01*
X0136369Y0139866D01*
X0136369Y0140834D01*
X0135885Y0141317D01*
X0135885Y0139382D02*
X0133950Y0139382D01*
X0133466Y0139866D01*
X0133466Y0140834D01*
X0133950Y0141317D01*
X0166172Y0144334D02*
X0166789Y0143717D01*
X0168024Y0143717D01*
X0168641Y0144334D01*
X0168641Y0145569D01*
X0167406Y0145569D01*
X0166172Y0146803D02*
X0166172Y0144334D01*
X0166172Y0146803D02*
X0166789Y0147420D01*
X0168024Y0147420D01*
X0168641Y0146803D01*
X0169855Y0147420D02*
X0171707Y0147420D01*
X0172324Y0146803D01*
X0172324Y0145569D01*
X0171707Y0144951D01*
X0169855Y0144951D01*
X0169855Y0143717D02*
X0169855Y0147420D01*
X0169855Y0149717D02*
X0169855Y0153420D01*
X0172324Y0149717D01*
X0172324Y0153420D01*
X0173538Y0152186D02*
X0174773Y0153420D01*
X0176007Y0152186D01*
X0176007Y0149717D01*
X0177221Y0149717D02*
X0179690Y0149717D01*
X0180905Y0150334D02*
X0181522Y0149717D01*
X0182756Y0149717D01*
X0183373Y0150334D01*
X0183373Y0152803D01*
X0182756Y0153420D01*
X0181522Y0153420D01*
X0180905Y0152803D01*
X0180905Y0150334D01*
X0180905Y0147420D02*
X0180905Y0143717D01*
X0183373Y0143717D01*
X0182139Y0145569D02*
X0180905Y0145569D01*
X0179690Y0144951D02*
X0179690Y0147420D01*
X0180905Y0147420D02*
X0183373Y0147420D01*
X0185205Y0149717D02*
X0184588Y0150334D01*
X0184588Y0152803D01*
X0185205Y0153420D01*
X0186439Y0153420D01*
X0187056Y0152803D01*
X0187056Y0151569D02*
X0185822Y0151569D01*
X0187056Y0151569D02*
X0187056Y0150334D01*
X0186439Y0149717D01*
X0185205Y0149717D01*
X0179690Y0144951D02*
X0178456Y0143717D01*
X0177221Y0144951D01*
X0177221Y0147420D01*
X0176007Y0146803D02*
X0175390Y0147420D01*
X0174155Y0147420D01*
X0173538Y0146803D01*
X0173538Y0144334D01*
X0174155Y0143717D01*
X0175390Y0143717D01*
X0176007Y0144334D01*
X0176007Y0146803D01*
X0177221Y0149717D02*
X0177221Y0153420D01*
X0176007Y0151569D02*
X0173538Y0151569D01*
X0173538Y0152186D02*
X0173538Y0149717D01*
X0168641Y0149717D02*
X0168641Y0152186D01*
X0167406Y0153420D01*
X0166172Y0152186D01*
X0166172Y0149717D01*
X0166172Y0151569D02*
X0168641Y0151569D01*
X0171090Y0144951D02*
X0172324Y0143717D01*
X0139649Y0108388D02*
X0137714Y0108388D01*
X0137714Y0106937D01*
X0138682Y0107420D01*
X0139165Y0107420D01*
X0139649Y0106937D01*
X0139649Y0105969D01*
X0139165Y0105485D01*
X0138198Y0105485D01*
X0137714Y0105969D01*
X0136703Y0105969D02*
X0136219Y0105485D01*
X0135251Y0105485D01*
X0134768Y0105969D01*
X0134768Y0106937D02*
X0135735Y0107420D01*
X0136219Y0107420D01*
X0136703Y0106937D01*
X0136703Y0105969D01*
X0134768Y0106937D02*
X0134768Y0108388D01*
X0136703Y0108388D01*
X0133756Y0107904D02*
X0133756Y0107420D01*
X0133272Y0106937D01*
X0132305Y0106937D01*
X0131821Y0107420D01*
X0131821Y0107904D01*
X0132305Y0108388D01*
X0133272Y0108388D01*
X0133756Y0107904D01*
X0133272Y0106937D02*
X0133756Y0106453D01*
X0133756Y0105969D01*
X0133272Y0105485D01*
X0132305Y0105485D01*
X0131821Y0105969D01*
X0131821Y0106453D01*
X0132305Y0106937D01*
X0130810Y0105485D02*
X0128875Y0105485D01*
X0129842Y0105485D02*
X0129842Y0108388D01*
X0128875Y0107420D01*
X0127863Y0107420D02*
X0127379Y0106937D01*
X0127863Y0106453D01*
X0127863Y0105969D01*
X0127379Y0105485D01*
X0126412Y0105485D01*
X0125928Y0105969D01*
X0124916Y0105485D02*
X0122982Y0108388D01*
X0121970Y0107420D02*
X0121970Y0105485D01*
X0122982Y0105485D02*
X0124916Y0108388D01*
X0125928Y0107904D02*
X0126412Y0108388D01*
X0127379Y0108388D01*
X0127863Y0107904D01*
X0127863Y0107420D01*
X0127379Y0106937D02*
X0126896Y0106937D01*
X0121970Y0106937D02*
X0120035Y0106937D01*
X0120035Y0107420D02*
X0121002Y0108388D01*
X0121970Y0107420D01*
X0120035Y0107420D02*
X0120035Y0105485D01*
X0119023Y0105485D02*
X0119023Y0108388D01*
X0118056Y0107420D01*
X0117088Y0108388D01*
X0117088Y0105485D01*
X0106123Y0097512D02*
X0106123Y0094609D01*
X0107090Y0094609D02*
X0105155Y0094609D01*
X0104144Y0094609D02*
X0102209Y0094609D01*
X0103176Y0094609D02*
X0103176Y0097512D01*
X0102209Y0096544D01*
X0101197Y0097028D02*
X0100713Y0097512D01*
X0099746Y0097512D01*
X0099262Y0097028D01*
X0099262Y0095093D01*
X0099746Y0094609D01*
X0100713Y0094609D01*
X0101197Y0095093D01*
X0105155Y0096544D02*
X0106123Y0097512D01*
X0100287Y0105485D02*
X0099320Y0105485D01*
X0098836Y0105969D01*
X0098836Y0106937D02*
X0099804Y0107420D01*
X0100287Y0107420D01*
X0100771Y0106937D01*
X0100771Y0105969D01*
X0100287Y0105485D01*
X0098836Y0106937D02*
X0098836Y0108388D01*
X0100771Y0108388D01*
X0097825Y0108388D02*
X0095890Y0108388D01*
X0095890Y0106937D01*
X0096857Y0107420D01*
X0097341Y0107420D01*
X0097825Y0106937D01*
X0097825Y0105969D01*
X0097341Y0105485D01*
X0096373Y0105485D01*
X0095890Y0105969D01*
X0094878Y0105969D02*
X0094394Y0105485D01*
X0093427Y0105485D01*
X0092943Y0105969D01*
X0092943Y0106453D01*
X0093427Y0106937D01*
X0094394Y0106937D01*
X0094878Y0106453D01*
X0094878Y0105969D01*
X0094394Y0106937D02*
X0094878Y0107420D01*
X0094878Y0107904D01*
X0094394Y0108388D01*
X0093427Y0108388D01*
X0092943Y0107904D01*
X0092943Y0107420D01*
X0093427Y0106937D01*
X0091932Y0105485D02*
X0089997Y0105485D01*
X0090964Y0105485D02*
X0090964Y0108388D01*
X0089997Y0107420D01*
X0088985Y0107420D02*
X0088501Y0106937D01*
X0088985Y0106453D01*
X0088985Y0105969D01*
X0088501Y0105485D01*
X0087534Y0105485D01*
X0087050Y0105969D01*
X0086039Y0105485D02*
X0084104Y0108388D01*
X0083092Y0107420D02*
X0083092Y0105485D01*
X0084104Y0105485D02*
X0086039Y0108388D01*
X0087050Y0107904D02*
X0087534Y0108388D01*
X0088501Y0108388D01*
X0088985Y0107904D01*
X0088985Y0107420D01*
X0088501Y0106937D02*
X0088018Y0106937D01*
X0083092Y0106937D02*
X0081157Y0106937D01*
X0081157Y0107420D02*
X0082125Y0108388D01*
X0083092Y0107420D01*
X0081157Y0107420D02*
X0081157Y0105485D01*
X0080146Y0105485D02*
X0080146Y0108388D01*
X0079178Y0107420D01*
X0078211Y0108388D01*
X0078211Y0105485D01*
X0072616Y0112944D02*
X0069713Y0112944D01*
X0069713Y0114396D01*
X0070197Y0114879D01*
X0071165Y0114879D01*
X0071648Y0114396D01*
X0071648Y0112944D01*
X0071648Y0113912D02*
X0072616Y0114879D01*
X0072616Y0115891D02*
X0072616Y0117826D01*
X0072616Y0116858D02*
X0069713Y0116858D01*
X0070681Y0115891D01*
X0070681Y0118837D02*
X0069713Y0119805D01*
X0072616Y0119805D01*
X0072616Y0120772D02*
X0072616Y0118837D01*
X0082039Y0125855D02*
X0082039Y0127790D01*
X0082523Y0128274D01*
X0083490Y0128274D01*
X0083974Y0127790D01*
X0084986Y0126822D02*
X0086437Y0126822D01*
X0086921Y0126339D01*
X0086921Y0125855D01*
X0086437Y0125371D01*
X0085470Y0125371D01*
X0084986Y0125855D01*
X0084986Y0126822D01*
X0085953Y0127790D01*
X0086921Y0128274D01*
X0083974Y0125855D02*
X0083490Y0125371D01*
X0082523Y0125371D01*
X0082039Y0125855D01*
X0067728Y0097020D02*
X0066761Y0097020D01*
X0066277Y0096536D01*
X0066277Y0094601D01*
X0068212Y0096536D01*
X0068212Y0094601D01*
X0067728Y0094117D01*
X0066761Y0094117D01*
X0066277Y0094601D01*
X0065266Y0094117D02*
X0063331Y0094117D01*
X0064298Y0094117D02*
X0064298Y0097020D01*
X0063331Y0096052D01*
X0062319Y0096536D02*
X0061835Y0097020D01*
X0060868Y0097020D01*
X0060384Y0096536D01*
X0060384Y0094601D01*
X0060868Y0094117D01*
X0061835Y0094117D01*
X0062319Y0094601D01*
X0067728Y0097020D02*
X0068212Y0096536D01*
X0074768Y0091316D02*
X0074768Y0090349D01*
X0075252Y0089865D01*
X0075252Y0088853D02*
X0074768Y0088370D01*
X0074768Y0087402D01*
X0075252Y0086918D01*
X0077187Y0086918D01*
X0077671Y0087402D01*
X0077671Y0088370D01*
X0077187Y0088853D01*
X0077671Y0089865D02*
X0075736Y0091800D01*
X0075252Y0091800D01*
X0074768Y0091316D01*
X0077671Y0091800D02*
X0077671Y0089865D01*
X0077671Y0085922D02*
X0077671Y0084954D01*
X0077671Y0085438D02*
X0074768Y0085438D01*
X0074768Y0084954D02*
X0074768Y0085922D01*
X0072657Y0081656D02*
X0070722Y0081656D01*
X0070722Y0078753D01*
X0069710Y0078753D02*
X0069710Y0080688D01*
X0070722Y0080204D02*
X0071689Y0080204D01*
X0069710Y0078753D02*
X0068259Y0078753D01*
X0067775Y0079237D01*
X0067775Y0080688D01*
X0066764Y0078753D02*
X0064829Y0078753D01*
X0065796Y0078753D02*
X0065796Y0081656D01*
X0064829Y0080688D01*
X0063839Y0079237D02*
X0063839Y0078753D01*
X0063356Y0078753D01*
X0063356Y0079237D01*
X0063839Y0079237D01*
X0062344Y0079237D02*
X0061860Y0078753D01*
X0060893Y0078753D01*
X0060409Y0079237D01*
X0062344Y0081172D01*
X0062344Y0079237D01*
X0060409Y0079237D02*
X0060409Y0081172D01*
X0060893Y0081656D01*
X0061860Y0081656D01*
X0062344Y0081172D01*
X0063391Y0068426D02*
X0065326Y0068426D01*
X0064358Y0066975D02*
X0063391Y0066975D01*
X0062379Y0066975D02*
X0062379Y0066008D01*
X0061896Y0065524D01*
X0061412Y0065524D01*
X0060928Y0066008D01*
X0060928Y0065040D01*
X0060444Y0064557D01*
X0059433Y0065524D02*
X0057498Y0065524D01*
X0058465Y0065524D02*
X0058465Y0068426D01*
X0057498Y0067459D01*
X0056486Y0067943D02*
X0054551Y0066008D01*
X0055035Y0065524D01*
X0056002Y0065524D01*
X0056486Y0066008D01*
X0056486Y0067943D01*
X0056002Y0068426D01*
X0055035Y0068426D01*
X0054551Y0067943D01*
X0054551Y0066008D01*
X0053562Y0066008D02*
X0053562Y0065524D01*
X0053078Y0065524D01*
X0053078Y0066008D01*
X0053562Y0066008D01*
X0052066Y0066008D02*
X0051583Y0065524D01*
X0050615Y0065524D01*
X0050131Y0066008D01*
X0052066Y0067943D01*
X0052066Y0066008D01*
X0050131Y0066008D02*
X0050131Y0067943D01*
X0050615Y0068426D01*
X0051583Y0068426D01*
X0052066Y0067943D01*
X0060928Y0066975D02*
X0060928Y0066008D01*
X0063391Y0065524D02*
X0063391Y0068426D01*
X0082612Y0056624D02*
X0082612Y0054689D01*
X0084547Y0056624D01*
X0084547Y0054689D01*
X0084063Y0054205D01*
X0083096Y0054205D01*
X0082612Y0054689D01*
X0082612Y0056624D02*
X0083096Y0057108D01*
X0084063Y0057108D01*
X0084547Y0056624D01*
X0085558Y0054689D02*
X0086042Y0054689D01*
X0086042Y0054205D01*
X0085558Y0054205D01*
X0085558Y0054689D01*
X0087032Y0054689D02*
X0087032Y0056624D01*
X0087515Y0057108D01*
X0088483Y0057108D01*
X0088967Y0056624D01*
X0087032Y0054689D01*
X0087515Y0054205D01*
X0088483Y0054205D01*
X0088967Y0054689D01*
X0088967Y0056624D01*
X0089978Y0056140D02*
X0090946Y0057108D01*
X0090946Y0054205D01*
X0091913Y0054205D02*
X0089978Y0054205D01*
X0092925Y0053238D02*
X0093408Y0053721D01*
X0093408Y0054689D01*
X0093892Y0054205D01*
X0094376Y0054205D01*
X0094860Y0054689D01*
X0094860Y0055656D01*
X0095871Y0055656D02*
X0096839Y0055656D01*
X0095871Y0054205D02*
X0095871Y0057108D01*
X0097806Y0057108D01*
X0093408Y0055656D02*
X0093408Y0054689D01*
X0101739Y0078753D02*
X0101256Y0079237D01*
X0103191Y0081172D01*
X0103191Y0079237D01*
X0102707Y0078753D01*
X0101739Y0078753D01*
X0101256Y0079237D02*
X0101256Y0081172D01*
X0101739Y0081656D01*
X0102707Y0081656D01*
X0103191Y0081172D01*
X0104202Y0079237D02*
X0104202Y0078753D01*
X0104686Y0078753D01*
X0104686Y0079237D01*
X0104202Y0079237D01*
X0105675Y0078753D02*
X0107610Y0078753D01*
X0106643Y0078753D02*
X0106643Y0081656D01*
X0105675Y0080688D01*
X0108622Y0080688D02*
X0108622Y0079237D01*
X0109106Y0078753D01*
X0110557Y0078753D01*
X0110557Y0080688D01*
X0111568Y0080204D02*
X0112536Y0080204D01*
X0111568Y0078753D02*
X0111568Y0081656D01*
X0113503Y0081656D01*
X0114138Y0084954D02*
X0114138Y0085922D01*
X0114138Y0085438D02*
X0117041Y0085438D01*
X0117041Y0084954D02*
X0117041Y0085922D01*
X0116557Y0086918D02*
X0117041Y0087402D01*
X0117041Y0088370D01*
X0116557Y0088853D01*
X0116557Y0089865D02*
X0117041Y0090349D01*
X0117041Y0091316D01*
X0116557Y0091800D01*
X0116073Y0091800D01*
X0115590Y0091316D01*
X0115590Y0090832D01*
X0115590Y0091316D02*
X0115106Y0091800D01*
X0114622Y0091800D01*
X0114138Y0091316D01*
X0114138Y0090349D01*
X0114622Y0089865D01*
X0114622Y0088853D02*
X0114138Y0088370D01*
X0114138Y0087402D01*
X0114622Y0086918D01*
X0116557Y0086918D01*
X0138657Y0080188D02*
X0138657Y0078253D01*
X0140592Y0080188D01*
X0140592Y0078253D01*
X0140108Y0077769D01*
X0139141Y0077769D01*
X0138657Y0078253D01*
X0138657Y0080188D02*
X0139141Y0080671D01*
X0140108Y0080671D01*
X0140592Y0080188D01*
X0141604Y0078253D02*
X0142087Y0078253D01*
X0142087Y0077769D01*
X0141604Y0077769D01*
X0141604Y0078253D01*
X0143077Y0077769D02*
X0145012Y0077769D01*
X0144044Y0077769D02*
X0144044Y0080671D01*
X0143077Y0079704D01*
X0146023Y0079704D02*
X0146023Y0078253D01*
X0146507Y0077769D01*
X0147958Y0077769D01*
X0147958Y0079704D01*
X0148970Y0079220D02*
X0149938Y0079220D01*
X0150905Y0080671D02*
X0148970Y0080671D01*
X0148970Y0077769D01*
X0144992Y0093133D02*
X0145476Y0093617D01*
X0145476Y0095552D01*
X0144992Y0096036D01*
X0144025Y0096036D01*
X0143541Y0095552D01*
X0143541Y0095068D01*
X0144025Y0094584D01*
X0145476Y0094584D01*
X0144992Y0093133D02*
X0144025Y0093133D01*
X0143541Y0093617D01*
X0142529Y0093617D02*
X0142046Y0093133D01*
X0141078Y0093133D01*
X0140594Y0093617D01*
X0140594Y0095552D01*
X0141078Y0096036D01*
X0142046Y0096036D01*
X0142529Y0095552D01*
X0137176Y0057108D02*
X0135241Y0057108D01*
X0135241Y0054205D01*
X0134230Y0054689D02*
X0134230Y0055656D01*
X0134230Y0054689D02*
X0133746Y0054205D01*
X0133262Y0054205D01*
X0132778Y0054689D01*
X0132778Y0053721D01*
X0132295Y0053238D01*
X0131283Y0054205D02*
X0129348Y0054205D01*
X0130316Y0054205D02*
X0130316Y0057108D01*
X0129348Y0056140D01*
X0128337Y0056624D02*
X0128337Y0054689D01*
X0127853Y0054205D01*
X0126885Y0054205D01*
X0126402Y0054689D01*
X0128337Y0056624D01*
X0127853Y0057108D01*
X0126885Y0057108D01*
X0126402Y0056624D01*
X0126402Y0054689D01*
X0125412Y0054689D02*
X0125412Y0054205D01*
X0124928Y0054205D01*
X0124928Y0054689D01*
X0125412Y0054689D01*
X0123917Y0054689D02*
X0123917Y0056624D01*
X0121982Y0054689D01*
X0122466Y0054205D01*
X0123433Y0054205D01*
X0123917Y0054689D01*
X0123917Y0056624D02*
X0123433Y0057108D01*
X0122466Y0057108D01*
X0121982Y0056624D01*
X0121982Y0054689D01*
X0132778Y0054689D02*
X0132778Y0055656D01*
X0135241Y0055656D02*
X0136209Y0055656D01*
X0161696Y0034881D02*
X0163548Y0034881D01*
X0164165Y0034264D01*
X0164165Y0033029D01*
X0163548Y0032412D01*
X0161696Y0032412D01*
X0161696Y0031178D02*
X0161696Y0034881D01*
X0165379Y0034881D02*
X0165379Y0031178D01*
X0166614Y0032412D01*
X0167848Y0031178D01*
X0167848Y0034881D01*
X0169062Y0034881D02*
X0170914Y0034881D01*
X0171531Y0034264D01*
X0171531Y0033029D01*
X0170914Y0032412D01*
X0169062Y0032412D01*
X0169062Y0031178D02*
X0169062Y0034881D01*
X0170297Y0032412D02*
X0171531Y0031178D01*
X0187224Y0033542D02*
X0189159Y0033542D01*
X0190170Y0032575D02*
X0190654Y0032575D01*
X0190654Y0032091D01*
X0190170Y0032091D01*
X0190170Y0032575D01*
X0191643Y0032575D02*
X0191643Y0032091D01*
X0191643Y0032575D02*
X0193578Y0034510D01*
X0193578Y0034993D01*
X0191643Y0034993D01*
X0194590Y0034993D02*
X0194590Y0032091D01*
X0194590Y0033058D02*
X0196525Y0034993D01*
X0195074Y0033542D02*
X0196525Y0032091D01*
X0203116Y0035922D02*
X0205051Y0035922D01*
X0204084Y0035922D02*
X0204084Y0038825D01*
X0203116Y0037857D01*
X0206063Y0038341D02*
X0206547Y0038825D01*
X0207514Y0038825D01*
X0207998Y0038341D01*
X0206063Y0036406D01*
X0206547Y0035922D01*
X0207514Y0035922D01*
X0207998Y0036406D01*
X0207998Y0038341D01*
X0209009Y0038825D02*
X0209009Y0035922D01*
X0209009Y0036890D02*
X0210944Y0038825D01*
X0209493Y0037374D02*
X0210944Y0035922D01*
X0211346Y0035112D02*
X0212797Y0035112D01*
X0213281Y0034628D01*
X0213281Y0033660D01*
X0212797Y0033177D01*
X0211346Y0033177D01*
X0212313Y0033177D02*
X0213281Y0032209D01*
X0214292Y0032693D02*
X0214776Y0032209D01*
X0215743Y0032209D01*
X0216227Y0032693D01*
X0216227Y0033660D01*
X0215743Y0034144D01*
X0215260Y0034144D01*
X0214292Y0033660D01*
X0214292Y0035112D01*
X0216227Y0035112D01*
X0211346Y0035112D02*
X0211346Y0032209D01*
X0206063Y0036406D02*
X0206063Y0038341D01*
X0202687Y0041949D02*
X0199785Y0041949D01*
X0199785Y0043400D01*
X0200269Y0043884D01*
X0201236Y0043884D01*
X0201720Y0043400D01*
X0201720Y0041949D01*
X0201720Y0042917D02*
X0202687Y0043884D01*
X0202687Y0044896D02*
X0202204Y0044896D01*
X0200269Y0046831D01*
X0199785Y0046831D01*
X0199785Y0044896D01*
X0198650Y0051178D02*
X0197682Y0051178D01*
X0197198Y0051662D01*
X0199133Y0053597D01*
X0199133Y0051662D01*
X0198650Y0051178D01*
X0197198Y0051662D02*
X0197198Y0053597D01*
X0197682Y0054081D01*
X0198650Y0054081D01*
X0199133Y0053597D01*
X0198664Y0055623D02*
X0198664Y0057074D01*
X0199148Y0057558D01*
X0199632Y0057074D01*
X0199632Y0055623D01*
X0200643Y0055623D02*
X0200643Y0057558D01*
X0201611Y0058526D01*
X0202578Y0057558D01*
X0202578Y0055623D01*
X0202578Y0057074D02*
X0200643Y0057074D01*
X0198664Y0057074D02*
X0198180Y0057558D01*
X0197697Y0057558D01*
X0197697Y0055623D01*
X0196685Y0056107D02*
X0196685Y0058042D01*
X0194750Y0056107D01*
X0195234Y0055623D01*
X0196201Y0055623D01*
X0196685Y0056107D01*
X0194750Y0056107D02*
X0194750Y0058042D01*
X0195234Y0058526D01*
X0196201Y0058526D01*
X0196685Y0058042D01*
X0193739Y0058526D02*
X0191804Y0058526D01*
X0191804Y0057074D01*
X0192771Y0057558D01*
X0193255Y0057558D01*
X0193739Y0057074D01*
X0193739Y0056107D01*
X0193255Y0055623D01*
X0192287Y0055623D01*
X0191804Y0056107D01*
X0190792Y0055623D02*
X0188857Y0055623D01*
X0190792Y0057558D01*
X0190792Y0058042D01*
X0190308Y0058526D01*
X0189341Y0058526D01*
X0188857Y0058042D01*
X0191789Y0054081D02*
X0192757Y0054081D01*
X0193240Y0053597D01*
X0193240Y0053113D01*
X0192757Y0052630D01*
X0193240Y0052146D01*
X0193240Y0051662D01*
X0192757Y0051178D01*
X0191789Y0051178D01*
X0191305Y0051662D01*
X0192273Y0052630D02*
X0192757Y0052630D01*
X0191305Y0053597D02*
X0191789Y0054081D01*
X0194252Y0053597D02*
X0194736Y0054081D01*
X0195703Y0054081D01*
X0196187Y0053597D01*
X0196187Y0053113D01*
X0195703Y0052630D01*
X0196187Y0052146D01*
X0196187Y0051662D01*
X0195703Y0051178D01*
X0194736Y0051178D01*
X0194252Y0051662D01*
X0195219Y0052630D02*
X0195703Y0052630D01*
X0190393Y0046339D02*
X0190876Y0045855D01*
X0190876Y0044887D01*
X0190393Y0044404D01*
X0189909Y0044404D01*
X0189425Y0044887D01*
X0189425Y0045855D01*
X0189909Y0046339D01*
X0190393Y0046339D01*
X0189425Y0045855D02*
X0188941Y0046339D01*
X0188458Y0046339D01*
X0187974Y0045855D01*
X0187974Y0044887D01*
X0188458Y0044404D01*
X0188941Y0044404D01*
X0189425Y0044887D01*
X0189425Y0043392D02*
X0189909Y0042908D01*
X0189909Y0041457D01*
X0190876Y0041457D02*
X0187974Y0041457D01*
X0187974Y0042908D01*
X0188458Y0043392D01*
X0189425Y0043392D01*
X0189909Y0042425D02*
X0190876Y0043392D01*
X0188675Y0034993D02*
X0187224Y0033542D01*
X0188675Y0032091D02*
X0188675Y0034993D01*
X0211446Y0041580D02*
X0211446Y0043031D01*
X0211929Y0043515D01*
X0212897Y0043515D01*
X0213381Y0043031D01*
X0213381Y0041580D01*
X0214348Y0041580D02*
X0211446Y0041580D01*
X0213381Y0042547D02*
X0214348Y0043515D01*
X0213864Y0044526D02*
X0214348Y0045010D01*
X0214348Y0045978D01*
X0213864Y0046461D01*
X0213381Y0046461D01*
X0212897Y0045978D01*
X0212897Y0044526D01*
X0213864Y0044526D01*
X0212897Y0044526D02*
X0211929Y0045494D01*
X0211446Y0046461D01*
X0218358Y0054981D02*
X0219809Y0054981D01*
X0220293Y0055465D01*
X0220293Y0057400D01*
X0219809Y0057884D01*
X0218358Y0057884D01*
X0218358Y0054981D01*
X0221305Y0054981D02*
X0223240Y0056916D01*
X0223240Y0057400D01*
X0222756Y0057884D01*
X0221788Y0057884D01*
X0221305Y0057400D01*
X0221305Y0054981D02*
X0223240Y0054981D01*
X0223138Y0048438D02*
X0225073Y0046503D01*
X0224590Y0046986D02*
X0226041Y0048438D01*
X0226041Y0046503D02*
X0223138Y0046503D01*
X0223622Y0045491D02*
X0225557Y0043556D01*
X0226041Y0044040D01*
X0226041Y0045007D01*
X0225557Y0045491D01*
X0223622Y0045491D01*
X0223138Y0045007D01*
X0223138Y0044040D01*
X0223622Y0043556D01*
X0225557Y0043556D01*
X0226041Y0042545D02*
X0226041Y0040610D01*
X0226041Y0041577D02*
X0223138Y0041577D01*
X0224106Y0040610D01*
X0195625Y0073689D02*
X0193690Y0073689D01*
X0193206Y0074173D01*
X0193206Y0075141D01*
X0193690Y0075624D01*
X0195625Y0075624D01*
X0196109Y0075141D01*
X0196109Y0074173D01*
X0195625Y0073689D01*
X0195141Y0074657D02*
X0196109Y0075624D01*
X0196109Y0076636D02*
X0196109Y0078571D01*
X0196109Y0077603D02*
X0193206Y0077603D01*
X0194174Y0076636D01*
X0254521Y0145288D02*
X0254037Y0145772D01*
X0254037Y0146739D01*
X0254521Y0147223D01*
X0256456Y0145288D01*
X0256939Y0145772D01*
X0256939Y0146739D01*
X0256456Y0147223D01*
X0254521Y0147223D01*
X0254521Y0145288D02*
X0256456Y0145288D01*
X0256456Y0148234D02*
X0256456Y0148718D01*
X0256939Y0148718D01*
X0256939Y0148234D01*
X0256456Y0148234D01*
X0256939Y0149708D02*
X0256939Y0151643D01*
X0256939Y0150675D02*
X0254037Y0150675D01*
X0255004Y0149708D01*
X0255004Y0152654D02*
X0256456Y0152654D01*
X0256939Y0153138D01*
X0256939Y0154589D01*
X0255004Y0154589D01*
X0255488Y0155601D02*
X0255488Y0156568D01*
X0254037Y0155601D02*
X0254037Y0157536D01*
X0254037Y0155601D02*
X0256939Y0155601D01*
X0250799Y0156859D02*
X0250315Y0156375D01*
X0249347Y0156375D01*
X0248864Y0156859D01*
X0248864Y0157343D01*
X0249347Y0157826D01*
X0250315Y0157826D01*
X0250799Y0157343D01*
X0250799Y0156859D01*
X0250315Y0157826D02*
X0250799Y0158310D01*
X0250799Y0158794D01*
X0250315Y0159278D01*
X0249347Y0159278D01*
X0248864Y0158794D01*
X0248864Y0158310D01*
X0249347Y0157826D01*
X0247852Y0156859D02*
X0247368Y0156375D01*
X0246401Y0156375D01*
X0245917Y0156859D01*
X0245917Y0158794D01*
X0246401Y0159278D01*
X0247368Y0159278D01*
X0247852Y0158794D01*
X0250559Y0164111D02*
X0253461Y0164111D01*
X0253461Y0166046D01*
X0253461Y0167057D02*
X0250559Y0167057D01*
X0250559Y0168992D01*
X0250559Y0170004D02*
X0250559Y0171455D01*
X0251042Y0171939D01*
X0252010Y0171939D01*
X0252494Y0171455D01*
X0252494Y0170004D01*
X0253461Y0170004D02*
X0250559Y0170004D01*
X0252010Y0168025D02*
X0252010Y0167057D01*
X0253461Y0167057D02*
X0253461Y0168992D01*
X0250559Y0166046D02*
X0250559Y0164111D01*
X0252010Y0164111D02*
X0252010Y0165078D01*
X0252494Y0172950D02*
X0252494Y0174401D01*
X0252010Y0174885D01*
X0251042Y0174885D01*
X0250559Y0174401D01*
X0250559Y0172950D01*
X0253461Y0172950D01*
X0252494Y0173918D02*
X0253461Y0174885D01*
X0252977Y0175897D02*
X0253461Y0176380D01*
X0253461Y0177348D01*
X0252977Y0177832D01*
X0251042Y0177832D01*
X0250559Y0177348D01*
X0250559Y0176380D01*
X0251042Y0175897D01*
X0252977Y0175897D01*
X0253461Y0178843D02*
X0250559Y0178843D01*
X0251526Y0179811D01*
X0250559Y0180778D01*
X0253461Y0180778D01*
X0253461Y0181790D02*
X0251526Y0183725D01*
X0251042Y0183725D01*
X0250559Y0183241D01*
X0250559Y0182273D01*
X0251042Y0181790D01*
X0253461Y0181790D02*
X0253461Y0183725D01*
X0252010Y0184736D02*
X0252010Y0186671D01*
X0253461Y0186187D02*
X0250559Y0186187D01*
X0252010Y0184736D01*
X0037809Y0092292D02*
X0037809Y0090357D01*
X0037809Y0091325D02*
X0034906Y0091325D01*
X0035874Y0090357D01*
X0035390Y0089345D02*
X0034906Y0088862D01*
X0034906Y0087894D01*
X0035390Y0087411D01*
X0037325Y0087411D01*
X0037809Y0087894D01*
X0037809Y0088862D01*
X0037325Y0089345D01*
X0037809Y0086414D02*
X0037809Y0085446D01*
X0037809Y0085930D02*
X0034906Y0085930D01*
X0034906Y0085446D02*
X0034906Y0086414D01*
X0033939Y0085967D02*
X0031036Y0087902D01*
X0031520Y0088913D02*
X0031036Y0089397D01*
X0031036Y0090365D01*
X0031520Y0090848D01*
X0032004Y0090848D01*
X0032487Y0090365D01*
X0032971Y0090848D01*
X0033455Y0090848D01*
X0033939Y0090365D01*
X0033939Y0089397D01*
X0033455Y0088913D01*
X0033939Y0087902D02*
X0031036Y0085967D01*
X0032004Y0084955D02*
X0031036Y0083988D01*
X0032004Y0083020D01*
X0033939Y0083020D01*
X0033939Y0082009D02*
X0031036Y0082009D01*
X0032004Y0081041D01*
X0031036Y0080074D01*
X0033939Y0080074D01*
X0033663Y0078169D02*
X0032212Y0078169D01*
X0032212Y0075266D01*
X0033663Y0075266D01*
X0034147Y0075750D01*
X0034147Y0077685D01*
X0033663Y0078169D01*
X0035158Y0077685D02*
X0035642Y0078169D01*
X0036610Y0078169D01*
X0037093Y0077685D01*
X0037093Y0077201D01*
X0036610Y0076717D01*
X0037093Y0076234D01*
X0037093Y0075750D01*
X0036610Y0075266D01*
X0035642Y0075266D01*
X0035158Y0075750D01*
X0036126Y0076717D02*
X0036610Y0076717D01*
X0032487Y0083020D02*
X0032487Y0084955D01*
X0032004Y0084955D02*
X0033939Y0084955D01*
X0032487Y0089881D02*
X0032487Y0090365D01*
X0032004Y0091860D02*
X0031036Y0092827D01*
X0033939Y0092827D01*
X0033939Y0091860D02*
X0033939Y0093795D01*
X0033455Y0094807D02*
X0032971Y0094807D01*
X0032487Y0095290D01*
X0032487Y0096258D01*
X0032971Y0096741D01*
X0033455Y0096741D01*
X0033939Y0096258D01*
X0033939Y0095290D01*
X0033455Y0094807D01*
X0032487Y0095290D02*
X0032004Y0094807D01*
X0031520Y0094807D01*
X0031036Y0095290D01*
X0031036Y0096258D01*
X0031520Y0096741D01*
X0032004Y0096741D01*
X0032487Y0096258D01*
X0032487Y0097753D02*
X0031036Y0097753D01*
X0031036Y0099688D01*
X0031036Y0100700D02*
X0032487Y0100700D01*
X0032004Y0101667D01*
X0032004Y0102151D01*
X0032487Y0102635D01*
X0033455Y0102635D01*
X0033939Y0102151D01*
X0033939Y0101183D01*
X0033455Y0100700D01*
X0033455Y0099688D02*
X0033939Y0099204D01*
X0033939Y0098237D01*
X0033455Y0097753D01*
X0032487Y0097753D02*
X0032004Y0098721D01*
X0032004Y0099204D01*
X0032487Y0099688D01*
X0033455Y0099688D01*
X0031036Y0100700D02*
X0031036Y0102635D01*
X0028736Y0078169D02*
X0027284Y0076717D01*
X0029219Y0076717D01*
X0028736Y0075266D02*
X0028736Y0078169D01*
X0026273Y0077685D02*
X0026273Y0075750D01*
X0025789Y0075266D01*
X0024338Y0075266D01*
X0024338Y0078169D01*
X0025789Y0078169D01*
X0026273Y0077685D01*
X0020853Y0077676D02*
X0018918Y0077676D01*
X0018918Y0076225D01*
X0019886Y0076709D01*
X0020369Y0076709D01*
X0020853Y0076225D01*
X0020853Y0075258D01*
X0020369Y0074774D01*
X0019402Y0074774D01*
X0018918Y0075258D01*
X0017907Y0075258D02*
X0017907Y0077193D01*
X0017423Y0077676D01*
X0015972Y0077676D01*
X0015972Y0074774D01*
X0017423Y0074774D01*
X0017907Y0075258D01*
D12*
X0039341Y0081914D02*
X0039341Y0094314D01*
X0039343Y0094390D01*
X0039349Y0094466D01*
X0039358Y0094541D01*
X0039372Y0094616D01*
X0039389Y0094690D01*
X0039410Y0094763D01*
X0039434Y0094835D01*
X0039463Y0094906D01*
X0039494Y0094975D01*
X0039529Y0095042D01*
X0039568Y0095107D01*
X0039610Y0095171D01*
X0039655Y0095232D01*
X0039703Y0095291D01*
X0039754Y0095347D01*
X0039808Y0095401D01*
X0039864Y0095452D01*
X0039923Y0095500D01*
X0039984Y0095545D01*
X0040048Y0095587D01*
X0040113Y0095626D01*
X0040180Y0095661D01*
X0040249Y0095692D01*
X0040320Y0095721D01*
X0040392Y0095745D01*
X0040465Y0095766D01*
X0040539Y0095783D01*
X0040614Y0095797D01*
X0040689Y0095806D01*
X0040765Y0095812D01*
X0040841Y0095814D01*
X0057841Y0095814D01*
X0057917Y0095812D01*
X0057993Y0095806D01*
X0058068Y0095797D01*
X0058143Y0095783D01*
X0058217Y0095766D01*
X0058290Y0095745D01*
X0058362Y0095721D01*
X0058433Y0095692D01*
X0058502Y0095661D01*
X0058569Y0095626D01*
X0058634Y0095587D01*
X0058698Y0095545D01*
X0058759Y0095500D01*
X0058818Y0095452D01*
X0058874Y0095401D01*
X0058928Y0095347D01*
X0058979Y0095291D01*
X0059027Y0095232D01*
X0059072Y0095171D01*
X0059114Y0095107D01*
X0059153Y0095042D01*
X0059188Y0094975D01*
X0059219Y0094906D01*
X0059248Y0094835D01*
X0059272Y0094763D01*
X0059293Y0094690D01*
X0059310Y0094616D01*
X0059324Y0094541D01*
X0059333Y0094466D01*
X0059339Y0094390D01*
X0059341Y0094314D01*
X0059341Y0081914D01*
X0059339Y0081838D01*
X0059333Y0081762D01*
X0059324Y0081687D01*
X0059310Y0081612D01*
X0059293Y0081538D01*
X0059272Y0081465D01*
X0059248Y0081393D01*
X0059219Y0081322D01*
X0059188Y0081253D01*
X0059153Y0081186D01*
X0059114Y0081121D01*
X0059072Y0081057D01*
X0059027Y0080996D01*
X0058979Y0080937D01*
X0058928Y0080881D01*
X0058874Y0080827D01*
X0058818Y0080776D01*
X0058759Y0080728D01*
X0058698Y0080683D01*
X0058634Y0080641D01*
X0058569Y0080602D01*
X0058502Y0080567D01*
X0058433Y0080536D01*
X0058362Y0080507D01*
X0058290Y0080483D01*
X0058217Y0080462D01*
X0058143Y0080445D01*
X0058068Y0080431D01*
X0057993Y0080422D01*
X0057917Y0080416D01*
X0057841Y0080414D01*
X0040841Y0080414D01*
X0040765Y0080416D01*
X0040689Y0080422D01*
X0040614Y0080431D01*
X0040539Y0080445D01*
X0040465Y0080462D01*
X0040392Y0080483D01*
X0040320Y0080507D01*
X0040249Y0080536D01*
X0040180Y0080567D01*
X0040113Y0080602D01*
X0040048Y0080641D01*
X0039984Y0080683D01*
X0039923Y0080728D01*
X0039864Y0080776D01*
X0039808Y0080827D01*
X0039754Y0080881D01*
X0039703Y0080937D01*
X0039655Y0080996D01*
X0039610Y0081057D01*
X0039568Y0081121D01*
X0039529Y0081186D01*
X0039494Y0081253D01*
X0039463Y0081322D01*
X0039434Y0081393D01*
X0039410Y0081465D01*
X0039389Y0081538D01*
X0039372Y0081612D01*
X0039358Y0081687D01*
X0039349Y0081762D01*
X0039343Y0081838D01*
X0039341Y0081914D01*
X0039341Y0086114D02*
X0039429Y0086116D01*
X0039518Y0086122D01*
X0039606Y0086132D01*
X0039693Y0086145D01*
X0039780Y0086163D01*
X0039866Y0086184D01*
X0039951Y0086209D01*
X0040034Y0086238D01*
X0040117Y0086271D01*
X0040197Y0086307D01*
X0040276Y0086346D01*
X0040354Y0086389D01*
X0040429Y0086436D01*
X0040502Y0086486D01*
X0040573Y0086539D01*
X0040642Y0086595D01*
X0040708Y0086654D01*
X0040771Y0086716D01*
X0040831Y0086780D01*
X0040889Y0086847D01*
X0040943Y0086917D01*
X0040995Y0086989D01*
X0041043Y0087063D01*
X0041088Y0087140D01*
X0041129Y0087218D01*
X0041167Y0087298D01*
X0041201Y0087379D01*
X0041232Y0087462D01*
X0041259Y0087547D01*
X0041282Y0087632D01*
X0041301Y0087718D01*
X0041317Y0087806D01*
X0041329Y0087893D01*
X0041337Y0087981D01*
X0041341Y0088070D01*
X0041341Y0088158D01*
X0041337Y0088247D01*
X0041329Y0088335D01*
X0041317Y0088422D01*
X0041301Y0088510D01*
X0041282Y0088596D01*
X0041259Y0088681D01*
X0041232Y0088766D01*
X0041201Y0088849D01*
X0041167Y0088930D01*
X0041129Y0089010D01*
X0041088Y0089088D01*
X0041043Y0089165D01*
X0040995Y0089239D01*
X0040943Y0089311D01*
X0040889Y0089381D01*
X0040831Y0089448D01*
X0040771Y0089512D01*
X0040708Y0089574D01*
X0040642Y0089633D01*
X0040573Y0089689D01*
X0040502Y0089742D01*
X0040429Y0089792D01*
X0040354Y0089839D01*
X0040276Y0089882D01*
X0040197Y0089921D01*
X0040117Y0089957D01*
X0040034Y0089990D01*
X0039951Y0090019D01*
X0039866Y0090044D01*
X0039780Y0090065D01*
X0039693Y0090083D01*
X0039606Y0090096D01*
X0039518Y0090106D01*
X0039429Y0090112D01*
X0039341Y0090114D01*
X0043825Y0068457D02*
X0043391Y0068024D01*
X0043391Y0066289D01*
X0043825Y0065855D01*
X0044692Y0065855D01*
X0045126Y0066289D01*
X0046338Y0066289D02*
X0046772Y0065855D01*
X0047639Y0065855D01*
X0048073Y0066289D01*
X0048073Y0066723D01*
X0047639Y0067156D01*
X0047205Y0067156D01*
X0047639Y0067156D02*
X0048073Y0067590D01*
X0048073Y0068024D01*
X0047639Y0068457D01*
X0046772Y0068457D01*
X0046338Y0068024D01*
X0045126Y0068024D02*
X0044692Y0068457D01*
X0043825Y0068457D01*
X0062727Y0086441D02*
X0062727Y0088803D01*
X0067452Y0088803D02*
X0067452Y0086441D01*
X0078711Y0086114D02*
X0078799Y0086116D01*
X0078888Y0086122D01*
X0078976Y0086132D01*
X0079063Y0086145D01*
X0079150Y0086163D01*
X0079236Y0086184D01*
X0079321Y0086209D01*
X0079404Y0086238D01*
X0079487Y0086271D01*
X0079567Y0086307D01*
X0079646Y0086346D01*
X0079724Y0086389D01*
X0079799Y0086436D01*
X0079872Y0086486D01*
X0079943Y0086539D01*
X0080012Y0086595D01*
X0080078Y0086654D01*
X0080141Y0086716D01*
X0080201Y0086780D01*
X0080259Y0086847D01*
X0080313Y0086917D01*
X0080365Y0086989D01*
X0080413Y0087063D01*
X0080458Y0087140D01*
X0080499Y0087218D01*
X0080537Y0087298D01*
X0080571Y0087379D01*
X0080602Y0087462D01*
X0080629Y0087547D01*
X0080652Y0087632D01*
X0080671Y0087718D01*
X0080687Y0087806D01*
X0080699Y0087893D01*
X0080707Y0087981D01*
X0080711Y0088070D01*
X0080711Y0088158D01*
X0080707Y0088247D01*
X0080699Y0088335D01*
X0080687Y0088422D01*
X0080671Y0088510D01*
X0080652Y0088596D01*
X0080629Y0088681D01*
X0080602Y0088766D01*
X0080571Y0088849D01*
X0080537Y0088930D01*
X0080499Y0089010D01*
X0080458Y0089088D01*
X0080413Y0089165D01*
X0080365Y0089239D01*
X0080313Y0089311D01*
X0080259Y0089381D01*
X0080201Y0089448D01*
X0080141Y0089512D01*
X0080078Y0089574D01*
X0080012Y0089633D01*
X0079943Y0089689D01*
X0079872Y0089742D01*
X0079799Y0089792D01*
X0079724Y0089839D01*
X0079646Y0089882D01*
X0079567Y0089921D01*
X0079487Y0089957D01*
X0079404Y0089990D01*
X0079321Y0090019D01*
X0079236Y0090044D01*
X0079150Y0090065D01*
X0079063Y0090083D01*
X0078976Y0090096D01*
X0078888Y0090106D01*
X0078799Y0090112D01*
X0078711Y0090114D01*
X0078711Y0094314D02*
X0078711Y0081914D01*
X0078713Y0081838D01*
X0078719Y0081762D01*
X0078728Y0081687D01*
X0078742Y0081612D01*
X0078759Y0081538D01*
X0078780Y0081465D01*
X0078804Y0081393D01*
X0078833Y0081322D01*
X0078864Y0081253D01*
X0078899Y0081186D01*
X0078938Y0081121D01*
X0078980Y0081057D01*
X0079025Y0080996D01*
X0079073Y0080937D01*
X0079124Y0080881D01*
X0079178Y0080827D01*
X0079234Y0080776D01*
X0079293Y0080728D01*
X0079354Y0080683D01*
X0079418Y0080641D01*
X0079483Y0080602D01*
X0079550Y0080567D01*
X0079619Y0080536D01*
X0079690Y0080507D01*
X0079762Y0080483D01*
X0079835Y0080462D01*
X0079909Y0080445D01*
X0079984Y0080431D01*
X0080059Y0080422D01*
X0080135Y0080416D01*
X0080211Y0080414D01*
X0097211Y0080414D01*
X0097287Y0080416D01*
X0097363Y0080422D01*
X0097438Y0080431D01*
X0097513Y0080445D01*
X0097587Y0080462D01*
X0097660Y0080483D01*
X0097732Y0080507D01*
X0097803Y0080536D01*
X0097872Y0080567D01*
X0097939Y0080602D01*
X0098004Y0080641D01*
X0098068Y0080683D01*
X0098129Y0080728D01*
X0098188Y0080776D01*
X0098244Y0080827D01*
X0098298Y0080881D01*
X0098349Y0080937D01*
X0098397Y0080996D01*
X0098442Y0081057D01*
X0098484Y0081121D01*
X0098523Y0081186D01*
X0098558Y0081253D01*
X0098589Y0081322D01*
X0098618Y0081393D01*
X0098642Y0081465D01*
X0098663Y0081538D01*
X0098680Y0081612D01*
X0098694Y0081687D01*
X0098703Y0081762D01*
X0098709Y0081838D01*
X0098711Y0081914D01*
X0098711Y0094314D01*
X0098709Y0094390D01*
X0098703Y0094466D01*
X0098694Y0094541D01*
X0098680Y0094616D01*
X0098663Y0094690D01*
X0098642Y0094763D01*
X0098618Y0094835D01*
X0098589Y0094906D01*
X0098558Y0094975D01*
X0098523Y0095042D01*
X0098484Y0095107D01*
X0098442Y0095171D01*
X0098397Y0095232D01*
X0098349Y0095291D01*
X0098298Y0095347D01*
X0098244Y0095401D01*
X0098188Y0095452D01*
X0098129Y0095500D01*
X0098068Y0095545D01*
X0098004Y0095587D01*
X0097939Y0095626D01*
X0097872Y0095661D01*
X0097803Y0095692D01*
X0097732Y0095721D01*
X0097660Y0095745D01*
X0097587Y0095766D01*
X0097513Y0095783D01*
X0097438Y0095797D01*
X0097363Y0095806D01*
X0097287Y0095812D01*
X0097211Y0095814D01*
X0080211Y0095814D01*
X0080135Y0095812D01*
X0080059Y0095806D01*
X0079984Y0095797D01*
X0079909Y0095783D01*
X0079835Y0095766D01*
X0079762Y0095745D01*
X0079690Y0095721D01*
X0079619Y0095692D01*
X0079550Y0095661D01*
X0079483Y0095626D01*
X0079418Y0095587D01*
X0079354Y0095545D01*
X0079293Y0095500D01*
X0079234Y0095452D01*
X0079178Y0095401D01*
X0079124Y0095347D01*
X0079073Y0095291D01*
X0079025Y0095232D01*
X0078980Y0095171D01*
X0078938Y0095107D01*
X0078899Y0095042D01*
X0078864Y0094975D01*
X0078833Y0094906D01*
X0078804Y0094835D01*
X0078780Y0094763D01*
X0078759Y0094690D01*
X0078742Y0094616D01*
X0078728Y0094541D01*
X0078719Y0094466D01*
X0078713Y0094390D01*
X0078711Y0094314D01*
X0102097Y0089295D02*
X0102097Y0086933D01*
X0106822Y0086933D02*
X0106822Y0089295D01*
X0118081Y0090114D02*
X0118169Y0090112D01*
X0118258Y0090106D01*
X0118346Y0090096D01*
X0118433Y0090083D01*
X0118520Y0090065D01*
X0118606Y0090044D01*
X0118691Y0090019D01*
X0118774Y0089990D01*
X0118857Y0089957D01*
X0118937Y0089921D01*
X0119016Y0089882D01*
X0119094Y0089839D01*
X0119169Y0089792D01*
X0119242Y0089742D01*
X0119313Y0089689D01*
X0119382Y0089633D01*
X0119448Y0089574D01*
X0119511Y0089512D01*
X0119571Y0089448D01*
X0119629Y0089381D01*
X0119683Y0089311D01*
X0119735Y0089239D01*
X0119783Y0089165D01*
X0119828Y0089088D01*
X0119869Y0089010D01*
X0119907Y0088930D01*
X0119941Y0088849D01*
X0119972Y0088766D01*
X0119999Y0088681D01*
X0120022Y0088596D01*
X0120041Y0088510D01*
X0120057Y0088422D01*
X0120069Y0088335D01*
X0120077Y0088247D01*
X0120081Y0088158D01*
X0120081Y0088070D01*
X0120077Y0087981D01*
X0120069Y0087893D01*
X0120057Y0087806D01*
X0120041Y0087718D01*
X0120022Y0087632D01*
X0119999Y0087547D01*
X0119972Y0087462D01*
X0119941Y0087379D01*
X0119907Y0087298D01*
X0119869Y0087218D01*
X0119828Y0087140D01*
X0119783Y0087063D01*
X0119735Y0086989D01*
X0119683Y0086917D01*
X0119629Y0086847D01*
X0119571Y0086780D01*
X0119511Y0086716D01*
X0119448Y0086654D01*
X0119382Y0086595D01*
X0119313Y0086539D01*
X0119242Y0086486D01*
X0119169Y0086436D01*
X0119094Y0086389D01*
X0119016Y0086346D01*
X0118937Y0086307D01*
X0118857Y0086271D01*
X0118774Y0086238D01*
X0118691Y0086209D01*
X0118606Y0086184D01*
X0118520Y0086163D01*
X0118433Y0086145D01*
X0118346Y0086132D01*
X0118258Y0086122D01*
X0118169Y0086116D01*
X0118081Y0086114D01*
X0118081Y0081914D02*
X0118081Y0094314D01*
X0118083Y0094390D01*
X0118089Y0094466D01*
X0118098Y0094541D01*
X0118112Y0094616D01*
X0118129Y0094690D01*
X0118150Y0094763D01*
X0118174Y0094835D01*
X0118203Y0094906D01*
X0118234Y0094975D01*
X0118269Y0095042D01*
X0118308Y0095107D01*
X0118350Y0095171D01*
X0118395Y0095232D01*
X0118443Y0095291D01*
X0118494Y0095347D01*
X0118548Y0095401D01*
X0118604Y0095452D01*
X0118663Y0095500D01*
X0118724Y0095545D01*
X0118788Y0095587D01*
X0118853Y0095626D01*
X0118920Y0095661D01*
X0118989Y0095692D01*
X0119060Y0095721D01*
X0119132Y0095745D01*
X0119205Y0095766D01*
X0119279Y0095783D01*
X0119354Y0095797D01*
X0119429Y0095806D01*
X0119505Y0095812D01*
X0119581Y0095814D01*
X0136581Y0095814D01*
X0136657Y0095812D01*
X0136733Y0095806D01*
X0136808Y0095797D01*
X0136883Y0095783D01*
X0136957Y0095766D01*
X0137030Y0095745D01*
X0137102Y0095721D01*
X0137173Y0095692D01*
X0137242Y0095661D01*
X0137309Y0095626D01*
X0137374Y0095587D01*
X0137438Y0095545D01*
X0137499Y0095500D01*
X0137558Y0095452D01*
X0137614Y0095401D01*
X0137668Y0095347D01*
X0137719Y0095291D01*
X0137767Y0095232D01*
X0137812Y0095171D01*
X0137854Y0095107D01*
X0137893Y0095042D01*
X0137928Y0094975D01*
X0137959Y0094906D01*
X0137988Y0094835D01*
X0138012Y0094763D01*
X0138033Y0094690D01*
X0138050Y0094616D01*
X0138064Y0094541D01*
X0138073Y0094466D01*
X0138079Y0094390D01*
X0138081Y0094314D01*
X0138081Y0081914D01*
X0138079Y0081838D01*
X0138073Y0081762D01*
X0138064Y0081687D01*
X0138050Y0081612D01*
X0138033Y0081538D01*
X0138012Y0081465D01*
X0137988Y0081393D01*
X0137959Y0081322D01*
X0137928Y0081253D01*
X0137893Y0081186D01*
X0137854Y0081121D01*
X0137812Y0081057D01*
X0137767Y0080996D01*
X0137719Y0080937D01*
X0137668Y0080881D01*
X0137614Y0080827D01*
X0137558Y0080776D01*
X0137499Y0080728D01*
X0137438Y0080683D01*
X0137374Y0080641D01*
X0137309Y0080602D01*
X0137242Y0080567D01*
X0137173Y0080536D01*
X0137102Y0080507D01*
X0137030Y0080483D01*
X0136957Y0080462D01*
X0136883Y0080445D01*
X0136808Y0080431D01*
X0136733Y0080422D01*
X0136657Y0080416D01*
X0136581Y0080414D01*
X0119581Y0080414D01*
X0119505Y0080416D01*
X0119429Y0080422D01*
X0119354Y0080431D01*
X0119279Y0080445D01*
X0119205Y0080462D01*
X0119132Y0080483D01*
X0119060Y0080507D01*
X0118989Y0080536D01*
X0118920Y0080567D01*
X0118853Y0080602D01*
X0118788Y0080641D01*
X0118724Y0080683D01*
X0118663Y0080728D01*
X0118604Y0080776D01*
X0118548Y0080827D01*
X0118494Y0080881D01*
X0118443Y0080937D01*
X0118395Y0080996D01*
X0118350Y0081057D01*
X0118308Y0081121D01*
X0118269Y0081186D01*
X0118234Y0081253D01*
X0118203Y0081322D01*
X0118174Y0081393D01*
X0118150Y0081465D01*
X0118129Y0081538D01*
X0118112Y0081612D01*
X0118098Y0081687D01*
X0118089Y0081762D01*
X0118083Y0081838D01*
X0118081Y0081914D01*
X0122565Y0068457D02*
X0122131Y0068024D01*
X0122131Y0066289D01*
X0122565Y0065855D01*
X0123433Y0065855D01*
X0123866Y0066289D01*
X0125078Y0067156D02*
X0126379Y0068457D01*
X0126379Y0065855D01*
X0126813Y0067156D02*
X0125078Y0067156D01*
X0123866Y0068024D02*
X0123433Y0068457D01*
X0122565Y0068457D01*
X0141467Y0085949D02*
X0141467Y0088311D01*
X0146192Y0088311D02*
X0146192Y0085949D01*
X0130222Y0046485D02*
X0129788Y0046485D01*
X0129354Y0046051D01*
X0129354Y0044750D01*
X0130222Y0044750D01*
X0130656Y0045184D01*
X0130656Y0046051D01*
X0130222Y0046485D01*
X0128487Y0045618D02*
X0129354Y0044750D01*
X0128487Y0045618D02*
X0128053Y0046485D01*
X0128487Y0043538D02*
X0128921Y0043538D01*
X0129354Y0043105D01*
X0129354Y0041804D01*
X0128053Y0041804D02*
X0128053Y0043105D01*
X0128487Y0043538D01*
X0129354Y0043105D02*
X0129788Y0043538D01*
X0130222Y0043538D01*
X0130656Y0043105D01*
X0130656Y0041804D01*
X0128053Y0041804D01*
X0128053Y0040592D02*
X0128053Y0038857D01*
X0130656Y0038857D01*
X0129354Y0038857D02*
X0129354Y0039724D01*
X0114907Y0038857D02*
X0112305Y0038857D01*
X0112305Y0040592D01*
X0112305Y0041804D02*
X0112305Y0043105D01*
X0112739Y0043538D01*
X0113173Y0043538D01*
X0113606Y0043105D01*
X0113606Y0041804D01*
X0113606Y0043105D02*
X0114040Y0043538D01*
X0114474Y0043538D01*
X0114907Y0043105D01*
X0114907Y0041804D01*
X0112305Y0041804D01*
X0113606Y0039724D02*
X0113606Y0038857D01*
X0113606Y0044750D02*
X0113173Y0045618D01*
X0113173Y0046051D01*
X0113606Y0046485D01*
X0114474Y0046485D01*
X0114907Y0046051D01*
X0114907Y0045184D01*
X0114474Y0044750D01*
X0113606Y0044750D02*
X0112305Y0044750D01*
X0112305Y0046485D01*
X0091285Y0046051D02*
X0088683Y0046051D01*
X0089984Y0044750D01*
X0089984Y0046485D01*
X0089551Y0043538D02*
X0089984Y0043105D01*
X0089984Y0041804D01*
X0089984Y0043105D02*
X0090418Y0043538D01*
X0090852Y0043538D01*
X0091285Y0043105D01*
X0091285Y0041804D01*
X0088683Y0041804D01*
X0088683Y0043105D01*
X0089117Y0043538D01*
X0089551Y0043538D01*
X0088683Y0040592D02*
X0088683Y0038857D01*
X0091285Y0038857D01*
X0089984Y0038857D02*
X0089984Y0039724D01*
X0075537Y0038857D02*
X0072935Y0038857D01*
X0072935Y0040592D01*
X0072935Y0041804D02*
X0072935Y0043105D01*
X0073369Y0043538D01*
X0073803Y0043538D01*
X0074236Y0043105D01*
X0074236Y0041804D01*
X0074236Y0043105D02*
X0074670Y0043538D01*
X0075104Y0043538D01*
X0075537Y0043105D01*
X0075537Y0041804D01*
X0072935Y0041804D01*
X0074236Y0039724D02*
X0074236Y0038857D01*
X0073369Y0044750D02*
X0072935Y0045184D01*
X0072935Y0046051D01*
X0073369Y0046485D01*
X0073803Y0046485D01*
X0074236Y0046051D01*
X0074670Y0046485D01*
X0075104Y0046485D01*
X0075537Y0046051D01*
X0075537Y0045184D01*
X0075104Y0044750D01*
X0074236Y0045618D02*
X0074236Y0046051D01*
X0083195Y0065855D02*
X0084063Y0065855D01*
X0084496Y0066289D01*
X0085708Y0065855D02*
X0087443Y0067590D01*
X0087443Y0068024D01*
X0087009Y0068457D01*
X0086142Y0068457D01*
X0085708Y0068024D01*
X0084496Y0068024D02*
X0084063Y0068457D01*
X0083195Y0068457D01*
X0082761Y0068024D01*
X0082761Y0066289D01*
X0083195Y0065855D01*
X0085708Y0065855D02*
X0087443Y0065855D01*
X0051915Y0046485D02*
X0051915Y0044750D01*
X0050181Y0046485D01*
X0049747Y0046485D01*
X0049313Y0046051D01*
X0049313Y0045184D01*
X0049747Y0044750D01*
X0049747Y0043538D02*
X0050181Y0043538D01*
X0050614Y0043105D01*
X0050614Y0041804D01*
X0050614Y0043105D02*
X0051048Y0043538D01*
X0051482Y0043538D01*
X0051915Y0043105D01*
X0051915Y0041804D01*
X0049313Y0041804D01*
X0049313Y0043105D01*
X0049747Y0043538D01*
X0049313Y0040592D02*
X0049313Y0038857D01*
X0051915Y0038857D01*
X0050614Y0038857D02*
X0050614Y0039724D01*
X0036167Y0038857D02*
X0033565Y0038857D01*
X0033565Y0040592D01*
X0033565Y0041804D02*
X0033565Y0043105D01*
X0033999Y0043538D01*
X0034433Y0043538D01*
X0034866Y0043105D01*
X0034866Y0041804D01*
X0034866Y0043105D02*
X0035300Y0043538D01*
X0035734Y0043538D01*
X0036167Y0043105D01*
X0036167Y0041804D01*
X0033565Y0041804D01*
X0034866Y0039724D02*
X0034866Y0038857D01*
X0034433Y0044750D02*
X0033565Y0045618D01*
X0036167Y0045618D01*
X0036167Y0046485D02*
X0036167Y0044750D01*
X0153972Y0032562D02*
X0158242Y0032562D01*
X0156107Y0034697D02*
X0156107Y0030427D01*
X0223948Y0149965D02*
X0221448Y0152465D01*
X0221448Y0157465D01*
X0223948Y0159965D01*
X0228948Y0159965D01*
X0231448Y0157465D01*
X0233948Y0159965D01*
X0238948Y0159965D01*
X0241448Y0157465D01*
X0241448Y0152465D01*
X0238948Y0149965D01*
X0233948Y0149965D01*
X0231448Y0152465D01*
X0228948Y0149965D01*
X0223948Y0149965D01*
X0229755Y0184669D02*
X0232117Y0184669D01*
X0232117Y0189394D02*
X0229755Y0189394D01*
X0227550Y0198193D02*
X0222550Y0198193D01*
X0220050Y0200693D01*
X0217550Y0198193D01*
X0212550Y0198193D01*
X0210050Y0200693D01*
X0207550Y0198193D01*
X0202550Y0198193D01*
X0200050Y0200693D01*
X0197550Y0198193D01*
X0192550Y0198193D01*
X0190050Y0200693D01*
X0187550Y0198193D01*
X0182550Y0198193D01*
X0180050Y0200693D01*
X0177550Y0198193D01*
X0172550Y0198193D01*
X0170050Y0200693D01*
X0167550Y0198193D01*
X0162550Y0198193D01*
X0160050Y0200693D01*
X0157550Y0198193D01*
X0152550Y0198193D01*
X0150050Y0200693D01*
X0147550Y0198193D01*
X0142550Y0198193D01*
X0140050Y0200693D01*
X0137550Y0198193D01*
X0132550Y0198193D01*
X0130050Y0200693D01*
X0127550Y0198193D01*
X0122550Y0198193D01*
X0120050Y0200693D01*
X0117550Y0198193D01*
X0112550Y0198193D01*
X0110050Y0200693D01*
X0107550Y0198193D01*
X0102550Y0198193D01*
X0100050Y0200693D01*
X0097550Y0198193D01*
X0092550Y0198193D01*
X0090050Y0200693D01*
X0087550Y0198193D01*
X0082550Y0198193D01*
X0080050Y0200693D01*
X0077550Y0198193D01*
X0072550Y0198193D01*
X0070050Y0200693D01*
X0067550Y0198193D01*
X0062550Y0198193D01*
X0060050Y0200693D01*
X0057550Y0198193D01*
X0052550Y0198193D01*
X0050050Y0200693D01*
X0047550Y0198193D01*
X0042550Y0198193D01*
X0040050Y0200693D01*
X0037550Y0198193D01*
X0032550Y0198193D01*
X0030050Y0200693D01*
X0030050Y0215693D01*
X0032550Y0218193D01*
X0037550Y0218193D01*
X0040050Y0215693D01*
X0042550Y0218193D01*
X0047550Y0218193D01*
X0050050Y0215693D01*
X0052550Y0218193D01*
X0057550Y0218193D01*
X0060050Y0215693D01*
X0062550Y0218193D01*
X0067550Y0218193D01*
X0070050Y0215693D01*
X0072550Y0218193D01*
X0077550Y0218193D01*
X0080050Y0215693D01*
X0082550Y0218193D01*
X0087550Y0218193D01*
X0090050Y0215693D01*
X0092550Y0218193D01*
X0097550Y0218193D01*
X0100050Y0215693D01*
X0102550Y0218193D01*
X0107550Y0218193D01*
X0110050Y0215693D01*
X0112550Y0218193D01*
X0117550Y0218193D01*
X0120050Y0215693D01*
X0122550Y0218193D01*
X0127550Y0218193D01*
X0130050Y0215693D01*
X0132550Y0218193D01*
X0137550Y0218193D01*
X0140050Y0215693D01*
X0142550Y0218193D01*
X0147550Y0218193D01*
X0150050Y0215693D01*
X0152550Y0218193D01*
X0157550Y0218193D01*
X0160050Y0215693D01*
X0162550Y0218193D01*
X0167550Y0218193D01*
X0170050Y0215693D01*
X0172550Y0218193D01*
X0177550Y0218193D01*
X0180050Y0215693D01*
X0182550Y0218193D01*
X0187550Y0218193D01*
X0190050Y0215693D01*
X0192550Y0218193D01*
X0197550Y0218193D01*
X0200050Y0215693D01*
X0202550Y0218193D01*
X0207550Y0218193D01*
X0210050Y0215693D01*
X0212550Y0218193D01*
X0217550Y0218193D01*
X0220050Y0215693D01*
X0222550Y0218193D01*
X0227550Y0218193D01*
X0230050Y0215693D01*
X0230050Y0200693D01*
X0227550Y0198193D01*
D13*
X0228027Y0192583D02*
X0228027Y0190381D01*
X0227293Y0190381D02*
X0228761Y0190381D01*
X0229503Y0191482D02*
X0230604Y0192583D01*
X0230604Y0190381D01*
X0230971Y0191482D02*
X0229503Y0191482D01*
X0228027Y0192583D02*
X0227293Y0191849D01*
X0226551Y0192216D02*
X0226184Y0192583D01*
X0225450Y0192583D01*
X0225083Y0192216D01*
X0225083Y0190748D01*
X0225450Y0190381D01*
X0226184Y0190381D01*
X0226551Y0190748D01*
X0233926Y0190857D02*
X0235394Y0192325D01*
X0235394Y0190857D01*
X0235027Y0190490D01*
X0234293Y0190490D01*
X0233926Y0190857D01*
X0233926Y0192325D01*
X0234293Y0192692D01*
X0235027Y0192692D01*
X0235394Y0192325D01*
X0236135Y0190857D02*
X0236502Y0190857D01*
X0236502Y0190490D01*
X0236135Y0190490D01*
X0236135Y0190857D01*
X0237240Y0190490D02*
X0238708Y0190490D01*
X0237974Y0190490D02*
X0237974Y0192692D01*
X0237240Y0191958D01*
X0239450Y0191958D02*
X0239450Y0190857D01*
X0239817Y0190490D01*
X0240918Y0190490D01*
X0240918Y0191958D01*
X0241660Y0191591D02*
X0242394Y0191591D01*
X0241660Y0192692D02*
X0243128Y0192692D01*
X0241660Y0192692D02*
X0241660Y0190490D01*
X0211156Y0189964D02*
X0210789Y0190331D01*
X0210055Y0190331D01*
X0209688Y0189964D01*
X0208946Y0189964D02*
X0208946Y0189230D01*
X0208579Y0188863D01*
X0207478Y0188863D01*
X0207478Y0188129D02*
X0207478Y0190331D01*
X0208579Y0190331D01*
X0208946Y0189964D01*
X0208212Y0188863D02*
X0208946Y0188129D01*
X0209688Y0188129D02*
X0211156Y0189597D01*
X0211156Y0189964D01*
X0211156Y0188129D02*
X0209688Y0188129D01*
X0204274Y0188247D02*
X0203173Y0189348D01*
X0202806Y0188981D02*
X0204274Y0190449D01*
X0202806Y0190449D02*
X0202806Y0188247D01*
X0202064Y0188614D02*
X0201697Y0188247D01*
X0200963Y0188247D01*
X0200596Y0188614D01*
X0202064Y0190082D01*
X0202064Y0188614D01*
X0200596Y0188614D02*
X0200596Y0190082D01*
X0200963Y0190449D01*
X0201697Y0190449D01*
X0202064Y0190082D01*
X0199854Y0188247D02*
X0198386Y0188247D01*
X0199120Y0188247D02*
X0199120Y0190449D01*
X0198386Y0189715D01*
X0199120Y0180607D02*
X0199120Y0178405D01*
X0198386Y0178405D02*
X0199854Y0178405D01*
X0200596Y0178772D02*
X0202064Y0180240D01*
X0202064Y0178772D01*
X0201697Y0178405D01*
X0200963Y0178405D01*
X0200596Y0178772D01*
X0200596Y0180240D01*
X0200963Y0180607D01*
X0201697Y0180607D01*
X0202064Y0180240D01*
X0202806Y0180607D02*
X0202806Y0178405D01*
X0202806Y0179139D02*
X0204274Y0180607D01*
X0203173Y0179506D02*
X0204274Y0178405D01*
X0206986Y0178287D02*
X0206986Y0180488D01*
X0208087Y0180488D01*
X0208454Y0180122D01*
X0208454Y0179388D01*
X0208087Y0179021D01*
X0206986Y0179021D01*
X0207720Y0179021D02*
X0208454Y0178287D01*
X0209196Y0178654D02*
X0209563Y0178287D01*
X0210297Y0178287D01*
X0210664Y0178654D01*
X0210664Y0179021D01*
X0210297Y0179388D01*
X0209930Y0179388D01*
X0210297Y0179388D02*
X0210664Y0179755D01*
X0210664Y0180122D01*
X0210297Y0180488D01*
X0209563Y0180488D01*
X0209196Y0180122D01*
X0199120Y0180607D02*
X0198386Y0179873D01*
X0200703Y0163180D02*
X0199969Y0162446D01*
X0200703Y0163180D02*
X0200703Y0160978D01*
X0199969Y0160978D02*
X0201437Y0160978D01*
X0202179Y0161345D02*
X0203647Y0162813D01*
X0203647Y0161345D01*
X0203280Y0160978D01*
X0202546Y0160978D01*
X0202179Y0161345D01*
X0202179Y0162813D01*
X0202546Y0163180D01*
X0203280Y0163180D01*
X0203647Y0162813D01*
X0204389Y0163180D02*
X0204389Y0160978D01*
X0204389Y0161712D02*
X0205857Y0163180D01*
X0204756Y0162079D02*
X0205857Y0160978D01*
X0208835Y0161096D02*
X0208835Y0163298D01*
X0209936Y0163298D01*
X0210303Y0162931D01*
X0210303Y0162197D01*
X0209936Y0161830D01*
X0208835Y0161830D01*
X0209569Y0161830D02*
X0210303Y0161096D01*
X0211045Y0161096D02*
X0212513Y0161096D01*
X0211779Y0161096D02*
X0211779Y0163298D01*
X0211045Y0162564D01*
X0197293Y0149893D02*
X0196926Y0149893D01*
X0195458Y0151360D01*
X0195091Y0151360D01*
X0195091Y0149893D01*
X0195458Y0149151D02*
X0195091Y0148784D01*
X0195091Y0148050D01*
X0195458Y0147683D01*
X0196926Y0147683D01*
X0197293Y0148050D01*
X0197293Y0148784D01*
X0196926Y0149151D01*
X0186544Y0145784D02*
X0185811Y0146518D01*
X0184343Y0146518D01*
X0184343Y0145050D02*
X0185811Y0145050D01*
X0186544Y0145784D01*
X0186178Y0144308D02*
X0186544Y0143941D01*
X0186544Y0143207D01*
X0186178Y0142840D01*
X0185444Y0142840D02*
X0185077Y0143574D01*
X0185077Y0143941D01*
X0185444Y0144308D01*
X0186178Y0144308D01*
X0185444Y0142840D02*
X0184343Y0142840D01*
X0184343Y0144308D01*
X0194264Y0121824D02*
X0194264Y0120356D01*
X0196466Y0120356D01*
X0196466Y0119614D02*
X0194998Y0119614D01*
X0195365Y0120356D02*
X0195365Y0121090D01*
X0196466Y0119614D02*
X0196466Y0118513D01*
X0196099Y0118146D01*
X0194998Y0118146D01*
X0194631Y0117404D02*
X0196099Y0115936D01*
X0196466Y0115936D01*
X0196466Y0114827D02*
X0194264Y0114827D01*
X0195365Y0113726D01*
X0195365Y0115194D01*
X0194264Y0115936D02*
X0194264Y0117404D01*
X0194631Y0117404D01*
X0138081Y0081814D02*
X0118081Y0081814D01*
X0098711Y0081814D02*
X0078711Y0081814D01*
X0059341Y0081814D02*
X0039341Y0081814D01*
X0027777Y0056538D02*
X0028144Y0056171D01*
X0026676Y0054703D01*
X0027043Y0054336D01*
X0027777Y0054336D01*
X0028144Y0054703D01*
X0028144Y0056171D01*
X0027777Y0056538D02*
X0027043Y0056538D01*
X0026676Y0056171D01*
X0026676Y0054703D01*
X0025934Y0054703D02*
X0025567Y0054336D01*
X0024833Y0054336D01*
X0024466Y0054703D01*
X0023724Y0054703D02*
X0023357Y0054336D01*
X0022623Y0054336D01*
X0022256Y0054703D01*
X0022990Y0055437D02*
X0023357Y0055437D01*
X0023724Y0055070D01*
X0023724Y0054703D01*
X0023357Y0055437D02*
X0023724Y0055804D01*
X0023724Y0056171D01*
X0023357Y0056538D01*
X0022623Y0056538D01*
X0022256Y0056171D01*
X0024466Y0056171D02*
X0024833Y0056538D01*
X0025567Y0056538D01*
X0025934Y0056171D01*
X0025934Y0055804D01*
X0025567Y0055437D01*
X0025934Y0055070D01*
X0025934Y0054703D01*
X0025567Y0055437D02*
X0025200Y0055437D01*
X0025200Y0043999D02*
X0026668Y0043999D01*
X0026668Y0043632D01*
X0025200Y0042164D01*
X0025200Y0041797D01*
X0024458Y0041797D02*
X0022990Y0041797D01*
X0023724Y0041797D02*
X0023724Y0043999D01*
X0022990Y0043265D01*
X0022248Y0043632D02*
X0022248Y0042898D01*
X0021881Y0042531D01*
X0020780Y0042531D01*
X0021514Y0042531D02*
X0022248Y0041797D01*
X0020780Y0041797D02*
X0020780Y0043999D01*
X0021881Y0043999D01*
X0022248Y0043632D01*
X0021892Y0036835D02*
X0023360Y0034633D01*
X0023360Y0036835D01*
X0024102Y0036835D02*
X0024102Y0034633D01*
X0025202Y0034633D01*
X0025569Y0035000D01*
X0025569Y0036468D01*
X0025202Y0036835D01*
X0024102Y0036835D01*
X0021892Y0036835D02*
X0021892Y0034633D01*
X0021150Y0035000D02*
X0021150Y0035734D01*
X0020416Y0035734D01*
X0021150Y0035000D02*
X0020783Y0034633D01*
X0020049Y0034633D01*
X0019682Y0035000D01*
X0019682Y0036468D01*
X0020049Y0036835D01*
X0020783Y0036835D01*
X0021150Y0036468D01*
X0011084Y0047683D02*
X0008882Y0047683D01*
X0008882Y0048784D01*
X0009249Y0049151D01*
X0009983Y0049151D01*
X0010350Y0048784D01*
X0010350Y0047683D01*
X0011084Y0049893D02*
X0010350Y0050627D01*
X0011084Y0051361D01*
X0008882Y0051361D01*
X0008882Y0052103D02*
X0008882Y0053204D01*
X0009249Y0053571D01*
X0009983Y0053571D01*
X0010350Y0053204D01*
X0010350Y0052103D01*
X0010350Y0052837D02*
X0011084Y0053571D01*
X0011084Y0052103D02*
X0008882Y0052103D01*
X0008882Y0049893D02*
X0011084Y0049893D01*
X0007044Y0065084D02*
X0007411Y0065451D01*
X0007411Y0066185D01*
X0007044Y0066552D01*
X0006677Y0066552D01*
X0006310Y0066185D01*
X0006310Y0065818D01*
X0006310Y0066185D02*
X0005943Y0066552D01*
X0005576Y0066552D01*
X0005209Y0066185D01*
X0005209Y0065451D01*
X0005576Y0065084D01*
X0005209Y0067294D02*
X0006677Y0067294D01*
X0007411Y0068028D01*
X0006677Y0068762D01*
X0005209Y0068762D01*
X0005576Y0069504D02*
X0005209Y0069871D01*
X0005209Y0070605D01*
X0005576Y0070972D01*
X0005943Y0070972D01*
X0006310Y0070605D01*
X0006677Y0070972D01*
X0007044Y0070972D01*
X0007411Y0070605D01*
X0007411Y0069871D01*
X0007044Y0069504D01*
X0006310Y0070238D02*
X0006310Y0070605D01*
X0046700Y0045275D02*
X0047634Y0045275D01*
X0047867Y0045509D01*
X0047634Y0046024D02*
X0047167Y0046024D01*
X0046933Y0046257D01*
X0046933Y0046724D01*
X0047167Y0046958D01*
X0047400Y0046958D01*
X0047400Y0046024D01*
X0047634Y0046024D02*
X0047867Y0046257D01*
X0047867Y0046724D01*
X0046933Y0045509D02*
X0046933Y0045042D01*
X0046933Y0044293D02*
X0047867Y0044293D01*
X0047867Y0044526D02*
X0047867Y0044059D01*
X0046933Y0044059D02*
X0046933Y0044293D01*
X0046466Y0044293D02*
X0046233Y0044293D01*
X0046933Y0043532D02*
X0046933Y0043299D01*
X0047400Y0042832D01*
X0047867Y0042832D02*
X0046933Y0042832D01*
X0046933Y0042305D02*
X0046933Y0042071D01*
X0047400Y0041604D01*
X0047867Y0041604D02*
X0046933Y0041604D01*
X0047167Y0041065D02*
X0047400Y0041065D01*
X0047400Y0040131D01*
X0047167Y0040131D02*
X0046933Y0040364D01*
X0046933Y0040831D01*
X0047167Y0041065D01*
X0047867Y0040831D02*
X0047867Y0040364D01*
X0047634Y0040131D01*
X0047167Y0040131D01*
X0046466Y0039592D02*
X0046466Y0038657D01*
X0047867Y0038657D01*
X0047167Y0038657D02*
X0047167Y0039125D01*
X0062214Y0038657D02*
X0062214Y0039592D01*
X0062915Y0039125D02*
X0062915Y0038657D01*
X0063615Y0038657D02*
X0062214Y0038657D01*
X0062915Y0040131D02*
X0062681Y0040364D01*
X0062681Y0040831D01*
X0062915Y0041065D01*
X0063148Y0041065D01*
X0063148Y0040131D01*
X0062915Y0040131D02*
X0063382Y0040131D01*
X0063615Y0040364D01*
X0063615Y0040831D01*
X0063615Y0041604D02*
X0062681Y0041604D01*
X0062681Y0042071D02*
X0062681Y0042305D01*
X0062681Y0042071D02*
X0063148Y0041604D01*
X0063148Y0042832D02*
X0062681Y0043299D01*
X0062681Y0043532D01*
X0062681Y0044059D02*
X0062681Y0044293D01*
X0063615Y0044293D01*
X0063615Y0044526D02*
X0063615Y0044059D01*
X0063615Y0042832D02*
X0062681Y0042832D01*
X0062214Y0044293D02*
X0061981Y0044293D01*
X0062681Y0045042D02*
X0062681Y0045509D01*
X0062448Y0045275D02*
X0063382Y0045275D01*
X0063615Y0045509D01*
X0063382Y0046024D02*
X0062915Y0046024D01*
X0062681Y0046257D01*
X0062681Y0046724D01*
X0062915Y0046958D01*
X0063148Y0046958D01*
X0063148Y0046024D01*
X0063382Y0046024D02*
X0063615Y0046257D01*
X0063615Y0046724D01*
X0085603Y0044293D02*
X0085836Y0044293D01*
X0086303Y0044293D02*
X0087237Y0044293D01*
X0087237Y0044526D02*
X0087237Y0044059D01*
X0086303Y0044059D02*
X0086303Y0044293D01*
X0086303Y0045042D02*
X0086303Y0045509D01*
X0086070Y0045275D02*
X0087004Y0045275D01*
X0087237Y0045509D01*
X0087004Y0046024D02*
X0086537Y0046024D01*
X0086303Y0046257D01*
X0086303Y0046724D01*
X0086537Y0046958D01*
X0086770Y0046958D01*
X0086770Y0046024D01*
X0087004Y0046024D02*
X0087237Y0046257D01*
X0087237Y0046724D01*
X0086303Y0043532D02*
X0086303Y0043299D01*
X0086770Y0042832D01*
X0087237Y0042832D02*
X0086303Y0042832D01*
X0086303Y0042305D02*
X0086303Y0042071D01*
X0086770Y0041604D01*
X0087237Y0041604D02*
X0086303Y0041604D01*
X0086537Y0041065D02*
X0086770Y0041065D01*
X0086770Y0040131D01*
X0086537Y0040131D02*
X0086303Y0040364D01*
X0086303Y0040831D01*
X0086537Y0041065D01*
X0087237Y0040831D02*
X0087237Y0040364D01*
X0087004Y0040131D01*
X0086537Y0040131D01*
X0085836Y0039592D02*
X0085836Y0038657D01*
X0087237Y0038657D01*
X0086537Y0038657D02*
X0086537Y0039125D01*
X0101351Y0044293D02*
X0101584Y0044293D01*
X0102051Y0044293D02*
X0102985Y0044293D01*
X0102985Y0044526D02*
X0102985Y0044059D01*
X0102051Y0044059D02*
X0102051Y0044293D01*
X0102051Y0045042D02*
X0102051Y0045509D01*
X0101818Y0045275D02*
X0102752Y0045275D01*
X0102985Y0045509D01*
X0102752Y0046024D02*
X0102285Y0046024D01*
X0102051Y0046257D01*
X0102051Y0046724D01*
X0102285Y0046958D01*
X0102518Y0046958D01*
X0102518Y0046024D01*
X0102752Y0046024D02*
X0102985Y0046257D01*
X0102985Y0046724D01*
X0102051Y0043532D02*
X0102051Y0043299D01*
X0102518Y0042832D01*
X0102985Y0042832D02*
X0102051Y0042832D01*
X0102051Y0042305D02*
X0102051Y0042071D01*
X0102518Y0041604D01*
X0102985Y0041604D02*
X0102051Y0041604D01*
X0102285Y0041065D02*
X0102518Y0041065D01*
X0102518Y0040131D01*
X0102285Y0040131D02*
X0102051Y0040364D01*
X0102051Y0040831D01*
X0102285Y0041065D01*
X0102985Y0040831D02*
X0102985Y0040364D01*
X0102752Y0040131D01*
X0102285Y0040131D01*
X0101584Y0039592D02*
X0101584Y0038657D01*
X0102985Y0038657D01*
X0102285Y0038657D02*
X0102285Y0039125D01*
X0125206Y0038657D02*
X0125206Y0039592D01*
X0125907Y0039125D02*
X0125907Y0038657D01*
X0126607Y0038657D02*
X0125206Y0038657D01*
X0125907Y0040131D02*
X0125673Y0040364D01*
X0125673Y0040831D01*
X0125907Y0041065D01*
X0126140Y0041065D01*
X0126140Y0040131D01*
X0125907Y0040131D02*
X0126374Y0040131D01*
X0126607Y0040364D01*
X0126607Y0040831D01*
X0126607Y0041604D02*
X0125673Y0041604D01*
X0125673Y0042071D02*
X0125673Y0042305D01*
X0125673Y0042071D02*
X0126140Y0041604D01*
X0126140Y0042832D02*
X0125673Y0043299D01*
X0125673Y0043532D01*
X0125673Y0044059D02*
X0125673Y0044293D01*
X0126607Y0044293D01*
X0126607Y0044526D02*
X0126607Y0044059D01*
X0126607Y0042832D02*
X0125673Y0042832D01*
X0125206Y0044293D02*
X0124973Y0044293D01*
X0125673Y0045042D02*
X0125673Y0045509D01*
X0125440Y0045275D02*
X0126374Y0045275D01*
X0126607Y0045509D01*
X0126374Y0046024D02*
X0125907Y0046024D01*
X0125673Y0046257D01*
X0125673Y0046724D01*
X0125907Y0046958D01*
X0126140Y0046958D01*
X0126140Y0046024D01*
X0126374Y0046024D02*
X0126607Y0046257D01*
X0126607Y0046724D01*
X0140721Y0044293D02*
X0140954Y0044293D01*
X0141421Y0044293D02*
X0142356Y0044293D01*
X0142356Y0044526D02*
X0142356Y0044059D01*
X0141421Y0044059D02*
X0141421Y0044293D01*
X0141421Y0045042D02*
X0141421Y0045509D01*
X0141188Y0045275D02*
X0142122Y0045275D01*
X0142356Y0045509D01*
X0142122Y0046024D02*
X0141655Y0046024D01*
X0141421Y0046257D01*
X0141421Y0046724D01*
X0141655Y0046958D01*
X0141888Y0046958D01*
X0141888Y0046024D01*
X0142122Y0046024D02*
X0142356Y0046257D01*
X0142356Y0046724D01*
X0141421Y0043532D02*
X0141421Y0043299D01*
X0141888Y0042832D01*
X0141421Y0042832D02*
X0142356Y0042832D01*
X0141421Y0042305D02*
X0141421Y0042071D01*
X0141888Y0041604D01*
X0141421Y0041604D02*
X0142356Y0041604D01*
X0141888Y0041065D02*
X0141888Y0040131D01*
X0141655Y0040131D02*
X0141421Y0040364D01*
X0141421Y0040831D01*
X0141655Y0041065D01*
X0141888Y0041065D01*
X0142356Y0040831D02*
X0142356Y0040364D01*
X0142122Y0040131D01*
X0141655Y0040131D01*
X0140954Y0039592D02*
X0140954Y0038657D01*
X0142356Y0038657D01*
X0141655Y0038657D02*
X0141655Y0039125D01*
X0145753Y0058608D02*
X0147221Y0058608D01*
X0147588Y0058975D01*
X0147588Y0059709D01*
X0147221Y0060076D01*
X0147588Y0060818D02*
X0147588Y0062286D01*
X0147588Y0061552D02*
X0145386Y0061552D01*
X0146120Y0060818D01*
X0145753Y0060076D02*
X0145386Y0059709D01*
X0145386Y0058975D01*
X0145753Y0058608D01*
X0171134Y0059217D02*
X0172235Y0058116D01*
X0172235Y0059584D01*
X0172969Y0060326D02*
X0173336Y0060326D01*
X0172969Y0060326D02*
X0171501Y0061794D01*
X0171134Y0061794D01*
X0171134Y0060326D01*
X0171134Y0059217D02*
X0173336Y0059217D01*
X0172969Y0062536D02*
X0173336Y0062902D01*
X0173336Y0064003D01*
X0171868Y0064003D01*
X0172235Y0064745D02*
X0172235Y0065479D01*
X0173336Y0064745D02*
X0171134Y0064745D01*
X0171134Y0066213D01*
X0171868Y0062536D02*
X0172969Y0062536D01*
X0201722Y0007721D02*
X0201355Y0007354D01*
X0201355Y0005886D01*
X0201722Y0005519D01*
X0202456Y0005519D01*
X0202823Y0005886D01*
X0203565Y0005519D02*
X0205033Y0005519D01*
X0204299Y0005519D02*
X0204299Y0007721D01*
X0203565Y0006987D01*
X0202823Y0007354D02*
X0202456Y0007721D01*
X0201722Y0007721D01*
X0205775Y0007354D02*
X0206142Y0007721D01*
X0206876Y0007721D01*
X0207243Y0007354D01*
X0207243Y0006987D01*
X0205775Y0005519D01*
X0207243Y0005519D01*
X0214893Y0005301D02*
X0216361Y0005301D01*
X0217103Y0004567D02*
X0217103Y0004200D01*
X0217103Y0004567D02*
X0218571Y0006035D01*
X0218571Y0006402D01*
X0217103Y0006402D01*
X0215994Y0006402D02*
X0214893Y0005301D01*
X0215994Y0004200D02*
X0215994Y0006402D01*
X0219313Y0005668D02*
X0219313Y0004567D01*
X0219680Y0004200D01*
X0220781Y0004200D01*
X0220781Y0005668D01*
X0221523Y0005301D02*
X0222257Y0005301D01*
X0221523Y0006402D02*
X0222991Y0006402D01*
X0221523Y0006402D02*
X0221523Y0004200D01*
X0235957Y0030635D02*
X0237425Y0030635D01*
X0236691Y0030635D02*
X0236691Y0032837D01*
X0235957Y0032103D01*
X0238167Y0032470D02*
X0238534Y0032837D01*
X0239268Y0032837D01*
X0239635Y0032470D01*
X0239635Y0032103D01*
X0238167Y0030635D01*
X0239635Y0030635D01*
X0240377Y0031369D02*
X0241111Y0030635D01*
X0241845Y0031369D01*
X0241845Y0032837D01*
X0240377Y0032837D02*
X0240377Y0031369D01*
X0094143Y0110507D02*
X0092675Y0110507D01*
X0092675Y0110874D01*
X0094143Y0112342D01*
X0094143Y0112709D01*
X0092675Y0112709D01*
X0091933Y0112709D02*
X0091933Y0110507D01*
X0091933Y0111608D02*
X0090465Y0111608D01*
X0090465Y0110507D02*
X0090465Y0112709D01*
X0089723Y0112709D02*
X0089723Y0110507D01*
X0088256Y0110507D02*
X0088256Y0112709D01*
X0088990Y0111975D01*
X0089723Y0112709D01*
X0087514Y0112342D02*
X0087514Y0111975D01*
X0087147Y0111608D01*
X0086413Y0111608D01*
X0086046Y0111975D01*
X0086046Y0112342D01*
X0086413Y0112709D01*
X0087147Y0112709D01*
X0087514Y0112342D01*
X0087147Y0111608D02*
X0087514Y0111241D01*
X0087514Y0110874D01*
X0087147Y0110507D01*
X0086413Y0110507D01*
X0086046Y0110874D01*
X0086046Y0111241D01*
X0086413Y0111608D01*
X0088990Y0122742D02*
X0088990Y0123843D01*
X0089724Y0124577D01*
X0089724Y0124944D01*
X0090466Y0124210D02*
X0091200Y0124944D01*
X0091200Y0122742D01*
X0090466Y0122742D02*
X0091934Y0122742D01*
X0088990Y0123843D02*
X0088256Y0124577D01*
X0088256Y0124944D01*
X0056070Y0117125D02*
X0056070Y0116391D01*
X0055703Y0116024D01*
X0054236Y0117492D01*
X0055703Y0117492D01*
X0056070Y0117125D01*
X0055703Y0116024D02*
X0054236Y0116024D01*
X0053869Y0116391D01*
X0053869Y0117125D01*
X0054236Y0117492D01*
X0054236Y0115282D02*
X0053869Y0114915D01*
X0053869Y0114181D01*
X0054236Y0113814D01*
X0055703Y0113814D01*
X0056070Y0114181D01*
X0056070Y0114915D01*
X0055703Y0115282D01*
X0055703Y0113072D02*
X0054236Y0113072D01*
X0053869Y0112705D01*
X0053869Y0111604D01*
X0056070Y0111604D01*
X0056070Y0112705D01*
X0055703Y0113072D01*
X0056070Y0110862D02*
X0054603Y0110862D01*
X0053869Y0110128D01*
X0054603Y0109394D01*
X0056070Y0109394D01*
X0054970Y0109394D02*
X0054970Y0110862D01*
X0054594Y0124158D02*
X0053126Y0124158D01*
X0052392Y0124892D01*
X0053126Y0125626D01*
X0054594Y0125626D01*
X0054594Y0126368D02*
X0054594Y0127469D01*
X0054227Y0127836D01*
X0052759Y0127836D01*
X0052392Y0127469D01*
X0052392Y0126368D01*
X0054594Y0126368D01*
X0053493Y0125626D02*
X0053493Y0124158D01*
X0052759Y0128578D02*
X0054227Y0128578D01*
X0054594Y0128945D01*
X0054594Y0129679D01*
X0054227Y0130046D01*
X0054594Y0130788D02*
X0054594Y0132256D01*
X0054594Y0131522D02*
X0052392Y0131522D01*
X0053126Y0130788D01*
X0052759Y0130046D02*
X0052392Y0129679D01*
X0052392Y0128945D01*
X0052759Y0128578D01*
X0052759Y0139655D02*
X0054227Y0139655D01*
X0054594Y0140022D01*
X0054594Y0140756D01*
X0054227Y0141123D01*
X0053493Y0141123D01*
X0053493Y0140389D01*
X0052759Y0139655D02*
X0052392Y0140022D01*
X0052392Y0140756D01*
X0052759Y0141123D01*
X0052392Y0141865D02*
X0054594Y0143333D01*
X0052392Y0143333D01*
X0052392Y0144075D02*
X0052392Y0145176D01*
X0052759Y0145543D01*
X0054227Y0145543D01*
X0054594Y0145176D01*
X0054594Y0144075D01*
X0052392Y0144075D01*
X0052392Y0141865D02*
X0054594Y0141865D01*
D14*
X0031591Y0168010D02*
X0028589Y0168010D01*
X0027087Y0169511D01*
X0028589Y0171012D01*
X0031591Y0171012D01*
X0029339Y0171012D02*
X0029339Y0168010D01*
X0027087Y0172614D02*
X0027087Y0175616D01*
X0027087Y0174115D02*
X0031591Y0174115D01*
X0031591Y0177218D02*
X0027087Y0177218D01*
X0027087Y0179470D01*
X0027838Y0180220D01*
X0029339Y0180220D01*
X0030090Y0179470D01*
X0030090Y0177218D01*
X0030090Y0181822D02*
X0030090Y0184074D01*
X0029339Y0184824D01*
X0027838Y0184824D01*
X0027087Y0184074D01*
X0027087Y0181822D01*
X0031591Y0181822D01*
X0030090Y0183323D02*
X0031591Y0184824D01*
X0030841Y0186426D02*
X0031591Y0187176D01*
X0031591Y0188677D01*
X0030841Y0189428D01*
X0029339Y0189428D01*
X0029339Y0187927D01*
X0027838Y0189428D02*
X0027087Y0188677D01*
X0027087Y0187176D01*
X0027838Y0186426D01*
X0030841Y0186426D01*
X0033300Y0191943D02*
X0036303Y0191943D01*
X0034801Y0191943D02*
X0034801Y0196447D01*
X0033300Y0194945D01*
X0040354Y0193055D02*
X0040354Y0190052D01*
X0040354Y0192304D02*
X0043357Y0192304D01*
X0043357Y0193055D02*
X0043357Y0190052D01*
X0043357Y0193055D02*
X0041856Y0194556D01*
X0040354Y0193055D01*
X0044958Y0194556D02*
X0047961Y0194556D01*
X0046460Y0194556D02*
X0046460Y0190052D01*
X0049562Y0190052D02*
X0049562Y0194556D01*
X0051814Y0194556D01*
X0052565Y0193806D01*
X0052565Y0192304D01*
X0051814Y0191554D01*
X0049562Y0191554D01*
X0054166Y0190052D02*
X0055667Y0191554D01*
X0057169Y0190052D01*
X0057169Y0194556D01*
X0058770Y0194556D02*
X0061022Y0194556D01*
X0061773Y0193806D01*
X0061773Y0192304D01*
X0061022Y0191554D01*
X0058770Y0191554D01*
X0060271Y0191554D02*
X0061773Y0190052D01*
X0058770Y0190052D02*
X0058770Y0194556D01*
X0054166Y0194556D02*
X0054166Y0190052D01*
X0077913Y0190803D02*
X0078664Y0190052D01*
X0079415Y0190052D01*
X0080165Y0190803D01*
X0080165Y0194556D01*
X0079415Y0194556D02*
X0080916Y0194556D01*
X0082517Y0194556D02*
X0084769Y0194556D01*
X0085520Y0193806D01*
X0085520Y0192304D01*
X0084769Y0191554D01*
X0082517Y0191554D01*
X0082517Y0190052D02*
X0082517Y0194556D01*
X0087121Y0193806D02*
X0087872Y0194556D01*
X0089373Y0194556D01*
X0090124Y0193806D01*
X0090124Y0193055D01*
X0089373Y0192304D01*
X0090124Y0191554D01*
X0090124Y0190803D01*
X0089373Y0190052D01*
X0087872Y0190052D01*
X0087121Y0190803D01*
X0088623Y0192304D02*
X0089373Y0192304D01*
X0151704Y0194413D02*
X0159578Y0194413D01*
X0179263Y0194413D02*
X0187137Y0194413D01*
X0223112Y0146195D02*
X0224614Y0144694D01*
X0224614Y0141691D01*
X0224614Y0143943D02*
X0221611Y0143943D01*
X0221611Y0144694D02*
X0221611Y0141691D01*
X0221611Y0144694D02*
X0223112Y0146195D01*
X0226215Y0146195D02*
X0229218Y0146195D01*
X0227716Y0146195D02*
X0227716Y0141691D01*
X0230819Y0141691D02*
X0230819Y0146195D01*
X0233071Y0146195D01*
X0233821Y0145444D01*
X0233821Y0143943D01*
X0233071Y0143192D01*
X0230819Y0143192D01*
X0232320Y0143192D02*
X0233821Y0141691D01*
X0235423Y0142442D02*
X0236173Y0141691D01*
X0237675Y0141691D01*
X0238425Y0142442D01*
X0238425Y0143192D01*
X0237675Y0143943D01*
X0236173Y0143943D01*
X0235423Y0144694D01*
X0235423Y0145444D01*
X0236173Y0146195D01*
X0237675Y0146195D01*
X0238425Y0145444D01*
X0240027Y0146195D02*
X0243029Y0146195D01*
X0241528Y0146195D02*
X0241528Y0141691D01*
X0250318Y0104925D02*
X0228318Y0104925D01*
X0228318Y0099925D01*
X0233318Y0099925D01*
X0233318Y0069925D01*
X0228318Y0069925D01*
X0228318Y0099925D01*
X0250318Y0104925D02*
X0250318Y0064925D01*
X0228318Y0064925D01*
X0228318Y0069925D01*
X0230778Y0057681D02*
X0230778Y0052681D01*
X0235778Y0052681D01*
X0235778Y0042681D01*
X0230778Y0042681D01*
X0230778Y0052681D01*
X0230778Y0057681D02*
X0252778Y0057681D01*
X0252778Y0037681D01*
X0230778Y0037681D01*
X0230778Y0042681D01*
X0173357Y0030043D02*
X0173357Y0007406D01*
X0151704Y0007406D01*
X0151704Y0030043D01*
X0173357Y0030043D01*
X0173357Y0007406D02*
X0173357Y0004453D01*
X0151704Y0004453D01*
X0151704Y0007406D01*
X0142255Y0008587D02*
X0142255Y0003075D01*
X0114696Y0003075D01*
X0114696Y0008587D01*
X0142255Y0008587D01*
X0142255Y0030634D01*
X0114696Y0030634D01*
X0114696Y0008587D01*
X0102885Y0008587D02*
X0102885Y0003075D01*
X0075326Y0003075D01*
X0075326Y0008587D01*
X0102885Y0008587D01*
X0102885Y0030634D01*
X0075326Y0030634D01*
X0075326Y0008587D01*
X0063515Y0008587D02*
X0063515Y0003075D01*
X0035956Y0003075D01*
X0035956Y0008587D01*
X0063515Y0008587D01*
X0063515Y0030634D01*
X0035956Y0030634D01*
X0035956Y0008587D01*
D15*
X0037967Y0037307D02*
X0044967Y0037307D01*
X0044967Y0052307D01*
X0037967Y0052307D01*
X0037967Y0037307D01*
X0053715Y0037307D02*
X0060715Y0037307D01*
X0060715Y0052307D01*
X0053715Y0052307D01*
X0053715Y0037307D01*
X0056841Y0057055D02*
X0041841Y0057055D01*
X0041841Y0064055D01*
X0056841Y0064055D01*
X0056841Y0057055D01*
X0077337Y0052307D02*
X0084337Y0052307D01*
X0084337Y0037307D01*
X0077337Y0037307D01*
X0077337Y0052307D01*
X0081211Y0057055D02*
X0081211Y0064055D01*
X0096211Y0064055D01*
X0096211Y0057055D01*
X0081211Y0057055D01*
X0093085Y0052307D02*
X0100085Y0052307D01*
X0100085Y0037307D01*
X0093085Y0037307D01*
X0093085Y0052307D01*
X0116707Y0052307D02*
X0116707Y0037307D01*
X0123707Y0037307D01*
X0123707Y0052307D01*
X0116707Y0052307D01*
X0120581Y0057055D02*
X0120581Y0064055D01*
X0135581Y0064055D01*
X0135581Y0057055D01*
X0120581Y0057055D01*
X0132456Y0052307D02*
X0139456Y0052307D01*
X0139456Y0037307D01*
X0132456Y0037307D01*
X0132456Y0052307D01*
X0150227Y0053665D02*
X0150227Y0041854D01*
X0169912Y0041854D01*
X0169912Y0053665D01*
X0169912Y0069413D02*
X0169912Y0077287D01*
X0165975Y0081224D01*
X0154164Y0081224D01*
X0150227Y0077287D01*
X0150227Y0069413D01*
X0148141Y0103547D02*
X0145641Y0103547D01*
X0145641Y0143547D01*
X0148141Y0143547D01*
X0148141Y0103547D01*
X0163141Y0103547D01*
X0163141Y0143547D01*
X0148141Y0143547D01*
X0127117Y0150142D02*
X0100916Y0150142D01*
X0099519Y0148744D01*
X0099519Y0122543D01*
X0127117Y0122543D01*
X0127117Y0150142D01*
X0098318Y0150843D02*
X0098320Y0150892D01*
X0098326Y0150940D01*
X0098336Y0150988D01*
X0098350Y0151035D01*
X0098367Y0151081D01*
X0098388Y0151125D01*
X0098413Y0151167D01*
X0098441Y0151207D01*
X0098473Y0151245D01*
X0098507Y0151280D01*
X0098544Y0151312D01*
X0098583Y0151341D01*
X0098625Y0151367D01*
X0098669Y0151389D01*
X0098714Y0151407D01*
X0098761Y0151422D01*
X0098808Y0151433D01*
X0098857Y0151440D01*
X0098906Y0151443D01*
X0098955Y0151442D01*
X0099003Y0151437D01*
X0099052Y0151428D01*
X0099099Y0151415D01*
X0099145Y0151398D01*
X0099189Y0151378D01*
X0099232Y0151354D01*
X0099273Y0151327D01*
X0099311Y0151296D01*
X0099347Y0151263D01*
X0099379Y0151227D01*
X0099409Y0151188D01*
X0099436Y0151147D01*
X0099459Y0151103D01*
X0099478Y0151058D01*
X0099494Y0151012D01*
X0099506Y0150965D01*
X0099514Y0150916D01*
X0099518Y0150867D01*
X0099518Y0150819D01*
X0099514Y0150770D01*
X0099506Y0150721D01*
X0099494Y0150674D01*
X0099478Y0150628D01*
X0099459Y0150583D01*
X0099436Y0150539D01*
X0099409Y0150498D01*
X0099379Y0150459D01*
X0099347Y0150423D01*
X0099311Y0150390D01*
X0099273Y0150359D01*
X0099232Y0150332D01*
X0099189Y0150308D01*
X0099145Y0150288D01*
X0099099Y0150271D01*
X0099052Y0150258D01*
X0099003Y0150249D01*
X0098955Y0150244D01*
X0098906Y0150243D01*
X0098857Y0150246D01*
X0098808Y0150253D01*
X0098761Y0150264D01*
X0098714Y0150279D01*
X0098669Y0150297D01*
X0098625Y0150319D01*
X0098583Y0150345D01*
X0098544Y0150374D01*
X0098507Y0150406D01*
X0098473Y0150441D01*
X0098441Y0150479D01*
X0098413Y0150519D01*
X0098388Y0150561D01*
X0098367Y0150605D01*
X0098350Y0150651D01*
X0098336Y0150698D01*
X0098326Y0150746D01*
X0098320Y0150794D01*
X0098318Y0150843D01*
X0072806Y0155713D02*
X0070995Y0155713D01*
X0071915Y0154492D01*
X0070995Y0155713D02*
X0069184Y0155713D01*
X0070135Y0154492D02*
X0070895Y0155652D01*
X0050916Y0148646D02*
X0026507Y0148646D01*
X0026507Y0107307D01*
X0023357Y0107307D01*
X0023357Y0148646D01*
X0026507Y0148646D01*
X0022806Y0162839D02*
X0007806Y0162839D01*
X0005306Y0165339D01*
X0005306Y0170339D01*
X0007806Y0172839D01*
X0022806Y0172839D01*
X0025306Y0175339D01*
X0025306Y0180339D01*
X0022806Y0182839D01*
X0007806Y0182839D01*
X0005306Y0185339D01*
X0005306Y0190339D01*
X0007806Y0192839D01*
X0022806Y0192839D01*
X0025306Y0190339D01*
X0025306Y0185339D01*
X0022806Y0182839D01*
X0022806Y0172839D02*
X0025306Y0170339D01*
X0025306Y0165339D01*
X0022806Y0162839D01*
X0026625Y0165339D02*
X0026625Y0170339D01*
X0040404Y0180102D02*
X0042904Y0177602D01*
X0047904Y0177602D01*
X0050404Y0180102D01*
X0052904Y0177602D01*
X0057904Y0177602D01*
X0060404Y0180102D01*
X0060404Y0185102D01*
X0057904Y0187602D01*
X0052904Y0187602D01*
X0050404Y0185102D01*
X0047904Y0187602D01*
X0042904Y0187602D01*
X0040404Y0185102D01*
X0040404Y0180102D01*
X0067963Y0180102D02*
X0070463Y0177602D01*
X0075463Y0177602D01*
X0077963Y0180102D01*
X0080463Y0177602D01*
X0085463Y0177602D01*
X0087963Y0180102D01*
X0090463Y0177602D01*
X0095463Y0177602D01*
X0097963Y0180102D01*
X0100463Y0177602D01*
X0105463Y0177602D01*
X0107963Y0180102D01*
X0110463Y0177602D01*
X0115463Y0177602D01*
X0117963Y0180102D01*
X0120463Y0177602D01*
X0125463Y0177602D01*
X0127963Y0180102D01*
X0127963Y0185102D01*
X0125463Y0187602D01*
X0120463Y0187602D01*
X0117963Y0185102D01*
X0115463Y0187602D01*
X0110463Y0187602D01*
X0107963Y0185102D01*
X0105463Y0187602D01*
X0100463Y0187602D01*
X0097963Y0185102D01*
X0095463Y0187602D01*
X0090463Y0187602D01*
X0087963Y0185102D01*
X0085463Y0187602D01*
X0080463Y0187602D01*
X0077963Y0185102D01*
X0075463Y0187602D01*
X0070463Y0187602D01*
X0067963Y0185102D01*
X0067963Y0180102D01*
X0050916Y0148646D02*
X0050916Y0107307D01*
X0026507Y0107307D01*
X0026579Y0068980D02*
X0025819Y0067820D01*
X0025719Y0067760D02*
X0024799Y0068980D01*
X0023908Y0067760D02*
X0025719Y0067760D01*
X0027530Y0067760D01*
X0031782Y0067760D02*
X0033593Y0067760D01*
X0032673Y0068980D01*
X0033593Y0067760D02*
X0035404Y0067760D01*
X0034453Y0068980D02*
X0033693Y0067820D01*
X0019656Y0067760D02*
X0017845Y0067760D01*
X0016925Y0068980D01*
X0016034Y0067760D02*
X0017845Y0067760D01*
X0017945Y0067820D02*
X0018705Y0068980D01*
X0006402Y0051264D02*
X0005642Y0050104D01*
X0005542Y0050043D02*
X0004622Y0051264D01*
X0003731Y0050043D02*
X0005542Y0050043D01*
X0007353Y0050043D01*
X0082299Y0115123D02*
X0082299Y0120241D01*
X0097062Y0120241D02*
X0097062Y0115123D01*
X0007806Y0172839D02*
X0005306Y0175339D01*
X0005306Y0180339D01*
X0007806Y0182839D01*
X0186644Y0024138D02*
X0190581Y0028075D01*
X0198456Y0028075D01*
X0186644Y0024138D02*
X0186644Y0012327D01*
X0190581Y0008390D01*
X0198456Y0008390D01*
X0214204Y0008390D02*
X0226015Y0008390D01*
X0226015Y0028075D01*
X0214204Y0028075D01*
X0214302Y0054059D02*
X0212727Y0054059D01*
X0212727Y0059177D01*
X0207215Y0059177D01*
X0212727Y0059177D02*
X0214302Y0059177D01*
X0212727Y0054059D02*
X0207215Y0054059D01*
X0197857Y0073433D02*
X0197859Y0097820D01*
X0197471Y0110752D02*
X0217156Y0110752D01*
X0217156Y0122563D01*
X0226318Y0122992D02*
X0226318Y0131039D01*
X0229818Y0138992D02*
X0246818Y0138992D01*
X0250318Y0130921D02*
X0250318Y0122992D01*
X0246818Y0114992D02*
X0229818Y0114992D01*
X0231318Y0126992D02*
X0231320Y0127164D01*
X0231326Y0127335D01*
X0231337Y0127507D01*
X0231352Y0127678D01*
X0231371Y0127849D01*
X0231394Y0128019D01*
X0231421Y0128189D01*
X0231453Y0128358D01*
X0231488Y0128526D01*
X0231528Y0128693D01*
X0231572Y0128859D01*
X0231619Y0129024D01*
X0231671Y0129188D01*
X0231727Y0129350D01*
X0231787Y0129511D01*
X0231851Y0129671D01*
X0231919Y0129829D01*
X0231990Y0129985D01*
X0232065Y0130139D01*
X0232145Y0130292D01*
X0232227Y0130442D01*
X0232314Y0130591D01*
X0232404Y0130737D01*
X0232498Y0130881D01*
X0232595Y0131023D01*
X0232696Y0131162D01*
X0232800Y0131299D01*
X0232907Y0131433D01*
X0233018Y0131564D01*
X0233131Y0131693D01*
X0233248Y0131819D01*
X0233368Y0131942D01*
X0233491Y0132062D01*
X0233617Y0132179D01*
X0233746Y0132292D01*
X0233877Y0132403D01*
X0234011Y0132510D01*
X0234148Y0132614D01*
X0234287Y0132715D01*
X0234429Y0132812D01*
X0234573Y0132906D01*
X0234719Y0132996D01*
X0234868Y0133083D01*
X0235018Y0133165D01*
X0235171Y0133245D01*
X0235325Y0133320D01*
X0235481Y0133391D01*
X0235639Y0133459D01*
X0235799Y0133523D01*
X0235960Y0133583D01*
X0236122Y0133639D01*
X0236286Y0133691D01*
X0236451Y0133738D01*
X0236617Y0133782D01*
X0236784Y0133822D01*
X0236952Y0133857D01*
X0237121Y0133889D01*
X0237291Y0133916D01*
X0237461Y0133939D01*
X0237632Y0133958D01*
X0237803Y0133973D01*
X0237975Y0133984D01*
X0238146Y0133990D01*
X0238318Y0133992D01*
X0238490Y0133990D01*
X0238661Y0133984D01*
X0238833Y0133973D01*
X0239004Y0133958D01*
X0239175Y0133939D01*
X0239345Y0133916D01*
X0239515Y0133889D01*
X0239684Y0133857D01*
X0239852Y0133822D01*
X0240019Y0133782D01*
X0240185Y0133738D01*
X0240350Y0133691D01*
X0240514Y0133639D01*
X0240676Y0133583D01*
X0240837Y0133523D01*
X0240997Y0133459D01*
X0241155Y0133391D01*
X0241311Y0133320D01*
X0241465Y0133245D01*
X0241618Y0133165D01*
X0241768Y0133083D01*
X0241917Y0132996D01*
X0242063Y0132906D01*
X0242207Y0132812D01*
X0242349Y0132715D01*
X0242488Y0132614D01*
X0242625Y0132510D01*
X0242759Y0132403D01*
X0242890Y0132292D01*
X0243019Y0132179D01*
X0243145Y0132062D01*
X0243268Y0131942D01*
X0243388Y0131819D01*
X0243505Y0131693D01*
X0243618Y0131564D01*
X0243729Y0131433D01*
X0243836Y0131299D01*
X0243940Y0131162D01*
X0244041Y0131023D01*
X0244138Y0130881D01*
X0244232Y0130737D01*
X0244322Y0130591D01*
X0244409Y0130442D01*
X0244491Y0130292D01*
X0244571Y0130139D01*
X0244646Y0129985D01*
X0244717Y0129829D01*
X0244785Y0129671D01*
X0244849Y0129511D01*
X0244909Y0129350D01*
X0244965Y0129188D01*
X0245017Y0129024D01*
X0245064Y0128859D01*
X0245108Y0128693D01*
X0245148Y0128526D01*
X0245183Y0128358D01*
X0245215Y0128189D01*
X0245242Y0128019D01*
X0245265Y0127849D01*
X0245284Y0127678D01*
X0245299Y0127507D01*
X0245310Y0127335D01*
X0245316Y0127164D01*
X0245318Y0126992D01*
X0245316Y0126820D01*
X0245310Y0126649D01*
X0245299Y0126477D01*
X0245284Y0126306D01*
X0245265Y0126135D01*
X0245242Y0125965D01*
X0245215Y0125795D01*
X0245183Y0125626D01*
X0245148Y0125458D01*
X0245108Y0125291D01*
X0245064Y0125125D01*
X0245017Y0124960D01*
X0244965Y0124796D01*
X0244909Y0124634D01*
X0244849Y0124473D01*
X0244785Y0124313D01*
X0244717Y0124155D01*
X0244646Y0123999D01*
X0244571Y0123845D01*
X0244491Y0123692D01*
X0244409Y0123542D01*
X0244322Y0123393D01*
X0244232Y0123247D01*
X0244138Y0123103D01*
X0244041Y0122961D01*
X0243940Y0122822D01*
X0243836Y0122685D01*
X0243729Y0122551D01*
X0243618Y0122420D01*
X0243505Y0122291D01*
X0243388Y0122165D01*
X0243268Y0122042D01*
X0243145Y0121922D01*
X0243019Y0121805D01*
X0242890Y0121692D01*
X0242759Y0121581D01*
X0242625Y0121474D01*
X0242488Y0121370D01*
X0242349Y0121269D01*
X0242207Y0121172D01*
X0242063Y0121078D01*
X0241917Y0120988D01*
X0241768Y0120901D01*
X0241618Y0120819D01*
X0241465Y0120739D01*
X0241311Y0120664D01*
X0241155Y0120593D01*
X0240997Y0120525D01*
X0240837Y0120461D01*
X0240676Y0120401D01*
X0240514Y0120345D01*
X0240350Y0120293D01*
X0240185Y0120246D01*
X0240019Y0120202D01*
X0239852Y0120162D01*
X0239684Y0120127D01*
X0239515Y0120095D01*
X0239345Y0120068D01*
X0239175Y0120045D01*
X0239004Y0120026D01*
X0238833Y0120011D01*
X0238661Y0120000D01*
X0238490Y0119994D01*
X0238318Y0119992D01*
X0238146Y0119994D01*
X0237975Y0120000D01*
X0237803Y0120011D01*
X0237632Y0120026D01*
X0237461Y0120045D01*
X0237291Y0120068D01*
X0237121Y0120095D01*
X0236952Y0120127D01*
X0236784Y0120162D01*
X0236617Y0120202D01*
X0236451Y0120246D01*
X0236286Y0120293D01*
X0236122Y0120345D01*
X0235960Y0120401D01*
X0235799Y0120461D01*
X0235639Y0120525D01*
X0235481Y0120593D01*
X0235325Y0120664D01*
X0235171Y0120739D01*
X0235018Y0120819D01*
X0234868Y0120901D01*
X0234719Y0120988D01*
X0234573Y0121078D01*
X0234429Y0121172D01*
X0234287Y0121269D01*
X0234148Y0121370D01*
X0234011Y0121474D01*
X0233877Y0121581D01*
X0233746Y0121692D01*
X0233617Y0121805D01*
X0233491Y0121922D01*
X0233368Y0122042D01*
X0233248Y0122165D01*
X0233131Y0122291D01*
X0233018Y0122420D01*
X0232907Y0122551D01*
X0232800Y0122685D01*
X0232696Y0122822D01*
X0232595Y0122961D01*
X0232498Y0123103D01*
X0232404Y0123247D01*
X0232314Y0123393D01*
X0232227Y0123542D01*
X0232145Y0123692D01*
X0232065Y0123845D01*
X0231990Y0123999D01*
X0231919Y0124155D01*
X0231851Y0124313D01*
X0231787Y0124473D01*
X0231727Y0124634D01*
X0231671Y0124796D01*
X0231619Y0124960D01*
X0231572Y0125125D01*
X0231528Y0125291D01*
X0231488Y0125458D01*
X0231453Y0125626D01*
X0231421Y0125795D01*
X0231394Y0125965D01*
X0231371Y0126135D01*
X0231352Y0126306D01*
X0231337Y0126477D01*
X0231326Y0126649D01*
X0231320Y0126820D01*
X0231318Y0126992D01*
X0217156Y0138311D02*
X0217156Y0146185D01*
X0213219Y0150122D01*
X0201408Y0150122D01*
X0197471Y0146185D01*
X0197471Y0138311D01*
X0207358Y0152835D02*
X0208960Y0152835D01*
X0209760Y0153636D01*
X0211714Y0152835D02*
X0211714Y0157639D01*
X0214917Y0157639D01*
X0216870Y0156839D02*
X0216870Y0153636D01*
X0217671Y0152835D01*
X0219272Y0152835D01*
X0220073Y0153636D01*
X0220073Y0155237D01*
X0218472Y0155237D01*
X0220073Y0156839D02*
X0219272Y0157639D01*
X0217671Y0157639D01*
X0216870Y0156839D01*
X0213315Y0155237D02*
X0211714Y0155237D01*
X0209760Y0156839D02*
X0208960Y0157639D01*
X0207358Y0157639D01*
X0206557Y0156839D01*
X0206557Y0153636D01*
X0207358Y0152835D01*
X0221507Y0163843D02*
X0238672Y0163843D01*
X0238672Y0182740D01*
X0240641Y0182740D01*
X0238672Y0182740D02*
X0221507Y0182740D01*
X0238672Y0163843D02*
X0240641Y0163843D01*
X0197471Y0122563D02*
X0197471Y0110752D01*
X0223659Y0097820D02*
X0223660Y0073433D01*
X0197857Y0073433D01*
D16*
X0218121Y0165791D03*
X0218121Y0170791D03*
X0218121Y0175791D03*
X0218121Y0180791D03*
X0244027Y0180791D03*
X0244027Y0175791D03*
X0244027Y0170791D03*
X0244027Y0165791D03*
D17*
X0223117Y0183499D02*
X0220715Y0183499D01*
X0221916Y0183499D02*
X0221916Y0187102D01*
X0220715Y0185901D01*
X0219434Y0187102D02*
X0219434Y0184100D01*
X0218833Y0183499D01*
X0217632Y0183499D01*
X0217031Y0184100D01*
X0217031Y0187102D01*
X0196500Y0189335D02*
X0196500Y0189852D01*
X0195983Y0190369D01*
X0193397Y0190369D01*
X0193397Y0189852D02*
X0193397Y0190886D01*
X0193397Y0192040D02*
X0193397Y0194109D01*
X0193914Y0194109D01*
X0195983Y0192040D01*
X0196500Y0192040D01*
X0196500Y0189335D02*
X0195983Y0188817D01*
X0168941Y0189335D02*
X0168941Y0189852D01*
X0168423Y0190369D01*
X0165838Y0190369D01*
X0165838Y0189852D02*
X0165838Y0190886D01*
X0166355Y0192040D02*
X0166872Y0192040D01*
X0167389Y0192557D01*
X0167389Y0193592D01*
X0167906Y0194109D01*
X0168423Y0194109D01*
X0168941Y0193592D01*
X0168941Y0192557D01*
X0168423Y0192040D01*
X0167906Y0192040D01*
X0167389Y0192557D01*
X0167389Y0193592D02*
X0166872Y0194109D01*
X0166355Y0194109D01*
X0165838Y0193592D01*
X0165838Y0192557D01*
X0166355Y0192040D01*
X0168941Y0189335D02*
X0168423Y0188817D01*
X0106305Y0176383D02*
X0104770Y0176383D01*
X0105538Y0176383D02*
X0105538Y0171779D01*
X0106305Y0171779D02*
X0104770Y0171779D01*
X0103236Y0172546D02*
X0103236Y0175615D01*
X0102468Y0176383D01*
X0100167Y0176383D01*
X0100167Y0171779D01*
X0102468Y0171779D01*
X0103236Y0172546D01*
X0098632Y0176383D02*
X0095563Y0176383D01*
X0097097Y0176383D02*
X0097097Y0171779D01*
X0092493Y0174081D02*
X0090959Y0174081D01*
X0090959Y0171779D02*
X0090959Y0176383D01*
X0094028Y0176383D01*
X0093817Y0036737D02*
X0093817Y0032900D01*
X0093049Y0032133D01*
X0092282Y0032133D01*
X0091515Y0032900D01*
X0096119Y0032133D02*
X0099188Y0035202D01*
X0099188Y0035970D01*
X0098420Y0036737D01*
X0096886Y0036737D01*
X0096119Y0035970D01*
X0094584Y0036737D02*
X0093049Y0036737D01*
X0096119Y0032133D02*
X0099188Y0032133D01*
X0130885Y0032900D02*
X0131652Y0032133D01*
X0132419Y0032133D01*
X0133187Y0032900D01*
X0133187Y0036737D01*
X0133954Y0036737D02*
X0132419Y0036737D01*
X0135489Y0035970D02*
X0136256Y0036737D01*
X0137791Y0036737D01*
X0138558Y0035970D01*
X0138558Y0035202D01*
X0137791Y0034435D01*
X0138558Y0033668D01*
X0138558Y0032900D01*
X0137791Y0032133D01*
X0136256Y0032133D01*
X0135489Y0032900D01*
X0137023Y0034435D02*
X0137791Y0034435D01*
X0059818Y0032133D02*
X0056748Y0032133D01*
X0058283Y0032133D02*
X0058283Y0036737D01*
X0056748Y0035202D01*
X0055214Y0036737D02*
X0053679Y0036737D01*
X0054446Y0036737D02*
X0054446Y0032900D01*
X0053679Y0032133D01*
X0052912Y0032133D01*
X0052145Y0032900D01*
D18*
X0210759Y0071533D03*
D19*
X0202885Y0032996D03*
X0205345Y0165870D03*
X0205345Y0175713D03*
X0204853Y0185555D03*
X0119223Y0166362D03*
X0099046Y0166362D03*
X0024243Y0155535D03*
D20*
X0067058Y0140772D03*
X0080345Y0155535D03*
X0065089Y0118134D03*
X0195011Y0044807D03*
X0206822Y0044807D03*
X0218633Y0044807D03*
D21*
X0249517Y0150122D02*
X0249757Y0150122D01*
X0135091Y0157996D02*
X0134851Y0157996D01*
X0085387Y0135850D02*
X0085146Y0135850D01*
D22*
X0144617Y0155043D02*
X0146979Y0155043D01*
X0164302Y0155043D01*
X0164302Y0194413D01*
X0146979Y0194413D01*
X0144617Y0194413D01*
X0144617Y0187327D01*
X0146979Y0187327D01*
X0146979Y0162130D01*
X0144617Y0162130D01*
X0144617Y0155043D01*
X0146979Y0155043D02*
X0146979Y0162130D01*
X0149735Y0155043D02*
X0161546Y0155043D01*
X0172176Y0155043D02*
X0174538Y0155043D01*
X0191861Y0155043D01*
X0191861Y0194413D01*
X0174538Y0194413D01*
X0172176Y0194413D01*
X0172176Y0187327D01*
X0174538Y0187327D01*
X0174538Y0162130D01*
X0172176Y0162130D01*
X0172176Y0155043D01*
X0174538Y0155043D02*
X0174538Y0162130D01*
X0177294Y0155043D02*
X0189105Y0155043D01*
X0174538Y0187327D02*
X0174538Y0194413D01*
X0146979Y0194413D02*
X0146979Y0187327D01*
D23*
X0183969Y0113139D02*
X0183646Y0109963D01*
X0182579Y0109622D01*
X0181582Y0109109D01*
X0179108Y0111126D01*
X0177412Y0109430D01*
X0179430Y0106956D01*
X0178916Y0105960D01*
X0178575Y0104892D01*
X0175399Y0104570D01*
X0175399Y0102170D01*
X0178575Y0101848D01*
X0178916Y0100781D01*
X0179430Y0099784D01*
X0177412Y0097310D01*
X0179108Y0095614D01*
X0181582Y0097631D01*
X0182578Y0097118D01*
X0183991Y0100528D01*
X0183459Y0100813D01*
X0182993Y0101195D01*
X0182610Y0101661D01*
X0182326Y0102193D01*
X0182151Y0102770D01*
X0182092Y0103370D01*
X0182157Y0103998D01*
X0182349Y0104600D01*
X0182659Y0105150D01*
X0183076Y0105625D01*
X0183581Y0106005D01*
X0184152Y0106273D01*
X0184767Y0106420D01*
X0185398Y0106437D01*
X0186020Y0106326D01*
X0186605Y0106090D01*
X0187130Y0105739D01*
X0187573Y0105288D01*
X0187914Y0104756D01*
X0188139Y0104166D01*
X0188239Y0103543D01*
X0188210Y0102912D01*
X0188052Y0102300D01*
X0187773Y0101734D01*
X0187383Y0101236D01*
X0186901Y0100829D01*
X0186345Y0100528D01*
X0187758Y0097118D01*
X0188754Y0097631D01*
X0191228Y0095614D01*
X0192924Y0097310D01*
X0190907Y0099784D01*
X0191420Y0100781D01*
X0191761Y0101848D01*
X0194937Y0102170D01*
X0194937Y0104570D01*
X0191761Y0104892D01*
X0191420Y0105960D01*
X0190907Y0106956D01*
X0192924Y0109430D01*
X0191228Y0111126D01*
X0188754Y0109109D01*
X0187758Y0109622D01*
X0186690Y0109963D01*
X0186368Y0113139D01*
X0183969Y0113139D01*
X0183937Y0112833D02*
X0186399Y0112833D01*
X0186459Y0112244D02*
X0183878Y0112244D01*
X0183818Y0111655D02*
X0186518Y0111655D01*
X0186578Y0111066D02*
X0183758Y0111066D01*
X0183698Y0110477D02*
X0186638Y0110477D01*
X0186927Y0109887D02*
X0183409Y0109887D01*
X0181951Y0109298D02*
X0188385Y0109298D01*
X0188987Y0109298D02*
X0192817Y0109298D01*
X0192466Y0109887D02*
X0189709Y0109887D01*
X0190432Y0110477D02*
X0191877Y0110477D01*
X0191288Y0111066D02*
X0191154Y0111066D01*
X0192336Y0108709D02*
X0178000Y0108709D01*
X0178480Y0108120D02*
X0191856Y0108120D01*
X0191376Y0107531D02*
X0178960Y0107531D01*
X0179422Y0106942D02*
X0190914Y0106942D01*
X0191217Y0106353D02*
X0185867Y0106353D01*
X0187092Y0105764D02*
X0191482Y0105764D01*
X0191671Y0105175D02*
X0187645Y0105175D01*
X0187979Y0104586D02*
X0194777Y0104586D01*
X0194937Y0103997D02*
X0188166Y0103997D01*
X0188233Y0103408D02*
X0194937Y0103408D01*
X0194937Y0102819D02*
X0188186Y0102819D01*
X0188017Y0102230D02*
X0194937Y0102230D01*
X0191695Y0101641D02*
X0187700Y0101641D01*
X0187165Y0101052D02*
X0191507Y0101052D01*
X0191256Y0100462D02*
X0186373Y0100462D01*
X0186617Y0099873D02*
X0190953Y0099873D01*
X0191314Y0099284D02*
X0186861Y0099284D01*
X0187105Y0098695D02*
X0191795Y0098695D01*
X0192275Y0098106D02*
X0187349Y0098106D01*
X0187593Y0097517D02*
X0188532Y0097517D01*
X0188894Y0097517D02*
X0192755Y0097517D01*
X0192542Y0096928D02*
X0189617Y0096928D01*
X0190339Y0096339D02*
X0191953Y0096339D01*
X0191364Y0095750D02*
X0191061Y0095750D01*
X0183232Y0098695D02*
X0178542Y0098695D01*
X0179022Y0099284D02*
X0183476Y0099284D01*
X0183720Y0099873D02*
X0179384Y0099873D01*
X0179080Y0100462D02*
X0183964Y0100462D01*
X0183168Y0101052D02*
X0178830Y0101052D01*
X0178641Y0101641D02*
X0182627Y0101641D01*
X0182315Y0102230D02*
X0175399Y0102230D01*
X0175399Y0102819D02*
X0182146Y0102819D01*
X0182096Y0103408D02*
X0175399Y0103408D01*
X0175399Y0103997D02*
X0182157Y0103997D01*
X0182344Y0104586D02*
X0175559Y0104586D01*
X0178665Y0105175D02*
X0182681Y0105175D01*
X0183261Y0105764D02*
X0178854Y0105764D01*
X0179119Y0106353D02*
X0184487Y0106353D01*
X0181350Y0109298D02*
X0177519Y0109298D01*
X0177870Y0109887D02*
X0180627Y0109887D01*
X0179905Y0110477D02*
X0178459Y0110477D01*
X0179048Y0111066D02*
X0179182Y0111066D01*
X0178061Y0098106D02*
X0182988Y0098106D01*
X0182744Y0097517D02*
X0181804Y0097517D01*
X0181442Y0097517D02*
X0177581Y0097517D01*
X0177794Y0096928D02*
X0180720Y0096928D01*
X0179997Y0096339D02*
X0178383Y0096339D01*
X0178972Y0095750D02*
X0179275Y0095750D01*
D24*
X0049080Y0142636D02*
X0049080Y0142887D01*
X0048830Y0143137D01*
X0047579Y0143137D01*
X0047579Y0142887D02*
X0047579Y0143387D01*
X0047579Y0143859D02*
X0047579Y0144610D01*
X0047829Y0144860D01*
X0048330Y0144860D01*
X0048580Y0144610D01*
X0048580Y0143859D01*
X0049080Y0143859D02*
X0047579Y0143859D01*
X0048079Y0145333D02*
X0047579Y0145833D01*
X0049080Y0145833D01*
X0049080Y0145333D02*
X0049080Y0146333D01*
X0049080Y0142636D02*
X0048830Y0142386D01*
M02*
