G75*
%MOIN*%
%OFA0B0*%
%FSLAX25Y25*%
%IPPOS*%
%LPD*%
%AMOC8*
5,1,8,0,0,1.08239X$1,22.5*
%
%ADD10C,0.11624*%
%ADD11R,0.06600X0.06600*%
%ADD12OC8,0.06600*%
%ADD13C,0.09200*%
%ADD14R,0.08000X0.08000*%
%ADD15C,0.08000*%
%ADD16OC8,0.08000*%
%ADD17R,0.05600X0.05600*%
%ADD18C,0.05600*%
%ADD19C,0.03000*%
%ADD20R,0.03100X0.05600*%
%ADD21R,0.05600X0.03100*%
%ADD22R,0.10100X0.10100*%
%ADD23C,0.10100*%
D10*
X0015877Y0015280D03*
X0015877Y0208193D03*
X0244223Y0208193D03*
X0244223Y0015280D03*
D11*
X0167452Y0017248D03*
X0157452Y0017248D03*
X0035050Y0203193D03*
D12*
X0035050Y0213193D03*
X0045050Y0213193D03*
X0055050Y0213193D03*
X0065050Y0213193D03*
X0075050Y0213193D03*
X0085050Y0213193D03*
X0095050Y0213193D03*
X0105050Y0213193D03*
X0115050Y0213193D03*
X0125050Y0213193D03*
X0135050Y0213193D03*
X0145050Y0213193D03*
X0155050Y0213193D03*
X0165050Y0213193D03*
X0175050Y0213193D03*
X0185050Y0213193D03*
X0195050Y0213193D03*
X0205050Y0213193D03*
X0215050Y0213193D03*
X0225050Y0213193D03*
X0225050Y0203193D03*
X0215050Y0203193D03*
X0205050Y0203193D03*
X0195050Y0203193D03*
X0185050Y0203193D03*
X0175050Y0203193D03*
X0165050Y0203193D03*
X0155050Y0203193D03*
X0145050Y0203193D03*
X0135050Y0203193D03*
X0125050Y0203193D03*
X0115050Y0203193D03*
X0105050Y0203193D03*
X0095050Y0203193D03*
X0085050Y0203193D03*
X0075050Y0203193D03*
X0065050Y0203193D03*
X0055050Y0203193D03*
X0045050Y0203193D03*
X0226448Y0154965D03*
X0236448Y0154965D03*
D13*
X0135168Y0017248D03*
X0121389Y0017248D03*
X0095798Y0017248D03*
X0082019Y0017248D03*
X0056428Y0017248D03*
X0042648Y0017248D03*
D14*
X0155641Y0113547D03*
X0238818Y0099925D03*
X0240778Y0053181D03*
D15*
X0240778Y0042181D03*
X0237818Y0069925D03*
X0238818Y0079925D03*
X0237818Y0089925D03*
X0225518Y0118092D03*
X0225518Y0135892D03*
X0251118Y0135892D03*
X0251118Y0118092D03*
X0155641Y0123547D03*
X0155641Y0133547D03*
X0122963Y0182602D03*
X0112963Y0182602D03*
X0102963Y0182602D03*
X0092963Y0182602D03*
X0082963Y0182602D03*
X0072963Y0182602D03*
X0056104Y0182602D03*
X0044704Y0182602D03*
D16*
X0021306Y0177839D03*
X0011306Y0177839D03*
X0010306Y0167839D03*
X0020306Y0167839D03*
X0020306Y0187839D03*
X0010306Y0187839D03*
D17*
X0155641Y0186539D03*
X0183200Y0186539D03*
D18*
X0183200Y0178665D03*
X0183200Y0170791D03*
X0183200Y0162917D03*
X0155641Y0162917D03*
X0155641Y0170791D03*
X0155641Y0178665D03*
D19*
X0190581Y0135358D03*
X0225030Y0034472D03*
X0009971Y0034965D03*
X0009479Y0061539D03*
D20*
X0221038Y0044807D03*
X0224538Y0044807D03*
X0228038Y0044807D03*
D21*
X0191566Y0059024D03*
X0191566Y0062524D03*
X0191566Y0066024D03*
D22*
X0037530Y0141756D03*
D23*
X0037530Y0127976D03*
X0037530Y0114197D03*
M02*
