G75*
%MOIN*%
%OFA0B0*%
%FSLAX25Y25*%
%IPPOS*%
%LPD*%
%AMOC8*
5,1,8,0,0,1.08239X$1,22.5*
%
%ADD10C,0.11424*%
%ADD11R,0.06800X0.06800*%
%ADD12OC8,0.06800*%
%ADD13R,0.09061X0.02762*%
%ADD14R,0.05518X0.06699*%
%ADD15R,0.03000X0.08400*%
%ADD16C,0.09000*%
%ADD17R,0.05518X0.05124*%
%ADD18R,0.05124X0.05518*%
%ADD19R,0.05124X0.03550*%
%ADD20R,0.06699X0.12211*%
%ADD21R,0.19400X0.22900*%
%ADD22C,0.06699*%
%ADD23R,0.07800X0.07800*%
%ADD24C,0.07800*%
%ADD25R,0.02880X0.03668*%
%ADD26R,0.04731X0.04337*%
%ADD27R,0.04337X0.04731*%
%ADD28OC8,0.07800*%
%ADD29R,0.05400X0.02600*%
%ADD30R,0.02600X0.05400*%
%ADD31R,0.09731X0.09180*%
%ADD32R,0.05950X0.05950*%
%ADD33C,0.05950*%
%ADD34C,0.01301*%
%ADD35R,0.05912X0.12211*%
%ADD36R,0.09180X0.09731*%
%ADD37C,0.04400*%
D10*
X0016369Y0015385D03*
X0016369Y0208298D03*
X0244715Y0208298D03*
X0244715Y0015385D03*
D11*
X0167944Y0017353D03*
X0157944Y0017353D03*
X0035542Y0203298D03*
D12*
X0045542Y0203298D03*
X0055542Y0203298D03*
X0065542Y0203298D03*
X0075542Y0203298D03*
X0085542Y0203298D03*
X0095542Y0203298D03*
X0105542Y0203298D03*
X0115542Y0203298D03*
X0125542Y0203298D03*
X0135542Y0203298D03*
X0145542Y0203298D03*
X0155542Y0203298D03*
X0165542Y0203298D03*
X0175542Y0203298D03*
X0185542Y0203298D03*
X0195542Y0203298D03*
X0205542Y0203298D03*
X0215542Y0203298D03*
X0225542Y0203298D03*
X0225542Y0213298D03*
X0215542Y0213298D03*
X0205542Y0213298D03*
X0195542Y0213298D03*
X0185542Y0213298D03*
X0175542Y0213298D03*
X0165542Y0213298D03*
X0155542Y0213298D03*
X0145542Y0213298D03*
X0135542Y0213298D03*
X0125542Y0213298D03*
X0115542Y0213298D03*
X0105542Y0213298D03*
X0095542Y0213298D03*
X0085542Y0213298D03*
X0075542Y0213298D03*
X0065542Y0213298D03*
X0055542Y0213298D03*
X0045542Y0213298D03*
X0035542Y0213298D03*
X0236782Y0118652D03*
X0246782Y0118652D03*
D13*
X0246152Y0140798D03*
X0246152Y0145798D03*
X0246152Y0150798D03*
X0246152Y0155798D03*
X0219932Y0155798D03*
X0219932Y0150798D03*
X0219932Y0145798D03*
X0219932Y0140798D03*
D14*
X0219302Y0129548D03*
X0226782Y0129548D03*
X0239105Y0129548D03*
X0246979Y0129548D03*
X0246782Y0167048D03*
X0239302Y0167048D03*
X0239302Y0177048D03*
X0246782Y0177048D03*
D15*
X0136074Y0100319D03*
X0131074Y0100319D03*
X0126074Y0100319D03*
X0121074Y0100319D03*
X0096704Y0100319D03*
X0091704Y0100319D03*
X0086704Y0100319D03*
X0081704Y0100319D03*
X0081704Y0076119D03*
X0086704Y0076119D03*
X0091704Y0076119D03*
X0096704Y0076119D03*
X0121074Y0076119D03*
X0126074Y0076119D03*
X0131074Y0076119D03*
X0136074Y0076119D03*
X0057333Y0076119D03*
X0052333Y0076119D03*
X0047333Y0076119D03*
X0042333Y0076119D03*
X0042333Y0100319D03*
X0047333Y0100319D03*
X0052333Y0100319D03*
X0057333Y0100319D03*
D16*
X0056920Y0017353D03*
X0043141Y0017353D03*
X0082511Y0017353D03*
X0096290Y0017353D03*
X0121881Y0017353D03*
X0135660Y0017353D03*
D17*
X0136448Y0040912D03*
X0136448Y0048912D03*
X0120700Y0048912D03*
X0120700Y0040912D03*
X0097078Y0040912D03*
X0097078Y0048912D03*
X0081330Y0048912D03*
X0081330Y0040912D03*
X0057707Y0040912D03*
X0057707Y0048912D03*
X0041959Y0048912D03*
X0041959Y0040912D03*
D18*
X0045833Y0060660D03*
X0053833Y0060660D03*
X0085204Y0060660D03*
X0093204Y0060660D03*
X0124574Y0060660D03*
X0132574Y0060660D03*
D19*
X0144322Y0084676D03*
X0144322Y0091763D03*
X0104952Y0091763D03*
X0104952Y0084676D03*
X0065581Y0084676D03*
X0065581Y0091763D03*
D20*
X0202274Y0067314D03*
X0220227Y0067314D03*
D21*
X0211251Y0094471D03*
D22*
X0236644Y0052786D03*
X0236644Y0044912D03*
D23*
X0239310Y0100030D03*
X0156133Y0113652D03*
X0124137Y0131526D03*
D24*
X0125137Y0141526D03*
X0124137Y0151526D03*
X0125137Y0161526D03*
X0123456Y0182707D03*
X0113456Y0182707D03*
X0103456Y0182707D03*
X0093456Y0182707D03*
X0083456Y0182707D03*
X0073456Y0182707D03*
X0056596Y0182707D03*
X0045196Y0182707D03*
X0080341Y0132552D03*
X0080341Y0114752D03*
X0105941Y0114752D03*
X0105941Y0132552D03*
X0156133Y0133652D03*
X0156133Y0123652D03*
X0238310Y0090030D03*
X0239310Y0080030D03*
X0238310Y0070030D03*
D25*
X0215778Y0056723D03*
X0206723Y0056723D03*
D26*
X0206723Y0033101D03*
X0200030Y0033101D03*
D27*
X0195503Y0041566D03*
X0195503Y0048259D03*
X0207314Y0048259D03*
X0207314Y0041566D03*
X0219125Y0041566D03*
X0219125Y0048259D03*
X0104952Y0139991D03*
X0104952Y0146684D03*
X0104952Y0155739D03*
X0104952Y0162432D03*
X0077393Y0154558D03*
X0077393Y0147865D03*
X0073456Y0134873D03*
X0073456Y0128180D03*
X0068042Y0165581D03*
X0068042Y0172274D03*
X0059184Y0172274D03*
X0059184Y0165581D03*
X0049833Y0165581D03*
X0049833Y0172274D03*
X0040483Y0172274D03*
X0040483Y0165581D03*
X0026211Y0130936D03*
X0026211Y0124243D03*
X0026211Y0060070D03*
X0026211Y0053377D03*
X0018337Y0053377D03*
X0018337Y0060070D03*
X0034085Y0060070D03*
X0034085Y0053377D03*
D28*
X0026211Y0163022D03*
X0016211Y0163022D03*
X0017211Y0173022D03*
X0027211Y0173022D03*
X0026211Y0183022D03*
X0016211Y0183022D03*
D29*
X0032933Y0146487D03*
X0032933Y0143337D03*
X0032933Y0140188D03*
X0032933Y0137038D03*
X0032933Y0133889D03*
X0032933Y0130739D03*
X0032933Y0127589D03*
X0032933Y0124440D03*
X0066733Y0124440D03*
X0066733Y0127589D03*
X0066733Y0130739D03*
X0066733Y0133889D03*
X0066733Y0137038D03*
X0066733Y0140188D03*
X0066733Y0143337D03*
X0066733Y0146487D03*
D30*
X0060857Y0152363D03*
X0057707Y0152363D03*
X0054558Y0152363D03*
X0051408Y0152363D03*
X0048259Y0152363D03*
X0045109Y0152363D03*
X0041959Y0152363D03*
X0038810Y0152363D03*
X0038810Y0118563D03*
X0041959Y0118563D03*
X0045109Y0118563D03*
X0048259Y0118563D03*
X0051408Y0118563D03*
X0054558Y0118563D03*
X0057707Y0118563D03*
X0060857Y0118563D03*
D31*
X0197589Y0017353D03*
X0217038Y0017353D03*
D32*
X0183692Y0186644D03*
X0156133Y0186644D03*
D33*
X0156133Y0178770D03*
X0156133Y0170896D03*
X0156133Y0163022D03*
X0183692Y0163022D03*
X0183692Y0170896D03*
X0183692Y0178770D03*
D34*
X0078911Y0168894D02*
X0075875Y0168894D01*
X0075875Y0171930D01*
X0078911Y0171930D01*
X0078911Y0168894D01*
X0078911Y0170194D02*
X0075875Y0170194D01*
X0075875Y0171494D02*
X0078911Y0171494D01*
X0078911Y0161989D02*
X0075875Y0161989D01*
X0075875Y0165025D01*
X0078911Y0165025D01*
X0078911Y0161989D01*
X0078911Y0163289D02*
X0075875Y0163289D01*
X0075875Y0164589D02*
X0078911Y0164589D01*
X0035603Y0073505D02*
X0032567Y0073505D01*
X0035603Y0073505D02*
X0035603Y0070469D01*
X0032567Y0070469D01*
X0032567Y0073505D01*
X0032567Y0071769D02*
X0035603Y0071769D01*
X0035603Y0073069D02*
X0032567Y0073069D01*
X0027729Y0073505D02*
X0024693Y0073505D01*
X0027729Y0073505D02*
X0027729Y0070469D01*
X0024693Y0070469D01*
X0024693Y0073505D01*
X0024693Y0071769D02*
X0027729Y0071769D01*
X0027729Y0073069D02*
X0024693Y0073069D01*
X0019855Y0073505D02*
X0016819Y0073505D01*
X0019855Y0073505D02*
X0019855Y0070469D01*
X0016819Y0070469D01*
X0016819Y0073505D01*
X0016819Y0071769D02*
X0019855Y0071769D01*
X0019855Y0073069D02*
X0016819Y0073069D01*
X0016819Y0066599D02*
X0019855Y0066599D01*
X0019855Y0063563D01*
X0016819Y0063563D01*
X0016819Y0066599D01*
X0016819Y0064863D02*
X0019855Y0064863D01*
X0019855Y0066163D02*
X0016819Y0066163D01*
X0024693Y0066599D02*
X0027729Y0066599D01*
X0027729Y0063563D01*
X0024693Y0063563D01*
X0024693Y0066599D01*
X0024693Y0064863D02*
X0027729Y0064863D01*
X0027729Y0066163D02*
X0024693Y0066163D01*
X0032567Y0066599D02*
X0035603Y0066599D01*
X0035603Y0063563D01*
X0032567Y0063563D01*
X0032567Y0066599D01*
X0032567Y0064863D02*
X0035603Y0064863D01*
X0035603Y0066163D02*
X0032567Y0066163D01*
D35*
X0156133Y0070109D03*
X0156133Y0051211D03*
D36*
X0187629Y0090306D03*
X0187629Y0109755D03*
D37*
X0010463Y0068534D03*
X0010463Y0060660D03*
X0010463Y0052786D03*
M02*
