%
M48
M72
T01C0.0118
T02C0.0120
T03C0.0276
T04C0.0315
T05C0.0394
T06C0.0400
T07C0.1102
%
T01
X3359Y3458
X4885Y3409
X5033Y4590
X6853Y4639
X6853Y3359
X8920Y3458
X8920Y4688
X10889Y4442
X12907Y4590
X12907Y3507
X14777Y3507
X16401Y554
X18615Y1243
X22700Y3113
X20190Y5623
X21224Y6558
X18664Y7592
X18763Y10003
X15613Y8527
X13596Y8576
X12661Y8625
X11529Y7592
X8724Y8674
X7149Y10052
X7001Y11529
X6214Y12365
X4786Y12513
X4540Y13349
X3802Y13694
X2720Y13792
X653Y14875
X2375Y10840
X4786Y8625
X8477Y12267
X9265Y11430
X9806Y11332
X11381Y12907
X9363Y13202
X7739Y14137
X6214Y14777
X5918Y13989
X8527Y16155
X9068Y16105
X11873Y17729
X14580Y17040
X15466Y15220
X16794Y15761
X16991Y14629
X19255Y14334
X19846Y15416
X23094Y16450
X23586Y14974
X20781Y18960
X22109Y19796
X25407Y19452
X15072Y19796
X14186Y13743
X14235Y11233
X6657Y19304
X5623Y19255
X4393Y19501
X8035Y19796
X505Y19599
X4983Y505
X8970Y603
X12562Y653
T02
X20781Y5279
X21470Y5279
X21912Y5377
X18418Y7985
X16351Y9708
X14629Y8035
X13989Y9216
X12857Y10643
X13103Y10889
X10052Y9216
X8970Y8920
X7690Y9216
X6411Y10397
X5475Y10889
X4983Y10643
X6164Y9462
X8231Y10643
X8970Y11233
X6164Y12759
X6214Y14285
X5180Y14285
X4590Y14777
X4196Y14727
X4196Y14235
X3015Y15072
X3901Y16105
X4491Y16942
X4836Y16105
X5525Y16893
X5426Y17336
X4983Y17680
X6706Y17680
X6755Y16105
X7296Y14777
X9117Y14531
X11873Y16499
X14826Y15909
X17385Y16450
X17877Y15269
X20879Y20781
X22995Y21666
X8625Y19157
X7690Y19550
X3753Y12857
X4048Y12316
X3802Y7641
X1391Y7198
T03
X23664Y5279
X23664Y4491
T04
X18369Y16302
X18369Y17090
X18369Y17877
X18369Y18664
X15613Y18664
X15613Y17877
X15613Y17090
X15613Y16302
T05
X15613Y13365
X15613Y12365
X15613Y11365
X13566Y1735
X12188Y1735
X9629Y1735
X8251Y1735
X5692Y1735
X4314Y1735
T06
X8034Y11475
X8034Y13255
X10594Y13255
X12414Y13153
X12514Y14153
X12414Y15153
X12514Y16153
X12346Y18271
X11346Y18271
X10346Y18271
X9346Y18271
X8346Y18271
X7346Y18271
X5660Y18271
X4520Y18271
X2621Y18302
X1621Y18302
X1721Y17302
X2721Y17302
X2621Y16302
X1621Y16302
X3554Y20330
X4554Y20330
X5554Y20330
X6554Y20330
X7554Y20330
X8554Y20330
X9554Y20330
X10554Y20330
X11554Y20330
X12554Y20330
X13554Y20330
X14554Y20330
X15554Y20330
X16554Y20330
X17554Y20330
X18554Y20330
X19554Y20330
X20554Y20330
X21554Y20330
X22554Y20330
X22554Y21330
X21554Y21330
X20554Y21330
X19554Y21330
X18554Y21330
X17554Y21330
X16554Y21330
X15554Y21330
X14554Y21330
X13554Y21330
X12554Y21330
X11554Y21330
X10554Y21330
X9554Y21330
X8554Y21330
X7554Y21330
X6554Y21330
X5554Y21330
X4554Y21330
X3554Y21330
X10594Y11475
X15794Y1735
X16794Y1735
X23831Y7003
X23931Y8003
X23831Y9003
X23931Y10003
X23678Y11865
X24678Y11865
T07
X1637Y1538
X1637Y20830
X24472Y20830
X24472Y1538
M30
