G75*
%MOIN*%
%OFA0B0*%
%FSLAX25Y25*%
%IPPOS*%
%LPD*%
%AMOC8*
5,1,8,0,0,1.08239X$1,22.5*
%
%ADD10R,0.08661X0.02362*%
%ADD11R,0.02600X0.08000*%
%ADD12R,0.05118X0.04724*%
%ADD13R,0.04724X0.05118*%
%ADD14R,0.04724X0.03150*%
%ADD15R,0.06299X0.11811*%
%ADD16R,0.19000X0.22500*%
%ADD17R,0.02480X0.03268*%
%ADD18R,0.04331X0.03937*%
%ADD19R,0.03937X0.04331*%
%ADD20R,0.05000X0.02200*%
%ADD21R,0.02200X0.05000*%
%ADD22C,0.01181*%
%ADD23R,0.03150X0.04724*%
%ADD24R,0.10630X0.10039*%
%ADD25R,0.10039X0.10630*%
%ADD26C,0.01772*%
%ADD27R,0.01969X0.02559*%
D10*
X0217963Y0165791D03*
X0217963Y0170791D03*
X0217963Y0175791D03*
X0217963Y0180791D03*
X0244184Y0180791D03*
X0244184Y0175791D03*
X0244184Y0170791D03*
X0244184Y0165791D03*
D11*
X0135581Y0100214D03*
X0130581Y0100214D03*
X0125581Y0100214D03*
X0120581Y0100214D03*
X0096211Y0100214D03*
X0091211Y0100214D03*
X0086211Y0100214D03*
X0081211Y0100214D03*
X0056841Y0100214D03*
X0051841Y0100214D03*
X0046841Y0100214D03*
X0041841Y0100214D03*
X0041841Y0076014D03*
X0046841Y0076014D03*
X0051841Y0076014D03*
X0056841Y0076014D03*
X0081211Y0076014D03*
X0086211Y0076014D03*
X0091211Y0076014D03*
X0096211Y0076014D03*
X0120581Y0076014D03*
X0125581Y0076014D03*
X0130581Y0076014D03*
X0135581Y0076014D03*
D12*
X0041467Y0040807D03*
X0041467Y0048807D03*
X0057215Y0048807D03*
X0057215Y0040807D03*
X0080837Y0040807D03*
X0080837Y0048807D03*
X0096585Y0048807D03*
X0096585Y0040807D03*
X0120207Y0040807D03*
X0120207Y0048807D03*
X0135956Y0048807D03*
X0135956Y0040807D03*
D13*
X0132081Y0060555D03*
X0124081Y0060555D03*
X0092711Y0060555D03*
X0084711Y0060555D03*
X0053341Y0060555D03*
X0045341Y0060555D03*
D14*
X0065089Y0084079D03*
X0065089Y0091165D03*
X0104459Y0091657D03*
X0104459Y0084571D03*
X0143830Y0083587D03*
X0143830Y0090673D03*
D15*
X0201782Y0067209D03*
X0219735Y0067209D03*
D16*
X0210759Y0094366D03*
D17*
X0215286Y0056618D03*
X0206231Y0056618D03*
D18*
X0206231Y0032996D03*
X0199538Y0032996D03*
X0201999Y0165870D03*
X0208692Y0165870D03*
X0208692Y0175713D03*
X0201999Y0175713D03*
X0201507Y0185555D03*
X0208200Y0185555D03*
X0122570Y0166362D03*
X0115877Y0166362D03*
X0102393Y0166362D03*
X0095700Y0166362D03*
X0027589Y0155535D03*
X0020896Y0155535D03*
D19*
X0067058Y0144118D03*
X0067058Y0137425D03*
X0065089Y0121480D03*
X0065089Y0114787D03*
X0085267Y0132504D03*
X0085267Y0139197D03*
X0080345Y0152189D03*
X0080345Y0158882D03*
X0134971Y0161343D03*
X0134971Y0154650D03*
X0249637Y0153469D03*
X0249637Y0146776D03*
X0218633Y0048154D03*
X0218633Y0041461D03*
X0206822Y0041461D03*
X0206822Y0048154D03*
X0195011Y0048154D03*
X0195011Y0041461D03*
D20*
X0130218Y0125319D03*
X0130218Y0128469D03*
X0130218Y0131618D03*
X0130218Y0134768D03*
X0130218Y0137917D03*
X0130218Y0141067D03*
X0130218Y0144217D03*
X0130218Y0147366D03*
X0096418Y0147366D03*
X0096418Y0144217D03*
X0096418Y0141067D03*
X0096418Y0137917D03*
X0096418Y0134768D03*
X0096418Y0131618D03*
X0096418Y0128469D03*
X0096418Y0125319D03*
D21*
X0102294Y0119443D03*
X0105444Y0119443D03*
X0108593Y0119443D03*
X0111743Y0119443D03*
X0114893Y0119443D03*
X0118042Y0119443D03*
X0121192Y0119443D03*
X0124341Y0119443D03*
X0124341Y0153243D03*
X0121192Y0153243D03*
X0118042Y0153243D03*
X0114893Y0153243D03*
X0111743Y0153243D03*
X0108593Y0153243D03*
X0105444Y0153243D03*
X0102294Y0153243D03*
D22*
X0072373Y0150213D02*
X0069617Y0150213D01*
X0069617Y0152969D01*
X0072373Y0152969D01*
X0072373Y0150213D01*
X0072373Y0151393D02*
X0069617Y0151393D01*
X0069617Y0152573D02*
X0072373Y0152573D01*
X0072373Y0157118D02*
X0069617Y0157118D01*
X0069617Y0159874D01*
X0072373Y0159874D01*
X0072373Y0157118D01*
X0072373Y0158298D02*
X0069617Y0158298D01*
X0069617Y0159478D02*
X0072373Y0159478D01*
X0034971Y0073260D02*
X0032215Y0073260D01*
X0034971Y0073260D02*
X0034971Y0070504D01*
X0032215Y0070504D01*
X0032215Y0073260D01*
X0032215Y0071684D02*
X0034971Y0071684D01*
X0034971Y0072864D02*
X0032215Y0072864D01*
X0027097Y0073260D02*
X0024341Y0073260D01*
X0027097Y0073260D02*
X0027097Y0070504D01*
X0024341Y0070504D01*
X0024341Y0073260D01*
X0024341Y0071684D02*
X0027097Y0071684D01*
X0027097Y0072864D02*
X0024341Y0072864D01*
X0019223Y0073260D02*
X0016467Y0073260D01*
X0019223Y0073260D02*
X0019223Y0070504D01*
X0016467Y0070504D01*
X0016467Y0073260D01*
X0016467Y0071684D02*
X0019223Y0071684D01*
X0019223Y0072864D02*
X0016467Y0072864D01*
X0016467Y0066354D02*
X0019223Y0066354D01*
X0019223Y0063598D01*
X0016467Y0063598D01*
X0016467Y0066354D01*
X0016467Y0064778D02*
X0019223Y0064778D01*
X0019223Y0065958D02*
X0016467Y0065958D01*
X0024341Y0066354D02*
X0027097Y0066354D01*
X0027097Y0063598D01*
X0024341Y0063598D01*
X0024341Y0066354D01*
X0024341Y0064778D02*
X0027097Y0064778D01*
X0027097Y0065958D02*
X0024341Y0065958D01*
X0032215Y0066354D02*
X0034971Y0066354D01*
X0034971Y0063598D01*
X0032215Y0063598D01*
X0032215Y0066354D01*
X0032215Y0064778D02*
X0034971Y0064778D01*
X0034971Y0065958D02*
X0032215Y0065958D01*
X0006920Y0055543D02*
X0004164Y0055543D01*
X0006920Y0055543D02*
X0006920Y0052787D01*
X0004164Y0052787D01*
X0004164Y0055543D01*
X0004164Y0053967D02*
X0006920Y0053967D01*
X0006920Y0055147D02*
X0004164Y0055147D01*
X0004164Y0048638D02*
X0006920Y0048638D01*
X0006920Y0045882D01*
X0004164Y0045882D01*
X0004164Y0048638D01*
X0004164Y0047062D02*
X0006920Y0047062D01*
X0006920Y0048242D02*
X0004164Y0048242D01*
D23*
X0227393Y0187031D03*
X0234479Y0187031D03*
D24*
X0207314Y0142917D03*
X0207314Y0117957D03*
X0160070Y0074020D03*
X0160070Y0049059D03*
D25*
X0193849Y0018232D03*
X0218810Y0018232D03*
D26*
X0094420Y0114778D02*
X0094420Y0120506D01*
X0089696Y0120506D02*
X0089696Y0114778D01*
X0084971Y0114778D02*
X0084971Y0120506D01*
D27*
X0029459Y0051697D03*
X0026310Y0051697D03*
X0023160Y0051697D03*
X0020011Y0051697D03*
X0020011Y0046776D03*
X0023160Y0046776D03*
X0026310Y0046776D03*
X0029459Y0046776D03*
M02*
