G75*
%MOIN*%
%OFA0B0*%
%FSLAX25Y25*%
%IPPOS*%
%LPD*%
%AMOC8*
5,1,8,0,0,1.08239X$1,22.5*
%
%ADD10C,0.00000*%
D10*
X0002097Y0013311D02*
X0002097Y0074335D01*
X0002099Y0074459D01*
X0002105Y0074582D01*
X0002114Y0074706D01*
X0002128Y0074828D01*
X0002145Y0074951D01*
X0002167Y0075073D01*
X0002192Y0075194D01*
X0002221Y0075314D01*
X0002253Y0075433D01*
X0002290Y0075552D01*
X0002330Y0075669D01*
X0002373Y0075784D01*
X0002421Y0075899D01*
X0002472Y0076011D01*
X0002526Y0076122D01*
X0002584Y0076232D01*
X0002645Y0076339D01*
X0002710Y0076445D01*
X0002778Y0076548D01*
X0002849Y0076649D01*
X0002923Y0076748D01*
X0003000Y0076845D01*
X0003081Y0076939D01*
X0003164Y0077030D01*
X0003250Y0077119D01*
X0003339Y0077205D01*
X0003430Y0077288D01*
X0003524Y0077369D01*
X0003621Y0077446D01*
X0003720Y0077520D01*
X0003821Y0077591D01*
X0003924Y0077659D01*
X0004030Y0077724D01*
X0004137Y0077785D01*
X0004247Y0077843D01*
X0004358Y0077897D01*
X0004470Y0077948D01*
X0004585Y0077996D01*
X0004700Y0078039D01*
X0004817Y0078079D01*
X0004936Y0078116D01*
X0005055Y0078148D01*
X0005175Y0078177D01*
X0005296Y0078202D01*
X0005418Y0078224D01*
X0005541Y0078241D01*
X0005663Y0078255D01*
X0005787Y0078264D01*
X0005910Y0078270D01*
X0006034Y0078272D01*
X0017845Y0078272D01*
X0017969Y0078274D01*
X0018092Y0078280D01*
X0018216Y0078289D01*
X0018338Y0078303D01*
X0018461Y0078320D01*
X0018583Y0078342D01*
X0018704Y0078367D01*
X0018824Y0078396D01*
X0018943Y0078428D01*
X0019062Y0078465D01*
X0019179Y0078505D01*
X0019294Y0078548D01*
X0019409Y0078596D01*
X0019521Y0078647D01*
X0019632Y0078701D01*
X0019742Y0078759D01*
X0019849Y0078820D01*
X0019955Y0078885D01*
X0020058Y0078953D01*
X0020159Y0079024D01*
X0020258Y0079098D01*
X0020355Y0079175D01*
X0020449Y0079256D01*
X0020540Y0079339D01*
X0020629Y0079425D01*
X0020715Y0079514D01*
X0020798Y0079605D01*
X0020879Y0079699D01*
X0020956Y0079796D01*
X0021030Y0079895D01*
X0021101Y0079996D01*
X0021169Y0080099D01*
X0021234Y0080205D01*
X0021295Y0080312D01*
X0021353Y0080422D01*
X0021407Y0080533D01*
X0021458Y0080645D01*
X0021506Y0080760D01*
X0021549Y0080875D01*
X0021589Y0080992D01*
X0021626Y0081111D01*
X0021658Y0081230D01*
X0021687Y0081350D01*
X0021712Y0081471D01*
X0021734Y0081593D01*
X0021751Y0081716D01*
X0021765Y0081838D01*
X0021774Y0081962D01*
X0021780Y0082085D01*
X0021782Y0082209D01*
X0021782Y0141264D01*
X0021780Y0141388D01*
X0021774Y0141511D01*
X0021765Y0141635D01*
X0021751Y0141757D01*
X0021734Y0141880D01*
X0021712Y0142002D01*
X0021687Y0142123D01*
X0021658Y0142243D01*
X0021626Y0142362D01*
X0021589Y0142481D01*
X0021549Y0142598D01*
X0021506Y0142713D01*
X0021458Y0142828D01*
X0021407Y0142940D01*
X0021353Y0143051D01*
X0021295Y0143161D01*
X0021234Y0143268D01*
X0021169Y0143374D01*
X0021101Y0143477D01*
X0021030Y0143578D01*
X0020956Y0143677D01*
X0020879Y0143774D01*
X0020798Y0143868D01*
X0020715Y0143959D01*
X0020629Y0144048D01*
X0020540Y0144134D01*
X0020449Y0144217D01*
X0020355Y0144298D01*
X0020258Y0144375D01*
X0020159Y0144449D01*
X0020058Y0144520D01*
X0019955Y0144588D01*
X0019849Y0144653D01*
X0019742Y0144714D01*
X0019632Y0144772D01*
X0019521Y0144826D01*
X0019409Y0144877D01*
X0019294Y0144925D01*
X0019179Y0144968D01*
X0019062Y0145008D01*
X0018943Y0145045D01*
X0018824Y0145077D01*
X0018704Y0145106D01*
X0018583Y0145131D01*
X0018461Y0145153D01*
X0018338Y0145170D01*
X0018216Y0145184D01*
X0018092Y0145193D01*
X0017969Y0145199D01*
X0017845Y0145201D01*
X0006034Y0145201D01*
X0005910Y0145203D01*
X0005787Y0145209D01*
X0005663Y0145218D01*
X0005541Y0145232D01*
X0005418Y0145249D01*
X0005296Y0145271D01*
X0005175Y0145296D01*
X0005055Y0145325D01*
X0004936Y0145357D01*
X0004817Y0145394D01*
X0004700Y0145434D01*
X0004585Y0145477D01*
X0004470Y0145525D01*
X0004358Y0145576D01*
X0004247Y0145630D01*
X0004137Y0145688D01*
X0004030Y0145749D01*
X0003924Y0145814D01*
X0003821Y0145882D01*
X0003720Y0145953D01*
X0003621Y0146027D01*
X0003524Y0146104D01*
X0003430Y0146185D01*
X0003339Y0146268D01*
X0003250Y0146354D01*
X0003164Y0146443D01*
X0003081Y0146534D01*
X0003000Y0146628D01*
X0002923Y0146725D01*
X0002849Y0146824D01*
X0002778Y0146925D01*
X0002710Y0147028D01*
X0002645Y0147134D01*
X0002584Y0147241D01*
X0002526Y0147351D01*
X0002472Y0147462D01*
X0002421Y0147574D01*
X0002373Y0147689D01*
X0002330Y0147804D01*
X0002290Y0147921D01*
X0002253Y0148040D01*
X0002221Y0148159D01*
X0002192Y0148279D01*
X0002167Y0148400D01*
X0002145Y0148522D01*
X0002128Y0148645D01*
X0002114Y0148767D01*
X0002105Y0148891D01*
X0002099Y0149014D01*
X0002097Y0149138D01*
X0002097Y0210161D01*
X0002100Y0210446D01*
X0002111Y0210732D01*
X0002128Y0211017D01*
X0002152Y0211301D01*
X0002183Y0211585D01*
X0002221Y0211868D01*
X0002266Y0212149D01*
X0002317Y0212430D01*
X0002375Y0212710D01*
X0002440Y0212988D01*
X0002512Y0213264D01*
X0002590Y0213538D01*
X0002675Y0213811D01*
X0002767Y0214081D01*
X0002865Y0214349D01*
X0002969Y0214615D01*
X0003080Y0214878D01*
X0003197Y0215138D01*
X0003320Y0215396D01*
X0003450Y0215650D01*
X0003586Y0215901D01*
X0003727Y0216149D01*
X0003875Y0216393D01*
X0004028Y0216634D01*
X0004188Y0216870D01*
X0004353Y0217103D01*
X0004523Y0217332D01*
X0004699Y0217557D01*
X0004881Y0217777D01*
X0005067Y0217993D01*
X0005259Y0218204D01*
X0005456Y0218411D01*
X0005658Y0218613D01*
X0005865Y0218810D01*
X0006076Y0219002D01*
X0006292Y0219188D01*
X0006512Y0219370D01*
X0006737Y0219546D01*
X0006966Y0219716D01*
X0007199Y0219881D01*
X0007435Y0220041D01*
X0007676Y0220194D01*
X0007920Y0220342D01*
X0008168Y0220483D01*
X0008419Y0220619D01*
X0008673Y0220749D01*
X0008931Y0220872D01*
X0009191Y0220989D01*
X0009454Y0221100D01*
X0009720Y0221204D01*
X0009988Y0221302D01*
X0010258Y0221394D01*
X0010531Y0221479D01*
X0010805Y0221557D01*
X0011081Y0221629D01*
X0011359Y0221694D01*
X0011639Y0221752D01*
X0011920Y0221803D01*
X0012201Y0221848D01*
X0012484Y0221886D01*
X0012768Y0221917D01*
X0013052Y0221941D01*
X0013337Y0221958D01*
X0013623Y0221969D01*
X0013908Y0221972D01*
X0246192Y0221972D01*
X0246477Y0221969D01*
X0246763Y0221958D01*
X0247048Y0221941D01*
X0247332Y0221917D01*
X0247616Y0221886D01*
X0247899Y0221848D01*
X0248180Y0221803D01*
X0248461Y0221752D01*
X0248741Y0221694D01*
X0249019Y0221629D01*
X0249295Y0221557D01*
X0249569Y0221479D01*
X0249842Y0221394D01*
X0250112Y0221302D01*
X0250380Y0221204D01*
X0250646Y0221100D01*
X0250909Y0220989D01*
X0251169Y0220872D01*
X0251427Y0220749D01*
X0251681Y0220619D01*
X0251932Y0220483D01*
X0252180Y0220342D01*
X0252424Y0220194D01*
X0252665Y0220041D01*
X0252901Y0219881D01*
X0253134Y0219716D01*
X0253363Y0219546D01*
X0253588Y0219370D01*
X0253808Y0219188D01*
X0254024Y0219002D01*
X0254235Y0218810D01*
X0254442Y0218613D01*
X0254644Y0218411D01*
X0254841Y0218204D01*
X0255033Y0217993D01*
X0255219Y0217777D01*
X0255401Y0217557D01*
X0255577Y0217332D01*
X0255747Y0217103D01*
X0255912Y0216870D01*
X0256072Y0216634D01*
X0256225Y0216393D01*
X0256373Y0216149D01*
X0256514Y0215901D01*
X0256650Y0215650D01*
X0256780Y0215396D01*
X0256903Y0215138D01*
X0257020Y0214878D01*
X0257131Y0214615D01*
X0257235Y0214349D01*
X0257333Y0214081D01*
X0257425Y0213811D01*
X0257510Y0213538D01*
X0257588Y0213264D01*
X0257660Y0212988D01*
X0257725Y0212710D01*
X0257783Y0212430D01*
X0257834Y0212149D01*
X0257879Y0211868D01*
X0257917Y0211585D01*
X0257948Y0211301D01*
X0257972Y0211017D01*
X0257989Y0210732D01*
X0258000Y0210446D01*
X0258003Y0210161D01*
X0258003Y0013311D01*
X0258000Y0013026D01*
X0257989Y0012740D01*
X0257972Y0012455D01*
X0257948Y0012171D01*
X0257917Y0011887D01*
X0257879Y0011604D01*
X0257834Y0011323D01*
X0257783Y0011042D01*
X0257725Y0010762D01*
X0257660Y0010484D01*
X0257588Y0010208D01*
X0257510Y0009934D01*
X0257425Y0009661D01*
X0257333Y0009391D01*
X0257235Y0009123D01*
X0257131Y0008857D01*
X0257020Y0008594D01*
X0256903Y0008334D01*
X0256780Y0008076D01*
X0256650Y0007822D01*
X0256514Y0007571D01*
X0256373Y0007323D01*
X0256225Y0007079D01*
X0256072Y0006838D01*
X0255912Y0006602D01*
X0255747Y0006369D01*
X0255577Y0006140D01*
X0255401Y0005915D01*
X0255219Y0005695D01*
X0255033Y0005479D01*
X0254841Y0005268D01*
X0254644Y0005061D01*
X0254442Y0004859D01*
X0254235Y0004662D01*
X0254024Y0004470D01*
X0253808Y0004284D01*
X0253588Y0004102D01*
X0253363Y0003926D01*
X0253134Y0003756D01*
X0252901Y0003591D01*
X0252665Y0003431D01*
X0252424Y0003278D01*
X0252180Y0003130D01*
X0251932Y0002989D01*
X0251681Y0002853D01*
X0251427Y0002723D01*
X0251169Y0002600D01*
X0250909Y0002483D01*
X0250646Y0002372D01*
X0250380Y0002268D01*
X0250112Y0002170D01*
X0249842Y0002078D01*
X0249569Y0001993D01*
X0249295Y0001915D01*
X0249019Y0001843D01*
X0248741Y0001778D01*
X0248461Y0001720D01*
X0248180Y0001669D01*
X0247899Y0001624D01*
X0247616Y0001586D01*
X0247332Y0001555D01*
X0247048Y0001531D01*
X0246763Y0001514D01*
X0246477Y0001503D01*
X0246192Y0001500D01*
X0187137Y0001500D01*
X0187013Y0001502D01*
X0186890Y0001508D01*
X0186766Y0001517D01*
X0186644Y0001531D01*
X0186521Y0001548D01*
X0186399Y0001570D01*
X0186278Y0001595D01*
X0186158Y0001624D01*
X0186039Y0001656D01*
X0185920Y0001693D01*
X0185803Y0001733D01*
X0185688Y0001776D01*
X0185573Y0001824D01*
X0185461Y0001875D01*
X0185350Y0001929D01*
X0185240Y0001987D01*
X0185133Y0002048D01*
X0185027Y0002113D01*
X0184924Y0002181D01*
X0184823Y0002252D01*
X0184724Y0002326D01*
X0184627Y0002403D01*
X0184533Y0002484D01*
X0184442Y0002567D01*
X0184353Y0002653D01*
X0184267Y0002742D01*
X0184184Y0002833D01*
X0184103Y0002927D01*
X0184026Y0003024D01*
X0183952Y0003123D01*
X0183881Y0003224D01*
X0183813Y0003327D01*
X0183748Y0003433D01*
X0183687Y0003540D01*
X0183629Y0003650D01*
X0183575Y0003761D01*
X0183524Y0003873D01*
X0183476Y0003988D01*
X0183433Y0004103D01*
X0183393Y0004220D01*
X0183356Y0004339D01*
X0183324Y0004458D01*
X0183295Y0004578D01*
X0183270Y0004699D01*
X0183248Y0004821D01*
X0183231Y0004944D01*
X0183217Y0005066D01*
X0183208Y0005190D01*
X0183202Y0005313D01*
X0183200Y0005437D01*
X0183200Y0076303D01*
X0179263Y0080240D02*
X0179139Y0080238D01*
X0179016Y0080232D01*
X0178892Y0080223D01*
X0178770Y0080209D01*
X0178647Y0080192D01*
X0178525Y0080170D01*
X0178404Y0080145D01*
X0178284Y0080116D01*
X0178165Y0080084D01*
X0178046Y0080047D01*
X0177929Y0080007D01*
X0177814Y0079964D01*
X0177699Y0079916D01*
X0177587Y0079865D01*
X0177476Y0079811D01*
X0177366Y0079753D01*
X0177259Y0079692D01*
X0177153Y0079627D01*
X0177050Y0079559D01*
X0176949Y0079488D01*
X0176850Y0079414D01*
X0176753Y0079337D01*
X0176659Y0079256D01*
X0176568Y0079173D01*
X0176479Y0079087D01*
X0176393Y0078998D01*
X0176310Y0078907D01*
X0176229Y0078813D01*
X0176152Y0078716D01*
X0176078Y0078617D01*
X0176007Y0078516D01*
X0175939Y0078413D01*
X0175874Y0078307D01*
X0175813Y0078200D01*
X0175755Y0078090D01*
X0175701Y0077979D01*
X0175650Y0077867D01*
X0175602Y0077752D01*
X0175559Y0077637D01*
X0175519Y0077520D01*
X0175482Y0077401D01*
X0175450Y0077282D01*
X0175421Y0077162D01*
X0175396Y0077041D01*
X0175374Y0076919D01*
X0175357Y0076796D01*
X0175343Y0076674D01*
X0175334Y0076550D01*
X0175328Y0076427D01*
X0175326Y0076303D01*
X0175326Y0005437D01*
X0175324Y0005313D01*
X0175318Y0005190D01*
X0175309Y0005066D01*
X0175295Y0004944D01*
X0175278Y0004821D01*
X0175256Y0004699D01*
X0175231Y0004578D01*
X0175202Y0004458D01*
X0175170Y0004339D01*
X0175133Y0004220D01*
X0175093Y0004103D01*
X0175050Y0003988D01*
X0175002Y0003873D01*
X0174951Y0003761D01*
X0174897Y0003650D01*
X0174839Y0003540D01*
X0174778Y0003433D01*
X0174713Y0003327D01*
X0174645Y0003224D01*
X0174574Y0003123D01*
X0174500Y0003024D01*
X0174423Y0002927D01*
X0174342Y0002833D01*
X0174259Y0002742D01*
X0174173Y0002653D01*
X0174084Y0002567D01*
X0173993Y0002484D01*
X0173899Y0002403D01*
X0173802Y0002326D01*
X0173703Y0002252D01*
X0173602Y0002181D01*
X0173499Y0002113D01*
X0173393Y0002048D01*
X0173286Y0001987D01*
X0173176Y0001929D01*
X0173065Y0001875D01*
X0172953Y0001824D01*
X0172838Y0001776D01*
X0172723Y0001733D01*
X0172606Y0001693D01*
X0172487Y0001656D01*
X0172368Y0001624D01*
X0172248Y0001595D01*
X0172127Y0001570D01*
X0172005Y0001548D01*
X0171882Y0001531D01*
X0171760Y0001517D01*
X0171636Y0001508D01*
X0171513Y0001502D01*
X0171389Y0001500D01*
X0013908Y0001500D01*
X0013623Y0001503D01*
X0013337Y0001514D01*
X0013052Y0001531D01*
X0012768Y0001555D01*
X0012484Y0001586D01*
X0012201Y0001624D01*
X0011920Y0001669D01*
X0011639Y0001720D01*
X0011359Y0001778D01*
X0011081Y0001843D01*
X0010805Y0001915D01*
X0010531Y0001993D01*
X0010258Y0002078D01*
X0009988Y0002170D01*
X0009720Y0002268D01*
X0009454Y0002372D01*
X0009191Y0002483D01*
X0008931Y0002600D01*
X0008673Y0002723D01*
X0008419Y0002853D01*
X0008168Y0002989D01*
X0007920Y0003130D01*
X0007676Y0003278D01*
X0007435Y0003431D01*
X0007199Y0003591D01*
X0006966Y0003756D01*
X0006737Y0003926D01*
X0006512Y0004102D01*
X0006292Y0004284D01*
X0006076Y0004470D01*
X0005865Y0004662D01*
X0005658Y0004859D01*
X0005456Y0005061D01*
X0005259Y0005268D01*
X0005067Y0005479D01*
X0004881Y0005695D01*
X0004699Y0005915D01*
X0004523Y0006140D01*
X0004353Y0006369D01*
X0004188Y0006602D01*
X0004028Y0006838D01*
X0003875Y0007079D01*
X0003727Y0007323D01*
X0003586Y0007571D01*
X0003450Y0007822D01*
X0003320Y0008076D01*
X0003197Y0008334D01*
X0003080Y0008594D01*
X0002969Y0008857D01*
X0002865Y0009123D01*
X0002767Y0009391D01*
X0002675Y0009661D01*
X0002590Y0009934D01*
X0002512Y0010208D01*
X0002440Y0010484D01*
X0002375Y0010762D01*
X0002317Y0011042D01*
X0002266Y0011323D01*
X0002221Y0011604D01*
X0002183Y0011887D01*
X0002152Y0012171D01*
X0002128Y0012455D01*
X0002111Y0012740D01*
X0002100Y0013026D01*
X0002097Y0013311D01*
X0010365Y0015280D02*
X0010367Y0015428D01*
X0010373Y0015576D01*
X0010383Y0015724D01*
X0010397Y0015871D01*
X0010415Y0016018D01*
X0010436Y0016164D01*
X0010462Y0016310D01*
X0010492Y0016455D01*
X0010525Y0016599D01*
X0010563Y0016742D01*
X0010604Y0016884D01*
X0010649Y0017025D01*
X0010697Y0017165D01*
X0010750Y0017304D01*
X0010806Y0017441D01*
X0010866Y0017576D01*
X0010929Y0017710D01*
X0010996Y0017842D01*
X0011067Y0017972D01*
X0011141Y0018100D01*
X0011218Y0018226D01*
X0011299Y0018350D01*
X0011383Y0018472D01*
X0011470Y0018591D01*
X0011561Y0018708D01*
X0011655Y0018823D01*
X0011751Y0018935D01*
X0011851Y0019045D01*
X0011953Y0019151D01*
X0012059Y0019255D01*
X0012167Y0019356D01*
X0012278Y0019454D01*
X0012391Y0019550D01*
X0012507Y0019642D01*
X0012625Y0019731D01*
X0012746Y0019816D01*
X0012869Y0019899D01*
X0012994Y0019978D01*
X0013121Y0020054D01*
X0013250Y0020126D01*
X0013381Y0020195D01*
X0013514Y0020260D01*
X0013649Y0020321D01*
X0013785Y0020379D01*
X0013922Y0020434D01*
X0014061Y0020484D01*
X0014202Y0020531D01*
X0014343Y0020574D01*
X0014486Y0020614D01*
X0014630Y0020649D01*
X0014774Y0020681D01*
X0014920Y0020708D01*
X0015066Y0020732D01*
X0015213Y0020752D01*
X0015360Y0020768D01*
X0015507Y0020780D01*
X0015655Y0020788D01*
X0015803Y0020792D01*
X0015951Y0020792D01*
X0016099Y0020788D01*
X0016247Y0020780D01*
X0016394Y0020768D01*
X0016541Y0020752D01*
X0016688Y0020732D01*
X0016834Y0020708D01*
X0016980Y0020681D01*
X0017124Y0020649D01*
X0017268Y0020614D01*
X0017411Y0020574D01*
X0017552Y0020531D01*
X0017693Y0020484D01*
X0017832Y0020434D01*
X0017969Y0020379D01*
X0018105Y0020321D01*
X0018240Y0020260D01*
X0018373Y0020195D01*
X0018504Y0020126D01*
X0018633Y0020054D01*
X0018760Y0019978D01*
X0018885Y0019899D01*
X0019008Y0019816D01*
X0019129Y0019731D01*
X0019247Y0019642D01*
X0019363Y0019550D01*
X0019476Y0019454D01*
X0019587Y0019356D01*
X0019695Y0019255D01*
X0019801Y0019151D01*
X0019903Y0019045D01*
X0020003Y0018935D01*
X0020099Y0018823D01*
X0020193Y0018708D01*
X0020284Y0018591D01*
X0020371Y0018472D01*
X0020455Y0018350D01*
X0020536Y0018226D01*
X0020613Y0018100D01*
X0020687Y0017972D01*
X0020758Y0017842D01*
X0020825Y0017710D01*
X0020888Y0017576D01*
X0020948Y0017441D01*
X0021004Y0017304D01*
X0021057Y0017165D01*
X0021105Y0017025D01*
X0021150Y0016884D01*
X0021191Y0016742D01*
X0021229Y0016599D01*
X0021262Y0016455D01*
X0021292Y0016310D01*
X0021318Y0016164D01*
X0021339Y0016018D01*
X0021357Y0015871D01*
X0021371Y0015724D01*
X0021381Y0015576D01*
X0021387Y0015428D01*
X0021389Y0015280D01*
X0021387Y0015132D01*
X0021381Y0014984D01*
X0021371Y0014836D01*
X0021357Y0014689D01*
X0021339Y0014542D01*
X0021318Y0014396D01*
X0021292Y0014250D01*
X0021262Y0014105D01*
X0021229Y0013961D01*
X0021191Y0013818D01*
X0021150Y0013676D01*
X0021105Y0013535D01*
X0021057Y0013395D01*
X0021004Y0013256D01*
X0020948Y0013119D01*
X0020888Y0012984D01*
X0020825Y0012850D01*
X0020758Y0012718D01*
X0020687Y0012588D01*
X0020613Y0012460D01*
X0020536Y0012334D01*
X0020455Y0012210D01*
X0020371Y0012088D01*
X0020284Y0011969D01*
X0020193Y0011852D01*
X0020099Y0011737D01*
X0020003Y0011625D01*
X0019903Y0011515D01*
X0019801Y0011409D01*
X0019695Y0011305D01*
X0019587Y0011204D01*
X0019476Y0011106D01*
X0019363Y0011010D01*
X0019247Y0010918D01*
X0019129Y0010829D01*
X0019008Y0010744D01*
X0018885Y0010661D01*
X0018760Y0010582D01*
X0018633Y0010506D01*
X0018504Y0010434D01*
X0018373Y0010365D01*
X0018240Y0010300D01*
X0018105Y0010239D01*
X0017969Y0010181D01*
X0017832Y0010126D01*
X0017693Y0010076D01*
X0017552Y0010029D01*
X0017411Y0009986D01*
X0017268Y0009946D01*
X0017124Y0009911D01*
X0016980Y0009879D01*
X0016834Y0009852D01*
X0016688Y0009828D01*
X0016541Y0009808D01*
X0016394Y0009792D01*
X0016247Y0009780D01*
X0016099Y0009772D01*
X0015951Y0009768D01*
X0015803Y0009768D01*
X0015655Y0009772D01*
X0015507Y0009780D01*
X0015360Y0009792D01*
X0015213Y0009808D01*
X0015066Y0009828D01*
X0014920Y0009852D01*
X0014774Y0009879D01*
X0014630Y0009911D01*
X0014486Y0009946D01*
X0014343Y0009986D01*
X0014202Y0010029D01*
X0014061Y0010076D01*
X0013922Y0010126D01*
X0013785Y0010181D01*
X0013649Y0010239D01*
X0013514Y0010300D01*
X0013381Y0010365D01*
X0013250Y0010434D01*
X0013121Y0010506D01*
X0012994Y0010582D01*
X0012869Y0010661D01*
X0012746Y0010744D01*
X0012625Y0010829D01*
X0012507Y0010918D01*
X0012391Y0011010D01*
X0012278Y0011106D01*
X0012167Y0011204D01*
X0012059Y0011305D01*
X0011953Y0011409D01*
X0011851Y0011515D01*
X0011751Y0011625D01*
X0011655Y0011737D01*
X0011561Y0011852D01*
X0011470Y0011969D01*
X0011383Y0012088D01*
X0011299Y0012210D01*
X0011218Y0012334D01*
X0011141Y0012460D01*
X0011067Y0012588D01*
X0010996Y0012718D01*
X0010929Y0012850D01*
X0010866Y0012984D01*
X0010806Y0013119D01*
X0010750Y0013256D01*
X0010697Y0013395D01*
X0010649Y0013535D01*
X0010604Y0013676D01*
X0010563Y0013818D01*
X0010525Y0013961D01*
X0010492Y0014105D01*
X0010462Y0014250D01*
X0010436Y0014396D01*
X0010415Y0014542D01*
X0010397Y0014689D01*
X0010383Y0014836D01*
X0010373Y0014984D01*
X0010367Y0015132D01*
X0010365Y0015280D01*
X0179263Y0080240D02*
X0179387Y0080238D01*
X0179510Y0080232D01*
X0179634Y0080223D01*
X0179756Y0080209D01*
X0179879Y0080192D01*
X0180001Y0080170D01*
X0180122Y0080145D01*
X0180242Y0080116D01*
X0180361Y0080084D01*
X0180480Y0080047D01*
X0180597Y0080007D01*
X0180712Y0079964D01*
X0180827Y0079916D01*
X0180939Y0079865D01*
X0181050Y0079811D01*
X0181160Y0079753D01*
X0181267Y0079692D01*
X0181373Y0079627D01*
X0181476Y0079559D01*
X0181577Y0079488D01*
X0181676Y0079414D01*
X0181773Y0079337D01*
X0181867Y0079256D01*
X0181958Y0079173D01*
X0182047Y0079087D01*
X0182133Y0078998D01*
X0182216Y0078907D01*
X0182297Y0078813D01*
X0182374Y0078716D01*
X0182448Y0078617D01*
X0182519Y0078516D01*
X0182587Y0078413D01*
X0182652Y0078307D01*
X0182713Y0078200D01*
X0182771Y0078090D01*
X0182825Y0077979D01*
X0182876Y0077867D01*
X0182924Y0077752D01*
X0182967Y0077637D01*
X0183007Y0077520D01*
X0183044Y0077401D01*
X0183076Y0077282D01*
X0183105Y0077162D01*
X0183130Y0077041D01*
X0183152Y0076919D01*
X0183169Y0076796D01*
X0183183Y0076674D01*
X0183192Y0076550D01*
X0183198Y0076427D01*
X0183200Y0076303D01*
X0238711Y0015280D02*
X0238713Y0015428D01*
X0238719Y0015576D01*
X0238729Y0015724D01*
X0238743Y0015871D01*
X0238761Y0016018D01*
X0238782Y0016164D01*
X0238808Y0016310D01*
X0238838Y0016455D01*
X0238871Y0016599D01*
X0238909Y0016742D01*
X0238950Y0016884D01*
X0238995Y0017025D01*
X0239043Y0017165D01*
X0239096Y0017304D01*
X0239152Y0017441D01*
X0239212Y0017576D01*
X0239275Y0017710D01*
X0239342Y0017842D01*
X0239413Y0017972D01*
X0239487Y0018100D01*
X0239564Y0018226D01*
X0239645Y0018350D01*
X0239729Y0018472D01*
X0239816Y0018591D01*
X0239907Y0018708D01*
X0240001Y0018823D01*
X0240097Y0018935D01*
X0240197Y0019045D01*
X0240299Y0019151D01*
X0240405Y0019255D01*
X0240513Y0019356D01*
X0240624Y0019454D01*
X0240737Y0019550D01*
X0240853Y0019642D01*
X0240971Y0019731D01*
X0241092Y0019816D01*
X0241215Y0019899D01*
X0241340Y0019978D01*
X0241467Y0020054D01*
X0241596Y0020126D01*
X0241727Y0020195D01*
X0241860Y0020260D01*
X0241995Y0020321D01*
X0242131Y0020379D01*
X0242268Y0020434D01*
X0242407Y0020484D01*
X0242548Y0020531D01*
X0242689Y0020574D01*
X0242832Y0020614D01*
X0242976Y0020649D01*
X0243120Y0020681D01*
X0243266Y0020708D01*
X0243412Y0020732D01*
X0243559Y0020752D01*
X0243706Y0020768D01*
X0243853Y0020780D01*
X0244001Y0020788D01*
X0244149Y0020792D01*
X0244297Y0020792D01*
X0244445Y0020788D01*
X0244593Y0020780D01*
X0244740Y0020768D01*
X0244887Y0020752D01*
X0245034Y0020732D01*
X0245180Y0020708D01*
X0245326Y0020681D01*
X0245470Y0020649D01*
X0245614Y0020614D01*
X0245757Y0020574D01*
X0245898Y0020531D01*
X0246039Y0020484D01*
X0246178Y0020434D01*
X0246315Y0020379D01*
X0246451Y0020321D01*
X0246586Y0020260D01*
X0246719Y0020195D01*
X0246850Y0020126D01*
X0246979Y0020054D01*
X0247106Y0019978D01*
X0247231Y0019899D01*
X0247354Y0019816D01*
X0247475Y0019731D01*
X0247593Y0019642D01*
X0247709Y0019550D01*
X0247822Y0019454D01*
X0247933Y0019356D01*
X0248041Y0019255D01*
X0248147Y0019151D01*
X0248249Y0019045D01*
X0248349Y0018935D01*
X0248445Y0018823D01*
X0248539Y0018708D01*
X0248630Y0018591D01*
X0248717Y0018472D01*
X0248801Y0018350D01*
X0248882Y0018226D01*
X0248959Y0018100D01*
X0249033Y0017972D01*
X0249104Y0017842D01*
X0249171Y0017710D01*
X0249234Y0017576D01*
X0249294Y0017441D01*
X0249350Y0017304D01*
X0249403Y0017165D01*
X0249451Y0017025D01*
X0249496Y0016884D01*
X0249537Y0016742D01*
X0249575Y0016599D01*
X0249608Y0016455D01*
X0249638Y0016310D01*
X0249664Y0016164D01*
X0249685Y0016018D01*
X0249703Y0015871D01*
X0249717Y0015724D01*
X0249727Y0015576D01*
X0249733Y0015428D01*
X0249735Y0015280D01*
X0249733Y0015132D01*
X0249727Y0014984D01*
X0249717Y0014836D01*
X0249703Y0014689D01*
X0249685Y0014542D01*
X0249664Y0014396D01*
X0249638Y0014250D01*
X0249608Y0014105D01*
X0249575Y0013961D01*
X0249537Y0013818D01*
X0249496Y0013676D01*
X0249451Y0013535D01*
X0249403Y0013395D01*
X0249350Y0013256D01*
X0249294Y0013119D01*
X0249234Y0012984D01*
X0249171Y0012850D01*
X0249104Y0012718D01*
X0249033Y0012588D01*
X0248959Y0012460D01*
X0248882Y0012334D01*
X0248801Y0012210D01*
X0248717Y0012088D01*
X0248630Y0011969D01*
X0248539Y0011852D01*
X0248445Y0011737D01*
X0248349Y0011625D01*
X0248249Y0011515D01*
X0248147Y0011409D01*
X0248041Y0011305D01*
X0247933Y0011204D01*
X0247822Y0011106D01*
X0247709Y0011010D01*
X0247593Y0010918D01*
X0247475Y0010829D01*
X0247354Y0010744D01*
X0247231Y0010661D01*
X0247106Y0010582D01*
X0246979Y0010506D01*
X0246850Y0010434D01*
X0246719Y0010365D01*
X0246586Y0010300D01*
X0246451Y0010239D01*
X0246315Y0010181D01*
X0246178Y0010126D01*
X0246039Y0010076D01*
X0245898Y0010029D01*
X0245757Y0009986D01*
X0245614Y0009946D01*
X0245470Y0009911D01*
X0245326Y0009879D01*
X0245180Y0009852D01*
X0245034Y0009828D01*
X0244887Y0009808D01*
X0244740Y0009792D01*
X0244593Y0009780D01*
X0244445Y0009772D01*
X0244297Y0009768D01*
X0244149Y0009768D01*
X0244001Y0009772D01*
X0243853Y0009780D01*
X0243706Y0009792D01*
X0243559Y0009808D01*
X0243412Y0009828D01*
X0243266Y0009852D01*
X0243120Y0009879D01*
X0242976Y0009911D01*
X0242832Y0009946D01*
X0242689Y0009986D01*
X0242548Y0010029D01*
X0242407Y0010076D01*
X0242268Y0010126D01*
X0242131Y0010181D01*
X0241995Y0010239D01*
X0241860Y0010300D01*
X0241727Y0010365D01*
X0241596Y0010434D01*
X0241467Y0010506D01*
X0241340Y0010582D01*
X0241215Y0010661D01*
X0241092Y0010744D01*
X0240971Y0010829D01*
X0240853Y0010918D01*
X0240737Y0011010D01*
X0240624Y0011106D01*
X0240513Y0011204D01*
X0240405Y0011305D01*
X0240299Y0011409D01*
X0240197Y0011515D01*
X0240097Y0011625D01*
X0240001Y0011737D01*
X0239907Y0011852D01*
X0239816Y0011969D01*
X0239729Y0012088D01*
X0239645Y0012210D01*
X0239564Y0012334D01*
X0239487Y0012460D01*
X0239413Y0012588D01*
X0239342Y0012718D01*
X0239275Y0012850D01*
X0239212Y0012984D01*
X0239152Y0013119D01*
X0239096Y0013256D01*
X0239043Y0013395D01*
X0238995Y0013535D01*
X0238950Y0013676D01*
X0238909Y0013818D01*
X0238871Y0013961D01*
X0238838Y0014105D01*
X0238808Y0014250D01*
X0238782Y0014396D01*
X0238761Y0014542D01*
X0238743Y0014689D01*
X0238729Y0014836D01*
X0238719Y0014984D01*
X0238713Y0015132D01*
X0238711Y0015280D01*
X0238711Y0208193D02*
X0238713Y0208341D01*
X0238719Y0208489D01*
X0238729Y0208637D01*
X0238743Y0208784D01*
X0238761Y0208931D01*
X0238782Y0209077D01*
X0238808Y0209223D01*
X0238838Y0209368D01*
X0238871Y0209512D01*
X0238909Y0209655D01*
X0238950Y0209797D01*
X0238995Y0209938D01*
X0239043Y0210078D01*
X0239096Y0210217D01*
X0239152Y0210354D01*
X0239212Y0210489D01*
X0239275Y0210623D01*
X0239342Y0210755D01*
X0239413Y0210885D01*
X0239487Y0211013D01*
X0239564Y0211139D01*
X0239645Y0211263D01*
X0239729Y0211385D01*
X0239816Y0211504D01*
X0239907Y0211621D01*
X0240001Y0211736D01*
X0240097Y0211848D01*
X0240197Y0211958D01*
X0240299Y0212064D01*
X0240405Y0212168D01*
X0240513Y0212269D01*
X0240624Y0212367D01*
X0240737Y0212463D01*
X0240853Y0212555D01*
X0240971Y0212644D01*
X0241092Y0212729D01*
X0241215Y0212812D01*
X0241340Y0212891D01*
X0241467Y0212967D01*
X0241596Y0213039D01*
X0241727Y0213108D01*
X0241860Y0213173D01*
X0241995Y0213234D01*
X0242131Y0213292D01*
X0242268Y0213347D01*
X0242407Y0213397D01*
X0242548Y0213444D01*
X0242689Y0213487D01*
X0242832Y0213527D01*
X0242976Y0213562D01*
X0243120Y0213594D01*
X0243266Y0213621D01*
X0243412Y0213645D01*
X0243559Y0213665D01*
X0243706Y0213681D01*
X0243853Y0213693D01*
X0244001Y0213701D01*
X0244149Y0213705D01*
X0244297Y0213705D01*
X0244445Y0213701D01*
X0244593Y0213693D01*
X0244740Y0213681D01*
X0244887Y0213665D01*
X0245034Y0213645D01*
X0245180Y0213621D01*
X0245326Y0213594D01*
X0245470Y0213562D01*
X0245614Y0213527D01*
X0245757Y0213487D01*
X0245898Y0213444D01*
X0246039Y0213397D01*
X0246178Y0213347D01*
X0246315Y0213292D01*
X0246451Y0213234D01*
X0246586Y0213173D01*
X0246719Y0213108D01*
X0246850Y0213039D01*
X0246979Y0212967D01*
X0247106Y0212891D01*
X0247231Y0212812D01*
X0247354Y0212729D01*
X0247475Y0212644D01*
X0247593Y0212555D01*
X0247709Y0212463D01*
X0247822Y0212367D01*
X0247933Y0212269D01*
X0248041Y0212168D01*
X0248147Y0212064D01*
X0248249Y0211958D01*
X0248349Y0211848D01*
X0248445Y0211736D01*
X0248539Y0211621D01*
X0248630Y0211504D01*
X0248717Y0211385D01*
X0248801Y0211263D01*
X0248882Y0211139D01*
X0248959Y0211013D01*
X0249033Y0210885D01*
X0249104Y0210755D01*
X0249171Y0210623D01*
X0249234Y0210489D01*
X0249294Y0210354D01*
X0249350Y0210217D01*
X0249403Y0210078D01*
X0249451Y0209938D01*
X0249496Y0209797D01*
X0249537Y0209655D01*
X0249575Y0209512D01*
X0249608Y0209368D01*
X0249638Y0209223D01*
X0249664Y0209077D01*
X0249685Y0208931D01*
X0249703Y0208784D01*
X0249717Y0208637D01*
X0249727Y0208489D01*
X0249733Y0208341D01*
X0249735Y0208193D01*
X0249733Y0208045D01*
X0249727Y0207897D01*
X0249717Y0207749D01*
X0249703Y0207602D01*
X0249685Y0207455D01*
X0249664Y0207309D01*
X0249638Y0207163D01*
X0249608Y0207018D01*
X0249575Y0206874D01*
X0249537Y0206731D01*
X0249496Y0206589D01*
X0249451Y0206448D01*
X0249403Y0206308D01*
X0249350Y0206169D01*
X0249294Y0206032D01*
X0249234Y0205897D01*
X0249171Y0205763D01*
X0249104Y0205631D01*
X0249033Y0205501D01*
X0248959Y0205373D01*
X0248882Y0205247D01*
X0248801Y0205123D01*
X0248717Y0205001D01*
X0248630Y0204882D01*
X0248539Y0204765D01*
X0248445Y0204650D01*
X0248349Y0204538D01*
X0248249Y0204428D01*
X0248147Y0204322D01*
X0248041Y0204218D01*
X0247933Y0204117D01*
X0247822Y0204019D01*
X0247709Y0203923D01*
X0247593Y0203831D01*
X0247475Y0203742D01*
X0247354Y0203657D01*
X0247231Y0203574D01*
X0247106Y0203495D01*
X0246979Y0203419D01*
X0246850Y0203347D01*
X0246719Y0203278D01*
X0246586Y0203213D01*
X0246451Y0203152D01*
X0246315Y0203094D01*
X0246178Y0203039D01*
X0246039Y0202989D01*
X0245898Y0202942D01*
X0245757Y0202899D01*
X0245614Y0202859D01*
X0245470Y0202824D01*
X0245326Y0202792D01*
X0245180Y0202765D01*
X0245034Y0202741D01*
X0244887Y0202721D01*
X0244740Y0202705D01*
X0244593Y0202693D01*
X0244445Y0202685D01*
X0244297Y0202681D01*
X0244149Y0202681D01*
X0244001Y0202685D01*
X0243853Y0202693D01*
X0243706Y0202705D01*
X0243559Y0202721D01*
X0243412Y0202741D01*
X0243266Y0202765D01*
X0243120Y0202792D01*
X0242976Y0202824D01*
X0242832Y0202859D01*
X0242689Y0202899D01*
X0242548Y0202942D01*
X0242407Y0202989D01*
X0242268Y0203039D01*
X0242131Y0203094D01*
X0241995Y0203152D01*
X0241860Y0203213D01*
X0241727Y0203278D01*
X0241596Y0203347D01*
X0241467Y0203419D01*
X0241340Y0203495D01*
X0241215Y0203574D01*
X0241092Y0203657D01*
X0240971Y0203742D01*
X0240853Y0203831D01*
X0240737Y0203923D01*
X0240624Y0204019D01*
X0240513Y0204117D01*
X0240405Y0204218D01*
X0240299Y0204322D01*
X0240197Y0204428D01*
X0240097Y0204538D01*
X0240001Y0204650D01*
X0239907Y0204765D01*
X0239816Y0204882D01*
X0239729Y0205001D01*
X0239645Y0205123D01*
X0239564Y0205247D01*
X0239487Y0205373D01*
X0239413Y0205501D01*
X0239342Y0205631D01*
X0239275Y0205763D01*
X0239212Y0205897D01*
X0239152Y0206032D01*
X0239096Y0206169D01*
X0239043Y0206308D01*
X0238995Y0206448D01*
X0238950Y0206589D01*
X0238909Y0206731D01*
X0238871Y0206874D01*
X0238838Y0207018D01*
X0238808Y0207163D01*
X0238782Y0207309D01*
X0238761Y0207455D01*
X0238743Y0207602D01*
X0238729Y0207749D01*
X0238719Y0207897D01*
X0238713Y0208045D01*
X0238711Y0208193D01*
X0010365Y0208193D02*
X0010367Y0208341D01*
X0010373Y0208489D01*
X0010383Y0208637D01*
X0010397Y0208784D01*
X0010415Y0208931D01*
X0010436Y0209077D01*
X0010462Y0209223D01*
X0010492Y0209368D01*
X0010525Y0209512D01*
X0010563Y0209655D01*
X0010604Y0209797D01*
X0010649Y0209938D01*
X0010697Y0210078D01*
X0010750Y0210217D01*
X0010806Y0210354D01*
X0010866Y0210489D01*
X0010929Y0210623D01*
X0010996Y0210755D01*
X0011067Y0210885D01*
X0011141Y0211013D01*
X0011218Y0211139D01*
X0011299Y0211263D01*
X0011383Y0211385D01*
X0011470Y0211504D01*
X0011561Y0211621D01*
X0011655Y0211736D01*
X0011751Y0211848D01*
X0011851Y0211958D01*
X0011953Y0212064D01*
X0012059Y0212168D01*
X0012167Y0212269D01*
X0012278Y0212367D01*
X0012391Y0212463D01*
X0012507Y0212555D01*
X0012625Y0212644D01*
X0012746Y0212729D01*
X0012869Y0212812D01*
X0012994Y0212891D01*
X0013121Y0212967D01*
X0013250Y0213039D01*
X0013381Y0213108D01*
X0013514Y0213173D01*
X0013649Y0213234D01*
X0013785Y0213292D01*
X0013922Y0213347D01*
X0014061Y0213397D01*
X0014202Y0213444D01*
X0014343Y0213487D01*
X0014486Y0213527D01*
X0014630Y0213562D01*
X0014774Y0213594D01*
X0014920Y0213621D01*
X0015066Y0213645D01*
X0015213Y0213665D01*
X0015360Y0213681D01*
X0015507Y0213693D01*
X0015655Y0213701D01*
X0015803Y0213705D01*
X0015951Y0213705D01*
X0016099Y0213701D01*
X0016247Y0213693D01*
X0016394Y0213681D01*
X0016541Y0213665D01*
X0016688Y0213645D01*
X0016834Y0213621D01*
X0016980Y0213594D01*
X0017124Y0213562D01*
X0017268Y0213527D01*
X0017411Y0213487D01*
X0017552Y0213444D01*
X0017693Y0213397D01*
X0017832Y0213347D01*
X0017969Y0213292D01*
X0018105Y0213234D01*
X0018240Y0213173D01*
X0018373Y0213108D01*
X0018504Y0213039D01*
X0018633Y0212967D01*
X0018760Y0212891D01*
X0018885Y0212812D01*
X0019008Y0212729D01*
X0019129Y0212644D01*
X0019247Y0212555D01*
X0019363Y0212463D01*
X0019476Y0212367D01*
X0019587Y0212269D01*
X0019695Y0212168D01*
X0019801Y0212064D01*
X0019903Y0211958D01*
X0020003Y0211848D01*
X0020099Y0211736D01*
X0020193Y0211621D01*
X0020284Y0211504D01*
X0020371Y0211385D01*
X0020455Y0211263D01*
X0020536Y0211139D01*
X0020613Y0211013D01*
X0020687Y0210885D01*
X0020758Y0210755D01*
X0020825Y0210623D01*
X0020888Y0210489D01*
X0020948Y0210354D01*
X0021004Y0210217D01*
X0021057Y0210078D01*
X0021105Y0209938D01*
X0021150Y0209797D01*
X0021191Y0209655D01*
X0021229Y0209512D01*
X0021262Y0209368D01*
X0021292Y0209223D01*
X0021318Y0209077D01*
X0021339Y0208931D01*
X0021357Y0208784D01*
X0021371Y0208637D01*
X0021381Y0208489D01*
X0021387Y0208341D01*
X0021389Y0208193D01*
X0021387Y0208045D01*
X0021381Y0207897D01*
X0021371Y0207749D01*
X0021357Y0207602D01*
X0021339Y0207455D01*
X0021318Y0207309D01*
X0021292Y0207163D01*
X0021262Y0207018D01*
X0021229Y0206874D01*
X0021191Y0206731D01*
X0021150Y0206589D01*
X0021105Y0206448D01*
X0021057Y0206308D01*
X0021004Y0206169D01*
X0020948Y0206032D01*
X0020888Y0205897D01*
X0020825Y0205763D01*
X0020758Y0205631D01*
X0020687Y0205501D01*
X0020613Y0205373D01*
X0020536Y0205247D01*
X0020455Y0205123D01*
X0020371Y0205001D01*
X0020284Y0204882D01*
X0020193Y0204765D01*
X0020099Y0204650D01*
X0020003Y0204538D01*
X0019903Y0204428D01*
X0019801Y0204322D01*
X0019695Y0204218D01*
X0019587Y0204117D01*
X0019476Y0204019D01*
X0019363Y0203923D01*
X0019247Y0203831D01*
X0019129Y0203742D01*
X0019008Y0203657D01*
X0018885Y0203574D01*
X0018760Y0203495D01*
X0018633Y0203419D01*
X0018504Y0203347D01*
X0018373Y0203278D01*
X0018240Y0203213D01*
X0018105Y0203152D01*
X0017969Y0203094D01*
X0017832Y0203039D01*
X0017693Y0202989D01*
X0017552Y0202942D01*
X0017411Y0202899D01*
X0017268Y0202859D01*
X0017124Y0202824D01*
X0016980Y0202792D01*
X0016834Y0202765D01*
X0016688Y0202741D01*
X0016541Y0202721D01*
X0016394Y0202705D01*
X0016247Y0202693D01*
X0016099Y0202685D01*
X0015951Y0202681D01*
X0015803Y0202681D01*
X0015655Y0202685D01*
X0015507Y0202693D01*
X0015360Y0202705D01*
X0015213Y0202721D01*
X0015066Y0202741D01*
X0014920Y0202765D01*
X0014774Y0202792D01*
X0014630Y0202824D01*
X0014486Y0202859D01*
X0014343Y0202899D01*
X0014202Y0202942D01*
X0014061Y0202989D01*
X0013922Y0203039D01*
X0013785Y0203094D01*
X0013649Y0203152D01*
X0013514Y0203213D01*
X0013381Y0203278D01*
X0013250Y0203347D01*
X0013121Y0203419D01*
X0012994Y0203495D01*
X0012869Y0203574D01*
X0012746Y0203657D01*
X0012625Y0203742D01*
X0012507Y0203831D01*
X0012391Y0203923D01*
X0012278Y0204019D01*
X0012167Y0204117D01*
X0012059Y0204218D01*
X0011953Y0204322D01*
X0011851Y0204428D01*
X0011751Y0204538D01*
X0011655Y0204650D01*
X0011561Y0204765D01*
X0011470Y0204882D01*
X0011383Y0205001D01*
X0011299Y0205123D01*
X0011218Y0205247D01*
X0011141Y0205373D01*
X0011067Y0205501D01*
X0010996Y0205631D01*
X0010929Y0205763D01*
X0010866Y0205897D01*
X0010806Y0206032D01*
X0010750Y0206169D01*
X0010697Y0206308D01*
X0010649Y0206448D01*
X0010604Y0206589D01*
X0010563Y0206731D01*
X0010525Y0206874D01*
X0010492Y0207018D01*
X0010462Y0207163D01*
X0010436Y0207309D01*
X0010415Y0207455D01*
X0010397Y0207602D01*
X0010383Y0207749D01*
X0010373Y0207897D01*
X0010367Y0208045D01*
X0010365Y0208193D01*
M02*
