G75*
%MOIN*%
%OFA0B0*%
%FSLAX25Y25*%
%IPPOS*%
%LPD*%
%AMOC8*
5,1,8,0,0,1.08239X$1,22.5*
%
%ADD10C,0.01000*%
%ADD11R,0.06400X0.06400*%
%ADD12OC8,0.06400*%
%ADD13C,0.08600*%
%ADD14C,0.06299*%
%ADD15R,0.07400X0.07400*%
%ADD16C,0.07400*%
%ADD17OC8,0.07400*%
%ADD18R,0.05550X0.05550*%
%ADD19C,0.05550*%
%ADD20C,0.02781*%
%ADD21C,0.01200*%
%ADD22C,0.02800*%
%ADD23C,0.00600*%
D10*
X0005557Y0005599D02*
X0008566Y0005599D01*
X0009756Y0004601D02*
X0006555Y0004601D01*
X0006666Y0004490D02*
X0005474Y0005682D01*
X0004464Y0007031D01*
X0003657Y0008510D01*
X0003068Y0010089D01*
X0002710Y0011735D01*
X0002589Y0013416D01*
X0002589Y0074440D01*
X0002649Y0075123D01*
X0002827Y0075786D01*
X0003117Y0076408D01*
X0003510Y0076970D01*
X0003996Y0077456D01*
X0004558Y0077849D01*
X0005180Y0078139D01*
X0005843Y0078317D01*
X0006526Y0078377D01*
X0017902Y0078377D01*
X0014004Y0074479D01*
X0013411Y0074479D01*
X0012492Y0074099D01*
X0011789Y0073395D01*
X0011408Y0072476D01*
X0011408Y0071482D01*
X0011789Y0070563D01*
X0012492Y0069860D01*
X0013411Y0069479D01*
X0014406Y0069479D01*
X0015324Y0069860D01*
X0016028Y0070563D01*
X0016408Y0071482D01*
X0016408Y0072075D01*
X0020518Y0076185D01*
X0021502Y0076185D01*
X0030853Y0085535D01*
X0031848Y0086531D01*
X0031848Y0148884D01*
X0032268Y0149303D01*
X0032491Y0149842D01*
X0039466Y0142867D01*
X0039459Y0142850D01*
X0039459Y0141856D01*
X0039840Y0140937D01*
X0040543Y0140234D01*
X0041462Y0139853D01*
X0042457Y0139853D01*
X0043376Y0140234D01*
X0044079Y0140937D01*
X0044459Y0141856D01*
X0044459Y0142850D01*
X0044079Y0143769D01*
X0043376Y0144473D01*
X0042552Y0144814D01*
X0043376Y0145155D01*
X0044079Y0145858D01*
X0044135Y0145993D01*
X0044480Y0145647D01*
X0045399Y0145267D01*
X0046394Y0145267D01*
X0046410Y0145273D01*
X0046957Y0144726D01*
X0047777Y0143906D01*
X0049535Y0143906D01*
X0049302Y0143343D01*
X0049302Y0142348D01*
X0049683Y0141429D01*
X0050386Y0140726D01*
X0051305Y0140345D01*
X0052299Y0140345D01*
X0052315Y0140352D01*
X0062886Y0129781D01*
X0062142Y0130089D01*
X0061549Y0130089D01*
X0061364Y0130274D01*
X0039366Y0130274D01*
X0038946Y0130693D01*
X0038028Y0131074D01*
X0037033Y0131074D01*
X0036114Y0130693D01*
X0035411Y0129990D01*
X0035030Y0129071D01*
X0035030Y0128076D01*
X0035411Y0127157D01*
X0036114Y0126454D01*
X0037033Y0126074D01*
X0038028Y0126074D01*
X0038946Y0126454D01*
X0039366Y0126874D01*
X0059235Y0126874D01*
X0059525Y0126173D01*
X0060228Y0125470D01*
X0061147Y0125089D01*
X0062142Y0125089D01*
X0063061Y0125470D01*
X0063764Y0126173D01*
X0064144Y0127092D01*
X0064144Y0128087D01*
X0063836Y0128831D01*
X0075956Y0116711D01*
X0075541Y0115707D01*
X0075541Y0113798D01*
X0076271Y0112033D01*
X0077032Y0111273D01*
X0055531Y0111273D01*
X0055252Y0111389D01*
X0054257Y0111389D01*
X0053339Y0111008D01*
X0052635Y0110305D01*
X0052255Y0109386D01*
X0052255Y0108391D01*
X0052488Y0107828D01*
X0051960Y0107828D01*
X0051953Y0107844D01*
X0051250Y0108547D01*
X0050331Y0108928D01*
X0049336Y0108928D01*
X0048417Y0108547D01*
X0047714Y0107844D01*
X0047333Y0106925D01*
X0047333Y0105931D01*
X0047714Y0105012D01*
X0048417Y0104309D01*
X0049336Y0103928D01*
X0050331Y0103928D01*
X0051250Y0104309D01*
X0051953Y0105012D01*
X0051960Y0105028D01*
X0061838Y0105028D01*
X0061605Y0104465D01*
X0061605Y0103470D01*
X0061986Y0102551D01*
X0062689Y0101848D01*
X0063608Y0101467D01*
X0064602Y0101467D01*
X0065521Y0101848D01*
X0066225Y0102551D01*
X0066231Y0102567D01*
X0159490Y0102567D01*
X0162637Y0099420D01*
X0162098Y0099197D01*
X0161395Y0098494D01*
X0161388Y0098478D01*
X0041883Y0098478D01*
X0041883Y0121034D01*
X0041899Y0121041D01*
X0042602Y0121744D01*
X0042983Y0122663D01*
X0042983Y0123658D01*
X0042602Y0124576D01*
X0041899Y0125280D01*
X0040980Y0125660D01*
X0039986Y0125660D01*
X0039067Y0125280D01*
X0038364Y0124576D01*
X0037983Y0123658D01*
X0037983Y0122663D01*
X0038364Y0121744D01*
X0039067Y0121041D01*
X0039083Y0121034D01*
X0039083Y0096498D01*
X0039903Y0095678D01*
X0059378Y0095678D01*
X0059144Y0095114D01*
X0059144Y0094120D01*
X0059525Y0093201D01*
X0060228Y0092498D01*
X0061147Y0092117D01*
X0062142Y0092117D01*
X0062158Y0092124D01*
X0065658Y0088624D01*
X0066478Y0087804D01*
X0087570Y0087804D01*
X0087576Y0087787D01*
X0088280Y0087084D01*
X0089198Y0086704D01*
X0090193Y0086704D01*
X0091112Y0087084D01*
X0091815Y0087787D01*
X0092196Y0088706D01*
X0092196Y0089701D01*
X0091883Y0090456D01*
X0098687Y0090456D01*
X0099106Y0090037D01*
X0100025Y0089656D01*
X0101020Y0089656D01*
X0101939Y0090037D01*
X0102358Y0090456D01*
X0138057Y0090456D01*
X0138476Y0090037D01*
X0139395Y0089656D01*
X0140390Y0089656D01*
X0141309Y0090037D01*
X0142012Y0090740D01*
X0142393Y0091659D01*
X0142393Y0092654D01*
X0142012Y0093572D01*
X0141309Y0094276D01*
X0140390Y0094656D01*
X0139395Y0094656D01*
X0138476Y0094276D01*
X0138057Y0093856D01*
X0102358Y0093856D01*
X0101939Y0094276D01*
X0101020Y0094656D01*
X0100025Y0094656D01*
X0099106Y0094276D01*
X0098687Y0093856D01*
X0078736Y0093856D01*
X0078317Y0094276D01*
X0077398Y0094656D01*
X0076403Y0094656D01*
X0075484Y0094276D01*
X0074781Y0093572D01*
X0074400Y0092654D01*
X0074400Y0091659D01*
X0074781Y0090740D01*
X0074918Y0090604D01*
X0067638Y0090604D01*
X0064138Y0094104D01*
X0064144Y0094120D01*
X0064144Y0095114D01*
X0063911Y0095678D01*
X0161388Y0095678D01*
X0161395Y0095661D01*
X0162098Y0094958D01*
X0163017Y0094578D01*
X0164012Y0094578D01*
X0164931Y0094958D01*
X0165634Y0095661D01*
X0165857Y0096200D01*
X0181691Y0080367D01*
X0181684Y0080350D01*
X0181684Y0079836D01*
X0181101Y0080108D01*
X0180438Y0080285D01*
X0179755Y0080345D01*
X0179071Y0080285D01*
X0178408Y0080108D01*
X0177786Y0079818D01*
X0177224Y0079424D01*
X0176739Y0078939D01*
X0176345Y0078377D01*
X0176055Y0077755D01*
X0175878Y0077092D01*
X0175818Y0076408D01*
X0175818Y0005542D01*
X0175758Y0004858D01*
X0175580Y0004196D01*
X0175290Y0003574D01*
X0174897Y0003011D01*
X0174411Y0002526D01*
X0173849Y0002133D01*
X0173227Y0001843D01*
X0172564Y0001665D01*
X0171881Y0001605D01*
X0014400Y0001605D01*
X0012720Y0001725D01*
X0011073Y0002084D01*
X0009494Y0002672D01*
X0008015Y0003480D01*
X0006666Y0004490D01*
X0007852Y0003602D02*
X0012159Y0003602D01*
X0014163Y0002873D02*
X0010017Y0004382D01*
X0006637Y0007218D01*
X0004430Y0011039D01*
X0003664Y0015385D01*
X0004430Y0019730D01*
X0006637Y0023551D01*
X0010017Y0026387D01*
X0014163Y0027896D01*
X0018575Y0027896D01*
X0022721Y0026387D01*
X0026101Y0023551D01*
X0028307Y0019730D01*
X0029074Y0015385D01*
X0028307Y0011039D01*
X0026101Y0007218D01*
X0022721Y0004382D01*
X0018575Y0002873D01*
X0014163Y0002873D01*
X0014400Y0001605D02*
X0171881Y0001605D01*
X0174489Y0002604D02*
X0009678Y0002604D01*
X0007376Y0006598D02*
X0004788Y0006598D01*
X0004156Y0007596D02*
X0006418Y0007596D01*
X0005842Y0008595D02*
X0003625Y0008595D01*
X0003253Y0009593D02*
X0005265Y0009593D01*
X0004689Y0010592D02*
X0002958Y0010592D01*
X0002741Y0011590D02*
X0004333Y0011590D01*
X0004157Y0012589D02*
X0002649Y0012589D01*
X0002589Y0013587D02*
X0003981Y0013587D01*
X0003805Y0014586D02*
X0002589Y0014586D01*
X0002589Y0015584D02*
X0003699Y0015584D01*
X0003875Y0016583D02*
X0002589Y0016583D01*
X0002589Y0017581D02*
X0004052Y0017581D01*
X0004228Y0018580D02*
X0002589Y0018580D01*
X0002589Y0019578D02*
X0004404Y0019578D01*
X0004919Y0020577D02*
X0002589Y0020577D01*
X0002589Y0021575D02*
X0005496Y0021575D01*
X0006072Y0022574D02*
X0002589Y0022574D01*
X0002589Y0023572D02*
X0006662Y0023572D01*
X0007852Y0024571D02*
X0002589Y0024571D01*
X0002589Y0025569D02*
X0009042Y0025569D01*
X0010513Y0026568D02*
X0002589Y0026568D01*
X0002589Y0027566D02*
X0013256Y0027566D01*
X0019482Y0027566D02*
X0175818Y0027566D01*
X0175818Y0026568D02*
X0022225Y0026568D01*
X0023696Y0025569D02*
X0175818Y0025569D01*
X0175818Y0024571D02*
X0024886Y0024571D01*
X0026076Y0023572D02*
X0175818Y0023572D01*
X0175818Y0022574D02*
X0137167Y0022574D01*
X0136734Y0022753D02*
X0134586Y0022753D01*
X0132601Y0021931D01*
X0131082Y0020412D01*
X0130260Y0018427D01*
X0130260Y0016279D01*
X0131082Y0014294D01*
X0132601Y0012775D01*
X0134586Y0011953D01*
X0136734Y0011953D01*
X0138719Y0012775D01*
X0140238Y0014294D01*
X0141060Y0016279D01*
X0141060Y0018427D01*
X0140238Y0020412D01*
X0138719Y0021931D01*
X0136734Y0022753D01*
X0134153Y0022574D02*
X0123388Y0022574D01*
X0122955Y0022753D02*
X0120807Y0022753D01*
X0118822Y0021931D01*
X0117303Y0020412D01*
X0116481Y0018427D01*
X0116481Y0016279D01*
X0117303Y0014294D01*
X0118822Y0012775D01*
X0120807Y0011953D01*
X0122955Y0011953D01*
X0124940Y0012775D01*
X0126459Y0014294D01*
X0127281Y0016279D01*
X0127281Y0018427D01*
X0126459Y0020412D01*
X0124940Y0021931D01*
X0122955Y0022753D01*
X0120374Y0022574D02*
X0097797Y0022574D01*
X0097364Y0022753D02*
X0095216Y0022753D01*
X0093231Y0021931D01*
X0091712Y0020412D01*
X0090890Y0018427D01*
X0090890Y0016279D01*
X0091712Y0014294D01*
X0093231Y0012775D01*
X0095216Y0011953D01*
X0097364Y0011953D01*
X0099349Y0012775D01*
X0100868Y0014294D01*
X0101690Y0016279D01*
X0101690Y0018427D01*
X0100868Y0020412D01*
X0099349Y0021931D01*
X0097364Y0022753D01*
X0094783Y0022574D02*
X0084018Y0022574D01*
X0083585Y0022753D02*
X0081436Y0022753D01*
X0079452Y0021931D01*
X0077933Y0020412D01*
X0077111Y0018427D01*
X0077111Y0016279D01*
X0077933Y0014294D01*
X0079452Y0012775D01*
X0081436Y0011953D01*
X0083585Y0011953D01*
X0085569Y0012775D01*
X0087089Y0014294D01*
X0087911Y0016279D01*
X0087911Y0018427D01*
X0087089Y0020412D01*
X0085569Y0021931D01*
X0083585Y0022753D01*
X0081004Y0022574D02*
X0058427Y0022574D01*
X0057994Y0022753D02*
X0055846Y0022753D01*
X0053861Y0021931D01*
X0052342Y0020412D01*
X0051520Y0018427D01*
X0051520Y0016279D01*
X0052342Y0014294D01*
X0053861Y0012775D01*
X0055846Y0011953D01*
X0057994Y0011953D01*
X0059979Y0012775D01*
X0061498Y0014294D01*
X0062320Y0016279D01*
X0062320Y0018427D01*
X0061498Y0020412D01*
X0059979Y0021931D01*
X0057994Y0022753D01*
X0055413Y0022574D02*
X0044648Y0022574D01*
X0044215Y0022753D02*
X0046199Y0021931D01*
X0047718Y0020412D01*
X0048541Y0018427D01*
X0048541Y0016279D01*
X0047718Y0014294D01*
X0046199Y0012775D01*
X0044215Y0011953D01*
X0042066Y0011953D01*
X0040082Y0012775D01*
X0038563Y0014294D01*
X0037741Y0016279D01*
X0037741Y0018427D01*
X0038563Y0020412D01*
X0040082Y0021931D01*
X0042066Y0022753D01*
X0044215Y0022753D01*
X0041634Y0022574D02*
X0026665Y0022574D01*
X0027242Y0021575D02*
X0039726Y0021575D01*
X0038727Y0020577D02*
X0027818Y0020577D01*
X0028334Y0019578D02*
X0038217Y0019578D01*
X0037804Y0018580D02*
X0028510Y0018580D01*
X0028686Y0017581D02*
X0037741Y0017581D01*
X0037741Y0016583D02*
X0028862Y0016583D01*
X0029038Y0015584D02*
X0038028Y0015584D01*
X0038442Y0014586D02*
X0028933Y0014586D01*
X0028757Y0013587D02*
X0039270Y0013587D01*
X0040532Y0012589D02*
X0028581Y0012589D01*
X0028405Y0011590D02*
X0175818Y0011590D01*
X0175818Y0010592D02*
X0028049Y0010592D01*
X0027472Y0009593D02*
X0175818Y0009593D01*
X0175818Y0008595D02*
X0026896Y0008595D01*
X0026319Y0007596D02*
X0175818Y0007596D01*
X0175818Y0006598D02*
X0025362Y0006598D01*
X0024172Y0005599D02*
X0175818Y0005599D01*
X0175689Y0004601D02*
X0022982Y0004601D01*
X0020579Y0003602D02*
X0175304Y0003602D01*
X0183752Y0004858D02*
X0183929Y0004196D01*
X0184219Y0003574D01*
X0184613Y0003011D01*
X0185098Y0002526D01*
X0185660Y0002133D01*
X0186282Y0001843D01*
X0186945Y0001665D01*
X0187629Y0001605D01*
X0246684Y0001605D01*
X0187629Y0001605D01*
X0188009Y0003511D02*
X0187072Y0004448D01*
X0187072Y0009277D01*
X0188009Y0010214D01*
X0189334Y0010214D01*
X0189839Y0009709D01*
X0190344Y0010214D01*
X0191670Y0010214D01*
X0192203Y0009681D01*
X0192736Y0010214D01*
X0193904Y0010214D01*
X0193904Y0010214D01*
X0194574Y0010214D01*
X0195229Y0010214D01*
X0195229Y0010214D01*
X0195229Y0010214D01*
X0195763Y0009681D01*
X0196296Y0010214D01*
X0199957Y0010214D01*
X0200198Y0009973D01*
X0200440Y0010214D01*
X0204100Y0010214D01*
X0204634Y0009681D01*
X0205167Y0010214D01*
X0206335Y0010214D01*
X0206335Y0010214D01*
X0207004Y0010214D01*
X0207660Y0010214D01*
X0207660Y0010214D01*
X0207660Y0010214D01*
X0208432Y0009442D01*
X0208485Y0009389D01*
X0208727Y0009630D01*
X0209310Y0010214D01*
X0212387Y0010214D01*
X0213325Y0009277D01*
X0213325Y0007951D01*
X0213325Y0007525D01*
X0213325Y0004448D01*
X0212387Y0003511D01*
X0209966Y0003511D01*
X0209310Y0003511D01*
X0209310Y0003511D01*
X0209299Y0003522D01*
X0208727Y0004095D01*
X0208727Y0004095D01*
X0208561Y0004261D01*
X0208485Y0004336D01*
X0207660Y0003511D01*
X0205837Y0003511D01*
X0205167Y0003511D01*
X0204583Y0004095D01*
X0204583Y0004095D01*
X0204395Y0004283D01*
X0203870Y0004808D01*
X0203870Y0004448D01*
X0202933Y0003511D01*
X0201607Y0003511D01*
X0200670Y0004448D01*
X0200670Y0007014D01*
X0200440Y0007014D01*
X0200198Y0007255D01*
X0199957Y0007014D01*
X0199726Y0007014D01*
X0199726Y0004448D01*
X0198789Y0003511D01*
X0197464Y0003511D01*
X0196526Y0004448D01*
X0196526Y0004808D01*
X0196167Y0004448D01*
X0195229Y0003511D01*
X0193406Y0003511D01*
X0192736Y0003511D01*
X0192203Y0004044D01*
X0191670Y0003511D01*
X0190344Y0003511D01*
X0189839Y0004016D01*
X0189334Y0003511D01*
X0188009Y0003511D01*
X0187918Y0003602D02*
X0184206Y0003602D01*
X0183821Y0004601D02*
X0187072Y0004601D01*
X0187072Y0005599D02*
X0183692Y0005599D01*
X0183692Y0005542D02*
X0183692Y0076408D01*
X0183632Y0077092D01*
X0183546Y0077411D01*
X0183687Y0077353D01*
X0184681Y0077353D01*
X0185600Y0077734D01*
X0186303Y0078437D01*
X0186684Y0079356D01*
X0186684Y0080350D01*
X0186303Y0081269D01*
X0185600Y0081973D01*
X0184681Y0082353D01*
X0183687Y0082353D01*
X0183670Y0082346D01*
X0161470Y0104547D01*
X0160650Y0105367D01*
X0130840Y0105367D01*
X0131074Y0105931D01*
X0131074Y0106389D01*
X0131532Y0106389D01*
X0132450Y0106769D01*
X0133154Y0107472D01*
X0133534Y0108391D01*
X0133534Y0109386D01*
X0133528Y0109402D01*
X0151299Y0127174D01*
X0152300Y0127174D01*
X0152166Y0127040D01*
X0151685Y0126378D01*
X0151314Y0125648D01*
X0151061Y0124870D01*
X0150945Y0124137D01*
X0155648Y0124137D01*
X0155648Y0123168D01*
X0150945Y0123168D01*
X0151061Y0122435D01*
X0151314Y0121656D01*
X0151685Y0120927D01*
X0152166Y0120265D01*
X0152745Y0119686D01*
X0153407Y0119205D01*
X0154137Y0118833D01*
X0154915Y0118580D01*
X0155648Y0118464D01*
X0155648Y0123168D01*
X0156617Y0123168D01*
X0156617Y0118464D01*
X0157350Y0118580D01*
X0158129Y0118833D01*
X0158858Y0119205D01*
X0159520Y0119686D01*
X0160099Y0120265D01*
X0160580Y0120927D01*
X0160952Y0121656D01*
X0161205Y0122435D01*
X0161321Y0123168D01*
X0156617Y0123168D01*
X0156617Y0124137D01*
X0161321Y0124137D01*
X0161205Y0124870D01*
X0160952Y0125648D01*
X0160580Y0126378D01*
X0160099Y0127040D01*
X0159520Y0127619D01*
X0159292Y0127785D01*
X0230531Y0199024D01*
X0231352Y0199844D01*
X0231352Y0213799D01*
X0230829Y0214322D01*
X0231368Y0214545D01*
X0232071Y0215248D01*
X0232452Y0216167D01*
X0232452Y0217161D01*
X0232071Y0218080D01*
X0231368Y0218784D01*
X0230449Y0219164D01*
X0229856Y0219164D01*
X0229179Y0219841D01*
X0123440Y0219841D01*
X0122444Y0218845D01*
X0122444Y0218845D01*
X0119503Y0215904D01*
X0119261Y0215661D01*
X0117323Y0217598D01*
X0113761Y0217598D01*
X0111242Y0215079D01*
X0111242Y0211517D01*
X0112761Y0209998D01*
X0110153Y0209998D01*
X0109661Y0209506D01*
X0107831Y0209506D01*
X0109842Y0211517D01*
X0109842Y0215079D01*
X0107323Y0217598D01*
X0103761Y0217598D01*
X0101242Y0215079D01*
X0101242Y0211517D01*
X0103253Y0209506D01*
X0098397Y0209506D01*
X0100242Y0211351D01*
X0100242Y0212798D01*
X0096042Y0212798D01*
X0096042Y0213798D01*
X0095042Y0213798D01*
X0095042Y0212798D01*
X0090842Y0212798D01*
X0090842Y0211351D01*
X0092687Y0209506D01*
X0087831Y0209506D01*
X0089842Y0211517D01*
X0089842Y0215079D01*
X0087323Y0217598D01*
X0083761Y0217598D01*
X0081242Y0215079D01*
X0081242Y0211517D01*
X0083253Y0209506D01*
X0077831Y0209506D01*
X0079842Y0211517D01*
X0079842Y0215079D01*
X0077323Y0217598D01*
X0073761Y0217598D01*
X0071242Y0215079D01*
X0071242Y0211517D01*
X0073253Y0209506D01*
X0067831Y0209506D01*
X0069842Y0211517D01*
X0069842Y0215079D01*
X0067323Y0217598D01*
X0063761Y0217598D01*
X0061242Y0215079D01*
X0061242Y0211517D01*
X0063253Y0209506D01*
X0058397Y0209506D01*
X0060242Y0211351D01*
X0060242Y0212798D01*
X0056042Y0212798D01*
X0056042Y0213798D01*
X0055042Y0213798D01*
X0055042Y0212798D01*
X0050842Y0212798D01*
X0050842Y0211351D01*
X0052687Y0209506D01*
X0047831Y0209506D01*
X0049842Y0211517D01*
X0049842Y0215079D01*
X0047323Y0217598D01*
X0043761Y0217598D01*
X0041242Y0215079D01*
X0041242Y0211517D01*
X0043253Y0209506D01*
X0039287Y0209506D01*
X0037379Y0207598D01*
X0031886Y0207598D01*
X0031242Y0206954D01*
X0031242Y0199642D01*
X0031521Y0199363D01*
X0025186Y0199363D01*
X0026101Y0200132D01*
X0028307Y0203953D01*
X0029074Y0208298D01*
X0028307Y0212643D01*
X0026101Y0216464D01*
X0022721Y0219301D01*
X0018575Y0220810D01*
X0014163Y0220810D01*
X0010017Y0219301D01*
X0006637Y0216464D01*
X0004430Y0212643D01*
X0003664Y0208298D01*
X0004430Y0203953D01*
X0006637Y0200132D01*
X0010017Y0197295D01*
X0014163Y0195786D01*
X0018575Y0195786D01*
X0020951Y0196651D01*
X0010868Y0186568D01*
X0010048Y0185748D01*
X0010048Y0172777D01*
X0010868Y0171957D01*
X0012411Y0171957D01*
X0012411Y0171034D01*
X0015223Y0168222D01*
X0019200Y0168222D01*
X0019890Y0168913D01*
X0019890Y0166132D01*
X0018200Y0167822D01*
X0014223Y0167822D01*
X0011411Y0165011D01*
X0011411Y0161034D01*
X0014223Y0158222D01*
X0018200Y0158222D01*
X0020171Y0160194D01*
X0020710Y0159654D01*
X0023663Y0156701D01*
X0025632Y0156701D01*
X0029271Y0153062D01*
X0028732Y0152839D01*
X0028029Y0152135D01*
X0027648Y0151217D01*
X0027648Y0150222D01*
X0028029Y0149303D01*
X0028448Y0148884D01*
X0028448Y0087939D01*
X0022222Y0081713D01*
X0022274Y0082314D01*
X0022274Y0141369D01*
X0022215Y0142053D01*
X0022037Y0142715D01*
X0021747Y0143337D01*
X0021353Y0143900D01*
X0020868Y0144385D01*
X0020306Y0144778D01*
X0019684Y0145068D01*
X0019021Y0145246D01*
X0018337Y0145306D01*
X0006526Y0145306D01*
X0005843Y0145366D01*
X0005180Y0145543D01*
X0004558Y0145833D01*
X0003996Y0146227D01*
X0003510Y0146712D01*
X0003117Y0147274D01*
X0002827Y0147896D01*
X0002649Y0148559D01*
X0002589Y0149243D01*
X0002589Y0210267D01*
X0002710Y0211947D01*
X0003068Y0213594D01*
X0003657Y0215173D01*
X0004464Y0216652D01*
X0005474Y0218001D01*
X0006666Y0219193D01*
X0008015Y0220203D01*
X0009494Y0221010D01*
X0011073Y0221599D01*
X0012720Y0221957D01*
X0014400Y0222078D01*
X0246684Y0222078D01*
X0248365Y0221957D01*
X0250011Y0221599D01*
X0251590Y0221010D01*
X0253069Y0220203D01*
X0254418Y0219193D01*
X0255610Y0218001D01*
X0256620Y0216652D01*
X0257428Y0215173D01*
X0258016Y0213594D01*
X0258375Y0211947D01*
X0258495Y0210267D01*
X0258495Y0013416D01*
X0258375Y0011735D01*
X0258016Y0010089D01*
X0257428Y0008510D01*
X0256620Y0007031D01*
X0255610Y0005682D01*
X0254418Y0004490D01*
X0253069Y0003480D01*
X0251590Y0002672D01*
X0250011Y0002084D01*
X0248365Y0001725D01*
X0246684Y0001605D01*
X0246922Y0002873D02*
X0242509Y0002873D01*
X0238363Y0004382D01*
X0234983Y0007218D01*
X0232777Y0011039D01*
X0232011Y0015385D01*
X0232777Y0019730D01*
X0234983Y0023551D01*
X0238363Y0026387D01*
X0242509Y0027896D01*
X0246922Y0027896D01*
X0251068Y0026387D01*
X0254448Y0023551D01*
X0256654Y0019730D01*
X0257420Y0015385D01*
X0256654Y0011039D01*
X0254448Y0007218D01*
X0251068Y0004382D01*
X0246922Y0002873D01*
X0248925Y0003602D02*
X0253232Y0003602D01*
X0254529Y0004601D02*
X0251328Y0004601D01*
X0252518Y0005599D02*
X0255528Y0005599D01*
X0256296Y0006598D02*
X0253708Y0006598D01*
X0254666Y0007596D02*
X0256929Y0007596D01*
X0257459Y0008595D02*
X0255242Y0008595D01*
X0255819Y0009593D02*
X0257832Y0009593D01*
X0258126Y0010592D02*
X0256395Y0010592D01*
X0256751Y0011590D02*
X0258343Y0011590D01*
X0258436Y0012589D02*
X0256927Y0012589D01*
X0257103Y0013587D02*
X0258495Y0013587D01*
X0258495Y0014586D02*
X0257279Y0014586D01*
X0257385Y0015584D02*
X0258495Y0015584D01*
X0258495Y0016583D02*
X0257209Y0016583D01*
X0257033Y0017581D02*
X0258495Y0017581D01*
X0258495Y0018580D02*
X0256857Y0018580D01*
X0256681Y0019578D02*
X0258495Y0019578D01*
X0258495Y0020577D02*
X0256165Y0020577D01*
X0255588Y0021575D02*
X0258495Y0021575D01*
X0258495Y0022574D02*
X0255012Y0022574D01*
X0254422Y0023572D02*
X0258495Y0023572D01*
X0258495Y0024571D02*
X0253232Y0024571D01*
X0252042Y0025569D02*
X0258495Y0025569D01*
X0258495Y0026568D02*
X0250571Y0026568D01*
X0247828Y0027566D02*
X0258495Y0027566D01*
X0258495Y0028565D02*
X0183692Y0028565D01*
X0183692Y0029563D02*
X0258495Y0029563D01*
X0258495Y0030562D02*
X0183692Y0030562D01*
X0183692Y0031560D02*
X0258495Y0031560D01*
X0258495Y0032559D02*
X0183692Y0032559D01*
X0183692Y0033557D02*
X0258495Y0033557D01*
X0258495Y0034556D02*
X0183692Y0034556D01*
X0183692Y0035555D02*
X0258495Y0035555D01*
X0258495Y0036553D02*
X0183692Y0036553D01*
X0183692Y0037552D02*
X0258495Y0037552D01*
X0258495Y0038550D02*
X0183692Y0038550D01*
X0183692Y0039549D02*
X0258495Y0039549D01*
X0258495Y0040547D02*
X0183692Y0040547D01*
X0183692Y0041546D02*
X0234001Y0041546D01*
X0234237Y0041310D02*
X0235799Y0040663D01*
X0237490Y0040663D01*
X0239052Y0041310D01*
X0240247Y0042505D01*
X0240894Y0044067D01*
X0240894Y0045758D01*
X0240247Y0047319D01*
X0239052Y0048515D01*
X0238244Y0048849D01*
X0239052Y0049184D01*
X0240247Y0050379D01*
X0240894Y0051941D01*
X0240894Y0053632D01*
X0240247Y0055193D01*
X0239052Y0056389D01*
X0237490Y0057036D01*
X0235799Y0057036D01*
X0234237Y0056389D01*
X0233042Y0055193D01*
X0232395Y0053632D01*
X0232395Y0051941D01*
X0232869Y0050797D01*
X0229191Y0054475D01*
X0228195Y0055470D01*
X0220960Y0055470D01*
X0220541Y0055890D01*
X0219622Y0056270D01*
X0218628Y0056270D01*
X0217709Y0055890D01*
X0217005Y0055187D01*
X0216661Y0054356D01*
X0216112Y0054906D01*
X0215193Y0055286D01*
X0214198Y0055286D01*
X0214182Y0055280D01*
X0213231Y0056231D01*
X0234968Y0077969D01*
X0235241Y0077311D01*
X0236591Y0075961D01*
X0238355Y0075230D01*
X0240265Y0075230D01*
X0242029Y0075961D01*
X0243379Y0077311D01*
X0244110Y0079076D01*
X0244110Y0080985D01*
X0243379Y0082749D01*
X0242029Y0084100D01*
X0240265Y0084830D01*
X0238355Y0084830D01*
X0236591Y0084100D01*
X0235241Y0082749D01*
X0234621Y0081253D01*
X0234293Y0081253D01*
X0233473Y0080433D01*
X0210671Y0057631D01*
X0209851Y0056811D01*
X0208319Y0055280D01*
X0208303Y0055286D01*
X0207309Y0055286D01*
X0206390Y0054906D01*
X0205687Y0054202D01*
X0205306Y0053284D01*
X0205306Y0052289D01*
X0205687Y0051370D01*
X0206390Y0050667D01*
X0207309Y0050286D01*
X0208303Y0050286D01*
X0209222Y0050667D01*
X0209925Y0051370D01*
X0210306Y0052289D01*
X0210306Y0053284D01*
X0210299Y0053300D01*
X0211251Y0054251D01*
X0212202Y0053300D01*
X0212196Y0053284D01*
X0212196Y0052289D01*
X0212576Y0051370D01*
X0213280Y0050667D01*
X0214198Y0050286D01*
X0215193Y0050286D01*
X0216112Y0050667D01*
X0216815Y0051370D01*
X0217159Y0052201D01*
X0217709Y0051651D01*
X0218628Y0051270D01*
X0219622Y0051270D01*
X0220541Y0051651D01*
X0220960Y0052070D01*
X0226787Y0052070D01*
X0232601Y0046256D01*
X0232395Y0045758D01*
X0232395Y0044067D01*
X0233042Y0042505D01*
X0234237Y0041310D01*
X0233026Y0042544D02*
X0183692Y0042544D01*
X0183692Y0043543D02*
X0232612Y0043543D01*
X0232395Y0044541D02*
X0183692Y0044541D01*
X0183692Y0045540D02*
X0232395Y0045540D01*
X0232319Y0046538D02*
X0183692Y0046538D01*
X0183692Y0047537D02*
X0231321Y0047537D01*
X0230322Y0048535D02*
X0183692Y0048535D01*
X0183692Y0049534D02*
X0229324Y0049534D01*
X0228325Y0050532D02*
X0215787Y0050532D01*
X0216882Y0051531D02*
X0217999Y0051531D01*
X0220250Y0051531D02*
X0227327Y0051531D01*
X0230138Y0053528D02*
X0232395Y0053528D01*
X0232395Y0052529D02*
X0231136Y0052529D01*
X0232135Y0051531D02*
X0232565Y0051531D01*
X0232765Y0054526D02*
X0229139Y0054526D01*
X0233373Y0055525D02*
X0220906Y0055525D01*
X0217344Y0055525D02*
X0213937Y0055525D01*
X0213523Y0056523D02*
X0234562Y0056523D01*
X0238727Y0056523D02*
X0258495Y0056523D01*
X0258495Y0055525D02*
X0239916Y0055525D01*
X0240523Y0054526D02*
X0258495Y0054526D01*
X0258495Y0053528D02*
X0240894Y0053528D01*
X0240894Y0052529D02*
X0258495Y0052529D01*
X0258495Y0051531D02*
X0240724Y0051531D01*
X0240311Y0050532D02*
X0258495Y0050532D01*
X0258495Y0049534D02*
X0239402Y0049534D01*
X0239003Y0048535D02*
X0258495Y0048535D01*
X0258495Y0047537D02*
X0240030Y0047537D01*
X0240571Y0046538D02*
X0258495Y0046538D01*
X0258495Y0045540D02*
X0240894Y0045540D01*
X0240894Y0044541D02*
X0258495Y0044541D01*
X0258495Y0043543D02*
X0240677Y0043543D01*
X0240263Y0042544D02*
X0258495Y0042544D01*
X0258495Y0041546D02*
X0239288Y0041546D01*
X0241603Y0027566D02*
X0183692Y0027566D01*
X0183692Y0026568D02*
X0238859Y0026568D01*
X0237388Y0025569D02*
X0183692Y0025569D01*
X0183692Y0024571D02*
X0236198Y0024571D01*
X0235008Y0023572D02*
X0183692Y0023572D01*
X0183692Y0022574D02*
X0234419Y0022574D01*
X0233842Y0021575D02*
X0183692Y0021575D01*
X0183692Y0020577D02*
X0233266Y0020577D01*
X0232750Y0019578D02*
X0183692Y0019578D01*
X0183692Y0018580D02*
X0232574Y0018580D01*
X0232398Y0017581D02*
X0183692Y0017581D01*
X0183692Y0016583D02*
X0232222Y0016583D01*
X0232046Y0015584D02*
X0183692Y0015584D01*
X0183692Y0014586D02*
X0232151Y0014586D01*
X0232328Y0013587D02*
X0183692Y0013587D01*
X0183692Y0012589D02*
X0232504Y0012589D01*
X0232680Y0011590D02*
X0183692Y0011590D01*
X0183692Y0010592D02*
X0233035Y0010592D01*
X0233612Y0009593D02*
X0213008Y0009593D01*
X0213325Y0008595D02*
X0234188Y0008595D01*
X0234765Y0007596D02*
X0213325Y0007596D01*
X0213325Y0006598D02*
X0235722Y0006598D01*
X0236912Y0005599D02*
X0213325Y0005599D01*
X0213325Y0004601D02*
X0238102Y0004601D01*
X0240506Y0003602D02*
X0212479Y0003602D01*
X0211725Y0005111D02*
X0209973Y0005111D01*
X0209389Y0005695D01*
X0209389Y0006279D01*
X0209973Y0006863D01*
X0211725Y0006863D01*
X0211725Y0008614D02*
X0209973Y0008614D01*
X0209389Y0008030D01*
X0209389Y0007446D01*
X0209973Y0006863D01*
X0211725Y0008614D02*
X0211725Y0005111D01*
X0209219Y0003602D02*
X0207751Y0003602D01*
X0206997Y0005111D02*
X0205830Y0005111D01*
X0205246Y0005695D01*
X0205246Y0008030D01*
X0205830Y0008614D01*
X0206997Y0008614D01*
X0207581Y0008030D01*
X0207581Y0005695D01*
X0206997Y0005111D01*
X0205076Y0003602D02*
X0203024Y0003602D01*
X0203870Y0004601D02*
X0204077Y0004601D01*
X0202270Y0005111D02*
X0202270Y0008614D01*
X0203438Y0008614D02*
X0201102Y0008614D01*
X0199294Y0008614D02*
X0196959Y0008614D01*
X0198126Y0008614D02*
X0198126Y0005111D01*
X0199726Y0005599D02*
X0200670Y0005599D01*
X0200670Y0004601D02*
X0199726Y0004601D01*
X0198880Y0003602D02*
X0201516Y0003602D01*
X0200670Y0006598D02*
X0199726Y0006598D01*
X0196526Y0004601D02*
X0196319Y0004601D01*
X0195321Y0003602D02*
X0197373Y0003602D01*
X0195151Y0005695D02*
X0194567Y0005111D01*
X0193399Y0005111D01*
X0192815Y0005695D01*
X0192815Y0008030D01*
X0193399Y0008614D01*
X0194567Y0008614D01*
X0195151Y0008030D01*
X0195151Y0005695D01*
X0192645Y0003602D02*
X0191761Y0003602D01*
X0190253Y0003602D02*
X0189426Y0003602D01*
X0188672Y0005111D02*
X0188672Y0008614D01*
X0189839Y0007446D01*
X0191007Y0008614D01*
X0191007Y0005111D01*
X0187072Y0006598D02*
X0183692Y0006598D01*
X0183692Y0007596D02*
X0187072Y0007596D01*
X0187072Y0008595D02*
X0183692Y0008595D01*
X0183692Y0009593D02*
X0187388Y0009593D01*
X0183692Y0005542D02*
X0183752Y0004858D01*
X0185021Y0002604D02*
X0251406Y0002604D01*
X0208690Y0009593D02*
X0208281Y0009593D01*
X0175818Y0012589D02*
X0138269Y0012589D01*
X0139531Y0013587D02*
X0153754Y0013587D01*
X0153644Y0013698D02*
X0154288Y0013053D01*
X0161599Y0013053D01*
X0162244Y0013698D01*
X0162244Y0021009D01*
X0161599Y0021653D01*
X0154288Y0021653D01*
X0153644Y0021009D01*
X0153644Y0013698D01*
X0153644Y0014586D02*
X0140359Y0014586D01*
X0140772Y0015584D02*
X0153644Y0015584D01*
X0153644Y0016583D02*
X0141060Y0016583D01*
X0141060Y0017581D02*
X0153644Y0017581D01*
X0153644Y0018580D02*
X0140997Y0018580D01*
X0140583Y0019578D02*
X0153644Y0019578D01*
X0153644Y0020577D02*
X0140073Y0020577D01*
X0139075Y0021575D02*
X0154210Y0021575D01*
X0161677Y0021575D02*
X0163645Y0021575D01*
X0163543Y0021474D02*
X0163346Y0021132D01*
X0163244Y0020751D01*
X0163244Y0017853D01*
X0167444Y0017853D01*
X0167444Y0022053D01*
X0164546Y0022053D01*
X0164165Y0021951D01*
X0163823Y0021753D01*
X0163543Y0021474D01*
X0163244Y0020577D02*
X0162244Y0020577D01*
X0162244Y0019578D02*
X0163244Y0019578D01*
X0163244Y0018580D02*
X0162244Y0018580D01*
X0162244Y0017581D02*
X0167444Y0017581D01*
X0167444Y0017853D02*
X0167444Y0016853D01*
X0168444Y0016853D01*
X0168444Y0017853D01*
X0172644Y0017853D01*
X0172644Y0020751D01*
X0172541Y0021132D01*
X0172344Y0021474D01*
X0172065Y0021753D01*
X0171723Y0021951D01*
X0171341Y0022053D01*
X0168444Y0022053D01*
X0168444Y0017853D01*
X0167444Y0017853D01*
X0167444Y0018580D02*
X0168444Y0018580D01*
X0168444Y0019578D02*
X0167444Y0019578D01*
X0167444Y0020577D02*
X0168444Y0020577D01*
X0168444Y0021575D02*
X0167444Y0021575D01*
X0168444Y0017581D02*
X0175818Y0017581D01*
X0175818Y0016583D02*
X0172644Y0016583D01*
X0172644Y0016853D02*
X0168444Y0016853D01*
X0168444Y0012653D01*
X0171341Y0012653D01*
X0171723Y0012755D01*
X0172065Y0012953D01*
X0172344Y0013232D01*
X0172541Y0013574D01*
X0172644Y0013956D01*
X0172644Y0016853D01*
X0172644Y0015584D02*
X0175818Y0015584D01*
X0175818Y0014586D02*
X0172644Y0014586D01*
X0172545Y0013587D02*
X0175818Y0013587D01*
X0175818Y0018580D02*
X0172644Y0018580D01*
X0172644Y0019578D02*
X0175818Y0019578D01*
X0175818Y0020577D02*
X0172644Y0020577D01*
X0172243Y0021575D02*
X0175818Y0021575D01*
X0175818Y0028565D02*
X0002589Y0028565D01*
X0002589Y0029563D02*
X0175818Y0029563D01*
X0175818Y0030562D02*
X0002589Y0030562D01*
X0002589Y0031560D02*
X0175818Y0031560D01*
X0175818Y0032559D02*
X0002589Y0032559D01*
X0002589Y0033557D02*
X0175818Y0033557D01*
X0175818Y0034556D02*
X0002589Y0034556D01*
X0002589Y0035555D02*
X0175818Y0035555D01*
X0175818Y0036553D02*
X0002589Y0036553D01*
X0002589Y0037552D02*
X0175818Y0037552D01*
X0175818Y0038550D02*
X0002589Y0038550D01*
X0002589Y0039549D02*
X0175818Y0039549D01*
X0175818Y0040547D02*
X0002589Y0040547D01*
X0002589Y0041546D02*
X0175818Y0041546D01*
X0175818Y0042544D02*
X0002589Y0042544D01*
X0002589Y0043543D02*
X0175818Y0043543D01*
X0175818Y0044541D02*
X0002589Y0044541D01*
X0002589Y0045540D02*
X0175818Y0045540D01*
X0175818Y0046538D02*
X0002589Y0046538D01*
X0002589Y0047537D02*
X0175818Y0047537D01*
X0175818Y0048535D02*
X0002589Y0048535D01*
X0002589Y0049534D02*
X0175818Y0049534D01*
X0175818Y0050532D02*
X0002589Y0050532D01*
X0002589Y0051531D02*
X0175818Y0051531D01*
X0175818Y0052529D02*
X0002589Y0052529D01*
X0002589Y0053528D02*
X0175818Y0053528D01*
X0175818Y0054526D02*
X0002589Y0054526D01*
X0002589Y0055525D02*
X0175818Y0055525D01*
X0175818Y0056523D02*
X0002589Y0056523D01*
X0002589Y0057522D02*
X0175818Y0057522D01*
X0175818Y0058520D02*
X0002589Y0058520D01*
X0002589Y0059519D02*
X0175818Y0059519D01*
X0175818Y0060517D02*
X0002589Y0060517D01*
X0002589Y0061516D02*
X0175818Y0061516D01*
X0175818Y0062514D02*
X0002589Y0062514D01*
X0002589Y0063513D02*
X0175818Y0063513D01*
X0175818Y0064511D02*
X0002589Y0064511D01*
X0002589Y0065510D02*
X0175818Y0065510D01*
X0175818Y0066508D02*
X0002589Y0066508D01*
X0002589Y0067507D02*
X0175818Y0067507D01*
X0175818Y0068505D02*
X0002589Y0068505D01*
X0002589Y0069504D02*
X0013351Y0069504D01*
X0014465Y0069504D02*
X0175818Y0069504D01*
X0175818Y0070502D02*
X0015967Y0070502D01*
X0016408Y0071501D02*
X0175818Y0071501D01*
X0175818Y0072499D02*
X0016833Y0072499D01*
X0017831Y0073498D02*
X0175818Y0073498D01*
X0175818Y0074496D02*
X0039646Y0074496D01*
X0039439Y0074289D02*
X0040142Y0074992D01*
X0040522Y0075911D01*
X0040522Y0076906D01*
X0040516Y0076922D01*
X0042539Y0078945D01*
X0144164Y0078945D01*
X0144171Y0078929D01*
X0144874Y0078226D01*
X0145793Y0077845D01*
X0146787Y0077845D01*
X0147706Y0078226D01*
X0148410Y0078929D01*
X0148790Y0079848D01*
X0148790Y0080843D01*
X0148410Y0081761D01*
X0147706Y0082465D01*
X0146787Y0082845D01*
X0145793Y0082845D01*
X0144874Y0082465D01*
X0144171Y0081761D01*
X0144164Y0081745D01*
X0041380Y0081745D01*
X0040559Y0080925D01*
X0038536Y0078902D01*
X0038520Y0078908D01*
X0037525Y0078908D01*
X0036606Y0078528D01*
X0035903Y0077824D01*
X0035522Y0076906D01*
X0035522Y0075911D01*
X0035903Y0074992D01*
X0036606Y0074289D01*
X0037525Y0073908D01*
X0038520Y0073908D01*
X0039439Y0074289D01*
X0040350Y0075495D02*
X0175818Y0075495D01*
X0175825Y0076493D02*
X0040522Y0076493D01*
X0041086Y0077492D02*
X0175985Y0077492D01*
X0176425Y0078490D02*
X0147971Y0078490D01*
X0148641Y0079489D02*
X0177317Y0079489D01*
X0179573Y0082485D02*
X0147658Y0082485D01*
X0148524Y0081486D02*
X0180571Y0081486D01*
X0181570Y0080488D02*
X0148790Y0080488D01*
X0144922Y0082485D02*
X0027802Y0082485D01*
X0028801Y0083483D02*
X0178574Y0083483D01*
X0177576Y0084482D02*
X0029799Y0084482D01*
X0030798Y0085480D02*
X0176577Y0085480D01*
X0175579Y0086479D02*
X0031796Y0086479D01*
X0031848Y0087477D02*
X0087887Y0087477D01*
X0091505Y0087477D02*
X0174580Y0087477D01*
X0173582Y0088476D02*
X0092100Y0088476D01*
X0092196Y0089474D02*
X0172583Y0089474D01*
X0171584Y0090473D02*
X0141744Y0090473D01*
X0142315Y0091471D02*
X0170586Y0091471D01*
X0169587Y0092470D02*
X0142393Y0092470D01*
X0142055Y0093468D02*
X0168589Y0093468D01*
X0167590Y0094467D02*
X0140848Y0094467D01*
X0138937Y0094467D02*
X0101478Y0094467D01*
X0099567Y0094467D02*
X0077855Y0094467D01*
X0075945Y0094467D02*
X0064144Y0094467D01*
X0063999Y0095465D02*
X0161591Y0095465D01*
X0165438Y0095465D02*
X0166592Y0095465D01*
X0168555Y0097462D02*
X0234110Y0097462D01*
X0234110Y0096464D02*
X0169553Y0096464D01*
X0170552Y0095465D02*
X0234377Y0095465D01*
X0234410Y0095409D02*
X0234689Y0095130D01*
X0235031Y0094933D01*
X0235412Y0094830D01*
X0238810Y0094830D01*
X0238810Y0099530D01*
X0239810Y0099530D01*
X0239810Y0094830D01*
X0243207Y0094830D01*
X0243589Y0094933D01*
X0243931Y0095130D01*
X0244210Y0095409D01*
X0244408Y0095751D01*
X0244510Y0096133D01*
X0244510Y0099530D01*
X0239810Y0099530D01*
X0239810Y0100530D01*
X0244510Y0100530D01*
X0244510Y0103928D01*
X0244408Y0104309D01*
X0244210Y0104651D01*
X0243931Y0104931D01*
X0243589Y0105128D01*
X0243207Y0105230D01*
X0239810Y0105230D01*
X0239810Y0100530D01*
X0238810Y0100530D01*
X0238810Y0099530D01*
X0234110Y0099530D01*
X0234110Y0096133D01*
X0234212Y0095751D01*
X0234410Y0095409D01*
X0235591Y0094100D02*
X0234241Y0092749D01*
X0233510Y0090985D01*
X0233510Y0089076D01*
X0234241Y0087311D01*
X0235591Y0085961D01*
X0237355Y0085230D01*
X0239265Y0085230D01*
X0241029Y0085961D01*
X0242379Y0087311D01*
X0243110Y0089076D01*
X0243110Y0090985D01*
X0242379Y0092749D01*
X0241029Y0094100D01*
X0239265Y0094830D01*
X0237355Y0094830D01*
X0235591Y0094100D01*
X0234959Y0093468D02*
X0172549Y0093468D01*
X0173547Y0092470D02*
X0234125Y0092470D01*
X0233711Y0091471D02*
X0174546Y0091471D01*
X0175544Y0090473D02*
X0233510Y0090473D01*
X0233510Y0089474D02*
X0176543Y0089474D01*
X0177541Y0088476D02*
X0233758Y0088476D01*
X0234172Y0087477D02*
X0178540Y0087477D01*
X0179538Y0086479D02*
X0235073Y0086479D01*
X0236752Y0085480D02*
X0180537Y0085480D01*
X0181535Y0084482D02*
X0237513Y0084482D01*
X0235974Y0083483D02*
X0182534Y0083483D01*
X0183532Y0082485D02*
X0235131Y0082485D01*
X0234717Y0081486D02*
X0186087Y0081486D01*
X0186627Y0080488D02*
X0233527Y0080488D01*
X0232529Y0079489D02*
X0186684Y0079489D01*
X0186325Y0078490D02*
X0231530Y0078490D01*
X0230532Y0077492D02*
X0185016Y0077492D01*
X0183684Y0076493D02*
X0229533Y0076493D01*
X0228535Y0075495D02*
X0183692Y0075495D01*
X0183692Y0074496D02*
X0227536Y0074496D01*
X0226538Y0073498D02*
X0183692Y0073498D01*
X0183692Y0072499D02*
X0225539Y0072499D01*
X0224541Y0071501D02*
X0183692Y0071501D01*
X0183692Y0070502D02*
X0223542Y0070502D01*
X0222544Y0069504D02*
X0183692Y0069504D01*
X0183692Y0068505D02*
X0221545Y0068505D01*
X0220547Y0067507D02*
X0183692Y0067507D01*
X0183692Y0066508D02*
X0219548Y0066508D01*
X0218550Y0065510D02*
X0183692Y0065510D01*
X0183692Y0064511D02*
X0217551Y0064511D01*
X0216553Y0063513D02*
X0183692Y0063513D01*
X0183692Y0062514D02*
X0215554Y0062514D01*
X0214556Y0061516D02*
X0183692Y0061516D01*
X0183692Y0060517D02*
X0213557Y0060517D01*
X0212559Y0059519D02*
X0183692Y0059519D01*
X0183692Y0058520D02*
X0211560Y0058520D01*
X0210562Y0057522D02*
X0183692Y0057522D01*
X0183692Y0056523D02*
X0209563Y0056523D01*
X0208565Y0055525D02*
X0183692Y0055525D01*
X0183692Y0054526D02*
X0206010Y0054526D01*
X0205407Y0053528D02*
X0183692Y0053528D01*
X0183692Y0052529D02*
X0205306Y0052529D01*
X0205620Y0051531D02*
X0183692Y0051531D01*
X0183692Y0050532D02*
X0206715Y0050532D01*
X0208897Y0050532D02*
X0213605Y0050532D01*
X0212510Y0051531D02*
X0209992Y0051531D01*
X0210306Y0052529D02*
X0212196Y0052529D01*
X0211974Y0053528D02*
X0210527Y0053528D01*
X0214521Y0057522D02*
X0258495Y0057522D01*
X0258495Y0058520D02*
X0215520Y0058520D01*
X0216518Y0059519D02*
X0258495Y0059519D01*
X0258495Y0060517D02*
X0217517Y0060517D01*
X0218515Y0061516D02*
X0258495Y0061516D01*
X0258495Y0062514D02*
X0219514Y0062514D01*
X0220512Y0063513D02*
X0258495Y0063513D01*
X0258495Y0064511D02*
X0221511Y0064511D01*
X0222509Y0065510D02*
X0236680Y0065510D01*
X0237355Y0065230D02*
X0235591Y0065961D01*
X0234241Y0067311D01*
X0233510Y0069076D01*
X0233510Y0070985D01*
X0234241Y0072749D01*
X0235591Y0074100D01*
X0237355Y0074830D01*
X0239265Y0074830D01*
X0241029Y0074100D01*
X0242379Y0072749D01*
X0243110Y0070985D01*
X0243110Y0069076D01*
X0242379Y0067311D01*
X0241029Y0065961D01*
X0239265Y0065230D01*
X0237355Y0065230D01*
X0239939Y0065510D02*
X0258495Y0065510D01*
X0258495Y0066508D02*
X0241576Y0066508D01*
X0242460Y0067507D02*
X0258495Y0067507D01*
X0258495Y0068505D02*
X0242874Y0068505D01*
X0243110Y0069504D02*
X0258495Y0069504D01*
X0258495Y0070502D02*
X0243110Y0070502D01*
X0242896Y0071501D02*
X0258495Y0071501D01*
X0258495Y0072499D02*
X0242483Y0072499D01*
X0241630Y0073498D02*
X0258495Y0073498D01*
X0258495Y0074496D02*
X0240071Y0074496D01*
X0240904Y0075495D02*
X0258495Y0075495D01*
X0258495Y0076493D02*
X0242561Y0076493D01*
X0243454Y0077492D02*
X0258495Y0077492D01*
X0258495Y0078490D02*
X0243867Y0078490D01*
X0244110Y0079489D02*
X0258495Y0079489D01*
X0258495Y0080488D02*
X0244110Y0080488D01*
X0243902Y0081486D02*
X0258495Y0081486D01*
X0258495Y0082485D02*
X0243489Y0082485D01*
X0242645Y0083483D02*
X0258495Y0083483D01*
X0258495Y0084482D02*
X0241107Y0084482D01*
X0239868Y0085480D02*
X0258495Y0085480D01*
X0258495Y0086479D02*
X0241546Y0086479D01*
X0242448Y0087477D02*
X0258495Y0087477D01*
X0258495Y0088476D02*
X0242861Y0088476D01*
X0243110Y0089474D02*
X0258495Y0089474D01*
X0258495Y0090473D02*
X0243110Y0090473D01*
X0242909Y0091471D02*
X0258495Y0091471D01*
X0258495Y0092470D02*
X0242495Y0092470D01*
X0241660Y0093468D02*
X0258495Y0093468D01*
X0258495Y0094467D02*
X0240143Y0094467D01*
X0239810Y0095465D02*
X0238810Y0095465D01*
X0238810Y0096464D02*
X0239810Y0096464D01*
X0239810Y0097462D02*
X0238810Y0097462D01*
X0238810Y0098461D02*
X0239810Y0098461D01*
X0239810Y0099459D02*
X0238810Y0099459D01*
X0238810Y0100458D02*
X0165559Y0100458D01*
X0164561Y0101456D02*
X0234110Y0101456D01*
X0234110Y0100530D02*
X0238810Y0100530D01*
X0238810Y0105230D01*
X0235412Y0105230D01*
X0235031Y0105128D01*
X0234689Y0104931D01*
X0234410Y0104651D01*
X0234212Y0104309D01*
X0234110Y0103928D01*
X0234110Y0100530D01*
X0234110Y0099459D02*
X0166558Y0099459D01*
X0167556Y0098461D02*
X0234110Y0098461D01*
X0234110Y0102455D02*
X0163562Y0102455D01*
X0162564Y0103453D02*
X0234110Y0103453D01*
X0234294Y0104452D02*
X0161565Y0104452D01*
X0159602Y0102455D02*
X0066128Y0102455D01*
X0062082Y0102455D02*
X0041883Y0102455D01*
X0041883Y0103453D02*
X0061612Y0103453D01*
X0061605Y0104452D02*
X0051393Y0104452D01*
X0048274Y0104452D02*
X0041883Y0104452D01*
X0041883Y0105450D02*
X0047532Y0105450D01*
X0047333Y0106449D02*
X0041883Y0106449D01*
X0041883Y0107447D02*
X0047550Y0107447D01*
X0048316Y0108446D02*
X0041883Y0108446D01*
X0041883Y0109444D02*
X0052279Y0109444D01*
X0052255Y0108446D02*
X0051351Y0108446D01*
X0052773Y0110443D02*
X0041883Y0110443D01*
X0041883Y0111441D02*
X0076863Y0111441D01*
X0076103Y0112440D02*
X0041883Y0112440D01*
X0041883Y0113438D02*
X0075689Y0113438D01*
X0075541Y0114437D02*
X0041883Y0114437D01*
X0041883Y0115435D02*
X0075541Y0115435D01*
X0075842Y0116434D02*
X0041883Y0116434D01*
X0041883Y0117432D02*
X0075235Y0117432D01*
X0074236Y0118431D02*
X0041883Y0118431D01*
X0041883Y0119429D02*
X0073238Y0119429D01*
X0072239Y0120428D02*
X0041883Y0120428D01*
X0042285Y0121426D02*
X0071241Y0121426D01*
X0070242Y0122425D02*
X0042884Y0122425D01*
X0042983Y0123423D02*
X0069244Y0123423D01*
X0068245Y0124422D02*
X0042666Y0124422D01*
X0041559Y0125421D02*
X0060348Y0125421D01*
X0059423Y0126419D02*
X0038861Y0126419D01*
X0039407Y0125421D02*
X0031848Y0125421D01*
X0031848Y0126419D02*
X0036199Y0126419D01*
X0035303Y0127418D02*
X0031848Y0127418D01*
X0031848Y0128416D02*
X0035030Y0128416D01*
X0035173Y0129415D02*
X0031848Y0129415D01*
X0031848Y0130413D02*
X0035834Y0130413D01*
X0031848Y0131412D02*
X0061256Y0131412D01*
X0060257Y0132410D02*
X0031848Y0132410D01*
X0031848Y0133409D02*
X0059259Y0133409D01*
X0058260Y0134407D02*
X0031848Y0134407D01*
X0031848Y0135406D02*
X0057262Y0135406D01*
X0056263Y0136404D02*
X0031848Y0136404D01*
X0031848Y0137403D02*
X0055265Y0137403D01*
X0054266Y0138401D02*
X0031848Y0138401D01*
X0031848Y0139400D02*
X0053268Y0139400D01*
X0051177Y0140398D02*
X0043540Y0140398D01*
X0044269Y0141397D02*
X0049715Y0141397D01*
X0049302Y0142395D02*
X0044459Y0142395D01*
X0044234Y0143394D02*
X0049323Y0143394D01*
X0047291Y0144392D02*
X0043456Y0144392D01*
X0043611Y0145391D02*
X0045099Y0145391D01*
X0048390Y0147253D02*
X0048396Y0147269D01*
X0048396Y0148264D01*
X0048016Y0149183D01*
X0047313Y0149886D01*
X0046394Y0150267D01*
X0045399Y0150267D01*
X0044480Y0149886D01*
X0043777Y0149183D01*
X0043721Y0149048D01*
X0043376Y0149394D01*
X0042457Y0149774D01*
X0041462Y0149774D01*
X0041446Y0149768D01*
X0036481Y0154733D01*
X0120555Y0154733D01*
X0120067Y0154245D01*
X0119391Y0152611D01*
X0075828Y0152611D01*
X0075008Y0151791D01*
X0073477Y0150260D01*
X0073461Y0150267D01*
X0072466Y0150267D01*
X0071547Y0149886D01*
X0070844Y0149183D01*
X0070463Y0148264D01*
X0070463Y0147269D01*
X0070697Y0146706D01*
X0048937Y0146706D01*
X0048390Y0147253D01*
X0048396Y0147388D02*
X0070463Y0147388D01*
X0070514Y0148386D02*
X0048346Y0148386D01*
X0047814Y0149385D02*
X0071046Y0149385D01*
X0073600Y0150383D02*
X0040830Y0150383D01*
X0039832Y0151382D02*
X0074599Y0151382D01*
X0075597Y0152380D02*
X0038833Y0152380D01*
X0037835Y0153379D02*
X0119708Y0153379D01*
X0120199Y0154377D02*
X0036836Y0154377D01*
X0038509Y0158554D02*
X0039504Y0158554D01*
X0040423Y0158935D01*
X0041126Y0159638D01*
X0041133Y0159654D01*
X0046231Y0159654D01*
X0046238Y0159638D01*
X0046941Y0158935D01*
X0047860Y0158554D01*
X0048854Y0158554D01*
X0049773Y0158935D01*
X0050476Y0159638D01*
X0050483Y0159654D01*
X0065424Y0159654D01*
X0065431Y0159638D01*
X0066134Y0158935D01*
X0067053Y0158554D01*
X0068047Y0158554D01*
X0068966Y0158935D01*
X0069669Y0159638D01*
X0070050Y0160557D01*
X0070050Y0161551D01*
X0069669Y0162470D01*
X0068966Y0163173D01*
X0068047Y0163554D01*
X0067053Y0163554D01*
X0066134Y0163173D01*
X0065431Y0162470D01*
X0065424Y0162454D01*
X0050483Y0162454D01*
X0050476Y0162470D01*
X0049773Y0163173D01*
X0048854Y0163554D01*
X0047860Y0163554D01*
X0046941Y0163173D01*
X0046238Y0162470D01*
X0046231Y0162454D01*
X0041133Y0162454D01*
X0041126Y0162470D01*
X0040423Y0163173D01*
X0039504Y0163554D01*
X0038509Y0163554D01*
X0038493Y0163547D01*
X0033517Y0168524D01*
X0033517Y0175730D01*
X0040259Y0182472D01*
X0040259Y0167732D01*
X0041255Y0166736D01*
X0043224Y0164767D01*
X0048569Y0164767D01*
X0049565Y0165763D01*
X0049565Y0170192D01*
X0051900Y0172528D01*
X0052143Y0171941D01*
X0052846Y0171238D01*
X0053677Y0170894D01*
X0053127Y0170344D01*
X0052747Y0169425D01*
X0052747Y0168431D01*
X0053127Y0167512D01*
X0053831Y0166809D01*
X0054750Y0166428D01*
X0055744Y0166428D01*
X0056663Y0166809D01*
X0057366Y0167512D01*
X0057373Y0167528D01*
X0119288Y0167528D01*
X0119245Y0167484D01*
X0119228Y0167491D01*
X0118234Y0167491D01*
X0117315Y0167110D01*
X0116612Y0166407D01*
X0116231Y0165488D01*
X0116231Y0164494D01*
X0116612Y0163575D01*
X0117315Y0162872D01*
X0118234Y0162491D01*
X0119228Y0162491D01*
X0120147Y0162872D01*
X0120747Y0163471D01*
X0120337Y0162481D01*
X0120337Y0160572D01*
X0121067Y0158807D01*
X0122342Y0157533D01*
X0033681Y0157533D01*
X0030595Y0160618D01*
X0031011Y0161034D01*
X0031011Y0165011D01*
X0029478Y0166544D01*
X0031537Y0166544D01*
X0036513Y0161567D01*
X0036507Y0161551D01*
X0036507Y0160557D01*
X0036887Y0159638D01*
X0037591Y0158935D01*
X0038509Y0158554D01*
X0037155Y0159370D02*
X0031844Y0159370D01*
X0032842Y0158371D02*
X0121503Y0158371D01*
X0120834Y0159370D02*
X0069402Y0159370D01*
X0069972Y0160368D02*
X0120421Y0160368D01*
X0120337Y0161367D02*
X0070050Y0161367D01*
X0069713Y0162365D02*
X0120337Y0162365D01*
X0120640Y0163364D02*
X0120702Y0163364D01*
X0117913Y0167358D02*
X0057212Y0167358D01*
X0053281Y0167358D02*
X0049565Y0167358D01*
X0049565Y0166359D02*
X0116592Y0166359D01*
X0116231Y0165361D02*
X0049163Y0165361D01*
X0049313Y0163364D02*
X0066594Y0163364D01*
X0068506Y0163364D02*
X0116823Y0163364D01*
X0116285Y0164362D02*
X0037678Y0164362D01*
X0036680Y0165361D02*
X0042630Y0165361D01*
X0041632Y0166359D02*
X0035681Y0166359D01*
X0034683Y0167358D02*
X0040633Y0167358D01*
X0040259Y0168357D02*
X0033684Y0168357D01*
X0033517Y0169355D02*
X0040259Y0169355D01*
X0040259Y0170354D02*
X0033517Y0170354D01*
X0033517Y0171352D02*
X0040259Y0171352D01*
X0040259Y0172351D02*
X0033517Y0172351D01*
X0033517Y0173349D02*
X0040259Y0173349D01*
X0040259Y0174348D02*
X0033517Y0174348D01*
X0033517Y0175346D02*
X0040259Y0175346D01*
X0040259Y0176345D02*
X0034132Y0176345D01*
X0035130Y0177343D02*
X0040259Y0177343D01*
X0040259Y0178342D02*
X0036129Y0178342D01*
X0037127Y0179340D02*
X0040259Y0179340D01*
X0040259Y0180339D02*
X0038126Y0180339D01*
X0039124Y0181337D02*
X0040259Y0181337D01*
X0040259Y0182336D02*
X0040123Y0182336D01*
X0036698Y0185331D02*
X0030691Y0185331D01*
X0031011Y0185011D02*
X0028200Y0187822D01*
X0024223Y0187822D01*
X0021411Y0185011D01*
X0021411Y0183824D01*
X0021411Y0185176D01*
X0018365Y0188222D01*
X0016711Y0188222D01*
X0016711Y0183522D01*
X0015711Y0183522D01*
X0015711Y0187452D01*
X0024823Y0196563D01*
X0047930Y0196563D01*
X0029189Y0177822D01*
X0025223Y0177822D01*
X0023674Y0176274D01*
X0023674Y0178771D01*
X0024223Y0178222D01*
X0028200Y0178222D01*
X0031011Y0181034D01*
X0031011Y0185011D01*
X0031011Y0184333D02*
X0035699Y0184333D01*
X0034701Y0183334D02*
X0031011Y0183334D01*
X0031011Y0182336D02*
X0033702Y0182336D01*
X0032704Y0181337D02*
X0031011Y0181337D01*
X0031705Y0180339D02*
X0030316Y0180339D01*
X0030707Y0179340D02*
X0029317Y0179340D01*
X0029708Y0178342D02*
X0028319Y0178342D01*
X0024744Y0177343D02*
X0023674Y0177343D01*
X0023674Y0176345D02*
X0023745Y0176345D01*
X0023674Y0178342D02*
X0024104Y0178342D01*
X0020874Y0178342D02*
X0018884Y0178342D01*
X0019200Y0177822D02*
X0015223Y0177822D01*
X0012848Y0175447D01*
X0012848Y0179032D01*
X0014058Y0177822D01*
X0015711Y0177822D01*
X0015711Y0182522D01*
X0016711Y0182522D01*
X0016711Y0177822D01*
X0018365Y0177822D01*
X0020874Y0180332D01*
X0020874Y0176148D01*
X0019200Y0177822D01*
X0019679Y0177343D02*
X0020874Y0177343D01*
X0020874Y0176345D02*
X0020677Y0176345D01*
X0016711Y0178342D02*
X0015711Y0178342D01*
X0015711Y0179340D02*
X0016711Y0179340D01*
X0016711Y0180339D02*
X0015711Y0180339D01*
X0015711Y0181337D02*
X0016711Y0181337D01*
X0016711Y0182336D02*
X0015711Y0182336D01*
X0015711Y0184333D02*
X0016711Y0184333D01*
X0016711Y0185331D02*
X0015711Y0185331D01*
X0015711Y0186330D02*
X0016711Y0186330D01*
X0016711Y0187328D02*
X0015711Y0187328D01*
X0016586Y0188327D02*
X0039693Y0188327D01*
X0038695Y0187328D02*
X0028694Y0187328D01*
X0029692Y0186330D02*
X0037696Y0186330D01*
X0040692Y0189325D02*
X0017585Y0189325D01*
X0018583Y0190324D02*
X0041690Y0190324D01*
X0042689Y0191322D02*
X0019582Y0191322D01*
X0020580Y0192321D02*
X0043687Y0192321D01*
X0044686Y0193319D02*
X0021579Y0193319D01*
X0022577Y0194318D02*
X0045684Y0194318D01*
X0046683Y0195316D02*
X0023576Y0195316D01*
X0024574Y0196315D02*
X0047681Y0196315D01*
X0049429Y0194103D02*
X0074774Y0194103D01*
X0074781Y0194087D01*
X0075484Y0193383D01*
X0076023Y0193160D01*
X0073368Y0190505D01*
X0045831Y0190505D01*
X0049429Y0194103D01*
X0048646Y0193319D02*
X0075639Y0193319D01*
X0075183Y0192321D02*
X0047647Y0192321D01*
X0046649Y0191322D02*
X0074185Y0191322D01*
X0079026Y0196903D02*
X0079020Y0196919D01*
X0078317Y0197622D01*
X0078126Y0197701D01*
X0079449Y0199024D01*
X0080750Y0199024D01*
X0082226Y0197548D01*
X0147854Y0197548D01*
X0148674Y0198368D01*
X0149331Y0199024D01*
X0151124Y0199024D01*
X0152600Y0197548D01*
X0192146Y0197548D01*
X0192966Y0198368D01*
X0193679Y0199081D01*
X0193761Y0198998D01*
X0197323Y0198998D01*
X0199842Y0201517D01*
X0199842Y0205079D01*
X0198515Y0206406D01*
X0202569Y0206406D01*
X0201242Y0205079D01*
X0201242Y0201517D01*
X0201620Y0201139D01*
X0197383Y0196903D01*
X0079026Y0196903D01*
X0078625Y0197313D02*
X0197794Y0197313D01*
X0198793Y0198312D02*
X0192910Y0198312D01*
X0197636Y0199310D02*
X0199791Y0199310D01*
X0200790Y0200309D02*
X0198634Y0200309D01*
X0199633Y0201307D02*
X0201452Y0201307D01*
X0201242Y0202306D02*
X0199842Y0202306D01*
X0199842Y0203304D02*
X0201242Y0203304D01*
X0201242Y0204303D02*
X0199842Y0204303D01*
X0199620Y0205301D02*
X0201464Y0205301D01*
X0202463Y0206300D02*
X0198621Y0206300D01*
X0198097Y0209206D02*
X0200242Y0211351D01*
X0200242Y0212798D01*
X0196042Y0212798D01*
X0196042Y0213798D01*
X0200242Y0213798D01*
X0200242Y0215245D01*
X0199046Y0216441D01*
X0202604Y0216441D01*
X0201242Y0215079D01*
X0201242Y0211517D01*
X0203553Y0209206D01*
X0198097Y0209206D01*
X0198186Y0209295D02*
X0203464Y0209295D01*
X0202465Y0210294D02*
X0199185Y0210294D01*
X0200183Y0211292D02*
X0201467Y0211292D01*
X0201242Y0212291D02*
X0200242Y0212291D01*
X0201242Y0213290D02*
X0196042Y0213290D01*
X0195042Y0213290D02*
X0189842Y0213290D01*
X0189842Y0214288D02*
X0190842Y0214288D01*
X0190842Y0213798D02*
X0195042Y0213798D01*
X0195042Y0212798D01*
X0190842Y0212798D01*
X0190842Y0211351D01*
X0192987Y0209206D01*
X0187531Y0209206D01*
X0189842Y0211517D01*
X0189842Y0215079D01*
X0188481Y0216441D01*
X0192038Y0216441D01*
X0190842Y0215245D01*
X0190842Y0213798D01*
X0190884Y0215287D02*
X0189635Y0215287D01*
X0188636Y0216285D02*
X0191882Y0216285D01*
X0190842Y0212291D02*
X0189842Y0212291D01*
X0189618Y0211292D02*
X0190901Y0211292D01*
X0191899Y0210294D02*
X0188619Y0210294D01*
X0187621Y0209295D02*
X0192898Y0209295D01*
X0200242Y0214288D02*
X0201242Y0214288D01*
X0201450Y0215287D02*
X0200200Y0215287D01*
X0199202Y0216285D02*
X0202448Y0216285D01*
X0221509Y0211250D02*
X0221509Y0205912D01*
X0223595Y0207998D01*
X0225042Y0207998D01*
X0225042Y0203798D01*
X0226042Y0203798D01*
X0226042Y0207998D01*
X0227489Y0207998D01*
X0228552Y0206935D01*
X0228552Y0210226D01*
X0227323Y0208998D01*
X0223761Y0208998D01*
X0221509Y0211250D01*
X0221509Y0210294D02*
X0222465Y0210294D01*
X0221509Y0209295D02*
X0223464Y0209295D01*
X0222896Y0207298D02*
X0221509Y0207298D01*
X0221509Y0206300D02*
X0221897Y0206300D01*
X0221509Y0208297D02*
X0228552Y0208297D01*
X0228552Y0209295D02*
X0227621Y0209295D01*
X0228188Y0207298D02*
X0228552Y0207298D01*
X0226042Y0207298D02*
X0225042Y0207298D01*
X0225042Y0206300D02*
X0226042Y0206300D01*
X0226042Y0205301D02*
X0225042Y0205301D01*
X0225042Y0204303D02*
X0226042Y0204303D01*
X0226042Y0202798D02*
X0226042Y0198598D01*
X0226146Y0198598D01*
X0220033Y0192485D01*
X0220033Y0199844D01*
X0220689Y0200500D01*
X0221191Y0201002D01*
X0223595Y0198598D01*
X0225042Y0198598D01*
X0225042Y0202798D01*
X0226042Y0202798D01*
X0226042Y0202306D02*
X0225042Y0202306D01*
X0225042Y0201307D02*
X0226042Y0201307D01*
X0226042Y0200309D02*
X0225042Y0200309D01*
X0225042Y0199310D02*
X0226042Y0199310D01*
X0225860Y0198312D02*
X0220033Y0198312D01*
X0220033Y0199310D02*
X0222883Y0199310D01*
X0221884Y0200309D02*
X0220497Y0200309D01*
X0220033Y0197313D02*
X0224861Y0197313D01*
X0223862Y0196315D02*
X0220033Y0196315D01*
X0220033Y0195316D02*
X0222864Y0195316D01*
X0221865Y0194318D02*
X0220033Y0194318D01*
X0220033Y0193319D02*
X0220867Y0193319D01*
X0222830Y0191322D02*
X0258495Y0191322D01*
X0258495Y0190324D02*
X0221831Y0190324D01*
X0220833Y0189325D02*
X0258495Y0189325D01*
X0258495Y0188327D02*
X0219834Y0188327D01*
X0218836Y0187328D02*
X0258495Y0187328D01*
X0258495Y0186330D02*
X0217837Y0186330D01*
X0216839Y0185331D02*
X0258495Y0185331D01*
X0258495Y0184333D02*
X0215840Y0184333D01*
X0214842Y0183334D02*
X0258495Y0183334D01*
X0258495Y0182336D02*
X0213843Y0182336D01*
X0212845Y0181337D02*
X0258495Y0181337D01*
X0258495Y0180339D02*
X0211846Y0180339D01*
X0210848Y0179340D02*
X0258495Y0179340D01*
X0258495Y0178342D02*
X0209849Y0178342D01*
X0208851Y0177343D02*
X0258495Y0177343D01*
X0258495Y0176345D02*
X0207852Y0176345D01*
X0206854Y0175346D02*
X0258495Y0175346D01*
X0258495Y0174348D02*
X0205855Y0174348D01*
X0204857Y0173349D02*
X0258495Y0173349D01*
X0258495Y0172351D02*
X0203858Y0172351D01*
X0202859Y0171352D02*
X0258495Y0171352D01*
X0258495Y0170354D02*
X0201861Y0170354D01*
X0200862Y0169355D02*
X0258495Y0169355D01*
X0258495Y0168357D02*
X0199864Y0168357D01*
X0198865Y0167358D02*
X0258495Y0167358D01*
X0258495Y0166359D02*
X0197867Y0166359D01*
X0196868Y0165361D02*
X0258495Y0165361D01*
X0258495Y0164362D02*
X0195870Y0164362D01*
X0194871Y0163364D02*
X0258495Y0163364D01*
X0258495Y0162365D02*
X0193873Y0162365D01*
X0192874Y0161367D02*
X0258495Y0161367D01*
X0258495Y0160368D02*
X0191876Y0160368D01*
X0190877Y0159370D02*
X0258495Y0159370D01*
X0258495Y0158371D02*
X0189879Y0158371D01*
X0188880Y0157373D02*
X0258495Y0157373D01*
X0258495Y0156374D02*
X0187882Y0156374D01*
X0186883Y0155376D02*
X0258495Y0155376D01*
X0258495Y0154377D02*
X0185885Y0154377D01*
X0184886Y0153379D02*
X0258495Y0153379D01*
X0258495Y0152380D02*
X0183888Y0152380D01*
X0182889Y0151382D02*
X0258495Y0151382D01*
X0258495Y0150383D02*
X0181891Y0150383D01*
X0180892Y0149385D02*
X0258495Y0149385D01*
X0258495Y0148386D02*
X0179894Y0148386D01*
X0178895Y0147388D02*
X0258495Y0147388D01*
X0258495Y0146389D02*
X0177897Y0146389D01*
X0176898Y0145391D02*
X0258495Y0145391D01*
X0258495Y0144392D02*
X0175900Y0144392D01*
X0174901Y0143394D02*
X0258495Y0143394D01*
X0258495Y0142395D02*
X0173903Y0142395D01*
X0172904Y0141397D02*
X0258495Y0141397D01*
X0258495Y0140398D02*
X0171906Y0140398D01*
X0170907Y0139400D02*
X0258495Y0139400D01*
X0258495Y0138401D02*
X0169909Y0138401D01*
X0168910Y0137403D02*
X0258495Y0137403D01*
X0258495Y0136404D02*
X0167912Y0136404D01*
X0166913Y0135406D02*
X0258495Y0135406D01*
X0258495Y0134407D02*
X0165915Y0134407D01*
X0164916Y0133409D02*
X0258495Y0133409D01*
X0258495Y0132410D02*
X0163918Y0132410D01*
X0162919Y0131412D02*
X0258495Y0131412D01*
X0258495Y0130413D02*
X0161921Y0130413D01*
X0160922Y0129415D02*
X0258495Y0129415D01*
X0258495Y0128416D02*
X0159924Y0128416D01*
X0159721Y0127418D02*
X0258495Y0127418D01*
X0258495Y0126419D02*
X0160550Y0126419D01*
X0161026Y0125421D02*
X0258495Y0125421D01*
X0258495Y0124422D02*
X0161276Y0124422D01*
X0161201Y0122425D02*
X0234474Y0122425D01*
X0235001Y0122952D02*
X0232482Y0120433D01*
X0232482Y0116871D01*
X0235001Y0114352D01*
X0238563Y0114352D01*
X0241082Y0116871D01*
X0241082Y0120433D01*
X0238563Y0122952D01*
X0235001Y0122952D01*
X0233475Y0121426D02*
X0160835Y0121426D01*
X0160218Y0120428D02*
X0232482Y0120428D01*
X0232482Y0119429D02*
X0159167Y0119429D01*
X0160288Y0118452D02*
X0160933Y0117808D01*
X0160933Y0109497D01*
X0160288Y0108852D01*
X0151977Y0108852D01*
X0151333Y0109497D01*
X0151333Y0117808D01*
X0151977Y0118452D01*
X0160288Y0118452D01*
X0160310Y0118431D02*
X0232482Y0118431D01*
X0232482Y0117432D02*
X0160933Y0117432D01*
X0160933Y0116434D02*
X0232920Y0116434D01*
X0233918Y0115435D02*
X0160933Y0115435D01*
X0160933Y0114437D02*
X0234917Y0114437D01*
X0238648Y0114437D02*
X0244351Y0114437D01*
X0244835Y0113952D02*
X0242082Y0116706D01*
X0242082Y0118152D01*
X0246282Y0118152D01*
X0247282Y0118152D01*
X0247282Y0113952D01*
X0248729Y0113952D01*
X0251482Y0116706D01*
X0251482Y0118152D01*
X0247282Y0118152D01*
X0247282Y0119152D01*
X0251482Y0119152D01*
X0251482Y0120599D01*
X0248729Y0123352D01*
X0247282Y0123352D01*
X0247282Y0119152D01*
X0246282Y0119152D01*
X0246282Y0118152D01*
X0246282Y0113952D01*
X0244835Y0113952D01*
X0246282Y0114437D02*
X0247282Y0114437D01*
X0247282Y0115435D02*
X0246282Y0115435D01*
X0246282Y0116434D02*
X0247282Y0116434D01*
X0247282Y0117432D02*
X0246282Y0117432D01*
X0246282Y0118431D02*
X0241082Y0118431D01*
X0241082Y0119429D02*
X0242082Y0119429D01*
X0242082Y0119152D02*
X0246282Y0119152D01*
X0246282Y0123352D01*
X0244835Y0123352D01*
X0242082Y0120599D01*
X0242082Y0119152D01*
X0242082Y0120428D02*
X0241082Y0120428D01*
X0240089Y0121426D02*
X0242910Y0121426D01*
X0243908Y0122425D02*
X0239091Y0122425D01*
X0241082Y0117432D02*
X0242082Y0117432D01*
X0242354Y0116434D02*
X0240645Y0116434D01*
X0239646Y0115435D02*
X0243352Y0115435D01*
X0247282Y0118431D02*
X0258495Y0118431D01*
X0258495Y0119429D02*
X0251482Y0119429D01*
X0251482Y0120428D02*
X0258495Y0120428D01*
X0258495Y0121426D02*
X0250655Y0121426D01*
X0249656Y0122425D02*
X0258495Y0122425D01*
X0258495Y0123423D02*
X0156617Y0123423D01*
X0155648Y0123423D02*
X0147549Y0123423D01*
X0146551Y0122425D02*
X0151064Y0122425D01*
X0151431Y0121426D02*
X0145552Y0121426D01*
X0144554Y0120428D02*
X0152048Y0120428D01*
X0153098Y0119429D02*
X0143555Y0119429D01*
X0142556Y0118431D02*
X0151956Y0118431D01*
X0151333Y0117432D02*
X0141558Y0117432D01*
X0140559Y0116434D02*
X0151333Y0116434D01*
X0151333Y0115435D02*
X0139561Y0115435D01*
X0138562Y0114437D02*
X0151333Y0114437D01*
X0151333Y0113438D02*
X0137564Y0113438D01*
X0136565Y0112440D02*
X0151333Y0112440D01*
X0151333Y0111441D02*
X0135567Y0111441D01*
X0134568Y0110443D02*
X0151333Y0110443D01*
X0151385Y0109444D02*
X0133570Y0109444D01*
X0133534Y0108446D02*
X0258495Y0108446D01*
X0258495Y0109444D02*
X0160880Y0109444D01*
X0160933Y0110443D02*
X0258495Y0110443D01*
X0258495Y0111441D02*
X0160933Y0111441D01*
X0160933Y0112440D02*
X0258495Y0112440D01*
X0258495Y0113438D02*
X0160933Y0113438D01*
X0156617Y0119429D02*
X0155648Y0119429D01*
X0155648Y0120428D02*
X0156617Y0120428D01*
X0156617Y0121426D02*
X0155648Y0121426D01*
X0155648Y0122425D02*
X0156617Y0122425D01*
X0151240Y0125421D02*
X0149546Y0125421D01*
X0150545Y0126419D02*
X0151715Y0126419D01*
X0150990Y0124422D02*
X0148548Y0124422D01*
X0141214Y0129415D02*
X0128937Y0129415D01*
X0128937Y0130413D02*
X0142213Y0130413D01*
X0143211Y0131412D02*
X0128937Y0131412D01*
X0128937Y0132410D02*
X0144210Y0132410D01*
X0145208Y0133409D02*
X0128937Y0133409D01*
X0128937Y0134407D02*
X0146207Y0134407D01*
X0147205Y0135406D02*
X0128937Y0135406D01*
X0128937Y0135682D02*
X0128292Y0136326D01*
X0120832Y0136326D01*
X0118327Y0138832D01*
X0068130Y0138832D01*
X0064630Y0142332D01*
X0064637Y0142348D01*
X0064637Y0143343D01*
X0064403Y0143906D01*
X0089046Y0143906D01*
X0089053Y0143890D01*
X0089756Y0143187D01*
X0090675Y0142806D01*
X0091669Y0142806D01*
X0092588Y0143187D01*
X0093291Y0143890D01*
X0093672Y0144809D01*
X0093672Y0145803D01*
X0093291Y0146722D01*
X0092588Y0147425D01*
X0091669Y0147806D01*
X0090675Y0147806D01*
X0089756Y0147425D01*
X0089053Y0146722D01*
X0089046Y0146706D01*
X0075230Y0146706D01*
X0075463Y0147269D01*
X0075463Y0148264D01*
X0075457Y0148280D01*
X0076988Y0149811D01*
X0119651Y0149811D01*
X0120067Y0148807D01*
X0121418Y0147457D01*
X0123182Y0146726D01*
X0125091Y0146726D01*
X0126856Y0147457D01*
X0128206Y0148807D01*
X0128937Y0150572D01*
X0128937Y0152481D01*
X0128206Y0154245D01*
X0127719Y0154733D01*
X0155236Y0154733D01*
X0156056Y0155553D01*
X0159173Y0158670D01*
X0170000Y0158670D01*
X0170820Y0159490D01*
X0173336Y0162005D01*
X0173352Y0161999D01*
X0174346Y0161999D01*
X0175265Y0162379D01*
X0175969Y0163083D01*
X0176349Y0164002D01*
X0176349Y0164996D01*
X0176116Y0165559D01*
X0180251Y0165559D01*
X0180036Y0165263D01*
X0179730Y0164663D01*
X0179522Y0164023D01*
X0179417Y0163359D01*
X0179417Y0163310D01*
X0183404Y0163310D01*
X0183404Y0162735D01*
X0179417Y0162735D01*
X0179417Y0162686D01*
X0179522Y0162021D01*
X0179730Y0161381D01*
X0180036Y0160782D01*
X0180251Y0160485D01*
X0172285Y0160485D01*
X0171465Y0159665D01*
X0139805Y0128005D01*
X0128937Y0128005D01*
X0128937Y0135682D01*
X0127856Y0137457D02*
X0126091Y0136726D01*
X0124182Y0136726D01*
X0122418Y0137457D01*
X0121067Y0138807D01*
X0120337Y0140572D01*
X0120337Y0142481D01*
X0121067Y0144245D01*
X0122418Y0145596D01*
X0124182Y0146326D01*
X0126091Y0146326D01*
X0127856Y0145596D01*
X0129206Y0144245D01*
X0129937Y0142481D01*
X0129937Y0140572D01*
X0129206Y0138807D01*
X0127856Y0137457D01*
X0127724Y0137403D02*
X0149202Y0137403D01*
X0150201Y0138401D02*
X0128800Y0138401D01*
X0129451Y0139400D02*
X0151199Y0139400D01*
X0152198Y0140398D02*
X0129865Y0140398D01*
X0129937Y0141397D02*
X0153196Y0141397D01*
X0154195Y0142395D02*
X0129937Y0142395D01*
X0129559Y0143394D02*
X0155193Y0143394D01*
X0156192Y0144392D02*
X0129059Y0144392D01*
X0128060Y0145391D02*
X0157190Y0145391D01*
X0158189Y0146389D02*
X0093429Y0146389D01*
X0093672Y0145391D02*
X0122213Y0145391D01*
X0121214Y0144392D02*
X0093500Y0144392D01*
X0092795Y0143394D02*
X0120715Y0143394D01*
X0120337Y0142395D02*
X0064637Y0142395D01*
X0064615Y0143394D02*
X0089549Y0143394D01*
X0089718Y0147388D02*
X0075463Y0147388D01*
X0075563Y0148386D02*
X0120488Y0148386D01*
X0119828Y0149385D02*
X0076562Y0149385D01*
X0067562Y0139400D02*
X0120822Y0139400D01*
X0120408Y0140398D02*
X0066564Y0140398D01*
X0065565Y0141397D02*
X0120337Y0141397D01*
X0121474Y0138401D02*
X0118757Y0138401D01*
X0119756Y0137403D02*
X0122549Y0137403D01*
X0120754Y0136404D02*
X0148204Y0136404D01*
X0156180Y0138452D02*
X0169016Y0151288D01*
X0176644Y0151288D01*
X0176651Y0151272D01*
X0177354Y0150568D01*
X0177893Y0150345D01*
X0160933Y0133385D01*
X0160933Y0134607D01*
X0160202Y0136371D01*
X0158852Y0137722D01*
X0157087Y0138452D01*
X0156180Y0138452D01*
X0157211Y0138401D02*
X0165949Y0138401D01*
X0164950Y0137403D02*
X0159171Y0137403D01*
X0160169Y0136404D02*
X0163952Y0136404D01*
X0162953Y0135406D02*
X0160602Y0135406D01*
X0160933Y0134407D02*
X0161955Y0134407D01*
X0160956Y0133409D02*
X0160933Y0133409D01*
X0157128Y0139400D02*
X0166947Y0139400D01*
X0167946Y0140398D02*
X0158126Y0140398D01*
X0159125Y0141397D02*
X0168944Y0141397D01*
X0169943Y0142395D02*
X0160123Y0142395D01*
X0161122Y0143394D02*
X0170941Y0143394D01*
X0171940Y0144392D02*
X0162120Y0144392D01*
X0163119Y0145391D02*
X0172938Y0145391D01*
X0173937Y0146389D02*
X0164117Y0146389D01*
X0165116Y0147388D02*
X0174935Y0147388D01*
X0175934Y0148386D02*
X0166114Y0148386D01*
X0167113Y0149385D02*
X0176932Y0149385D01*
X0177801Y0150383D02*
X0168111Y0150383D01*
X0165178Y0153379D02*
X0128565Y0153379D01*
X0128937Y0152380D02*
X0164180Y0152380D01*
X0163181Y0151382D02*
X0128937Y0151382D01*
X0128859Y0150383D02*
X0162183Y0150383D01*
X0161184Y0149385D02*
X0128445Y0149385D01*
X0127785Y0148386D02*
X0160186Y0148386D01*
X0159187Y0147388D02*
X0126688Y0147388D01*
X0121585Y0147388D02*
X0092626Y0147388D01*
X0084215Y0136032D02*
X0102632Y0136032D01*
X0101871Y0135271D01*
X0101141Y0133507D01*
X0101141Y0131598D01*
X0101871Y0129833D01*
X0103222Y0128483D01*
X0104376Y0128005D01*
X0089116Y0128005D01*
X0088296Y0127185D01*
X0088296Y0114460D01*
X0088280Y0114453D01*
X0087576Y0113750D01*
X0087196Y0112831D01*
X0087196Y0111836D01*
X0087429Y0111273D01*
X0083649Y0111273D01*
X0084410Y0112033D01*
X0085141Y0113798D01*
X0085141Y0115707D01*
X0084410Y0117471D01*
X0083060Y0118822D01*
X0081295Y0119552D01*
X0079386Y0119552D01*
X0077752Y0118875D01*
X0054295Y0142332D01*
X0054302Y0142348D01*
X0054302Y0143343D01*
X0054069Y0143906D01*
X0059870Y0143906D01*
X0059637Y0143343D01*
X0059637Y0142348D01*
X0060017Y0141429D01*
X0060720Y0140726D01*
X0061639Y0140345D01*
X0062634Y0140345D01*
X0062650Y0140352D01*
X0066150Y0136852D01*
X0066970Y0136032D01*
X0076466Y0136032D01*
X0076374Y0135940D01*
X0075893Y0135278D01*
X0075522Y0134548D01*
X0075269Y0133770D01*
X0075155Y0133052D01*
X0079840Y0133052D01*
X0079840Y0132052D01*
X0075155Y0132052D01*
X0075269Y0131335D01*
X0075522Y0130556D01*
X0075893Y0129827D01*
X0076374Y0129165D01*
X0076953Y0128586D01*
X0077615Y0128105D01*
X0078344Y0127733D01*
X0079123Y0127480D01*
X0079841Y0127367D01*
X0079841Y0132052D01*
X0080841Y0132052D01*
X0080841Y0133052D01*
X0085526Y0133052D01*
X0085413Y0133770D01*
X0085160Y0134548D01*
X0084788Y0135278D01*
X0084307Y0135940D01*
X0084215Y0136032D01*
X0084695Y0135406D02*
X0102006Y0135406D01*
X0101513Y0134407D02*
X0085205Y0134407D01*
X0085470Y0133409D02*
X0101141Y0133409D01*
X0101141Y0132410D02*
X0080841Y0132410D01*
X0080841Y0132052D02*
X0085526Y0132052D01*
X0085413Y0131335D01*
X0085160Y0130556D01*
X0084788Y0129827D01*
X0084307Y0129165D01*
X0083728Y0128586D01*
X0083066Y0128105D01*
X0082337Y0127733D01*
X0081558Y0127480D01*
X0080841Y0127367D01*
X0080841Y0132052D01*
X0080841Y0131412D02*
X0079841Y0131412D01*
X0079840Y0132410D02*
X0064217Y0132410D01*
X0065216Y0131412D02*
X0075256Y0131412D01*
X0075594Y0130413D02*
X0066214Y0130413D01*
X0067213Y0129415D02*
X0076193Y0129415D01*
X0077187Y0128416D02*
X0068211Y0128416D01*
X0069210Y0127418D02*
X0079520Y0127418D01*
X0079841Y0127418D02*
X0080841Y0127418D01*
X0081161Y0127418D02*
X0088528Y0127418D01*
X0088296Y0126419D02*
X0070208Y0126419D01*
X0071207Y0125421D02*
X0088296Y0125421D01*
X0088296Y0124422D02*
X0072205Y0124422D01*
X0073204Y0123423D02*
X0088296Y0123423D01*
X0088296Y0122425D02*
X0074202Y0122425D01*
X0075201Y0121426D02*
X0088296Y0121426D01*
X0088296Y0120428D02*
X0076199Y0120428D01*
X0077198Y0119429D02*
X0079089Y0119429D01*
X0081592Y0119429D02*
X0088296Y0119429D01*
X0088296Y0118431D02*
X0083450Y0118431D01*
X0084426Y0117432D02*
X0088296Y0117432D01*
X0088296Y0116434D02*
X0084840Y0116434D01*
X0085141Y0115435D02*
X0088296Y0115435D01*
X0088264Y0114437D02*
X0085141Y0114437D01*
X0084992Y0113438D02*
X0087447Y0113438D01*
X0087196Y0112440D02*
X0084578Y0112440D01*
X0083818Y0111441D02*
X0087359Y0111441D01*
X0091962Y0111273D02*
X0092196Y0111836D01*
X0092196Y0112831D01*
X0091815Y0113750D01*
X0091112Y0114453D01*
X0091096Y0114460D01*
X0091096Y0125205D01*
X0138973Y0125205D01*
X0125041Y0111273D01*
X0109249Y0111273D01*
X0110010Y0112033D01*
X0110741Y0113798D01*
X0110741Y0115707D01*
X0110010Y0117471D01*
X0108660Y0118822D01*
X0106895Y0119552D01*
X0104986Y0119552D01*
X0103222Y0118822D01*
X0101871Y0117471D01*
X0101141Y0115707D01*
X0101141Y0113798D01*
X0101871Y0112033D01*
X0102632Y0111273D01*
X0091962Y0111273D01*
X0092032Y0111441D02*
X0102463Y0111441D01*
X0101703Y0112440D02*
X0092196Y0112440D01*
X0091944Y0113438D02*
X0101289Y0113438D01*
X0101141Y0114437D02*
X0091128Y0114437D01*
X0091096Y0115435D02*
X0101141Y0115435D01*
X0101442Y0116434D02*
X0091096Y0116434D01*
X0091096Y0117432D02*
X0101855Y0117432D01*
X0102831Y0118431D02*
X0091096Y0118431D01*
X0091096Y0119429D02*
X0104689Y0119429D01*
X0107192Y0119429D02*
X0133198Y0119429D01*
X0132199Y0118431D02*
X0109050Y0118431D01*
X0110026Y0117432D02*
X0131201Y0117432D01*
X0130202Y0116434D02*
X0110440Y0116434D01*
X0110741Y0115435D02*
X0129204Y0115435D01*
X0128205Y0114437D02*
X0110741Y0114437D01*
X0110592Y0113438D02*
X0127207Y0113438D01*
X0126208Y0112440D02*
X0110178Y0112440D01*
X0109418Y0111441D02*
X0125210Y0111441D01*
X0131677Y0106449D02*
X0258495Y0106449D01*
X0258495Y0107447D02*
X0133129Y0107447D01*
X0130875Y0105450D02*
X0258495Y0105450D01*
X0258495Y0104452D02*
X0244325Y0104452D01*
X0244510Y0103453D02*
X0258495Y0103453D01*
X0258495Y0102455D02*
X0244510Y0102455D01*
X0244510Y0101456D02*
X0258495Y0101456D01*
X0258495Y0100458D02*
X0239810Y0100458D01*
X0239810Y0101456D02*
X0238810Y0101456D01*
X0238810Y0102455D02*
X0239810Y0102455D01*
X0239810Y0103453D02*
X0238810Y0103453D01*
X0238810Y0104452D02*
X0239810Y0104452D01*
X0244510Y0099459D02*
X0258495Y0099459D01*
X0258495Y0098461D02*
X0244510Y0098461D01*
X0244510Y0097462D02*
X0258495Y0097462D01*
X0258495Y0096464D02*
X0244510Y0096464D01*
X0244242Y0095465D02*
X0258495Y0095465D01*
X0258495Y0114437D02*
X0249214Y0114437D01*
X0250212Y0115435D02*
X0258495Y0115435D01*
X0258495Y0116434D02*
X0251211Y0116434D01*
X0251482Y0117432D02*
X0258495Y0117432D01*
X0247282Y0119429D02*
X0246282Y0119429D01*
X0246282Y0120428D02*
X0247282Y0120428D01*
X0247282Y0121426D02*
X0246282Y0121426D01*
X0246282Y0122425D02*
X0247282Y0122425D01*
X0236477Y0094467D02*
X0171550Y0094467D01*
X0162598Y0099459D02*
X0041883Y0099459D01*
X0041883Y0100458D02*
X0161599Y0100458D01*
X0160601Y0101456D02*
X0041883Y0101456D01*
X0039083Y0101456D02*
X0031848Y0101456D01*
X0031848Y0100458D02*
X0039083Y0100458D01*
X0039083Y0099459D02*
X0031848Y0099459D01*
X0031848Y0098461D02*
X0039083Y0098461D01*
X0039083Y0097462D02*
X0031848Y0097462D01*
X0031848Y0096464D02*
X0039117Y0096464D01*
X0039083Y0102455D02*
X0031848Y0102455D01*
X0031848Y0103453D02*
X0039083Y0103453D01*
X0039083Y0104452D02*
X0031848Y0104452D01*
X0031848Y0105450D02*
X0039083Y0105450D01*
X0039083Y0106449D02*
X0031848Y0106449D01*
X0031848Y0107447D02*
X0039083Y0107447D01*
X0039083Y0108446D02*
X0031848Y0108446D01*
X0031848Y0109444D02*
X0039083Y0109444D01*
X0039083Y0110443D02*
X0031848Y0110443D01*
X0031848Y0111441D02*
X0039083Y0111441D01*
X0039083Y0112440D02*
X0031848Y0112440D01*
X0031848Y0113438D02*
X0039083Y0113438D01*
X0039083Y0114437D02*
X0031848Y0114437D01*
X0031848Y0115435D02*
X0039083Y0115435D01*
X0039083Y0116434D02*
X0031848Y0116434D01*
X0031848Y0117432D02*
X0039083Y0117432D01*
X0039083Y0118431D02*
X0031848Y0118431D01*
X0031848Y0119429D02*
X0039083Y0119429D01*
X0039083Y0120428D02*
X0031848Y0120428D01*
X0031848Y0121426D02*
X0038681Y0121426D01*
X0038082Y0122425D02*
X0031848Y0122425D01*
X0031848Y0123423D02*
X0037983Y0123423D01*
X0038300Y0124422D02*
X0031848Y0124422D01*
X0028448Y0124422D02*
X0022274Y0124422D01*
X0022274Y0123423D02*
X0028448Y0123423D01*
X0028448Y0122425D02*
X0022274Y0122425D01*
X0022274Y0121426D02*
X0028448Y0121426D01*
X0028448Y0120428D02*
X0022274Y0120428D01*
X0022274Y0119429D02*
X0028448Y0119429D01*
X0028448Y0118431D02*
X0022274Y0118431D01*
X0022274Y0117432D02*
X0028448Y0117432D01*
X0028448Y0116434D02*
X0022274Y0116434D01*
X0022274Y0115435D02*
X0028448Y0115435D01*
X0028448Y0114437D02*
X0022274Y0114437D01*
X0022274Y0113438D02*
X0028448Y0113438D01*
X0028448Y0112440D02*
X0022274Y0112440D01*
X0022274Y0111441D02*
X0028448Y0111441D01*
X0028448Y0110443D02*
X0022274Y0110443D01*
X0022274Y0109444D02*
X0028448Y0109444D01*
X0028448Y0108446D02*
X0022274Y0108446D01*
X0022274Y0107447D02*
X0028448Y0107447D01*
X0028448Y0106449D02*
X0022274Y0106449D01*
X0022274Y0105450D02*
X0028448Y0105450D01*
X0028448Y0104452D02*
X0022274Y0104452D01*
X0022274Y0103453D02*
X0028448Y0103453D01*
X0028448Y0102455D02*
X0022274Y0102455D01*
X0022274Y0101456D02*
X0028448Y0101456D01*
X0028448Y0100458D02*
X0022274Y0100458D01*
X0022274Y0099459D02*
X0028448Y0099459D01*
X0028448Y0098461D02*
X0022274Y0098461D01*
X0022274Y0097462D02*
X0028448Y0097462D01*
X0028448Y0096464D02*
X0022274Y0096464D01*
X0022274Y0095465D02*
X0028448Y0095465D01*
X0028448Y0094467D02*
X0022274Y0094467D01*
X0022274Y0093468D02*
X0028448Y0093468D01*
X0028448Y0092470D02*
X0022274Y0092470D01*
X0022274Y0091471D02*
X0028448Y0091471D01*
X0028448Y0090473D02*
X0022274Y0090473D01*
X0022274Y0089474D02*
X0028448Y0089474D01*
X0028448Y0088476D02*
X0022274Y0088476D01*
X0022274Y0087477D02*
X0027986Y0087477D01*
X0026988Y0086479D02*
X0022274Y0086479D01*
X0022274Y0085480D02*
X0025989Y0085480D01*
X0024991Y0084482D02*
X0022274Y0084482D01*
X0022274Y0083483D02*
X0023992Y0083483D01*
X0022994Y0082485D02*
X0022274Y0082485D01*
X0024807Y0079489D02*
X0039123Y0079489D01*
X0040122Y0080488D02*
X0025805Y0080488D01*
X0026804Y0081486D02*
X0041120Y0081486D01*
X0042085Y0078490D02*
X0144609Y0078490D01*
X0134196Y0120428D02*
X0091096Y0120428D01*
X0091096Y0121426D02*
X0135195Y0121426D01*
X0136193Y0122425D02*
X0091096Y0122425D01*
X0091096Y0123423D02*
X0137192Y0123423D01*
X0138190Y0124422D02*
X0091096Y0124422D01*
X0084488Y0129415D02*
X0102290Y0129415D01*
X0101631Y0130413D02*
X0085087Y0130413D01*
X0085425Y0131412D02*
X0101218Y0131412D01*
X0103383Y0128416D02*
X0083494Y0128416D01*
X0080841Y0128416D02*
X0079841Y0128416D01*
X0079841Y0129415D02*
X0080841Y0129415D01*
X0080841Y0130413D02*
X0079841Y0130413D01*
X0075211Y0133409D02*
X0063219Y0133409D01*
X0062220Y0134407D02*
X0075476Y0134407D01*
X0075986Y0135406D02*
X0061221Y0135406D01*
X0060223Y0136404D02*
X0066598Y0136404D01*
X0065599Y0137403D02*
X0059224Y0137403D01*
X0058226Y0138401D02*
X0064601Y0138401D01*
X0063602Y0139400D02*
X0057227Y0139400D01*
X0056229Y0140398D02*
X0061512Y0140398D01*
X0060050Y0141397D02*
X0055230Y0141397D01*
X0054302Y0142395D02*
X0059637Y0142395D01*
X0059658Y0143394D02*
X0054281Y0143394D01*
X0043979Y0149385D02*
X0043385Y0149385D01*
X0037940Y0144392D02*
X0031848Y0144392D01*
X0031848Y0143394D02*
X0038939Y0143394D01*
X0039459Y0142395D02*
X0031848Y0142395D01*
X0031848Y0141397D02*
X0039650Y0141397D01*
X0040379Y0140398D02*
X0031848Y0140398D01*
X0028448Y0140398D02*
X0022274Y0140398D01*
X0022274Y0139400D02*
X0028448Y0139400D01*
X0028448Y0138401D02*
X0022274Y0138401D01*
X0022274Y0137403D02*
X0028448Y0137403D01*
X0028448Y0136404D02*
X0022274Y0136404D01*
X0022274Y0135406D02*
X0028448Y0135406D01*
X0028448Y0134407D02*
X0022274Y0134407D01*
X0022274Y0133409D02*
X0028448Y0133409D01*
X0028448Y0132410D02*
X0022274Y0132410D01*
X0022274Y0131412D02*
X0028448Y0131412D01*
X0028448Y0130413D02*
X0022274Y0130413D01*
X0022274Y0129415D02*
X0028448Y0129415D01*
X0028448Y0128416D02*
X0022274Y0128416D01*
X0022274Y0127418D02*
X0028448Y0127418D01*
X0028448Y0126419D02*
X0022274Y0126419D01*
X0022274Y0125421D02*
X0028448Y0125421D01*
X0039226Y0130413D02*
X0062254Y0130413D01*
X0064008Y0128416D02*
X0064251Y0128416D01*
X0064144Y0127418D02*
X0065250Y0127418D01*
X0066248Y0126419D02*
X0063866Y0126419D01*
X0062941Y0125421D02*
X0067247Y0125421D01*
X0036942Y0145391D02*
X0031848Y0145391D01*
X0031848Y0146389D02*
X0035943Y0146389D01*
X0034945Y0147388D02*
X0031848Y0147388D01*
X0031848Y0148386D02*
X0033946Y0148386D01*
X0032948Y0149385D02*
X0032302Y0149385D01*
X0028448Y0148386D02*
X0002696Y0148386D01*
X0002589Y0149385D02*
X0027995Y0149385D01*
X0027648Y0150383D02*
X0002589Y0150383D01*
X0002589Y0151382D02*
X0027717Y0151382D01*
X0028274Y0152380D02*
X0002589Y0152380D01*
X0002589Y0153379D02*
X0028954Y0153379D01*
X0027955Y0154377D02*
X0002589Y0154377D01*
X0002589Y0155376D02*
X0026957Y0155376D01*
X0025958Y0156374D02*
X0002589Y0156374D01*
X0002589Y0157373D02*
X0022991Y0157373D01*
X0021993Y0158371D02*
X0018349Y0158371D01*
X0019347Y0159370D02*
X0020994Y0159370D01*
X0014074Y0158371D02*
X0002589Y0158371D01*
X0002589Y0159370D02*
X0013076Y0159370D01*
X0012077Y0160368D02*
X0002589Y0160368D01*
X0002589Y0161367D02*
X0011411Y0161367D01*
X0011411Y0162365D02*
X0002589Y0162365D01*
X0002589Y0163364D02*
X0011411Y0163364D01*
X0011411Y0164362D02*
X0002589Y0164362D01*
X0002589Y0165361D02*
X0011762Y0165361D01*
X0012760Y0166359D02*
X0002589Y0166359D01*
X0002589Y0167358D02*
X0013759Y0167358D01*
X0015089Y0168357D02*
X0002589Y0168357D01*
X0002589Y0169355D02*
X0014091Y0169355D01*
X0013092Y0170354D02*
X0002589Y0170354D01*
X0002589Y0171352D02*
X0012411Y0171352D01*
X0010474Y0172351D02*
X0002589Y0172351D01*
X0002589Y0173349D02*
X0010048Y0173349D01*
X0010048Y0174348D02*
X0002589Y0174348D01*
X0002589Y0175346D02*
X0010048Y0175346D01*
X0010048Y0176345D02*
X0002589Y0176345D01*
X0002589Y0177343D02*
X0010048Y0177343D01*
X0010048Y0178342D02*
X0002589Y0178342D01*
X0002589Y0179340D02*
X0010048Y0179340D01*
X0010048Y0180339D02*
X0002589Y0180339D01*
X0002589Y0181337D02*
X0010048Y0181337D01*
X0010048Y0182336D02*
X0002589Y0182336D01*
X0002589Y0183334D02*
X0010048Y0183334D01*
X0010048Y0184333D02*
X0002589Y0184333D01*
X0002589Y0185331D02*
X0010048Y0185331D01*
X0010629Y0186330D02*
X0002589Y0186330D01*
X0002589Y0187328D02*
X0011628Y0187328D01*
X0012626Y0188327D02*
X0002589Y0188327D01*
X0002589Y0189325D02*
X0013625Y0189325D01*
X0014623Y0190324D02*
X0002589Y0190324D01*
X0002589Y0191322D02*
X0015622Y0191322D01*
X0016620Y0192321D02*
X0002589Y0192321D01*
X0002589Y0193319D02*
X0017619Y0193319D01*
X0018617Y0194318D02*
X0002589Y0194318D01*
X0002589Y0195316D02*
X0019616Y0195316D01*
X0020027Y0196315D02*
X0020614Y0196315D01*
X0026204Y0200309D02*
X0031242Y0200309D01*
X0031242Y0201307D02*
X0026780Y0201307D01*
X0027357Y0202306D02*
X0031242Y0202306D01*
X0031242Y0203304D02*
X0027933Y0203304D01*
X0028369Y0204303D02*
X0031242Y0204303D01*
X0031242Y0205301D02*
X0028545Y0205301D01*
X0028721Y0206300D02*
X0031242Y0206300D01*
X0031587Y0207298D02*
X0028897Y0207298D01*
X0029073Y0208297D02*
X0038078Y0208297D01*
X0037323Y0208998D02*
X0039842Y0211517D01*
X0039842Y0215079D01*
X0037323Y0217598D01*
X0033761Y0217598D01*
X0031242Y0215079D01*
X0031242Y0211517D01*
X0033761Y0208998D01*
X0037323Y0208998D01*
X0037621Y0209295D02*
X0039076Y0209295D01*
X0038619Y0210294D02*
X0042465Y0210294D01*
X0041467Y0211292D02*
X0039618Y0211292D01*
X0039842Y0212291D02*
X0041242Y0212291D01*
X0041242Y0213290D02*
X0039842Y0213290D01*
X0039842Y0214288D02*
X0041242Y0214288D01*
X0041450Y0215287D02*
X0039635Y0215287D01*
X0038636Y0216285D02*
X0042448Y0216285D01*
X0043447Y0217284D02*
X0037638Y0217284D01*
X0033447Y0217284D02*
X0025125Y0217284D01*
X0026205Y0216285D02*
X0032448Y0216285D01*
X0031450Y0215287D02*
X0026781Y0215287D01*
X0027358Y0214288D02*
X0031242Y0214288D01*
X0031242Y0213290D02*
X0027934Y0213290D01*
X0028370Y0212291D02*
X0031242Y0212291D01*
X0031467Y0211292D02*
X0028546Y0211292D01*
X0028722Y0210294D02*
X0032465Y0210294D01*
X0033464Y0209295D02*
X0028898Y0209295D01*
X0023935Y0218282D02*
X0121882Y0218282D01*
X0122880Y0219281D02*
X0022745Y0219281D01*
X0020033Y0220279D02*
X0241051Y0220279D01*
X0242509Y0220810D02*
X0238363Y0219301D01*
X0234983Y0216464D01*
X0232777Y0212643D01*
X0232011Y0208298D01*
X0232777Y0203953D01*
X0234983Y0200132D01*
X0238363Y0197295D01*
X0242509Y0195786D01*
X0246922Y0195786D01*
X0251068Y0197295D01*
X0254448Y0200132D01*
X0256654Y0203953D01*
X0257420Y0208298D01*
X0256654Y0212643D01*
X0254448Y0216464D01*
X0251068Y0219301D01*
X0246922Y0220810D01*
X0242509Y0220810D01*
X0238339Y0219281D02*
X0229739Y0219281D01*
X0231869Y0218282D02*
X0237149Y0218282D01*
X0235959Y0217284D02*
X0232401Y0217284D01*
X0232452Y0216285D02*
X0234879Y0216285D01*
X0234303Y0215287D02*
X0232087Y0215287D01*
X0230863Y0214288D02*
X0233726Y0214288D01*
X0233150Y0213290D02*
X0231352Y0213290D01*
X0231352Y0212291D02*
X0232715Y0212291D01*
X0232539Y0211292D02*
X0231352Y0211292D01*
X0231352Y0210294D02*
X0232363Y0210294D01*
X0232187Y0209295D02*
X0231352Y0209295D01*
X0231352Y0208297D02*
X0232011Y0208297D01*
X0232187Y0207298D02*
X0231352Y0207298D01*
X0231352Y0206300D02*
X0232363Y0206300D01*
X0232539Y0205301D02*
X0231352Y0205301D01*
X0231352Y0204303D02*
X0232715Y0204303D01*
X0233151Y0203304D02*
X0231352Y0203304D01*
X0231352Y0202306D02*
X0233728Y0202306D01*
X0234304Y0201307D02*
X0231352Y0201307D01*
X0231352Y0200309D02*
X0234881Y0200309D01*
X0235962Y0199310D02*
X0230818Y0199310D01*
X0229819Y0198312D02*
X0237152Y0198312D01*
X0238342Y0197313D02*
X0228821Y0197313D01*
X0227822Y0196315D02*
X0241057Y0196315D01*
X0248374Y0196315D02*
X0258495Y0196315D01*
X0258495Y0197313D02*
X0251089Y0197313D01*
X0252279Y0198312D02*
X0258495Y0198312D01*
X0258495Y0199310D02*
X0253469Y0199310D01*
X0254550Y0200309D02*
X0258495Y0200309D01*
X0258495Y0201307D02*
X0255127Y0201307D01*
X0255703Y0202306D02*
X0258495Y0202306D01*
X0258495Y0203304D02*
X0256280Y0203304D01*
X0256716Y0204303D02*
X0258495Y0204303D01*
X0258495Y0205301D02*
X0256892Y0205301D01*
X0257068Y0206300D02*
X0258495Y0206300D01*
X0258495Y0207298D02*
X0257244Y0207298D01*
X0257420Y0208297D02*
X0258495Y0208297D01*
X0258495Y0209295D02*
X0257244Y0209295D01*
X0257068Y0210294D02*
X0258493Y0210294D01*
X0258422Y0211292D02*
X0256892Y0211292D01*
X0256716Y0212291D02*
X0258300Y0212291D01*
X0258083Y0213290D02*
X0256281Y0213290D01*
X0255704Y0214288D02*
X0257758Y0214288D01*
X0257366Y0215287D02*
X0255128Y0215287D01*
X0254551Y0216285D02*
X0256820Y0216285D01*
X0256147Y0217284D02*
X0253472Y0217284D01*
X0252282Y0218282D02*
X0255329Y0218282D01*
X0254301Y0219281D02*
X0251092Y0219281D01*
X0250873Y0221278D02*
X0010211Y0221278D01*
X0009993Y0219281D02*
X0006783Y0219281D01*
X0005755Y0218282D02*
X0008803Y0218282D01*
X0007613Y0217284D02*
X0004937Y0217284D01*
X0004264Y0216285D02*
X0006533Y0216285D01*
X0005956Y0215287D02*
X0003719Y0215287D01*
X0003327Y0214288D02*
X0005380Y0214288D01*
X0004803Y0213290D02*
X0003002Y0213290D01*
X0002784Y0212291D02*
X0004368Y0212291D01*
X0004192Y0211292D02*
X0002663Y0211292D01*
X0002591Y0210294D02*
X0004016Y0210294D01*
X0003840Y0209295D02*
X0002589Y0209295D01*
X0002589Y0208297D02*
X0003664Y0208297D01*
X0003840Y0207298D02*
X0002589Y0207298D01*
X0002589Y0206300D02*
X0004016Y0206300D01*
X0004193Y0205301D02*
X0002589Y0205301D01*
X0002589Y0204303D02*
X0004369Y0204303D01*
X0004805Y0203304D02*
X0002589Y0203304D01*
X0002589Y0202306D02*
X0005381Y0202306D01*
X0005958Y0201307D02*
X0002589Y0201307D01*
X0002589Y0200309D02*
X0006534Y0200309D01*
X0007615Y0199310D02*
X0002589Y0199310D01*
X0002589Y0198312D02*
X0008805Y0198312D01*
X0009995Y0197313D02*
X0002589Y0197313D01*
X0002589Y0196315D02*
X0012711Y0196315D01*
X0019260Y0187328D02*
X0023729Y0187328D01*
X0022730Y0186330D02*
X0020258Y0186330D01*
X0021257Y0185331D02*
X0021732Y0185331D01*
X0021411Y0184333D02*
X0021411Y0184333D01*
X0021411Y0183824D02*
X0021411Y0183824D01*
X0020874Y0179340D02*
X0019883Y0179340D01*
X0014744Y0177343D02*
X0012848Y0177343D01*
X0012848Y0176345D02*
X0013745Y0176345D01*
X0013538Y0178342D02*
X0012848Y0178342D01*
X0019334Y0168357D02*
X0019890Y0168357D01*
X0019890Y0167358D02*
X0018664Y0167358D01*
X0019663Y0166359D02*
X0019890Y0166359D01*
X0029663Y0166359D02*
X0031721Y0166359D01*
X0032720Y0165361D02*
X0030661Y0165361D01*
X0031011Y0164362D02*
X0033718Y0164362D01*
X0034717Y0163364D02*
X0031011Y0163364D01*
X0031011Y0162365D02*
X0035715Y0162365D01*
X0036507Y0161367D02*
X0031011Y0161367D01*
X0030845Y0160368D02*
X0036585Y0160368D01*
X0040858Y0159370D02*
X0046506Y0159370D01*
X0050209Y0159370D02*
X0065698Y0159370D01*
X0057373Y0170328D02*
X0057366Y0170344D01*
X0056663Y0171047D01*
X0055832Y0171391D01*
X0056382Y0171941D01*
X0056389Y0171957D01*
X0152378Y0171957D01*
X0152258Y0171667D01*
X0152258Y0170126D01*
X0152848Y0168702D01*
X0153190Y0168359D01*
X0129154Y0168359D01*
X0128005Y0169508D01*
X0127185Y0170328D01*
X0057373Y0170328D01*
X0057357Y0170354D02*
X0152258Y0170354D01*
X0152258Y0171352D02*
X0055927Y0171352D01*
X0053137Y0170354D02*
X0049726Y0170354D01*
X0049565Y0169355D02*
X0052747Y0169355D01*
X0052778Y0168357D02*
X0049565Y0168357D01*
X0050725Y0171352D02*
X0052732Y0171352D01*
X0051974Y0172351D02*
X0051723Y0172351D01*
X0047401Y0163364D02*
X0039963Y0163364D01*
X0028448Y0147388D02*
X0003064Y0147388D01*
X0003833Y0146389D02*
X0028448Y0146389D01*
X0028448Y0145391D02*
X0005749Y0145391D01*
X0020857Y0144392D02*
X0028448Y0144392D01*
X0028448Y0143394D02*
X0021708Y0143394D01*
X0022123Y0142395D02*
X0028448Y0142395D01*
X0028448Y0141397D02*
X0022272Y0141397D01*
X0031848Y0095465D02*
X0059290Y0095465D01*
X0059144Y0094467D02*
X0031848Y0094467D01*
X0031848Y0093468D02*
X0059414Y0093468D01*
X0060296Y0092470D02*
X0031848Y0092470D01*
X0031848Y0091471D02*
X0062810Y0091471D01*
X0063809Y0090473D02*
X0031848Y0090473D01*
X0031848Y0089474D02*
X0064807Y0089474D01*
X0065806Y0088476D02*
X0031848Y0088476D01*
X0036569Y0078490D02*
X0023808Y0078490D01*
X0022810Y0077492D02*
X0035765Y0077492D01*
X0035522Y0076493D02*
X0021811Y0076493D01*
X0019828Y0075495D02*
X0035695Y0075495D01*
X0036399Y0074496D02*
X0018830Y0074496D01*
X0016018Y0076493D02*
X0003176Y0076493D01*
X0002749Y0075495D02*
X0015020Y0075495D01*
X0014021Y0074496D02*
X0002594Y0074496D01*
X0002589Y0073498D02*
X0011892Y0073498D01*
X0011418Y0072499D02*
X0002589Y0072499D01*
X0002589Y0071501D02*
X0011408Y0071501D01*
X0011849Y0070502D02*
X0002589Y0070502D01*
X0004048Y0077492D02*
X0017017Y0077492D01*
X0064773Y0093468D02*
X0074738Y0093468D01*
X0074400Y0092470D02*
X0065772Y0092470D01*
X0066770Y0091471D02*
X0074478Y0091471D01*
X0107505Y0128005D02*
X0108660Y0128483D01*
X0110010Y0129833D01*
X0110741Y0131598D01*
X0110741Y0133507D01*
X0110010Y0135271D01*
X0109249Y0136032D01*
X0117167Y0136032D01*
X0119337Y0133862D01*
X0119337Y0128005D01*
X0107505Y0128005D01*
X0108498Y0128416D02*
X0119337Y0128416D01*
X0119337Y0129415D02*
X0109591Y0129415D01*
X0110250Y0130413D02*
X0119337Y0130413D01*
X0119337Y0131412D02*
X0110663Y0131412D01*
X0110741Y0132410D02*
X0119337Y0132410D01*
X0119337Y0133409D02*
X0110741Y0133409D01*
X0110368Y0134407D02*
X0118792Y0134407D01*
X0117793Y0135406D02*
X0109875Y0135406D01*
X0128937Y0128416D02*
X0140216Y0128416D01*
X0128074Y0154377D02*
X0166177Y0154377D01*
X0167175Y0155376D02*
X0155879Y0155376D01*
X0156878Y0156374D02*
X0168174Y0156374D01*
X0169173Y0157373D02*
X0157876Y0157373D01*
X0158875Y0158371D02*
X0170171Y0158371D01*
X0170700Y0159370D02*
X0171170Y0159370D01*
X0171699Y0160368D02*
X0172168Y0160368D01*
X0172697Y0161367D02*
X0179738Y0161367D01*
X0179468Y0162365D02*
X0175232Y0162365D01*
X0176085Y0163364D02*
X0179418Y0163364D01*
X0179632Y0164362D02*
X0176349Y0164362D01*
X0176198Y0165361D02*
X0180107Y0165361D01*
X0187132Y0165559D02*
X0187348Y0165263D01*
X0187653Y0164663D01*
X0187861Y0164023D01*
X0187897Y0163795D01*
X0217233Y0193130D01*
X0217233Y0198998D01*
X0213761Y0198998D01*
X0213521Y0199238D01*
X0207730Y0193446D01*
X0206909Y0192626D01*
X0088517Y0192626D01*
X0088751Y0192063D01*
X0088751Y0191068D01*
X0088744Y0191052D01*
X0090768Y0189029D01*
X0152258Y0189029D01*
X0152258Y0189875D01*
X0152902Y0190519D01*
X0159363Y0190519D01*
X0160007Y0189875D01*
X0160007Y0183414D01*
X0159363Y0182770D01*
X0152902Y0182770D01*
X0152258Y0183414D01*
X0152258Y0186229D01*
X0127288Y0186229D01*
X0127422Y0186095D01*
X0127903Y0185433D01*
X0128275Y0184704D01*
X0128527Y0183925D01*
X0128641Y0183207D01*
X0123956Y0183207D01*
X0123956Y0182207D01*
X0128641Y0182207D01*
X0128527Y0181490D01*
X0128275Y0180711D01*
X0127903Y0179982D01*
X0127422Y0179320D01*
X0126843Y0178741D01*
X0126181Y0178260D01*
X0125452Y0177888D01*
X0124673Y0177636D01*
X0123955Y0177522D01*
X0123955Y0182207D01*
X0122956Y0182207D01*
X0122956Y0177522D01*
X0122238Y0177636D01*
X0121459Y0177888D01*
X0120730Y0178260D01*
X0120068Y0178741D01*
X0119489Y0179320D01*
X0119008Y0179982D01*
X0118636Y0180711D01*
X0118455Y0181268D01*
X0118275Y0180711D01*
X0117903Y0179982D01*
X0117422Y0179320D01*
X0116843Y0178741D01*
X0116181Y0178260D01*
X0115452Y0177888D01*
X0114673Y0177636D01*
X0113955Y0177522D01*
X0113955Y0182207D01*
X0112956Y0182207D01*
X0112956Y0177522D01*
X0112238Y0177636D01*
X0111459Y0177888D01*
X0110730Y0178260D01*
X0110068Y0178741D01*
X0109489Y0179320D01*
X0109008Y0179982D01*
X0108636Y0180711D01*
X0108384Y0181490D01*
X0108270Y0182207D01*
X0112955Y0182207D01*
X0112955Y0183207D01*
X0108270Y0183207D01*
X0108384Y0183925D01*
X0108636Y0184704D01*
X0109008Y0185433D01*
X0109489Y0186095D01*
X0109623Y0186229D01*
X0106722Y0186229D01*
X0107525Y0185426D01*
X0108255Y0183662D01*
X0108255Y0181753D01*
X0107525Y0179988D01*
X0106174Y0178638D01*
X0104410Y0177907D01*
X0102501Y0177907D01*
X0101148Y0178468D01*
X0099762Y0177082D01*
X0098913Y0176233D01*
X0151616Y0176233D01*
X0152587Y0177205D01*
X0152258Y0178000D01*
X0152258Y0179541D01*
X0152848Y0180965D01*
X0153938Y0182055D01*
X0155362Y0182645D01*
X0156903Y0182645D01*
X0158328Y0182055D01*
X0159418Y0180965D01*
X0160007Y0179541D01*
X0160007Y0178000D01*
X0159418Y0176576D01*
X0159075Y0176233D01*
X0171301Y0176233D01*
X0179817Y0184750D01*
X0179817Y0189875D01*
X0180461Y0190519D01*
X0186922Y0190519D01*
X0187567Y0189875D01*
X0187567Y0183414D01*
X0186922Y0182770D01*
X0181797Y0182770D01*
X0173281Y0174254D01*
X0172461Y0173433D01*
X0159075Y0173433D01*
X0159418Y0173091D01*
X0159747Y0172296D01*
X0180078Y0172296D01*
X0180407Y0173091D01*
X0181497Y0174181D01*
X0182921Y0174771D01*
X0184462Y0174771D01*
X0185887Y0174181D01*
X0186229Y0173839D01*
X0186229Y0174254D01*
X0185257Y0175225D01*
X0184462Y0174896D01*
X0182921Y0174896D01*
X0181497Y0175486D01*
X0180407Y0176576D01*
X0179817Y0178000D01*
X0179817Y0179541D01*
X0180407Y0180965D01*
X0181497Y0182055D01*
X0182921Y0182645D01*
X0184462Y0182645D01*
X0185887Y0182055D01*
X0186977Y0180965D01*
X0187567Y0179541D01*
X0187567Y0178000D01*
X0187237Y0177205D01*
X0189029Y0175413D01*
X0189029Y0166380D01*
X0188209Y0165559D01*
X0187132Y0165559D01*
X0187277Y0165361D02*
X0189464Y0165361D01*
X0189009Y0166359D02*
X0190462Y0166359D01*
X0191461Y0167358D02*
X0189029Y0167358D01*
X0189029Y0168357D02*
X0192459Y0168357D01*
X0193458Y0169355D02*
X0189029Y0169355D01*
X0189029Y0170354D02*
X0194456Y0170354D01*
X0195455Y0171352D02*
X0189029Y0171352D01*
X0189029Y0172351D02*
X0196453Y0172351D01*
X0197452Y0173349D02*
X0189029Y0173349D01*
X0189029Y0174348D02*
X0198450Y0174348D01*
X0199449Y0175346D02*
X0189029Y0175346D01*
X0188097Y0176345D02*
X0200447Y0176345D01*
X0201446Y0177343D02*
X0187295Y0177343D01*
X0187567Y0178342D02*
X0202444Y0178342D01*
X0203443Y0179340D02*
X0187567Y0179340D01*
X0187236Y0180339D02*
X0204441Y0180339D01*
X0205440Y0181337D02*
X0186605Y0181337D01*
X0185210Y0182336D02*
X0206438Y0182336D01*
X0207437Y0183334D02*
X0187487Y0183334D01*
X0187567Y0184333D02*
X0208435Y0184333D01*
X0209434Y0185331D02*
X0187567Y0185331D01*
X0187567Y0186330D02*
X0210432Y0186330D01*
X0211431Y0187328D02*
X0187567Y0187328D01*
X0187567Y0188327D02*
X0212430Y0188327D01*
X0213428Y0189325D02*
X0187567Y0189325D01*
X0187118Y0190324D02*
X0214427Y0190324D01*
X0215425Y0191322D02*
X0088751Y0191322D01*
X0088644Y0192321D02*
X0216424Y0192321D01*
X0217233Y0193319D02*
X0207602Y0193319D01*
X0208601Y0194318D02*
X0217233Y0194318D01*
X0217233Y0195316D02*
X0209599Y0195316D01*
X0210598Y0196315D02*
X0217233Y0196315D01*
X0217233Y0197313D02*
X0211596Y0197313D01*
X0212595Y0198312D02*
X0217233Y0198312D01*
X0223828Y0192321D02*
X0258495Y0192321D01*
X0258495Y0193319D02*
X0224827Y0193319D01*
X0225825Y0194318D02*
X0258495Y0194318D01*
X0258495Y0195316D02*
X0226824Y0195316D01*
X0248379Y0220279D02*
X0252929Y0220279D01*
X0188465Y0164362D02*
X0187751Y0164362D01*
X0186135Y0174348D02*
X0185485Y0174348D01*
X0181898Y0174348D02*
X0173375Y0174348D01*
X0174373Y0175346D02*
X0181834Y0175346D01*
X0180638Y0176345D02*
X0175372Y0176345D01*
X0176370Y0177343D02*
X0180089Y0177343D01*
X0179817Y0178342D02*
X0177369Y0178342D01*
X0178367Y0179340D02*
X0179817Y0179340D01*
X0180147Y0180339D02*
X0179366Y0180339D01*
X0180364Y0181337D02*
X0180779Y0181337D01*
X0181363Y0182336D02*
X0182174Y0182336D01*
X0179400Y0184333D02*
X0160007Y0184333D01*
X0160007Y0185331D02*
X0179817Y0185331D01*
X0179817Y0186330D02*
X0160007Y0186330D01*
X0160007Y0187328D02*
X0179817Y0187328D01*
X0179817Y0188327D02*
X0160007Y0188327D01*
X0160007Y0189325D02*
X0179817Y0189325D01*
X0180266Y0190324D02*
X0159559Y0190324D01*
X0152707Y0190324D02*
X0089473Y0190324D01*
X0090471Y0189325D02*
X0152258Y0189325D01*
X0152258Y0185331D02*
X0127955Y0185331D01*
X0128395Y0184333D02*
X0152258Y0184333D01*
X0152338Y0183334D02*
X0128621Y0183334D01*
X0128478Y0181337D02*
X0153220Y0181337D01*
X0152588Y0180339D02*
X0128085Y0180339D01*
X0127437Y0179340D02*
X0152258Y0179340D01*
X0152258Y0178342D02*
X0126293Y0178342D01*
X0123955Y0178342D02*
X0122956Y0178342D01*
X0122956Y0179340D02*
X0123955Y0179340D01*
X0123955Y0180339D02*
X0122956Y0180339D01*
X0122956Y0181337D02*
X0123955Y0181337D01*
X0123956Y0182336D02*
X0154614Y0182336D01*
X0157651Y0182336D02*
X0177403Y0182336D01*
X0178402Y0183334D02*
X0159928Y0183334D01*
X0159046Y0181337D02*
X0176405Y0181337D01*
X0175406Y0180339D02*
X0159677Y0180339D01*
X0160007Y0179340D02*
X0174407Y0179340D01*
X0173409Y0178342D02*
X0160007Y0178342D01*
X0159735Y0177343D02*
X0172410Y0177343D01*
X0171412Y0176345D02*
X0159187Y0176345D01*
X0159160Y0173349D02*
X0180665Y0173349D01*
X0180100Y0172351D02*
X0159724Y0172351D01*
X0159573Y0165559D02*
X0171583Y0165559D01*
X0171349Y0164996D01*
X0171349Y0164002D01*
X0171356Y0163985D01*
X0168840Y0161470D01*
X0160123Y0161470D01*
X0160302Y0162021D01*
X0160407Y0162686D01*
X0160407Y0162735D01*
X0156420Y0162735D01*
X0156420Y0163310D01*
X0160407Y0163310D01*
X0160407Y0163359D01*
X0160302Y0164023D01*
X0160094Y0164663D01*
X0159789Y0165263D01*
X0159573Y0165559D01*
X0159718Y0165361D02*
X0171500Y0165361D01*
X0171349Y0164362D02*
X0160192Y0164362D01*
X0160407Y0163364D02*
X0170734Y0163364D01*
X0169736Y0162365D02*
X0160357Y0162365D01*
X0155845Y0162735D02*
X0151858Y0162735D01*
X0151858Y0162686D01*
X0151963Y0162021D01*
X0152171Y0161381D01*
X0152477Y0160782D01*
X0152872Y0160238D01*
X0153348Y0159762D01*
X0153892Y0159366D01*
X0154492Y0159061D01*
X0155132Y0158853D01*
X0155360Y0158817D01*
X0154076Y0157533D01*
X0150241Y0157533D01*
X0150378Y0157669D01*
X0150759Y0158588D01*
X0150759Y0159583D01*
X0150378Y0160502D01*
X0149675Y0161205D01*
X0148756Y0161585D01*
X0147761Y0161585D01*
X0147745Y0161579D01*
X0143765Y0165559D01*
X0152692Y0165559D01*
X0152477Y0165263D01*
X0152171Y0164663D01*
X0151963Y0164023D01*
X0151858Y0163359D01*
X0151858Y0163310D01*
X0155845Y0163310D01*
X0155845Y0162735D01*
X0152777Y0160368D02*
X0150433Y0160368D01*
X0150759Y0159370D02*
X0153887Y0159370D01*
X0154915Y0158371D02*
X0150669Y0158371D01*
X0149283Y0161367D02*
X0152178Y0161367D01*
X0151909Y0162365D02*
X0146959Y0162365D01*
X0145960Y0163364D02*
X0151859Y0163364D01*
X0152073Y0164362D02*
X0144962Y0164362D01*
X0143963Y0165361D02*
X0152548Y0165361D01*
X0152577Y0169355D02*
X0128158Y0169355D01*
X0120618Y0178342D02*
X0116293Y0178342D01*
X0117437Y0179340D02*
X0119474Y0179340D01*
X0118826Y0180339D02*
X0118085Y0180339D01*
X0118270Y0182207D02*
X0122955Y0182207D01*
X0122955Y0183207D01*
X0113956Y0183207D01*
X0113956Y0182207D01*
X0118270Y0182207D01*
X0113956Y0182336D02*
X0122955Y0182336D01*
X0113955Y0181337D02*
X0112956Y0181337D01*
X0112956Y0180339D02*
X0113955Y0180339D01*
X0113955Y0179340D02*
X0112956Y0179340D01*
X0112956Y0178342D02*
X0113955Y0178342D01*
X0110618Y0178342D02*
X0105458Y0178342D01*
X0106876Y0179340D02*
X0109474Y0179340D01*
X0108826Y0180339D02*
X0107670Y0180339D01*
X0108083Y0181337D02*
X0108433Y0181337D01*
X0108255Y0182336D02*
X0112955Y0182336D01*
X0108290Y0183334D02*
X0108255Y0183334D01*
X0108516Y0184333D02*
X0107978Y0184333D01*
X0107564Y0185331D02*
X0108956Y0185331D01*
X0101453Y0178342D02*
X0101021Y0178342D01*
X0100023Y0177343D02*
X0152530Y0177343D01*
X0151727Y0176345D02*
X0099024Y0176345D01*
X0081462Y0198312D02*
X0078737Y0198312D01*
X0080242Y0201824D02*
X0080242Y0202798D01*
X0076042Y0202798D01*
X0076042Y0203798D01*
X0080242Y0203798D01*
X0080242Y0205245D01*
X0079381Y0206106D01*
X0082269Y0206106D01*
X0081242Y0205079D01*
X0081242Y0201824D01*
X0080242Y0201824D01*
X0080242Y0202306D02*
X0081242Y0202306D01*
X0081242Y0203304D02*
X0076042Y0203304D01*
X0075042Y0203304D02*
X0069842Y0203304D01*
X0069842Y0202306D02*
X0070842Y0202306D01*
X0070842Y0202798D02*
X0070842Y0201351D01*
X0072830Y0199363D01*
X0067689Y0199363D01*
X0069842Y0201517D01*
X0069842Y0205079D01*
X0068815Y0206106D01*
X0071703Y0206106D01*
X0070842Y0205245D01*
X0070842Y0203798D01*
X0075042Y0203798D01*
X0075042Y0202798D01*
X0070842Y0202798D01*
X0070886Y0201307D02*
X0069633Y0201307D01*
X0068634Y0200309D02*
X0071884Y0200309D01*
X0070842Y0204303D02*
X0069842Y0204303D01*
X0069620Y0205301D02*
X0070899Y0205301D01*
X0072465Y0210294D02*
X0068619Y0210294D01*
X0069618Y0211292D02*
X0071467Y0211292D01*
X0071242Y0212291D02*
X0069842Y0212291D01*
X0069842Y0213290D02*
X0071242Y0213290D01*
X0071242Y0214288D02*
X0069842Y0214288D01*
X0069635Y0215287D02*
X0071450Y0215287D01*
X0072448Y0216285D02*
X0068636Y0216285D01*
X0067638Y0217284D02*
X0073447Y0217284D01*
X0077638Y0217284D02*
X0083447Y0217284D01*
X0082448Y0216285D02*
X0078636Y0216285D01*
X0079635Y0215287D02*
X0081450Y0215287D01*
X0081242Y0214288D02*
X0079842Y0214288D01*
X0079842Y0213290D02*
X0081242Y0213290D01*
X0081242Y0212291D02*
X0079842Y0212291D01*
X0079618Y0211292D02*
X0081467Y0211292D01*
X0082465Y0210294D02*
X0078619Y0210294D01*
X0080186Y0205301D02*
X0081464Y0205301D01*
X0081242Y0204303D02*
X0080242Y0204303D01*
X0088619Y0210294D02*
X0091899Y0210294D01*
X0090901Y0211292D02*
X0089618Y0211292D01*
X0089842Y0212291D02*
X0090842Y0212291D01*
X0089842Y0213290D02*
X0095042Y0213290D01*
X0095042Y0213798D02*
X0090842Y0213798D01*
X0090842Y0215245D01*
X0093595Y0217998D01*
X0095042Y0217998D01*
X0095042Y0213798D01*
X0095042Y0214288D02*
X0096042Y0214288D01*
X0096042Y0213798D02*
X0096042Y0217998D01*
X0097489Y0217998D01*
X0100242Y0215245D01*
X0100242Y0213798D01*
X0096042Y0213798D01*
X0096042Y0213290D02*
X0101242Y0213290D01*
X0101242Y0214288D02*
X0100242Y0214288D01*
X0100200Y0215287D02*
X0101450Y0215287D01*
X0102448Y0216285D02*
X0099202Y0216285D01*
X0098203Y0217284D02*
X0103447Y0217284D01*
X0107638Y0217284D02*
X0113447Y0217284D01*
X0112448Y0216285D02*
X0108636Y0216285D01*
X0109635Y0215287D02*
X0111450Y0215287D01*
X0111242Y0214288D02*
X0109842Y0214288D01*
X0109842Y0213290D02*
X0111242Y0213290D01*
X0111242Y0212291D02*
X0109842Y0212291D01*
X0109618Y0211292D02*
X0111467Y0211292D01*
X0112465Y0210294D02*
X0108619Y0210294D01*
X0102465Y0210294D02*
X0099185Y0210294D01*
X0100183Y0211292D02*
X0101467Y0211292D01*
X0101242Y0212291D02*
X0100242Y0212291D01*
X0096042Y0215287D02*
X0095042Y0215287D01*
X0095042Y0216285D02*
X0096042Y0216285D01*
X0096042Y0217284D02*
X0095042Y0217284D01*
X0092881Y0217284D02*
X0087638Y0217284D01*
X0088636Y0216285D02*
X0091882Y0216285D01*
X0090884Y0215287D02*
X0089635Y0215287D01*
X0089842Y0214288D02*
X0090842Y0214288D01*
X0063447Y0217284D02*
X0058203Y0217284D01*
X0057489Y0217998D02*
X0056042Y0217998D01*
X0056042Y0213798D01*
X0060242Y0213798D01*
X0060242Y0215245D01*
X0057489Y0217998D01*
X0056042Y0217284D02*
X0055042Y0217284D01*
X0055042Y0217998D02*
X0053595Y0217998D01*
X0050842Y0215245D01*
X0050842Y0213798D01*
X0055042Y0213798D01*
X0055042Y0217998D01*
X0055042Y0216285D02*
X0056042Y0216285D01*
X0056042Y0215287D02*
X0055042Y0215287D01*
X0055042Y0214288D02*
X0056042Y0214288D01*
X0056042Y0213290D02*
X0061242Y0213290D01*
X0061242Y0214288D02*
X0060242Y0214288D01*
X0060200Y0215287D02*
X0061450Y0215287D01*
X0062448Y0216285D02*
X0059202Y0216285D01*
X0055042Y0213290D02*
X0049842Y0213290D01*
X0049842Y0214288D02*
X0050842Y0214288D01*
X0050884Y0215287D02*
X0049635Y0215287D01*
X0048636Y0216285D02*
X0051882Y0216285D01*
X0052881Y0217284D02*
X0047638Y0217284D01*
X0049842Y0212291D02*
X0050842Y0212291D01*
X0050901Y0211292D02*
X0049618Y0211292D01*
X0048619Y0210294D02*
X0051899Y0210294D01*
X0059185Y0210294D02*
X0062465Y0210294D01*
X0061467Y0211292D02*
X0060183Y0211292D01*
X0060242Y0212291D02*
X0061242Y0212291D01*
X0012705Y0220279D02*
X0008155Y0220279D01*
X0117638Y0217284D02*
X0120883Y0217284D01*
X0119885Y0216285D02*
X0118636Y0216285D01*
X0119503Y0215904D02*
X0119503Y0215904D01*
X0121907Y0210286D02*
X0123595Y0208598D01*
X0125042Y0208598D01*
X0125042Y0212798D01*
X0126042Y0212798D01*
X0126042Y0208598D01*
X0127489Y0208598D01*
X0130242Y0211351D01*
X0130242Y0212798D01*
X0126042Y0212798D01*
X0126042Y0213798D01*
X0130242Y0213798D01*
X0130242Y0215245D01*
X0129046Y0216441D01*
X0132604Y0216441D01*
X0131242Y0215079D01*
X0131242Y0211517D01*
X0133761Y0208998D01*
X0137323Y0208998D01*
X0139842Y0211517D01*
X0139842Y0215079D01*
X0138481Y0216441D01*
X0142604Y0216441D01*
X0141242Y0215079D01*
X0141242Y0211517D01*
X0143761Y0208998D01*
X0147323Y0208998D01*
X0149842Y0211517D01*
X0149842Y0215079D01*
X0148481Y0216441D01*
X0152604Y0216441D01*
X0151242Y0215079D01*
X0151242Y0211517D01*
X0153761Y0208998D01*
X0157323Y0208998D01*
X0159842Y0211517D01*
X0159842Y0215079D01*
X0158481Y0216441D01*
X0162604Y0216441D01*
X0161242Y0215079D01*
X0161242Y0211517D01*
X0163761Y0208998D01*
X0167323Y0208998D01*
X0169842Y0211517D01*
X0169842Y0215079D01*
X0168481Y0216441D01*
X0172038Y0216441D01*
X0170842Y0215245D01*
X0170842Y0213798D01*
X0175042Y0213798D01*
X0175042Y0212798D01*
X0170842Y0212798D01*
X0170842Y0211351D01*
X0172987Y0209206D01*
X0169824Y0209206D01*
X0169004Y0208386D01*
X0167770Y0207151D01*
X0167323Y0207598D01*
X0163761Y0207598D01*
X0161242Y0205079D01*
X0161242Y0201517D01*
X0162411Y0200348D01*
X0159238Y0200348D01*
X0160242Y0201351D01*
X0160242Y0202798D01*
X0156042Y0202798D01*
X0156042Y0203798D01*
X0155042Y0203798D01*
X0155042Y0202798D01*
X0150842Y0202798D01*
X0150842Y0201824D01*
X0149842Y0201824D01*
X0149842Y0205079D01*
X0147323Y0207598D01*
X0143761Y0207598D01*
X0141242Y0205079D01*
X0141242Y0201517D01*
X0142411Y0200348D01*
X0138673Y0200348D01*
X0139842Y0201517D01*
X0139842Y0205079D01*
X0137323Y0207598D01*
X0133761Y0207598D01*
X0131242Y0205079D01*
X0131242Y0201517D01*
X0132411Y0200348D01*
X0128673Y0200348D01*
X0129842Y0201517D01*
X0129842Y0205079D01*
X0127323Y0207598D01*
X0123761Y0207598D01*
X0121242Y0205079D01*
X0121242Y0201517D01*
X0122411Y0200348D01*
X0118673Y0200348D01*
X0119842Y0201517D01*
X0119842Y0205079D01*
X0118323Y0206598D01*
X0120912Y0206598D01*
X0121907Y0207594D01*
X0121907Y0210286D01*
X0121907Y0209295D02*
X0122898Y0209295D01*
X0121907Y0208297D02*
X0168916Y0208297D01*
X0167917Y0207298D02*
X0167623Y0207298D01*
X0167621Y0209295D02*
X0172898Y0209295D01*
X0171899Y0210294D02*
X0168619Y0210294D01*
X0169618Y0211292D02*
X0170901Y0211292D01*
X0170842Y0212291D02*
X0169842Y0212291D01*
X0169842Y0213290D02*
X0175042Y0213290D01*
X0176042Y0213290D02*
X0181242Y0213290D01*
X0181242Y0214288D02*
X0180242Y0214288D01*
X0180242Y0213798D02*
X0180242Y0215245D01*
X0179046Y0216441D01*
X0182604Y0216441D01*
X0181242Y0215079D01*
X0181242Y0211517D01*
X0183553Y0209206D01*
X0178097Y0209206D01*
X0180242Y0211351D01*
X0180242Y0212798D01*
X0176042Y0212798D01*
X0176042Y0213798D01*
X0180242Y0213798D01*
X0180200Y0215287D02*
X0181450Y0215287D01*
X0182448Y0216285D02*
X0179202Y0216285D01*
X0180242Y0212291D02*
X0181242Y0212291D01*
X0181467Y0211292D02*
X0180183Y0211292D01*
X0179185Y0210294D02*
X0182465Y0210294D01*
X0183464Y0209295D02*
X0178186Y0209295D01*
X0170842Y0214288D02*
X0169842Y0214288D01*
X0169635Y0215287D02*
X0170884Y0215287D01*
X0171882Y0216285D02*
X0168636Y0216285D01*
X0162448Y0216285D02*
X0158636Y0216285D01*
X0159635Y0215287D02*
X0161450Y0215287D01*
X0161242Y0214288D02*
X0159842Y0214288D01*
X0159842Y0213290D02*
X0161242Y0213290D01*
X0161242Y0212291D02*
X0159842Y0212291D01*
X0159618Y0211292D02*
X0161467Y0211292D01*
X0162465Y0210294D02*
X0158619Y0210294D01*
X0157621Y0209295D02*
X0163464Y0209295D01*
X0163461Y0207298D02*
X0158188Y0207298D01*
X0157489Y0207998D02*
X0156042Y0207998D01*
X0156042Y0203798D01*
X0160242Y0203798D01*
X0160242Y0205245D01*
X0157489Y0207998D01*
X0156042Y0207298D02*
X0155042Y0207298D01*
X0155042Y0207998D02*
X0153595Y0207998D01*
X0150842Y0205245D01*
X0150842Y0203798D01*
X0155042Y0203798D01*
X0155042Y0207998D01*
X0155042Y0206300D02*
X0156042Y0206300D01*
X0156042Y0205301D02*
X0155042Y0205301D01*
X0155042Y0204303D02*
X0156042Y0204303D01*
X0156042Y0203304D02*
X0161242Y0203304D01*
X0161242Y0202306D02*
X0160242Y0202306D01*
X0160198Y0201307D02*
X0161452Y0201307D01*
X0161242Y0204303D02*
X0160242Y0204303D01*
X0160186Y0205301D02*
X0161464Y0205301D01*
X0162463Y0206300D02*
X0159187Y0206300D01*
X0155042Y0203304D02*
X0149842Y0203304D01*
X0149842Y0202306D02*
X0150842Y0202306D01*
X0150842Y0204303D02*
X0149842Y0204303D01*
X0149620Y0205301D02*
X0150899Y0205301D01*
X0151897Y0206300D02*
X0148621Y0206300D01*
X0147623Y0207298D02*
X0152896Y0207298D01*
X0153464Y0209295D02*
X0147621Y0209295D01*
X0148619Y0210294D02*
X0152465Y0210294D01*
X0151467Y0211292D02*
X0149618Y0211292D01*
X0149842Y0212291D02*
X0151242Y0212291D01*
X0151242Y0213290D02*
X0149842Y0213290D01*
X0149842Y0214288D02*
X0151242Y0214288D01*
X0151450Y0215287D02*
X0149635Y0215287D01*
X0148636Y0216285D02*
X0152448Y0216285D01*
X0143464Y0209295D02*
X0137621Y0209295D01*
X0138619Y0210294D02*
X0142465Y0210294D01*
X0141467Y0211292D02*
X0139618Y0211292D01*
X0139842Y0212291D02*
X0141242Y0212291D01*
X0141242Y0213290D02*
X0139842Y0213290D01*
X0139842Y0214288D02*
X0141242Y0214288D01*
X0141450Y0215287D02*
X0139635Y0215287D01*
X0138636Y0216285D02*
X0142448Y0216285D01*
X0133464Y0209295D02*
X0128186Y0209295D01*
X0129185Y0210294D02*
X0132465Y0210294D01*
X0131467Y0211292D02*
X0130183Y0211292D01*
X0130242Y0212291D02*
X0131242Y0212291D01*
X0131242Y0213290D02*
X0126042Y0213290D01*
X0126042Y0212291D02*
X0125042Y0212291D01*
X0125042Y0211292D02*
X0126042Y0211292D01*
X0126042Y0210294D02*
X0125042Y0210294D01*
X0125042Y0209295D02*
X0126042Y0209295D01*
X0127623Y0207298D02*
X0133461Y0207298D01*
X0132463Y0206300D02*
X0128621Y0206300D01*
X0129620Y0205301D02*
X0131464Y0205301D01*
X0131242Y0204303D02*
X0129842Y0204303D01*
X0129842Y0203304D02*
X0131242Y0203304D01*
X0131242Y0202306D02*
X0129842Y0202306D01*
X0129633Y0201307D02*
X0131452Y0201307D01*
X0137623Y0207298D02*
X0143461Y0207298D01*
X0142463Y0206300D02*
X0138621Y0206300D01*
X0139620Y0205301D02*
X0141464Y0205301D01*
X0141242Y0204303D02*
X0139842Y0204303D01*
X0139842Y0203304D02*
X0141242Y0203304D01*
X0141242Y0202306D02*
X0139842Y0202306D01*
X0139633Y0201307D02*
X0141452Y0201307D01*
X0148619Y0198312D02*
X0151836Y0198312D01*
X0131242Y0214288D02*
X0130242Y0214288D01*
X0130200Y0215287D02*
X0131450Y0215287D01*
X0132448Y0216285D02*
X0129202Y0216285D01*
X0123461Y0207298D02*
X0121612Y0207298D01*
X0122463Y0206300D02*
X0118621Y0206300D01*
X0119620Y0205301D02*
X0121464Y0205301D01*
X0121242Y0204303D02*
X0119842Y0204303D01*
X0119842Y0203304D02*
X0121242Y0203304D01*
X0121242Y0202306D02*
X0119842Y0202306D01*
X0119633Y0201307D02*
X0121452Y0201307D01*
X0234492Y0077492D02*
X0235166Y0077492D01*
X0236058Y0076493D02*
X0233493Y0076493D01*
X0232495Y0075495D02*
X0237716Y0075495D01*
X0236549Y0074496D02*
X0231496Y0074496D01*
X0230498Y0073498D02*
X0234989Y0073498D01*
X0234137Y0072499D02*
X0229499Y0072499D01*
X0228500Y0071501D02*
X0233724Y0071501D01*
X0233510Y0070502D02*
X0227502Y0070502D01*
X0226503Y0069504D02*
X0233510Y0069504D01*
X0233746Y0068505D02*
X0225505Y0068505D01*
X0224506Y0067507D02*
X0234160Y0067507D01*
X0235044Y0066508D02*
X0223508Y0066508D01*
X0216732Y0054526D02*
X0216491Y0054526D01*
X0168444Y0016583D02*
X0167444Y0016583D01*
X0167444Y0016853D02*
X0167444Y0012653D01*
X0164546Y0012653D01*
X0164165Y0012755D01*
X0163823Y0012953D01*
X0163543Y0013232D01*
X0163346Y0013574D01*
X0163244Y0013956D01*
X0163244Y0016853D01*
X0167444Y0016853D01*
X0167444Y0015584D02*
X0168444Y0015584D01*
X0168444Y0014586D02*
X0167444Y0014586D01*
X0167444Y0013587D02*
X0168444Y0013587D01*
X0163342Y0013587D02*
X0162133Y0013587D01*
X0162244Y0014586D02*
X0163244Y0014586D01*
X0163244Y0015584D02*
X0162244Y0015584D01*
X0162244Y0016583D02*
X0163244Y0016583D01*
X0133052Y0012589D02*
X0124489Y0012589D01*
X0125752Y0013587D02*
X0131789Y0013587D01*
X0130962Y0014586D02*
X0126579Y0014586D01*
X0126993Y0015584D02*
X0130548Y0015584D01*
X0130260Y0016583D02*
X0127281Y0016583D01*
X0127281Y0017581D02*
X0130260Y0017581D01*
X0130323Y0018580D02*
X0127218Y0018580D01*
X0126804Y0019578D02*
X0130737Y0019578D01*
X0131247Y0020577D02*
X0126294Y0020577D01*
X0125295Y0021575D02*
X0132246Y0021575D01*
X0118466Y0021575D02*
X0099705Y0021575D01*
X0100703Y0020577D02*
X0117468Y0020577D01*
X0116957Y0019578D02*
X0101213Y0019578D01*
X0101627Y0018580D02*
X0116544Y0018580D01*
X0116481Y0017581D02*
X0101690Y0017581D01*
X0101690Y0016583D02*
X0116481Y0016583D01*
X0116768Y0015584D02*
X0101402Y0015584D01*
X0100989Y0014586D02*
X0117182Y0014586D01*
X0118010Y0013587D02*
X0100161Y0013587D01*
X0098899Y0012589D02*
X0119272Y0012589D01*
X0093682Y0012589D02*
X0085119Y0012589D01*
X0086381Y0013587D02*
X0092419Y0013587D01*
X0091592Y0014586D02*
X0087209Y0014586D01*
X0087623Y0015584D02*
X0091178Y0015584D01*
X0090890Y0016583D02*
X0087911Y0016583D01*
X0087911Y0017581D02*
X0090890Y0017581D01*
X0090953Y0018580D02*
X0087847Y0018580D01*
X0087434Y0019578D02*
X0091367Y0019578D01*
X0091877Y0020577D02*
X0086924Y0020577D01*
X0085925Y0021575D02*
X0092876Y0021575D01*
X0079096Y0021575D02*
X0060335Y0021575D01*
X0061333Y0020577D02*
X0078098Y0020577D01*
X0077587Y0019578D02*
X0061843Y0019578D01*
X0062257Y0018580D02*
X0077174Y0018580D01*
X0077111Y0017581D02*
X0062320Y0017581D01*
X0062320Y0016583D02*
X0077111Y0016583D01*
X0077398Y0015584D02*
X0062032Y0015584D01*
X0061619Y0014586D02*
X0077812Y0014586D01*
X0078640Y0013587D02*
X0060791Y0013587D01*
X0059529Y0012589D02*
X0079902Y0012589D01*
X0054311Y0012589D02*
X0045749Y0012589D01*
X0047011Y0013587D02*
X0053049Y0013587D01*
X0052221Y0014586D02*
X0047839Y0014586D01*
X0048253Y0015584D02*
X0051808Y0015584D01*
X0051520Y0016583D02*
X0048541Y0016583D01*
X0048541Y0017581D02*
X0051520Y0017581D01*
X0051583Y0018580D02*
X0048477Y0018580D01*
X0048064Y0019578D02*
X0051997Y0019578D01*
X0052507Y0020577D02*
X0047554Y0020577D01*
X0046555Y0021575D02*
X0053506Y0021575D01*
D11*
X0157944Y0017353D03*
X0167944Y0017353D03*
X0035542Y0203298D03*
D12*
X0045542Y0203298D03*
X0055542Y0203298D03*
X0065542Y0203298D03*
X0075542Y0203298D03*
X0085542Y0203298D03*
X0095542Y0203298D03*
X0105542Y0203298D03*
X0115542Y0203298D03*
X0125542Y0203298D03*
X0135542Y0203298D03*
X0145542Y0203298D03*
X0155542Y0203298D03*
X0165542Y0203298D03*
X0175542Y0203298D03*
X0185542Y0203298D03*
X0195542Y0203298D03*
X0205542Y0203298D03*
X0215542Y0203298D03*
X0225542Y0203298D03*
X0225542Y0213298D03*
X0215542Y0213298D03*
X0205542Y0213298D03*
X0195542Y0213298D03*
X0185542Y0213298D03*
X0175542Y0213298D03*
X0165542Y0213298D03*
X0155542Y0213298D03*
X0145542Y0213298D03*
X0135542Y0213298D03*
X0125542Y0213298D03*
X0115542Y0213298D03*
X0105542Y0213298D03*
X0095542Y0213298D03*
X0085542Y0213298D03*
X0075542Y0213298D03*
X0065542Y0213298D03*
X0055542Y0213298D03*
X0045542Y0213298D03*
X0035542Y0213298D03*
X0236782Y0118652D03*
X0246782Y0118652D03*
D13*
X0135660Y0017353D03*
X0121881Y0017353D03*
X0096290Y0017353D03*
X0082511Y0017353D03*
X0056920Y0017353D03*
X0043141Y0017353D03*
D14*
X0236644Y0044912D03*
X0236644Y0052786D03*
D15*
X0239310Y0100030D03*
X0156133Y0113652D03*
X0124137Y0131526D03*
D16*
X0125137Y0141526D03*
X0124137Y0151526D03*
X0125137Y0161526D03*
X0123456Y0182707D03*
X0113456Y0182707D03*
X0103456Y0182707D03*
X0093456Y0182707D03*
X0083456Y0182707D03*
X0073456Y0182707D03*
X0056596Y0182707D03*
X0045196Y0182707D03*
X0080341Y0132552D03*
X0080341Y0114752D03*
X0105941Y0114752D03*
X0105941Y0132552D03*
X0156133Y0133652D03*
X0156133Y0123652D03*
X0238310Y0090030D03*
X0239310Y0080030D03*
X0238310Y0070030D03*
D17*
X0026211Y0163022D03*
X0016211Y0163022D03*
X0017211Y0173022D03*
X0027211Y0173022D03*
X0026211Y0183022D03*
X0016211Y0183022D03*
D18*
X0156133Y0186644D03*
X0183692Y0186644D03*
D19*
X0183692Y0178770D03*
X0183692Y0170896D03*
X0183692Y0163022D03*
X0156133Y0163022D03*
X0156133Y0170896D03*
X0156133Y0178770D03*
D20*
X0145798Y0170404D03*
X0154656Y0152196D03*
X0167944Y0157609D03*
X0169912Y0146290D03*
X0192550Y0143337D03*
X0198456Y0154164D03*
X0230936Y0164499D03*
X0235857Y0149735D03*
X0207806Y0189597D03*
X0221093Y0197963D03*
X0254066Y0194519D03*
X0150719Y0197963D03*
X0118731Y0177294D03*
X0090680Y0161054D03*
X0085267Y0161546D03*
X0077393Y0141369D03*
X0062137Y0147767D03*
X0059184Y0139893D03*
X0045404Y0133495D03*
X0038022Y0136940D03*
X0027196Y0137924D03*
X0006526Y0148751D03*
X0047865Y0125129D03*
X0062137Y0123652D03*
X0070011Y0115286D03*
X0084774Y0122668D03*
X0092648Y0114302D03*
X0098062Y0113318D03*
X0113810Y0129066D03*
X0093633Y0132019D03*
X0071487Y0100522D03*
X0087235Y0086743D03*
X0115286Y0075916D03*
X0126605Y0086251D03*
X0135956Y0085759D03*
X0156133Y0085267D03*
X0142353Y0112333D03*
X0141861Y0137432D03*
X0187629Y0100030D03*
X0186644Y0075916D03*
X0201900Y0056231D03*
X0212235Y0065581D03*
X0226999Y0031133D03*
X0186152Y0012432D03*
X0164007Y0005542D03*
X0147767Y0035070D03*
X0129066Y0035070D03*
X0129066Y0045896D03*
X0108889Y0044420D03*
X0089204Y0046881D03*
X0089204Y0034578D03*
X0068534Y0033593D03*
X0068534Y0046389D03*
X0050326Y0045896D03*
X0048849Y0034085D03*
X0033593Y0034578D03*
X0049833Y0005050D03*
X0089696Y0006034D03*
X0125621Y0006526D03*
X0047865Y0086251D03*
X0023751Y0108396D03*
X0056231Y0192550D03*
X0066566Y0193042D03*
X0080345Y0197963D03*
X0043928Y0195011D03*
X0005050Y0195995D03*
D21*
X0035542Y0203298D02*
X0035562Y0203377D01*
X0039991Y0207806D01*
X0110857Y0207806D01*
X0110857Y0208298D01*
X0120207Y0208298D01*
X0120207Y0214204D01*
X0124144Y0218141D01*
X0228475Y0218141D01*
X0229952Y0216664D01*
X0115542Y0203298D02*
X0115286Y0203377D01*
X0110857Y0207806D01*
X0103456Y0182707D02*
X0102983Y0182707D01*
X0098062Y0177786D01*
X0070011Y0177786D01*
X0068042Y0179755D01*
X0060660Y0179755D01*
X0057215Y0176310D01*
X0053278Y0176310D01*
X0047865Y0170896D01*
X0047865Y0166467D01*
X0043928Y0166467D01*
X0041959Y0168436D01*
X0041959Y0182707D01*
X0045196Y0182707D01*
X0049833Y0176802D02*
X0050326Y0176802D01*
X0056231Y0182707D01*
X0056596Y0182707D01*
X0030148Y0150719D02*
X0030148Y0087235D01*
X0020798Y0077885D01*
X0019814Y0077885D01*
X0013908Y0071979D01*
X0076900Y0092156D02*
X0100522Y0092156D01*
X0139893Y0092156D01*
X0061644Y0127589D02*
X0060660Y0128574D01*
X0037530Y0128574D01*
X0219125Y0053770D02*
X0227491Y0053770D01*
X0236349Y0044912D01*
X0236644Y0044912D01*
D22*
X0219125Y0053770D03*
X0214696Y0052786D03*
X0207806Y0052786D03*
X0184184Y0079853D03*
X0163515Y0097078D03*
X0146290Y0080345D03*
X0139893Y0092156D03*
X0128574Y0106428D03*
X0131034Y0108889D03*
X0100522Y0092156D03*
X0089696Y0089204D03*
X0076900Y0092156D03*
X0064105Y0103967D03*
X0054755Y0108889D03*
X0049833Y0106428D03*
X0061644Y0094617D03*
X0082314Y0106428D03*
X0089696Y0112333D03*
X0061644Y0127589D03*
X0062137Y0142845D03*
X0051802Y0142845D03*
X0045896Y0147767D03*
X0041959Y0147274D03*
X0041959Y0142353D03*
X0030148Y0150719D03*
X0039007Y0161054D03*
X0044912Y0169420D03*
X0048357Y0161054D03*
X0055247Y0168928D03*
X0054263Y0173357D03*
X0049833Y0176802D03*
X0067058Y0176802D03*
X0067550Y0161054D03*
X0072963Y0147767D03*
X0091172Y0145306D03*
X0118731Y0164991D03*
X0148259Y0159085D03*
X0173849Y0164499D03*
X0178770Y0152688D03*
X0208790Y0207806D03*
X0229952Y0216664D03*
X0086251Y0191566D03*
X0076900Y0195503D03*
X0037530Y0128574D03*
X0040483Y0123160D03*
X0038022Y0076408D03*
X0013908Y0071979D03*
D23*
X0038022Y0076408D02*
X0041959Y0080345D01*
X0146290Y0080345D01*
X0163515Y0097078D02*
X0040483Y0097078D01*
X0040483Y0123160D01*
X0054755Y0108889D02*
X0055739Y0109873D01*
X0125621Y0109873D01*
X0168436Y0152688D01*
X0178770Y0152688D01*
X0172865Y0159085D02*
X0185168Y0159085D01*
X0218633Y0192550D01*
X0218633Y0200424D01*
X0220109Y0201900D01*
X0220109Y0213219D01*
X0215680Y0213219D01*
X0215542Y0213298D01*
X0208790Y0207806D02*
X0170404Y0207806D01*
X0165975Y0203377D01*
X0165542Y0203298D01*
X0153180Y0198948D02*
X0151704Y0200424D01*
X0148751Y0200424D01*
X0147274Y0198948D01*
X0082806Y0198948D01*
X0081330Y0200424D01*
X0078869Y0200424D01*
X0076408Y0197963D01*
X0024243Y0197963D01*
X0011448Y0185168D01*
X0011448Y0173357D01*
X0016861Y0173357D01*
X0017211Y0173022D01*
X0017353Y0172865D01*
X0019814Y0170404D01*
X0021290Y0170404D01*
X0021290Y0161054D01*
X0024243Y0158101D01*
X0026211Y0158101D01*
X0041959Y0142353D01*
X0041959Y0147274D02*
X0033101Y0156133D01*
X0154656Y0156133D01*
X0158593Y0160070D01*
X0169420Y0160070D01*
X0173849Y0164499D01*
X0172865Y0159085D02*
X0140385Y0126605D01*
X0089696Y0126605D01*
X0089696Y0112333D01*
X0082314Y0106428D02*
X0128574Y0106428D01*
X0131034Y0108889D02*
X0150719Y0128574D01*
X0158101Y0128574D01*
X0229952Y0200424D01*
X0229952Y0213219D01*
X0226015Y0213219D01*
X0225542Y0213298D01*
X0215542Y0203298D02*
X0215188Y0202885D01*
X0206330Y0194026D01*
X0078869Y0194026D01*
X0073948Y0189105D01*
X0044912Y0189105D01*
X0032117Y0176310D01*
X0032117Y0167944D01*
X0025719Y0167944D01*
X0022274Y0171389D01*
X0022274Y0182707D01*
X0026211Y0182707D01*
X0026211Y0183022D01*
X0027688Y0174341D02*
X0027688Y0173357D01*
X0027211Y0173022D01*
X0027688Y0174341D02*
X0048849Y0195503D01*
X0076900Y0195503D01*
X0197963Y0195503D01*
X0205345Y0202885D01*
X0205542Y0203298D01*
X0195542Y0203298D02*
X0195503Y0202885D01*
X0191566Y0198948D01*
X0153180Y0198948D01*
X0155148Y0187629D02*
X0156133Y0186644D01*
X0155148Y0187629D02*
X0090188Y0187629D01*
X0086251Y0191566D01*
X0078377Y0187629D02*
X0083298Y0182707D01*
X0083456Y0182707D01*
X0078377Y0187629D02*
X0051802Y0187629D01*
X0051802Y0182707D01*
X0046881Y0177786D01*
X0044912Y0177786D01*
X0044912Y0169420D01*
X0048357Y0161054D02*
X0039007Y0161054D01*
X0032117Y0167944D01*
X0026211Y0163022D02*
X0033101Y0156133D01*
X0045896Y0147767D02*
X0048357Y0145306D01*
X0091172Y0145306D01*
X0076408Y0151211D02*
X0123652Y0151211D01*
X0124137Y0151526D01*
X0128574Y0164991D02*
X0126605Y0166959D01*
X0120700Y0166959D01*
X0118731Y0164991D01*
X0126605Y0168928D02*
X0055247Y0168928D01*
X0054263Y0173357D02*
X0152688Y0173357D01*
X0154164Y0174833D01*
X0171881Y0174833D01*
X0183692Y0186644D01*
X0183692Y0178770D02*
X0187629Y0174833D01*
X0187629Y0166959D01*
X0128574Y0166959D01*
X0126605Y0168928D01*
X0128574Y0164991D02*
X0142353Y0164991D01*
X0148259Y0159085D01*
X0156133Y0170896D02*
X0183692Y0170896D01*
X0156133Y0178770D02*
X0152196Y0174833D01*
X0069026Y0174833D01*
X0067058Y0176802D01*
X0067550Y0161054D02*
X0048357Y0161054D01*
X0051802Y0142845D02*
X0079853Y0114794D01*
X0080341Y0114752D01*
X0082314Y0106428D02*
X0049833Y0106428D01*
X0064105Y0103967D02*
X0160070Y0103967D01*
X0184184Y0079853D01*
X0211251Y0056231D02*
X0214696Y0052786D01*
X0211251Y0056231D02*
X0207806Y0052786D01*
X0211251Y0056231D02*
X0234873Y0079853D01*
X0239302Y0079853D01*
X0239310Y0080030D01*
X0124137Y0131526D02*
X0123652Y0131526D01*
X0117747Y0137432D01*
X0067550Y0137432D01*
X0062137Y0142845D01*
X0072963Y0147767D02*
X0076408Y0151211D01*
X0061644Y0094617D02*
X0067058Y0089204D01*
X0089696Y0089204D01*
M02*
