G75*
%MOIN*%
%OFA0B0*%
%FSLAX25Y25*%
%IPPOS*%
%LPD*%
%AMOC8*
5,1,8,0,0,1.08239X$1,22.5*
%
%ADD10C,0.11424*%
%ADD11R,0.06800X0.06800*%
%ADD12OC8,0.06800*%
%ADD13C,0.09000*%
%ADD14C,0.06699*%
%ADD15R,0.07800X0.07800*%
%ADD16C,0.07800*%
%ADD17OC8,0.07800*%
%ADD18R,0.05950X0.05950*%
%ADD19C,0.05950*%
D10*
X0016369Y0015385D03*
X0016369Y0208298D03*
X0244715Y0208298D03*
X0244715Y0015385D03*
D11*
X0167944Y0017353D03*
X0157944Y0017353D03*
X0035542Y0203298D03*
D12*
X0045542Y0203298D03*
X0055542Y0203298D03*
X0065542Y0203298D03*
X0075542Y0203298D03*
X0085542Y0203298D03*
X0095542Y0203298D03*
X0105542Y0203298D03*
X0115542Y0203298D03*
X0125542Y0203298D03*
X0135542Y0203298D03*
X0145542Y0203298D03*
X0155542Y0203298D03*
X0165542Y0203298D03*
X0175542Y0203298D03*
X0185542Y0203298D03*
X0195542Y0203298D03*
X0205542Y0203298D03*
X0215542Y0203298D03*
X0225542Y0203298D03*
X0225542Y0213298D03*
X0215542Y0213298D03*
X0205542Y0213298D03*
X0195542Y0213298D03*
X0185542Y0213298D03*
X0175542Y0213298D03*
X0165542Y0213298D03*
X0155542Y0213298D03*
X0145542Y0213298D03*
X0135542Y0213298D03*
X0125542Y0213298D03*
X0115542Y0213298D03*
X0105542Y0213298D03*
X0095542Y0213298D03*
X0085542Y0213298D03*
X0075542Y0213298D03*
X0065542Y0213298D03*
X0055542Y0213298D03*
X0045542Y0213298D03*
X0035542Y0213298D03*
X0236782Y0118652D03*
X0246782Y0118652D03*
D13*
X0135660Y0017353D03*
X0121881Y0017353D03*
X0096290Y0017353D03*
X0082511Y0017353D03*
X0056920Y0017353D03*
X0043141Y0017353D03*
D14*
X0236644Y0044912D03*
X0236644Y0052786D03*
D15*
X0239310Y0100030D03*
X0156133Y0113652D03*
X0124137Y0131526D03*
D16*
X0125137Y0141526D03*
X0124137Y0151526D03*
X0125137Y0161526D03*
X0123456Y0182707D03*
X0113456Y0182707D03*
X0103456Y0182707D03*
X0093456Y0182707D03*
X0083456Y0182707D03*
X0073456Y0182707D03*
X0056596Y0182707D03*
X0045196Y0182707D03*
X0080341Y0132552D03*
X0080341Y0114752D03*
X0105941Y0114752D03*
X0105941Y0132552D03*
X0156133Y0133652D03*
X0156133Y0123652D03*
X0238310Y0090030D03*
X0239310Y0080030D03*
X0238310Y0070030D03*
D17*
X0026211Y0163022D03*
X0016211Y0163022D03*
X0017211Y0173022D03*
X0027211Y0173022D03*
X0026211Y0183022D03*
X0016211Y0183022D03*
D18*
X0156133Y0186644D03*
X0183692Y0186644D03*
D19*
X0183692Y0178770D03*
X0183692Y0170896D03*
X0183692Y0163022D03*
X0156133Y0163022D03*
X0156133Y0170896D03*
X0156133Y0178770D03*
M02*
