G75*
%MOIN*%
%OFA0B0*%
%FSLAX25Y25*%
%IPPOS*%
%LPD*%
%AMOC8*
5,1,8,0,0,1.08239X$1,22.5*
%
%ADD10C,0.11624*%
%ADD11R,0.06600X0.06600*%
%ADD12OC8,0.06600*%
%ADD13R,0.09261X0.02962*%
%ADD14R,0.03200X0.08600*%
%ADD15C,0.09200*%
%ADD16R,0.05718X0.05324*%
%ADD17R,0.05324X0.05718*%
%ADD18R,0.05324X0.03750*%
%ADD19R,0.06899X0.12411*%
%ADD20R,0.19600X0.23100*%
%ADD21R,0.08000X0.08000*%
%ADD22C,0.08000*%
%ADD23R,0.03080X0.03868*%
%ADD24R,0.04931X0.04537*%
%ADD25R,0.04537X0.04931*%
%ADD26OC8,0.08000*%
%ADD27R,0.05600X0.02800*%
%ADD28R,0.02800X0.05600*%
%ADD29R,0.05600X0.05600*%
%ADD30C,0.05600*%
%ADD31C,0.01361*%
%ADD32C,0.04600*%
%ADD33R,0.03750X0.05324*%
%ADD34R,0.11230X0.10639*%
%ADD35R,0.10639X0.11230*%
%ADD36C,0.02372*%
%ADD37R,0.13760X0.06040*%
%ADD38R,0.02569X0.03159*%
%ADD39R,0.10100X0.10100*%
%ADD40C,0.10100*%
D10*
X0015877Y0015280D03*
X0015877Y0208193D03*
X0244223Y0208193D03*
X0244223Y0015280D03*
D11*
X0167452Y0017248D03*
X0157452Y0017248D03*
X0035050Y0203193D03*
D12*
X0035050Y0213193D03*
X0045050Y0213193D03*
X0055050Y0213193D03*
X0065050Y0213193D03*
X0075050Y0213193D03*
X0085050Y0213193D03*
X0095050Y0213193D03*
X0105050Y0213193D03*
X0115050Y0213193D03*
X0125050Y0213193D03*
X0135050Y0213193D03*
X0145050Y0213193D03*
X0155050Y0213193D03*
X0165050Y0213193D03*
X0175050Y0213193D03*
X0185050Y0213193D03*
X0195050Y0213193D03*
X0205050Y0213193D03*
X0215050Y0213193D03*
X0225050Y0213193D03*
X0225050Y0203193D03*
X0215050Y0203193D03*
X0205050Y0203193D03*
X0195050Y0203193D03*
X0185050Y0203193D03*
X0175050Y0203193D03*
X0165050Y0203193D03*
X0155050Y0203193D03*
X0145050Y0203193D03*
X0135050Y0203193D03*
X0125050Y0203193D03*
X0115050Y0203193D03*
X0105050Y0203193D03*
X0095050Y0203193D03*
X0085050Y0203193D03*
X0075050Y0203193D03*
X0065050Y0203193D03*
X0055050Y0203193D03*
X0045050Y0203193D03*
X0226448Y0154965D03*
X0236448Y0154965D03*
D13*
X0244184Y0165791D03*
X0244184Y0170791D03*
X0244184Y0175791D03*
X0244184Y0180791D03*
X0217963Y0180791D03*
X0217963Y0175791D03*
X0217963Y0170791D03*
X0217963Y0165791D03*
D14*
X0135581Y0100214D03*
X0130581Y0100214D03*
X0125581Y0100214D03*
X0120581Y0100214D03*
X0096211Y0100214D03*
X0091211Y0100214D03*
X0086211Y0100214D03*
X0081211Y0100214D03*
X0056841Y0100214D03*
X0051841Y0100214D03*
X0046841Y0100214D03*
X0041841Y0100214D03*
X0041841Y0076014D03*
X0046841Y0076014D03*
X0051841Y0076014D03*
X0056841Y0076014D03*
X0081211Y0076014D03*
X0086211Y0076014D03*
X0091211Y0076014D03*
X0096211Y0076014D03*
X0120581Y0076014D03*
X0125581Y0076014D03*
X0130581Y0076014D03*
X0135581Y0076014D03*
D15*
X0135168Y0017248D03*
X0121389Y0017248D03*
X0095798Y0017248D03*
X0082019Y0017248D03*
X0056428Y0017248D03*
X0042648Y0017248D03*
D16*
X0041467Y0040807D03*
X0041467Y0048807D03*
X0057215Y0048807D03*
X0057215Y0040807D03*
X0080837Y0040807D03*
X0080837Y0048807D03*
X0096585Y0048807D03*
X0096585Y0040807D03*
X0120207Y0040807D03*
X0120207Y0048807D03*
X0135956Y0048807D03*
X0135956Y0040807D03*
D17*
X0132081Y0060555D03*
X0124081Y0060555D03*
X0092711Y0060555D03*
X0084711Y0060555D03*
X0053341Y0060555D03*
X0045341Y0060555D03*
D18*
X0065089Y0084079D03*
X0065089Y0091165D03*
X0104459Y0091657D03*
X0104459Y0084571D03*
X0143830Y0083587D03*
X0143830Y0090673D03*
D19*
X0201782Y0067209D03*
X0219735Y0067209D03*
D20*
X0210759Y0094366D03*
D21*
X0238818Y0099925D03*
X0240778Y0053181D03*
X0155641Y0113547D03*
D22*
X0155641Y0123547D03*
X0155641Y0133547D03*
X0122963Y0182602D03*
X0112963Y0182602D03*
X0102963Y0182602D03*
X0092963Y0182602D03*
X0082963Y0182602D03*
X0072963Y0182602D03*
X0056104Y0182602D03*
X0044704Y0182602D03*
X0225518Y0135892D03*
X0225518Y0118092D03*
X0251118Y0118092D03*
X0251118Y0135892D03*
X0237818Y0089925D03*
X0238818Y0079925D03*
X0237818Y0069925D03*
X0240778Y0042181D03*
D23*
X0215286Y0056618D03*
X0206231Y0056618D03*
D24*
X0206231Y0032996D03*
X0199538Y0032996D03*
X0201999Y0165870D03*
X0208692Y0165870D03*
X0208692Y0175713D03*
X0201999Y0175713D03*
X0201507Y0185555D03*
X0208200Y0185555D03*
X0122570Y0166362D03*
X0115877Y0166362D03*
X0102393Y0166362D03*
X0095700Y0166362D03*
X0027589Y0155535D03*
X0020896Y0155535D03*
D25*
X0067058Y0144118D03*
X0067058Y0137425D03*
X0065089Y0121480D03*
X0065089Y0114787D03*
X0085267Y0132504D03*
X0085267Y0139197D03*
X0080345Y0152189D03*
X0080345Y0158882D03*
X0134971Y0161343D03*
X0134971Y0154650D03*
X0249637Y0153469D03*
X0249637Y0146776D03*
X0218633Y0048154D03*
X0218633Y0041461D03*
X0206822Y0041461D03*
X0206822Y0048154D03*
X0195011Y0048154D03*
X0195011Y0041461D03*
D26*
X0021306Y0177839D03*
X0011306Y0177839D03*
X0010306Y0167839D03*
X0020306Y0167839D03*
X0020306Y0187839D03*
X0010306Y0187839D03*
D27*
X0096418Y0147366D03*
X0096418Y0144217D03*
X0096418Y0141067D03*
X0096418Y0137917D03*
X0096418Y0134768D03*
X0096418Y0131618D03*
X0096418Y0128469D03*
X0096418Y0125319D03*
X0130218Y0125319D03*
X0130218Y0128469D03*
X0130218Y0131618D03*
X0130218Y0134768D03*
X0130218Y0137917D03*
X0130218Y0141067D03*
X0130218Y0144217D03*
X0130218Y0147366D03*
D28*
X0124341Y0153243D03*
X0121192Y0153243D03*
X0118042Y0153243D03*
X0114893Y0153243D03*
X0111743Y0153243D03*
X0108593Y0153243D03*
X0105444Y0153243D03*
X0102294Y0153243D03*
X0102294Y0119443D03*
X0105444Y0119443D03*
X0108593Y0119443D03*
X0111743Y0119443D03*
X0114893Y0119443D03*
X0118042Y0119443D03*
X0121192Y0119443D03*
X0124341Y0119443D03*
D29*
X0155641Y0186539D03*
X0183200Y0186539D03*
D30*
X0183200Y0178665D03*
X0183200Y0170791D03*
X0183200Y0162917D03*
X0155641Y0162917D03*
X0155641Y0170791D03*
X0155641Y0178665D03*
D31*
X0072583Y0156908D02*
X0069407Y0156908D01*
X0069407Y0160084D01*
X0072583Y0160084D01*
X0072583Y0156908D01*
X0072583Y0158268D02*
X0069407Y0158268D01*
X0069407Y0159628D02*
X0072583Y0159628D01*
X0072583Y0150003D02*
X0069407Y0150003D01*
X0069407Y0153179D01*
X0072583Y0153179D01*
X0072583Y0150003D01*
X0072583Y0151363D02*
X0069407Y0151363D01*
X0069407Y0152723D02*
X0072583Y0152723D01*
X0035181Y0073470D02*
X0032005Y0073470D01*
X0035181Y0073470D02*
X0035181Y0070294D01*
X0032005Y0070294D01*
X0032005Y0073470D01*
X0032005Y0071654D02*
X0035181Y0071654D01*
X0035181Y0073014D02*
X0032005Y0073014D01*
X0027307Y0073470D02*
X0024131Y0073470D01*
X0027307Y0073470D02*
X0027307Y0070294D01*
X0024131Y0070294D01*
X0024131Y0073470D01*
X0024131Y0071654D02*
X0027307Y0071654D01*
X0027307Y0073014D02*
X0024131Y0073014D01*
X0019433Y0073470D02*
X0016257Y0073470D01*
X0019433Y0073470D02*
X0019433Y0070294D01*
X0016257Y0070294D01*
X0016257Y0073470D01*
X0016257Y0071654D02*
X0019433Y0071654D01*
X0019433Y0073014D02*
X0016257Y0073014D01*
X0016257Y0066564D02*
X0019433Y0066564D01*
X0019433Y0063388D01*
X0016257Y0063388D01*
X0016257Y0066564D01*
X0016257Y0064748D02*
X0019433Y0064748D01*
X0019433Y0066108D02*
X0016257Y0066108D01*
X0024131Y0066564D02*
X0027307Y0066564D01*
X0027307Y0063388D01*
X0024131Y0063388D01*
X0024131Y0066564D01*
X0024131Y0064748D02*
X0027307Y0064748D01*
X0027307Y0066108D02*
X0024131Y0066108D01*
X0032005Y0066564D02*
X0035181Y0066564D01*
X0035181Y0063388D01*
X0032005Y0063388D01*
X0032005Y0066564D01*
X0032005Y0064748D02*
X0035181Y0064748D01*
X0035181Y0066108D02*
X0032005Y0066108D01*
X0007130Y0055753D02*
X0003954Y0055753D01*
X0007130Y0055753D02*
X0007130Y0052577D01*
X0003954Y0052577D01*
X0003954Y0055753D01*
X0003954Y0053937D02*
X0007130Y0053937D01*
X0007130Y0055297D02*
X0003954Y0055297D01*
X0003954Y0048848D02*
X0007130Y0048848D01*
X0007130Y0045672D01*
X0003954Y0045672D01*
X0003954Y0048848D01*
X0003954Y0047032D02*
X0007130Y0047032D01*
X0007130Y0048392D02*
X0003954Y0048392D01*
D32*
X0016861Y0034965D03*
X0009971Y0068429D03*
X0189597Y0144709D03*
X0232412Y0031520D03*
D33*
X0234479Y0187031D03*
X0227393Y0187031D03*
D34*
X0207314Y0142917D03*
X0207314Y0117957D03*
X0160070Y0074020D03*
X0160070Y0049059D03*
D35*
X0193849Y0018232D03*
X0218810Y0018232D03*
D36*
X0094420Y0114778D02*
X0094420Y0120506D01*
X0089696Y0120506D02*
X0089696Y0114778D01*
X0084971Y0114778D02*
X0084971Y0120506D01*
D37*
X0089686Y0117632D03*
D38*
X0029459Y0051697D03*
X0026310Y0051697D03*
X0023160Y0051697D03*
X0020011Y0051697D03*
X0020011Y0046776D03*
X0023160Y0046776D03*
X0026310Y0046776D03*
X0029459Y0046776D03*
D39*
X0037530Y0141756D03*
D40*
X0037530Y0127976D03*
X0037530Y0114197D03*
M02*
