%
M48
M72
T01C0.0130
T02C0.0136
T03C0.0150
T04C0.0315
T05C0.0394
T06C0.0400
T07C0.0472
T08C0.1102
%
T01
X2100Y5520
X3030Y6180
X3840Y7140
X4470Y6510
X5190Y6510
X5190Y8220
X5430Y9450
X6210Y10020
X6210Y10530
X7800Y10530
X7110Y12210
X7860Y14280
X8850Y14940
X8490Y15630
X10170Y16230
X10980Y16350
X11220Y17250
X12690Y16800
X13200Y16800
X13230Y17340
X13950Y16470
X14100Y17460
X13080Y19320
X10530Y19320
X13470Y21840
X18840Y19440
X19770Y16830
X20280Y15090
X22230Y14610
X22440Y17580
X16350Y12060
X16350Y10950
X15000Y10410
X14280Y11130
X14280Y11580
X11760Y11490
X11940Y12540
X11310Y12600
X10770Y13140
X10500Y13410
X11100Y13650
X11160Y14850
X11490Y14850
X14280Y14970
X14430Y14010
X9780Y11520
X9810Y10890
X9960Y10020
X13320Y9450
X17400Y9780
X18240Y8760
X18420Y8460
X18900Y7920
X19410Y7740
X19020Y8640
X19650Y6270
X19170Y5550
X21540Y5190
X22290Y11220
X6300Y14700
X2580Y13710
X5850Y18990
X2820Y7950
T02
X2178Y7827
X4147Y8319
X5771Y9353
X7493Y11124
X8970Y11124
X10052Y10534
X9708Y9353
X8133Y8319
X12070Y8319
X13694Y9402
X12956Y11370
X13251Y11912
X11824Y13241
X12513Y13782
X13497Y13782
X12759Y15111
X13940Y15455
X15564Y15750
X16105Y16341
X18320Y19244
X17926Y20918
X17533Y21902
X19058Y20918
X19895Y21754
X20190Y19491
X22060Y18949
X22503Y19737
X23094Y20327
X23881Y18752
X25161Y16587
X23241Y13634
X23979Y12601
X21420Y12748
X19403Y12798
X17434Y11518
X17286Y10928
X16598Y10091
X14826Y11321
X14875Y12355
X16351Y12404
X19944Y15750
X15515Y19737
X15958Y20672
X12907Y21804
X12070Y20967
X9905Y20918
X9954Y21705
X9954Y19491
X7493Y19737
X5968Y20918
X5033Y20918
X5033Y21754
X5968Y22050
X4983Y19786
X3261Y18014
X4147Y16587
X3753Y15012
X2326Y13930
X702Y15012
X3162Y12158
X2326Y11272
X6657Y15504
X5869Y16882
X7198Y16981
X8527Y17178
X9659Y15652
X10446Y14815
X10643Y14323
X10151Y14126
X10151Y13487
X9117Y13487
X9166Y14126
X8527Y14422
X8477Y15209
X11135Y14372
X11873Y16046
X8477Y12650
X8970Y12404
X9905Y12207
X15170Y4924
X16844Y4924
X21076Y5662
X21371Y6695
X21912Y2709
X21912Y987
X3310Y4678
X1637Y4678
X1538Y19244
X505Y19343
X2621Y19687
X2720Y21902
T03
X19058Y13536
X22503Y3447
X997Y3496
X948Y6154
T04
X15564Y16292
X15564Y17079
X15564Y17867
X15564Y18654
X18320Y18654
X18320Y17867
X18320Y17079
X18320Y16292
T05
X15564Y13355
X15564Y12355
X15564Y11355
X13517Y1725
X12139Y1725
X9580Y1725
X8202Y1725
X5643Y1725
X4265Y1725
T06
X15745Y1725
X16745Y1725
X23782Y6993
X23882Y7993
X23782Y8993
X23882Y9993
X25112Y11809
X25112Y13589
X23645Y15496
X22645Y15496
X22552Y13589
X22552Y11809
X24078Y5318
X24078Y4218
X12296Y18260
X11296Y18260
X10296Y18260
X9296Y18260
X8296Y18260
X7296Y18260
X5610Y18260
X4470Y18260
X2131Y17784
X1131Y17784
X1031Y16784
X2031Y16784
X2031Y18784
X1031Y18784
X3505Y20319
X4505Y20319
X5505Y20319
X6505Y20319
X7505Y20319
X8505Y20319
X9505Y20319
X10505Y20319
X11505Y20319
X12505Y20319
X13505Y20319
X14505Y20319
X15505Y20319
X16505Y20319
X17505Y20319
X18505Y20319
X19505Y20319
X20505Y20319
X21505Y20319
X22505Y20319
X22505Y21319
X21505Y21319
X20505Y21319
X19505Y21319
X18505Y21319
X17505Y21319
X16505Y21319
X15505Y21319
X14505Y21319
X13505Y21319
X12505Y21319
X11505Y21319
X10505Y21319
X9505Y21319
X8505Y21319
X7505Y21319
X6505Y21319
X5505Y21319
X4505Y21319
X3505Y21319
T07
X3753Y14176
X3753Y12798
X3753Y11420
T08
X1588Y1528
X1588Y20819
X24422Y20819
X24422Y1528
M30
